<svg width="32" height="32" viewBox="0 0 32 32" fill="none" xmlns="http://www.w3.org/2000/svg">
<g id="icons">
<path id="Vector" d="M25.3333 14.6665H6.66667C5.19391 14.6665 4 15.8604 4 17.3332V26.6665C4 28.1393 5.19391 29.3332 6.66667 29.3332H25.3333C26.8061 29.3332 28 28.1393 28 26.6665V17.3332C28 15.8604 26.8061 14.6665 25.3333 14.6665Z" stroke="#122023" stroke-width="2" stroke-linecap="round" stroke-linejoin="round"/>
<path id="Vector_2" d="M9.33398 14.6665V9.33317C9.33398 7.56506 10.0364 5.86937 11.2866 4.61913C12.5368 3.36888 14.2325 2.6665 16.0007 2.6665C17.7688 2.6665 19.4645 3.36888 20.7147 4.61913C21.9649 5.86937 22.6673 7.56506 22.6673 9.33317V14.6665" stroke="#122023" stroke-width="2" stroke-linecap="round" stroke-linejoin="round"/>
</g>
</svg>
