<svg width="32" height="32" viewBox="0 0 32 32" fill="none" xmlns="http://www.w3.org/2000/svg">
<g id="icons">
<path id="Vector" d="M26.666 9.3335H5.33268C3.85992 9.3335 2.66602 10.5274 2.66602 12.0002V25.3335C2.66602 26.8063 3.85992 28.0002 5.33268 28.0002H26.666C28.1388 28.0002 29.3327 26.8063 29.3327 25.3335V12.0002C29.3327 10.5274 28.1388 9.3335 26.666 9.3335Z" stroke="#fff" stroke-width="2" stroke-linecap="round" stroke-linejoin="round"/>
<path id="Vector_2" d="M21.3327 28V6.66667C21.3327 5.95942 21.0517 5.28115 20.5516 4.78105C20.0515 4.28095 19.3733 4 18.666 4H13.3327C12.6254 4 11.9472 4.28095 11.4471 4.78105C10.947 5.28115 10.666 5.95942 10.666 6.66667V28" stroke="#fff" stroke-width="2" stroke-linecap="round" stroke-linejoin="round"/>
</g>
</svg>
