<svg width="32" height="32" viewBox="0 0 32 32" fill="none" xmlns="http://www.w3.org/2000/svg">
<g id="icons">
<path id="Vector" d="M26.666 9.33325H5.33268C3.85992 9.33325 2.66602 10.5272 2.66602 11.9999V25.3333C2.66602 26.806 3.85992 27.9999 5.33268 27.9999H26.666C28.1388 27.9999 29.3327 26.806 29.3327 25.3333V11.9999C29.3327 10.5272 28.1388 9.33325 26.666 9.33325Z" stroke="#122023" stroke-width="2" stroke-linecap="round" stroke-linejoin="round"/>
<path id="Vector_2" d="M21.3327 28V6.66667C21.3327 5.95942 21.0517 5.28115 20.5516 4.78105C20.0515 4.28095 19.3733 4 18.666 4H13.3327C12.6254 4 11.9472 4.28095 11.4471 4.78105C10.947 5.28115 10.666 5.95942 10.666 6.66667V28" stroke="#122023" stroke-width="2" stroke-linecap="round" stroke-linejoin="round"/>
</g>
</svg>
