<svg width="32" height="32" viewBox="0 0 32 32" fill="none" xmlns="http://www.w3.org/2000/svg">
<g id="icons">
<path id="Vector" d="M27.7862 6.14715C27.1052 5.46582 26.2966 4.92534 25.4066 4.55659C24.5167 4.18784 23.5628 3.99805 22.5995 3.99805C21.6362 3.99805 20.6823 4.18784 19.7924 4.55659C18.9024 4.92534 18.0939 5.46582 17.4128 6.14715L15.9995 7.56048L14.5862 6.14715C13.2106 4.77156 11.3449 3.99876 9.39951 3.99876C7.45413 3.99876 5.58843 4.77156 4.21284 6.14715C2.83725 7.52274 2.06445 9.38844 2.06445 11.3338C2.06445 13.2792 2.83725 15.1449 4.21284 16.5205L5.62617 17.9338L15.9995 28.3071L26.3728 17.9338L27.7862 16.5205C28.4675 15.8395 29.008 15.0309 29.3767 14.141C29.7455 13.251 29.9353 12.2971 29.9353 11.3338C29.9353 10.3705 29.7455 9.41662 29.3767 8.52667C29.008 7.63673 28.4675 6.82816 27.7862 6.14715Z" stroke="#ffffff" stroke-width="2" stroke-linecap="round" stroke-linejoin="round"/>
</g>
</svg>
