<svg width="32" height="32" viewBox="0 0 32 32" fill="none" xmlns="http://www.w3.org/2000/svg">
<g id="icons">
<path id="Vector" d="M27.7862 6.14666C27.1052 5.46533 26.2966 4.92485 25.4066 4.5561C24.5167 4.18735 23.5628 3.99756 22.5995 3.99756C21.6362 3.99756 20.6823 4.18735 19.7924 4.5561C18.9024 4.92485 18.0939 5.46533 17.4128 6.14666L15.9995 7.55999L14.5862 6.14666C13.2106 4.77107 11.3449 3.99827 9.39951 3.99827C7.45413 3.99827 5.58843 4.77107 4.21284 6.14666C2.83725 7.52225 2.06445 9.38795 2.06445 11.3333C2.06445 13.2787 2.83725 15.1444 4.21284 16.52L5.62617 17.9333L15.9995 28.3067L26.3728 17.9333L27.7862 16.52C28.4675 15.839 29.008 15.0304 29.3767 14.1405C29.7455 13.2505 29.9353 12.2966 29.9353 11.3333C29.9353 10.37 29.7455 9.41613 29.3767 8.52619C29.008 7.63624 28.4675 6.82767 27.7862 6.14666Z" stroke="#122023" stroke-width="2" stroke-linecap="round" stroke-linejoin="round"/>
</g>
</svg>
