<svg width="54" height="54" viewBox="0 0 54 54" fill="none" xmlns="http://www.w3.org/2000/svg">
<g id="brandico:mastercard">
<g id="Vector">
<path d="M3 11C1.61274 11 0 12.6085 0 14V42C0 43.3912 1.6129 45 3 45H51C52.3873 45 54 43.3915 54 42V14C54 12.6088 52.3871 11 51 11H3ZM18 15C21.0824 15 23.7778 16.2041 26 18C24.1304 19.6772 22.688 21.5024 22 24H23C23.635 21.9395 24.4795 20.4548 26 19C27.5205 20.4548 29.3649 21.9395 30 24H31C30.3024 21.5155 28.8682 19.6663 27 18C29.2264 16.1813 31.9043 15 35 15C42.1437 15 48 20.8367 48 28C48 35.1633 42.1437 41 35 41C31.8529 41 29.2426 39.8735 27 38C29.0061 36.2502 30.3237 33.6686 31 31H30C29.3995 33.2398 27.6282 35.4422 26 37C24.3719 35.4422 23.6006 33.2398 23 31H22C22.6803 33.6299 24.0241 36.2667 26 38C23.7615 39.8503 21.1339 41 18 41C10.8563 41 5 35.1286 5 28C5 20.8714 10.8563 15 18 15ZM34 24C32.4458 24 31 25.4422 31 28C31 29.6961 31.3934 31 33 31C33.4542 31.0002 34 31 34 31L35 29C35 29 34.4533 30 34 30C33.045 30 32 28.7914 32 28C32 26.3946 33.0852 26 34 26C34.686 26 35 26 35 26V25C35 25 34.6998 24 34 24ZM47 24H46L45 26C45 26 44.7946 25 44 25C42.7645 25 42 27.3077 42 29C42 30.0924 41.8771 31 43 31C43.8077 31 45 30 45 30V31H46L47 24ZM8 24L7 31H8L9 26V31H10L12 26L11 31H13L14 24H12L10 28V24H8ZM22 25C21.9707 25.0295 21 29.4681 21 30C21 30.7875 21.3805 31.0057 22 31C22.4439 30.9962 22.841 31.0468 23 31C23 31 23.0166 30.9955 23 31V30C22.9092 30 23.1179 30 23 30C22.5375 30 21.9706 29.183 22 29L23 27H24V26H23V25H22ZM38 25C37.0943 25 36 26 36 26V27C36 27 36.1337 27 37 27C37.4918 27 38 26.5895 38 27C38 27 38 27.2494 38 27C38 27 37.1798 27 37 27C35.8578 27 35 27.4903 35 29C35 30.1896 35.5121 31 36 31C36.9319 31 37.9787 30.0019 38 30V31H39V27C39.0002 25.4149 38.4676 25 38 25ZM16 25C15.091 25 14 26 14 26V27C14 27 14.1306 27 15 27C15.4937 27 16 26.5897 16 27C16 27 16 27.2493 16 27C16 27 16.1803 27 16 27C14.8534 27 13 27.4911 13 29C13 30.1889 14.5103 31 15 31C15.9353 31 15.9785 30.0018 16 30V31H17L18 27C18 25.4158 16.4694 25 16 25ZM20 25C19.0238 25 18 25.6507 18 27C18 28.5288 20 28.356 20 29C20 29.4299 19.3557 30 19 30C18.3844 30 18.002 28.9898 18 29L17 31C17.0319 31.0099 17.893 31 19 31C19.2972 31 21 30.7743 21 29C21 27.3412 19 27.6664 19 27C19 26.6682 19.5314 27 20 27C20.1861 27 21 27 21 27V26C21 26.0002 20.7542 25 20 25ZM26 25C24.6435 25.0003 24 27.348 24 29C24 30.9068 24.9279 31 26 31C26.9896 31 27 31 27 31L28 29C28 29 26.6799 30 26 30C24.5514 30 25 29 25 29H28C28 29 28 27.3563 28 27C28 26.111 27.4812 25 26 25ZM31 25C30.3889 25 30 26 30 26H29L28 31H29C29.3972 28.7704 30.0522 26.6686 31 27C31.1659 26.137 30.8189 25.3652 31 25C31.1782 25 31 25 31 25ZM42 25C41.3889 25 41 26 41 26H40L39 31H41C41.3973 28.7704 41.0525 26.6686 42 27C42.1662 26.137 41.819 25.3652 42 25C42.1781 25 42 25 42 25ZM26 27C26.7704 27 27 27.9295 27 28H25C25 27.91 25.2559 27 26 27ZM44 27C44.4903 26.9998 45 27.2187 45 28C45 28.7089 44.7386 29 44 29C43.5098 29 43 28.6363 43 28C43 26.9595 43.4015 27 44 27ZM38 28C37.9663 27.991 38.2 28.0003 38 28C37.9951 27.9992 37.9807 28.9968 38 29C38.0253 29.2325 37.7998 30 37 30C36.5876 30 36 29.194 36 29C36 28.6217 37.027 28 38 28ZM16 28C16.2272 28.0003 15.9617 28.9936 16 29C16.0254 29.2324 15.8026 30 15 30C14.586 30 15 29.1939 15 29C15 28.6219 15.0231 28 16 28Z" fill="#122023"/>
</g>
</g>
</svg>
