<svg width="550" height="460" fill="none" xmlns="http://www.w3.org/2000/svg"><path d="M259.196 403.746c-30.719 0-49.183-27.255-55.738-51.225l-.221-.842a9.034 9.034 0 0 1 3.135-9.746 9.025 9.025 0 0 1 14.322 5.206l.166.621c4.982 18.243 18.547 39.095 40.31 37.894a29.185 29.185 0 0 0 21.362-10.419c11.937-13.689 17.278-43.456 16.091-58.47a7.216 7.216 0 0 1 13.684-3.941c.417.875.654 1.826.695 2.795 1.38 16.712-.441 52.634-16.877 71.471a47.077 47.077 0 0 1-33.934 16.56 43.982 43.982 0 0 1-2.995.096z" fill="#FDF8F1"/><mask id="a" style="mask-type:luminance" maskUnits="userSpaceOnUse" x="202" y="308" width="112" height="96"><path d="M259.196 403.746c-30.719 0-49.183-27.255-55.738-51.225l-.221-.842a9.034 9.034 0 0 1 3.135-9.746 9.025 9.025 0 0 1 14.322 5.206l.166.621c4.982 18.243 18.547 39.095 40.31 37.894a29.185 29.185 0 0 0 21.362-10.419c11.937-13.689 17.278-43.456 16.091-58.47a7.216 7.216 0 0 1 13.684-3.941c.417.875.654 1.826.695 2.795 1.38 16.712-.441 52.634-16.877 71.471a47.077 47.077 0 0 1-33.934 16.56 43.982 43.982 0 0 1-2.995.096z" fill="#fff"/></mask><g mask="url(#a)"><path d="M305.233 308.995a7.216 7.216 0 0 0-6.61 7.77c.58 7.328-.4 18.161-2.939 28.98a31.871 31.871 0 0 1 10.722 1.38 57.076 57.076 0 0 1-10.543 28.8c-13.4 18.617-33.492 24.564-49.128 22.329-6.996-.994-15.014-4.665-21.762-8.432a49.113 49.113 0 0 0 34.224 13.952c.979 0 1.987 0 2.994-.083a47.073 47.073 0 0 0 33.934-16.56c16.436-18.837 18.203-54.758 16.878-71.47a7.204 7.204 0 0 0-7.77-6.666z" fill="#B8BCBD"/><path opacity=".5" d="M305.233 308.995a7.216 7.216 0 0 0-6.61 7.77c.58 7.328-.4 18.161-2.939 28.98a31.871 31.871 0 0 1 10.722 1.38 57.076 57.076 0 0 1-10.543 28.8c-13.4 18.617-33.492 24.564-49.128 22.329-6.996-.994-15.014-4.665-21.762-8.432a49.113 49.113 0 0 0 34.224 13.952c.979 0 1.987 0 2.994-.083a47.073 47.073 0 0 0 33.934-16.56c16.436-18.837 18.203-54.758 16.878-71.47a7.204 7.204 0 0 0-7.77-6.666z" fill="#FDF8F1"/></g><path d="M259.196 403.746c-30.719 0-49.183-27.255-55.738-51.225l-.221-.842a9.034 9.034 0 0 1 3.135-9.746 9.025 9.025 0 0 1 14.322 5.206l.166.621c4.982 18.243 18.547 39.095 40.31 37.894a29.185 29.185 0 0 0 21.362-10.419c11.937-13.689 17.278-43.456 16.091-58.47a7.216 7.216 0 0 1 13.684-3.941c.417.875.654 1.826.695 2.795 1.38 16.712-.441 52.634-16.877 71.471a47.077 47.077 0 0 1-33.934 16.56 43.982 43.982 0 0 1-2.995.096z" stroke="#122023" stroke-width="1.113" stroke-linecap="round" stroke-linejoin="round"/><path d="M241.477 385.075c.731-3.381-7.355 1.904-14.131 6.831a52.86 52.86 0 0 0 8.059 5.616c2.415-3.933 5.368-9.19 6.072-12.447zM259.196 403.746c.98 0 1.987 0 2.995-.083a52.282 52.282 0 0 0 8.707-1.228c-3.808-4.968-9.052-11.537-10.557-12.033-1.725-.58-5.05 7.879-6.9 13.013a49.19 49.19 0 0 0 5.755.331zM220.86 347.76l-.166-.621a9.015 9.015 0 0 0-4.098-5.753 9.016 9.016 0 0 0-6.987-1.039 9.025 9.025 0 0 0-6.372 11.332l.221.842a88.426 88.426 0 0 0 10.488 23.832l16.436-7.824a68.76 68.76 0 0 1-9.522-20.769zM296.125 387.09a46.662 46.662 0 0 0 3.505-4.61c-5.216-1.78-13.027-4.236-15.925-3.974-3.436.317 1.228 11.357 3.629 16.56a50.78 50.78 0 0 0 8.791-7.976zM296.415 357.599c-.552 1.104 6.196 6.017 10.75 9.177a103.964 103.964 0 0 0 3.477-13.138c-5.52 1.104-13.689 2.885-14.227 3.961zM312.879 337.189c.304-3.933.456-7.687.469-11.137-4.747 2.608-10.377 6.224-10.377 8.598 0 2.373 5.271 2.663 9.908 2.539z" fill="#B8BCBD" stroke="#122023" stroke-width="1.113" stroke-linecap="round" stroke-linejoin="round"/><path d="M238.579 230.418s-13.4 38.806-6.183 69a59.03 59.03 0 0 0 33.658 40.172s-19.582 6.9-15.18 17.512c4.403 10.612 21.28 3.781 26.786.345s12.42-13.731 13.386-20.603c.614-3.511.846-7.079.69-10.64 0 0 22.315-2.401 37.426-14.766 0 0 13.4 10.64 23.018 8.584 9.619-2.057 23.35-19.238 21.97-34.68-1.38-15.442-10.281-15.428-15.718-13.082a22.067 22.067 0 0 0-7.563 4.802s7.894-9.66 0-23.004a30.012 30.012 0 0 0-21.983-14.421s-4.14-21.984-16.477-30.222c-12.338-8.239-56.318-16.767-73.83 21.003z" fill="#FDF8F1"/><mask id="b" style="mask-type:luminance" maskUnits="userSpaceOnUse" x="230" y="202" width="145" height="161"><path d="M238.579 230.418s-13.4 38.806-6.183 69a59.03 59.03 0 0 0 33.658 40.172s-19.582 6.9-15.18 17.512c4.403 10.612 21.28 3.781 26.786.345s12.42-13.731 13.386-20.603c.614-3.511.846-7.079.69-10.64 0 0 22.315-2.401 37.426-14.766 0 0 13.4 10.64 23.018 8.584 9.619-2.057 23.35-19.238 21.97-34.68-1.38-15.442-10.281-15.428-15.718-13.082a22.067 22.067 0 0 0-7.563 4.802s7.894-9.66 0-23.004a30.012 30.012 0 0 0-21.983-14.421s-4.14-21.984-16.477-30.222c-12.338-8.239-56.318-16.767-73.83 21.003z" fill="#fff"/></mask><g mask="url(#b)"><path d="M340.601 243.763a77.833 77.833 0 0 1-60.526 37.563c-27.324 2.402-42.642-2.98-49.68-6.72a175.186 175.186 0 0 1 8.28-44.16c17.512-37.771 61.465-29.187 73.83-20.949 12.364 8.239 16.477 30.222 16.477 30.222a29.505 29.505 0 0 1 11.619 4.044zm17.83 28.497a22.063 22.063 0 0 0-7.562 4.802 18.024 18.024 0 0 0 3.215-7.783c-18.561 9.246-17.112 28.98-19.417 28.98-2.842 0-4.25-9.922-4.25-9.922s-3.547 14.172-24.84 24.108-45.374 2.126-45.374 2.126 4.968 11.343-7.797 9.922a21.08 21.08 0 0 1-9.978-3.643 59.09 59.09 0 0 0 23.598 18.685s-19.582 6.9-15.18 17.512c4.402 10.612 21.294 3.781 26.786.345 5.492-3.436 12.42-13.731 13.386-20.603.614-3.512.845-7.079.69-10.64 0 0 22.315-2.401 37.426-14.766 0 0 13.399 10.64 23.018 8.583 9.619-2.056 23.35-19.237 21.97-34.679-1.38-15.442-10.254-15.373-15.691-13.027z" fill="#B8BCBD"/><path opacity=".5" d="M340.601 243.763a77.833 77.833 0 0 1-60.526 37.563c-27.324 2.402-42.642-2.98-49.68-6.72a175.186 175.186 0 0 1 8.28-44.16c17.512-37.771 61.465-29.187 73.83-20.949 12.364 8.239 16.477 30.222 16.477 30.222a29.505 29.505 0 0 1 11.619 4.044zm17.83 28.497a22.063 22.063 0 0 0-7.562 4.802 18.024 18.024 0 0 0 3.215-7.783c-18.561 9.246-17.112 28.98-19.417 28.98-2.842 0-4.25-9.922-4.25-9.922s-3.547 14.172-24.84 24.108-45.374 2.126-45.374 2.126 4.968 11.343-7.797 9.922a21.08 21.08 0 0 1-9.978-3.643 59.09 59.09 0 0 0 23.598 18.685s-19.582 6.9-15.18 17.512c4.402 10.612 21.294 3.781 26.786.345 5.492-3.436 12.42-13.731 13.386-20.603.614-3.512.845-7.079.69-10.64 0 0 22.315-2.401 37.426-14.766 0 0 13.399 10.64 23.018 8.583 9.619-2.056 23.35-19.237 21.97-34.679-1.38-15.442-10.254-15.373-15.691-13.027z" fill="#FDF8F1"/><path d="M291.804 326.232a48.472 48.472 0 0 1-38.847-17.816" stroke="#122023" stroke-width="1.113" stroke-linecap="round" stroke-linejoin="round"/></g><path d="M238.579 230.418s-13.4 38.806-6.183 69a59.03 59.03 0 0 0 33.658 40.172s-19.582 6.9-15.18 17.512c4.403 10.612 21.28 3.781 26.786.345s12.42-13.731 13.386-20.603c.614-3.511.846-7.079.69-10.64 0 0 22.315-2.401 37.426-14.766 0 0 13.4 10.64 23.018 8.584 9.619-2.057 23.35-19.238 21.97-34.68-1.38-15.442-10.281-15.428-15.718-13.082a22.067 22.067 0 0 0-7.563 4.802s7.894-9.66 0-23.004a30.012 30.012 0 0 0-21.983-14.421s-4.14-21.984-16.477-30.222c-12.338-8.239-56.318-16.767-73.83 21.003z" stroke="#122023" stroke-width="1.113" stroke-linecap="round" stroke-linejoin="round"/><path d="M350.87 277.117s-7.203 4.817-10.64 19.583" stroke="#122023" stroke-width="1.113" stroke-linecap="round" stroke-linejoin="round"/><path d="M364.105 283.438c-.842 2.511-3.147 4.016-5.134 3.339-1.987-.676-2.898-3.256-2.056-5.768.842-2.512 3.146-4.016 5.133-3.34 1.988.677 2.912 3.257 2.057 5.769zM371.212 287.909c-.842 2.512-3.146 4.016-5.133 3.34-1.988-.677-2.912-3.257-2.057-5.769.856-2.511 3.147-4.016 5.134-3.339 1.987.676 2.912 3.256 2.056 5.768z" fill="#FDF8F1" stroke="#122023" stroke-width="1.113" stroke-linecap="round" stroke-linejoin="round"/><path d="M372.73 294.602a2.847 2.847 0 0 1-2.711 1.374 2.843 2.843 0 1 1 1.206-5.514 3.202 3.202 0 0 1 1.505 4.14zM363.663 303.793c-2.484 4.485-7.452 6.472-11.109 4.443-3.657-2.028-4.595-7.286-2.111-11.771 2.484-4.485 7.452-6.472 11.109-4.444 3.657 2.029 4.595 7.287 2.111 11.772z" fill="#FDF8F1" stroke="#122023" stroke-width="1.113" stroke-linecap="round" stroke-linejoin="round"/><path d="M266.055 339.618a20.705 20.705 0 0 0 14.766 1.035M250.943 357.13s1.38-5.838 9.95-9.95M259.527 362.291s3.437-8.28 9.274-12.02" stroke="#122023" stroke-width="1.113" stroke-linecap="round" stroke-linejoin="round"/><path d="M124.109 267.292a11.842 11.842 0 0 1-4.444-9.784v-32.72h-84.4a14.311 14.311 0 0 1-11.04-4.582A15.455 15.455 0 0 1 20 209.387a16.45 16.45 0 0 1 2.76-9.177l80.841-127.043c6.072-9.375 14.14-14.062 24.205-14.062a21.638 21.638 0 0 1 14.807 5.189c3.947 3.45 5.921 8.579 5.921 15.387v123.496h21.472a10.136 10.136 0 0 1 7.991 3.174 11.76 11.76 0 0 1 0 15.263 10.136 10.136 0 0 1-7.991 3.174h-21.624v32.72a11.992 11.992 0 0 1-4.292 9.784 15.178 15.178 0 0 1-9.922 3.546 15.687 15.687 0 0 1-10.06-3.546zm-4.499-64.115V89.465L48.83 203.177h70.78zM241.229 267.954a58.54 58.54 0 0 1-21.404-15.994 82.794 82.794 0 0 1-13.469-24.357 141.248 141.248 0 0 1-7.328-29.463 244.228 244.228 0 0 1-2.07-33.023c0-72.745 24.84-109.117 74.52-109.117 49.68 0 74.461 36.372 74.341 109.117a252.425 252.425 0 0 1-2.001 32.871 138.312 138.312 0 0 1-7.259 29.463 82.794 82.794 0 0 1-13.469 24.357 59.132 59.132 0 0 1-21.403 16.063 71.248 71.248 0 0 1-30.209 6.072 72.081 72.081 0 0 1-30.249-5.989zm44.933-20.879a34.91 34.91 0 0 0 11.109-7.549 43.84 43.84 0 0 0 7.838-11.619 82.557 82.557 0 0 0 5.258-14.076 115.173 115.173 0 0 0 3.036-16.064c.745-5.98 1.242-11.458 1.49-16.435.249-4.978.368-10.383.359-16.215 0-6.118-.12-11.767-.359-16.947-.239-5.179-.759-10.736-1.559-16.67a126.327 126.327 0 0 0-3.105-16.063 78.083 78.083 0 0 0-5.258-13.911 43.293 43.293 0 0 0-7.852-11.412 33.807 33.807 0 0 0-11.04-7.328 40.71 40.71 0 0 0-29.325 0 33.392 33.392 0 0 0-10.957 7.259 44.155 44.155 0 0 0-7.839 11.329 70.439 70.439 0 0 0-5.189 13.842 131.684 131.684 0 0 0-3.036 16.146c-.8 6.017-1.32 11.619-1.559 16.808-.239 5.189-.363 10.838-.373 16.947 0 5.823.125 11.251.373 16.284.248 5.032.741 10.552 1.477 16.56a117.02 117.02 0 0 0 3.036 16.063 82.437 82.437 0 0 0 5.202 14.076 43.464 43.464 0 0 0 7.77 11.55 34.305 34.305 0 0 0 11.04 7.48 39.07 39.07 0 0 0 29.463 0v-.055zM473.691 267.292a11.842 11.842 0 0 1-4.444-9.784v-32.72h-84.401a14.308 14.308 0 0 1-11.04-4.582 15.46 15.46 0 0 1-4.223-10.819c-.011-3.265.95-6.46 2.76-9.177l80.841-127.043c6.017-9.375 14.062-14.062 24.136-14.062a21.638 21.638 0 0 1 14.89 5.189c3.947 3.45 5.92 8.579 5.92 15.387v123.496h21.473a10.124 10.124 0 0 1 7.99 3.174 11.756 11.756 0 0 1 0 15.263 10.124 10.124 0 0 1-7.99 3.174h-21.638v32.72a11.992 11.992 0 0 1-4.292 9.784 15.178 15.178 0 0 1-9.922 3.546 15.687 15.687 0 0 1-10.06-3.546zm-4.444-64.115V89.465l-70.78 113.712h70.78z" fill="#122023"/><path d="M210.76 210.85s-14.421 20.258-16.478 40.862c-2.056 20.603.345 34.334 6.528 39.495 6.182 5.161 12.351 3.091 15.787-1.725 3.436-4.816-2.056-21.638-2.056-21.638s5.837-16.132 14.766-27.462c8.928-11.33 10.64-13.055 10.64-13.055s-15.456-17.512-29.187-16.477z" fill="#FDF8F1"/><mask id="c" style="mask-type:luminance" maskUnits="userSpaceOnUse" x="193" y="210" width="47" height="85"><path d="M210.76 210.85s-14.421 20.258-16.478 40.862c-2.056 20.603.345 34.334 6.528 39.495 6.182 5.161 12.351 3.091 15.787-1.725 3.436-4.816-2.056-21.638-2.056-21.638s5.837-16.132 14.766-27.462c8.928-11.33 10.64-13.055 10.64-13.055s-15.456-17.512-29.187-16.477z" fill="#fff"/></mask><g mask="url(#c)"><path d="M210.759 210.85a111.361 111.361 0 0 0-8.349 14.6c6.9 2.76 17.595 8.418 24.385 18.437a66.79 66.79 0 0 1 2.567-3.505c8.928-11.33 10.639-13.055 10.639-13.055s-15.511-17.512-29.242-16.477z" fill="#B8BCBD"/><path opacity=".5" d="M210.759 210.85a111.361 111.361 0 0 0-8.349 14.6c6.9 2.76 17.595 8.418 24.385 18.437a66.79 66.79 0 0 1 2.567-3.505c8.928-11.33 10.639-13.055 10.639-13.055s-15.511-17.512-29.242-16.477z" fill="#FDF8F1"/></g><path d="M210.76 210.85s-14.421 20.258-16.478 40.862c-2.056 20.603.345 34.334 6.528 39.495 6.182 5.161 12.351 3.091 15.787-1.725 3.436-4.816-2.056-21.638-2.056-21.638s5.837-16.132 14.766-27.462c8.928-11.33 10.64-13.055 10.64-13.055s-15.456-17.512-29.187-16.477z" stroke="#122023" stroke-width="1.113" stroke-linecap="round" stroke-linejoin="round"/><path d="M200.808 291.207a38.14 38.14 0 0 1-2.415-14.09M210.068 293.263s-3.422-5.837-3.767-15.801" stroke="#122023" stroke-width="1.113" stroke-linecap="round" stroke-linejoin="round"/><path d="M215.23 247.585c0-3.615-6.9-10.681-16.491-13.8a81.245 81.245 0 0 0-3.188 10.309 40.476 40.476 0 0 1 10.75 3.436c5.147 2.802 8.929 4.182 8.929.055zM209.916 212.078a116.308 116.308 0 0 0-6.127 10.502 32.99 32.99 0 0 1 8.28 3.45c10.64 6.168 12.696 6.9 9.274-2.07-2.07-5.631-7.011-9.453-11.427-11.882z" fill="#B8BCBD" stroke="#122023" stroke-width="1.113" stroke-linecap="round" stroke-linejoin="round"/><path d="M323.711 200.845s16.339 18.74 20.41 39.054c4.071 20.313 3.036 34.21-2.622 39.937-5.658 5.727-11.992 4.292-15.884-.166-3.891-4.457 0-21.721 0-21.721s-7.396-15.497-17.388-25.902c-9.991-10.406-11.881-11.937-11.881-11.937s13.593-18.948 27.365-19.265z" fill="#FDF8F1"/><mask id="d" style="mask-type:luminance" maskUnits="userSpaceOnUse" x="296" y="200" width="51" height="84"><path d="M323.711 200.845s16.339 18.74 20.41 39.054c4.071 20.313 3.036 34.21-2.622 39.937-5.658 5.727-11.992 4.292-15.884-.166-3.891-4.457 0-21.721 0-21.721s-7.396-15.497-17.388-25.902c-9.991-10.406-11.881-11.937-11.881-11.937s13.593-18.948 27.365-19.265z" fill="#fff"/></mask><g mask="url(#d)"><path d="M323.712 200.845c-13.8.317-27.435 19.32-27.435 19.32s1.877 1.545 11.882 11.937a73.255 73.255 0 0 1 5.272 6.21 58.169 58.169 0 0 1 21.624-21.114 112.394 112.394 0 0 0-11.343-16.353z" fill="#B8BCBD"/><path opacity=".5" d="M323.712 200.845c-13.8.317-27.435 19.32-27.435 19.32s1.877 1.545 11.882 11.937a73.255 73.255 0 0 1 5.272 6.21 58.169 58.169 0 0 1 21.624-21.114 112.394 112.394 0 0 0-11.343-16.353z" fill="#FDF8F1"/></g><path d="M323.711 200.845s16.339 18.74 20.41 39.054c4.071 20.313 3.036 34.21-2.622 39.937-5.658 5.727-11.992 4.292-15.884-.166-3.891-4.457 0-21.721 0-21.721s-7.396-15.497-17.388-25.902c-9.991-10.406-11.881-11.937-11.881-11.937s13.593-18.948 27.365-19.265z" stroke="#122023" stroke-width="1.113" stroke-linecap="round" stroke-linejoin="round"/><path d="M341.5 279.836a37.997 37.997 0 0 0 1.021-14.242M332.475 282.789s2.856-6.141 2.221-16.091" stroke="#122023" stroke-width="1.113" stroke-linecap="round" stroke-linejoin="round"/><path d="M322.869 237.843c-.345-3.602 5.824-11.303 15.07-15.291a80.978 80.978 0 0 1 4.14 9.936 41.314 41.314 0 0 0-10.35 4.485c-4.83 3.243-8.446 4.927-8.86.87zM324.664 201.99a112.436 112.436 0 0 1 7.093 9.784 33.243 33.243 0 0 0-7.935 4.237c-9.977 7.204-11.965 8.087-9.425-1.132 1.587-5.754 6.113-10.046 10.267-12.889z" fill="#B8BCBD" stroke="#122023" stroke-width="1.113" stroke-linecap="round" stroke-linejoin="round"/><path d="M209.407 193.324s-4.251 14.338-2.65 20.175c1.601 5.838 9.025.539 16.463 6.9 7.439 6.362 14.325 17.844 42.491 19.969 28.165 2.125 45.167-13.069 51.06-21.569 5.892-8.501 5.313-18.589 15.4-19.113 10.088-.525 1.601-20.19-1.587-23.378 0 0 19.652-29.214 19.652-36.652 0-7.439-18.589-5.852-41.4 1.062 0 0-17.002-9.039-47.817-3.726-30.816 5.313-39.841 14.352-39.841 14.352s-38.254 4.775-40.903 9.55c-2.65 4.775 5.23 24.992 29.132 32.43z" fill="#FDF8F1"/><mask id="e" style="mask-type:luminance" maskUnits="userSpaceOnUse" x="179" y="134" width="172" height="107"><path d="M209.407 193.324s-4.251 14.338-2.65 20.175c1.601 5.838 9.025.539 16.463 6.9 7.439 6.362 14.325 17.844 42.491 19.969 28.165 2.125 45.167-13.069 51.06-21.569 5.892-8.501 5.313-18.589 15.4-19.113 10.088-.525 1.601-20.19-1.587-23.378 0 0 19.652-29.214 19.652-36.652 0-7.439-18.589-5.852-41.4 1.062 0 0-17.002-9.039-47.817-3.726-30.816 5.313-39.841 14.352-39.841 14.352s-38.254 4.775-40.903 9.55c-2.65 4.775 5.23 24.992 29.132 32.43z" fill="#fff"/></mask><g mask="url(#e)"><path d="M332.13 199.699c10.102-.538 1.601-20.189-1.587-23.377 0 0 3.74-5.52 7.949-12.42-11.413-5.961-22.618-9.273-25.599-5.92-6.417 7.204-2.926 21.004 0 34.5 2.926 13.496-8.763 19.251-16.933 30.926-8.169 11.675-19.83-1.173-19.83-1.173-4.14 16.932-21.597 5.837-21.597 5.837-13.414-4.14-36.17-17.498-31.506-26.841 4.665-9.342 5.838-18.092-2.332-25.668-8.169-7.576-40.751-13.883-40.751-13.883-1.711 5.755 6.555 24.606 29.477 31.74 0 0-4.251 14.339-2.65 20.176 1.601 5.837 9.025.538 16.463 6.9 7.439 6.362 14.325 17.843 42.491 19.969 28.165 2.125 45.167-13.069 51.06-21.57 5.892-8.501 5.244-18.671 15.345-19.196z" fill="#B8BCBD"/><path opacity=".5" d="M332.13 199.699c10.102-.538 1.601-20.189-1.587-23.377 0 0 3.74-5.52 7.949-12.42-11.413-5.961-22.618-9.273-25.599-5.92-6.417 7.204-2.926 21.004 0 34.5 2.926 13.496-8.763 19.251-16.933 30.926-8.169 11.675-19.83-1.173-19.83-1.173-4.14 16.932-21.597 5.837-21.597 5.837-13.414-4.14-36.17-17.498-31.506-26.841 4.665-9.342 5.838-18.092-2.332-25.668-8.169-7.576-40.751-13.883-40.751-13.883-1.711 5.755 6.555 24.606 29.477 31.74 0 0-4.251 14.339-2.65 20.176 1.601 5.837 9.025.538 16.463 6.9 7.439 6.362 14.325 17.843 42.491 19.969 28.165 2.125 45.167-13.069 51.06-21.57 5.892-8.501 5.244-18.671 15.345-19.196z" fill="#FDF8F1"/><path d="M290.578 202.901c.401 3.367-7.079 6.997-16.67 8.114-9.591 1.118-17.705-.703-18.106-4.14-.4-3.436 7.08-6.982 16.685-8.1 9.604-1.118 17.705.773 18.091 4.126z" fill="#B8BCBD"/><path opacity=".5" d="M290.578 202.901c.401 3.367-7.079 6.997-16.67 8.114-9.591 1.118-17.705-.703-18.106-4.14-.4-3.436 7.08-6.982 16.685-8.1 9.604-1.118 17.705.773 18.091 4.126z" fill="#FDF8F1"/></g><path d="M209.407 193.324s-4.251 14.338-2.65 20.175c1.601 5.838 9.025.539 16.463 6.9 7.439 6.362 14.325 17.844 42.491 19.969 28.165 2.125 45.167-13.069 51.06-21.569 5.892-8.501 5.313-18.589 15.4-19.113 10.088-.525 1.601-20.19-1.587-23.378 0 0 19.652-29.214 19.652-36.652 0-7.439-18.589-5.852-41.4 1.062 0 0-17.002-9.039-47.817-3.726-30.816 5.313-39.841 14.352-39.841 14.352s-38.254 4.775-40.903 9.55c-2.65 4.775 5.23 24.992 29.132 32.43z" stroke="#122023" stroke-width="1.113" stroke-miterlimit="10"/><path d="M319.281 150.82c-13.8 9.273-8.928 18.547-2.76 23.694 3.768 3.147 9.84 2.76 13.994 1.877 0 0 19.651-29.214 19.651-36.653.014-.069-17.154 1.739-30.885 11.082zM179.93 161.584c-1.711 5.754 6.555 24.605 29.477 31.74 0 0 17.498-1.711 11.661-15.787-5.451-13.138-33.01-16.409-41.138-15.953zM260.935 137.02c-1.808.317-3.546.648-5.216.98 2.76 13.938 7.3 37.149 11.357 37.149 4.057 0 7.162-25.447 8.487-39.702-4.905.206-9.791.732-14.628 1.573zM245.108 171.009c4.223-2.484 3.588-21.155 2.912-31.284a113.096 113.096 0 0 0-12.848 4.015c1.532 9.481 5.423 29.919 9.936 27.269zM285.968 162.426c4.319 1.518 6.748-14.007 8.114-25.958a86 86 0 0 0-13.192-1.118c-.138 9.812.4 25.433 5.078 27.076z" fill="#B8BCBD" stroke="#122023" stroke-width="1.113" stroke-miterlimit="10"/><path d="M280.186 216.163a16.254 16.254 0 0 0-11.964 1.476 1.18 1.18 0 0 0-.522 1.434 1.2 1.2 0 0 0 .301.457l7.328 6.9a1.181 1.181 0 0 0 1.547.065c.147-.116.265-.266.343-.438l3.754-8.28a1.186 1.186 0 0 0-.787-1.614z" fill="#B8BCBD" stroke="#122023" stroke-width="1.113" stroke-linecap="round" stroke-linejoin="round"/><path d="M262.771 204.64c1.007 2.663.607 5.285-.897 5.851-1.505.566-3.547-1.118-4.568-3.767-1.021-2.65-.607-5.286.897-5.852 1.504-.565 3.546 1.118 4.568 3.768zM282.754 202.749c-.525 2.76.331 5.313 1.918 5.603 1.587.29 3.298-1.725 3.823-4.526.524-2.802-.332-5.3-1.919-5.603-1.587-.304-3.298 1.739-3.822 4.526z" fill="#122023"/><path d="M277.219 226.044s-9.798 13.303-18.727-.083" stroke="#122023" stroke-width="1.113" stroke-linecap="round" stroke-linejoin="round"/><path d="M275.328 226.416s6.514 6.748 13.386 2.967c6.873-3.781 2.76-9.66 2.76-9.66" stroke="#122023" stroke-width="1.113" stroke-linecap="round" stroke-linejoin="round"/><path d="M245.451 194.014s2.401-8.584 13.731-6.528M279.787 186.12s8.584-5.147 16.477 3.091" stroke="#122023" stroke-width="3.34" stroke-linecap="round" stroke-linejoin="round"/><path d="m238.924 217.032 8.238 2.056M246.127 222.18l-7.203 1.366M247.509 225.961l-5.148 2.746M299.699 213.251l7.218-1.725M301.08 216.687h4.802M302.102 220.123l6.527 1.712" stroke="#122023" stroke-width="1.113" stroke-miterlimit="10" stroke-linecap="round"/></svg>