<svg width="30" height="30" viewBox="0 0 30 30" fill="none" xmlns="http://www.w3.org/2000/svg">
<g id="icons">
<path id="Vector" d="M17.8535 4.37625L8.13725 14.3438C7.9666 14.5188 7.87109 14.7536 7.87109 14.9981C7.87109 15.2426 7.9666 15.4774 8.13725 15.6525L17.8535 25.6238C17.933 25.7054 18.028 25.7703 18.133 25.8146C18.238 25.8589 18.3508 25.8817 18.4648 25.8817C18.5787 25.8817 18.6915 25.8589 18.7965 25.8146C18.9015 25.7703 18.9965 25.7054 19.076 25.6238C19.2395 25.4563 19.3311 25.2316 19.3311 24.9975C19.3311 24.7635 19.2395 24.5387 19.076 24.3713L9.93913 14.9981L19.076 5.62688C19.239 5.45953 19.3302 5.23516 19.3302 5.00156C19.3302 4.76797 19.239 4.5436 19.076 4.37625C18.9965 4.29461 18.9015 4.22972 18.7965 4.18541C18.6915 4.1411 18.5787 4.11827 18.4648 4.11827C18.3508 4.11827 18.238 4.1411 18.133 4.18541C18.028 4.22972 17.933 4.29461 17.8535 4.37625Z" fill="#122023"/>
</g>
</svg>
