<svg width="360" height="402" viewBox="0 0 360 402" fill="none" xmlns="http://www.w3.org/2000/svg">
<rect width="360" height="360" rx="180" fill="#122023"/>
<path d="M109.62 62H107.3V49.94H100.46V62H98.14V47.86H109.62V62ZM112.906 62V47.86H118.086C118.899 47.86 119.626 47.9533 120.266 48.14C120.919 48.3133 121.472 48.5933 121.926 48.98C122.379 49.3667 122.726 49.8667 122.966 50.48C123.219 51.08 123.346 51.8 123.346 52.64C123.346 53.4133 123.219 54.1067 122.966 54.72C122.712 55.3333 122.352 55.8533 121.886 56.28C121.419 56.6933 120.852 57.0133 120.186 57.24C119.532 57.4667 118.799 57.58 117.986 57.58H115.206V62H112.906ZM115.206 55.52H117.866C118.306 55.52 118.712 55.4667 119.086 55.36C119.472 55.2533 119.806 55.0867 120.086 54.86C120.366 54.6333 120.586 54.3467 120.746 54C120.919 53.6533 121.012 53.24 121.026 52.76C121.026 51.76 120.766 51.04 120.246 50.6C119.739 50.16 118.992 49.94 118.006 49.94H115.206V55.52ZM125.757 62V47.86H128.077V58.24L135.337 47.86H137.417V62H135.097V51.72L127.837 62H125.757ZM140.679 62V47.86H146.299C146.899 47.86 147.472 47.9133 148.019 48.02C148.579 48.1267 149.065 48.3133 149.479 48.58C149.905 48.8467 150.245 49.2067 150.499 49.66C150.752 50.1133 150.879 50.6933 150.879 51.4C150.879 52.08 150.739 52.6867 150.459 53.22C150.179 53.7533 149.719 54.1733 149.079 54.48C149.945 54.6933 150.579 55.1 150.979 55.7C151.379 56.2867 151.579 57.0067 151.579 57.86C151.579 58.7533 151.399 59.4733 151.039 60.02C150.679 60.5533 150.219 60.9667 149.659 61.26C149.099 61.5533 148.479 61.7533 147.799 61.86C147.132 61.9533 146.492 62 145.879 62H140.679ZM142.999 49.94V53.82H145.699C146.032 53.82 146.372 53.7933 146.719 53.74C147.079 53.6867 147.399 53.5867 147.679 53.44C147.959 53.28 148.185 53.0733 148.359 52.82C148.545 52.5533 148.639 52.2067 148.639 51.78C148.639 51.3667 148.565 51.04 148.419 50.8C148.272 50.5467 148.079 50.36 147.839 50.24C147.599 50.1067 147.319 50.0267 146.999 50C146.692 49.96 146.372 49.94 146.039 49.94H142.999ZM142.999 59.94H145.839C146.199 59.94 146.579 59.92 146.979 59.88C147.392 59.8267 147.765 59.7267 148.099 59.58C148.432 59.42 148.705 59.2 148.919 58.92C149.145 58.64 149.259 58.26 149.259 57.78C149.259 57.38 149.172 57.0533 148.999 56.8C148.839 56.5333 148.625 56.3333 148.359 56.2C148.092 56.0533 147.792 55.9533 147.459 55.9C147.139 55.8467 146.812 55.82 146.479 55.82C146.185 55.82 145.892 55.82 145.599 55.82L143.879 55.84C143.585 55.84 143.292 55.84 142.999 55.84V59.94ZM154.097 62V47.86H163.917V49.94H156.417V53.96H163.057V56.06H156.417V59.94H163.917V62H154.097ZM165.121 65.74V59.94H165.281C165.695 59.94 166.028 59.8333 166.281 59.62C166.548 59.3933 166.761 59.0867 166.921 58.7C167.081 58.3133 167.195 57.8667 167.261 57.36C167.341 56.84 167.401 56.28 167.441 55.68C167.521 54.3467 167.568 53.0467 167.581 51.78C167.608 50.5 167.635 49.1933 167.661 47.86H177.281V59.94H178.981V65.74H176.681V62H167.421V65.74H165.121ZM174.961 59.94V49.94H169.861L169.721 54.96C169.708 55.28 169.688 55.6533 169.661 56.08C169.648 56.4933 169.615 56.9267 169.561 57.38C169.521 57.82 169.455 58.2667 169.361 58.72C169.268 59.16 169.148 59.5667 169.001 59.94H174.961ZM180.953 62V47.86H183.273V58.24L190.533 47.86H192.613V62H190.293V51.72L183.033 62H180.953ZM199.985 65.74V59.94H200.145C200.558 59.94 200.891 59.8333 201.145 59.62C201.411 59.3933 201.625 59.0867 201.785 58.7C201.945 58.3133 202.058 57.8667 202.125 57.36C202.205 56.84 202.265 56.28 202.305 55.68C202.385 54.3467 202.431 53.0467 202.445 51.78C202.471 50.5 202.498 49.1933 202.525 47.86H212.145V59.94H213.845V65.74H211.545V62H202.285V65.74H199.985ZM209.825 59.94V49.94H204.725L204.585 54.96C204.571 55.28 204.551 55.6533 204.525 56.08C204.511 56.4933 204.478 56.9267 204.425 57.38C204.385 57.82 204.318 58.2667 204.225 58.72C204.131 59.16 204.011 59.5667 203.865 59.94H209.825ZM215.816 62V47.86H220.996C221.809 47.86 222.536 47.9533 223.176 48.14C223.829 48.3133 224.382 48.5933 224.836 48.98C225.289 49.3667 225.636 49.8667 225.876 50.48C226.129 51.08 226.256 51.8 226.256 52.64C226.256 53.4133 226.129 54.1067 225.876 54.72C225.622 55.3333 225.262 55.8533 224.796 56.28C224.329 56.6933 223.762 57.0133 223.096 57.24C222.442 57.4667 221.709 57.58 220.896 57.58H218.116V62H215.816ZM218.116 55.52H220.776C221.216 55.52 221.622 55.4667 221.996 55.36C222.382 55.2533 222.716 55.0867 222.996 54.86C223.276 54.6333 223.496 54.3467 223.656 54C223.829 53.6533 223.922 53.24 223.936 52.76C223.936 51.76 223.676 51.04 223.156 50.6C222.649 50.16 221.902 49.94 220.916 49.94H218.116V55.52ZM234.007 55.7C234.021 55.66 234.034 55.6133 234.047 55.56C234.074 55.4933 234.121 55.3733 234.187 55.2C234.254 55.0267 234.354 54.7733 234.487 54.44C234.621 54.1067 234.801 53.66 235.027 53.1C235.254 52.5267 235.534 51.8133 235.867 50.96C236.214 50.1067 236.634 49.0667 237.127 47.84H239.687L235.287 58.2C235.047 58.72 234.761 59.24 234.427 59.76C234.107 60.2667 233.707 60.7 233.227 61.06C232.747 61.42 232.201 61.6667 231.587 61.8C230.974 61.9333 230.241 62 229.387 62V59.9C229.667 59.9 229.954 59.8933 230.247 59.88C230.541 59.8667 230.834 59.8067 231.127 59.7C231.434 59.58 231.727 59.4 232.007 59.16C232.287 58.92 232.547 58.5733 232.787 58.12L227.227 47.84H229.927L234.007 55.7ZM241.206 62V47.86H250.666V49.94H243.526V62H241.206ZM257.516 47.86L262.836 62H260.296L259.256 59.14H252.836L251.776 62H249.256L254.616 47.86H257.516ZM258.536 57.06L256.056 50.16L253.556 57.06H258.536Z" fill="#B0FF1A"/>
<path d="M83.074 95H81.508V83.696H74.632V95H73.066V82.274H83.074V95ZM90.0304 85.406C90.7864 85.406 91.4404 85.526 91.9924 85.766C92.5444 86.006 93.0064 86.342 93.3784 86.774C93.7624 87.206 94.0444 87.722 94.2244 88.322C94.4164 88.91 94.5124 89.558 94.5124 90.266C94.5124 90.974 94.4164 91.628 94.2244 92.228C94.0444 92.816 93.7624 93.326 93.3784 93.758C93.0064 94.178 92.5384 94.508 91.9744 94.748C91.4104 94.988 90.7504 95.108 89.9944 95.108C89.2384 95.108 88.5784 94.988 88.0144 94.748C87.4624 94.508 86.9944 94.178 86.6104 93.758C86.2384 93.326 85.9564 92.816 85.7644 92.228C85.5844 91.628 85.4944 90.974 85.4944 90.266C85.4944 89.558 85.5844 88.91 85.7644 88.322C85.9564 87.722 86.2384 87.206 86.6104 86.774C86.9944 86.342 87.4684 86.006 88.0324 85.766C88.5964 85.526 89.2624 85.406 90.0304 85.406ZM89.9944 93.758C90.5104 93.758 90.9544 93.668 91.3264 93.488C91.7104 93.308 92.0224 93.062 92.2624 92.75C92.5144 92.426 92.6944 92.054 92.8024 91.634C92.9224 91.214 92.9824 90.758 92.9824 90.266C92.9824 89.786 92.9224 89.336 92.8024 88.916C92.6944 88.484 92.5144 88.112 92.2624 87.8C92.0224 87.476 91.7104 87.224 91.3264 87.044C90.9544 86.864 90.5104 86.774 89.9944 86.774C89.4784 86.774 89.0344 86.864 88.6624 87.044C88.2904 87.224 87.9784 87.476 87.7264 87.8C87.4864 88.112 87.3064 88.484 87.1864 88.916C87.0784 89.336 87.0244 89.786 87.0244 90.266C87.0244 90.758 87.0784 91.214 87.1864 91.634C87.3064 92.054 87.4864 92.426 87.7264 92.75C87.9784 93.062 88.2904 93.308 88.6624 93.488C89.0344 93.668 89.4784 93.758 89.9944 93.758ZM97.3536 90.554C97.4136 89.69 97.4556 88.85 97.4796 88.034C97.5156 87.218 97.5396 86.378 97.5516 85.514H104.14V95H102.61V86.864H99.0456L98.8836 90.59C98.8596 91.07 98.8056 91.61 98.7216 92.21C98.6376 92.81 98.4636 93.356 98.1996 93.848C97.9956 94.196 97.7196 94.478 97.3716 94.694C97.0236 94.91 96.6216 95.018 96.1656 95.018H95.6076V93.668C96.0876 93.668 96.4716 93.464 96.7596 93.056C96.9276 92.816 97.0596 92.468 97.1556 92.012C97.2516 91.556 97.3176 91.07 97.3536 90.554ZM113.366 85.514H115.094L112.412 92.984C112.268 93.368 112.112 93.806 111.944 94.298C111.788 94.778 111.608 95.258 111.404 95.738C111.212 96.23 110.99 96.692 110.738 97.124C110.498 97.556 110.228 97.904 109.928 98.168C109.484 98.564 109.058 98.81 108.65 98.906C108.242 99.014 107.78 99.068 107.264 99.068H106.94V97.61C107.372 97.61 107.738 97.562 108.038 97.466C108.338 97.382 108.596 97.244 108.812 97.052C109.04 96.86 109.232 96.62 109.388 96.332C109.556 96.044 109.724 95.702 109.892 95.306L105.644 85.514H107.444L110.738 93.506L113.366 85.514ZM116.097 85.514H117.627V87.638C117.627 88.058 117.651 88.43 117.699 88.754C117.759 89.066 117.867 89.33 118.023 89.546C118.179 89.762 118.401 89.93 118.689 90.05C118.977 90.158 119.355 90.212 119.823 90.212C120.183 90.212 120.561 90.194 120.957 90.158C121.365 90.122 121.743 90.068 122.091 89.996V85.514H123.621V95H122.091V91.346C121.635 91.43 121.191 91.49 120.759 91.526C120.339 91.55 119.961 91.562 119.625 91.562C118.953 91.562 118.389 91.484 117.933 91.328C117.489 91.172 117.129 90.938 116.853 90.626C116.577 90.302 116.379 89.906 116.259 89.438C116.151 88.958 116.097 88.394 116.097 87.746V85.514ZM127.532 95H126.038V85.514H127.568V92.786C127.652 92.618 127.766 92.438 127.91 92.246C128.054 92.042 128.168 91.886 128.252 91.778L132.842 85.514H134.354V95H132.824V87.728C132.728 87.908 132.62 88.082 132.5 88.25C132.392 88.406 132.29 88.544 132.194 88.664L127.532 95ZM149.64 82.274V91.04H151.134V92.462H149.64V95H148.074V92.462H141.162V91.292L147.39 82.274H149.64ZM143.052 91.04H148.074V83.696L143.052 91.04ZM157.44 85.514H158.97V87.638C158.97 88.058 158.994 88.43 159.042 88.754C159.102 89.066 159.21 89.33 159.366 89.546C159.522 89.762 159.744 89.93 160.032 90.05C160.32 90.158 160.698 90.212 161.166 90.212C161.526 90.212 161.904 90.194 162.3 90.158C162.708 90.122 163.086 90.068 163.434 89.996V85.514H164.964V95H163.434V91.346C162.978 91.43 162.534 91.49 162.102 91.526C161.682 91.55 161.304 91.562 160.968 91.562C160.296 91.562 159.732 91.484 159.276 91.328C158.832 91.172 158.472 90.938 158.196 90.626C157.92 90.302 157.722 89.906 157.602 89.438C157.494 88.958 157.44 88.394 157.44 87.746V85.514ZM173.628 93.794C173.424 94.07 173.19 94.292 172.926 94.46C172.662 94.628 172.386 94.76 172.098 94.856C171.822 94.952 171.54 95.018 171.252 95.054C170.976 95.09 170.7 95.108 170.424 95.108C169.98 95.108 169.56 95.054 169.164 94.946C168.768 94.838 168.408 94.664 168.084 94.424C167.772 94.184 167.52 93.884 167.328 93.524C167.148 93.164 167.058 92.756 167.058 92.3C167.058 91.76 167.154 91.31 167.346 90.95C167.55 90.578 167.82 90.278 168.156 90.05C168.492 89.822 168.876 89.666 169.308 89.582C169.752 89.486 170.22 89.438 170.712 89.438H173.502C173.502 88.634 173.328 87.998 172.98 87.53C172.632 87.05 172.044 86.798 171.216 86.774C170.712 86.774 170.268 86.858 169.884 87.026C169.5 87.194 169.236 87.47 169.092 87.854H167.454C167.538 87.422 167.706 87.056 167.958 86.756C168.21 86.444 168.51 86.192 168.858 86C169.206 85.796 169.584 85.646 169.992 85.55C170.4 85.454 170.808 85.406 171.216 85.406C171.924 85.406 172.518 85.526 172.998 85.766C173.49 85.994 173.886 86.3 174.186 86.684C174.486 87.056 174.696 87.512 174.816 88.052C174.936 88.592 174.996 89.198 174.996 89.87V95H173.718L173.628 93.794ZM171.828 90.716C171.54 90.716 171.204 90.722 170.82 90.734C170.448 90.734 170.088 90.77 169.74 90.842C169.392 90.914 169.11 91.064 168.894 91.292C168.69 91.52 168.588 91.82 168.588 92.192C168.588 92.468 168.642 92.702 168.75 92.894C168.858 93.086 169.002 93.248 169.182 93.38C169.374 93.512 169.59 93.608 169.83 93.668C170.07 93.728 170.316 93.758 170.568 93.758C171.468 93.758 172.176 93.542 172.692 93.11C173.22 92.666 173.49 92.024 173.502 91.184V90.716H171.828ZM181.416 95.108C180.66 95.108 180.006 94.988 179.454 94.748C178.902 94.508 178.446 94.172 178.086 93.74C177.726 93.308 177.456 92.798 177.276 92.21C177.096 91.622 177.006 90.98 177.006 90.284C177.006 89.612 177.102 88.982 177.294 88.394C177.486 87.794 177.768 87.278 178.14 86.846C178.512 86.402 178.98 86.054 179.544 85.802C180.108 85.538 180.792 85.406 181.596 85.406C182.076 85.406 182.502 85.46 182.874 85.568C183.246 85.664 183.594 85.826 183.918 86.054C184.254 86.27 184.542 86.558 184.782 86.918C185.022 87.278 185.196 87.716 185.304 88.232H183.738C183.558 87.704 183.27 87.326 182.874 87.098C182.49 86.87 182.034 86.762 181.506 86.774C180.99 86.774 180.534 86.876 180.138 87.08C179.754 87.272 179.442 87.53 179.202 87.854C178.974 88.178 178.806 88.556 178.698 88.988C178.59 89.408 178.536 89.84 178.536 90.284C178.536 90.752 178.59 91.196 178.698 91.616C178.818 92.036 178.992 92.408 179.22 92.732C179.46 93.044 179.766 93.296 180.138 93.488C180.51 93.668 180.954 93.758 181.47 93.758C181.722 93.758 181.968 93.734 182.208 93.686C182.46 93.638 182.688 93.56 182.892 93.452C183.108 93.332 183.294 93.176 183.45 92.984C183.606 92.792 183.72 92.558 183.792 92.282H185.376C185.28 92.774 185.106 93.2 184.854 93.56C184.614 93.908 184.314 94.202 183.954 94.442C183.594 94.67 183.198 94.838 182.766 94.946C182.334 95.054 181.884 95.108 181.416 95.108ZM193.561 93.794C193.357 94.07 193.123 94.292 192.859 94.46C192.595 94.628 192.319 94.76 192.031 94.856C191.755 94.952 191.473 95.018 191.185 95.054C190.909 95.09 190.633 95.108 190.357 95.108C189.913 95.108 189.493 95.054 189.097 94.946C188.701 94.838 188.341 94.664 188.017 94.424C187.705 94.184 187.453 93.884 187.261 93.524C187.081 93.164 186.991 92.756 186.991 92.3C186.991 91.76 187.087 91.31 187.279 90.95C187.483 90.578 187.753 90.278 188.089 90.05C188.425 89.822 188.809 89.666 189.241 89.582C189.685 89.486 190.153 89.438 190.645 89.438H193.435C193.435 88.634 193.261 87.998 192.913 87.53C192.565 87.05 191.977 86.798 191.149 86.774C190.645 86.774 190.201 86.858 189.817 87.026C189.433 87.194 189.169 87.47 189.025 87.854H187.387C187.471 87.422 187.639 87.056 187.891 86.756C188.143 86.444 188.443 86.192 188.791 86C189.139 85.796 189.517 85.646 189.925 85.55C190.333 85.454 190.741 85.406 191.149 85.406C191.857 85.406 192.451 85.526 192.931 85.766C193.423 85.994 193.819 86.3 194.119 86.684C194.419 87.056 194.629 87.512 194.749 88.052C194.869 88.592 194.929 89.198 194.929 89.87V95H193.651L193.561 93.794ZM191.761 90.716C191.473 90.716 191.137 90.722 190.753 90.734C190.381 90.734 190.021 90.77 189.673 90.842C189.325 90.914 189.043 91.064 188.827 91.292C188.623 91.52 188.521 91.82 188.521 92.192C188.521 92.468 188.575 92.702 188.683 92.894C188.791 93.086 188.935 93.248 189.115 93.38C189.307 93.512 189.523 93.608 189.763 93.668C190.003 93.728 190.249 93.758 190.501 93.758C191.401 93.758 192.109 93.542 192.625 93.11C193.153 92.666 193.423 92.024 193.435 91.184V90.716H191.761ZM202.151 85.514H205.823C206.435 85.514 206.957 85.556 207.389 85.64C207.833 85.724 208.205 85.874 208.505 86.09C208.769 86.27 208.973 86.51 209.117 86.81C209.273 87.11 209.351 87.464 209.351 87.872C209.351 88.82 208.925 89.498 208.073 89.906C208.721 90.05 209.189 90.332 209.477 90.752C209.765 91.172 209.909 91.652 209.909 92.192C209.897 92.696 209.813 93.11 209.657 93.434C209.501 93.746 209.279 94.022 208.991 94.262C208.715 94.49 208.373 94.67 207.965 94.802C207.557 94.934 207.095 95 206.579 95H202.151V85.514ZM203.717 86.864V89.564H205.031C205.331 89.564 205.637 89.558 205.949 89.546C206.261 89.522 206.537 89.468 206.777 89.384C207.077 89.288 207.329 89.132 207.533 88.916C207.737 88.7 207.845 88.442 207.857 88.142C207.857 87.794 207.779 87.542 207.623 87.386C207.479 87.218 207.299 87.098 207.083 87.026C206.867 86.942 206.633 86.894 206.381 86.882C206.129 86.87 205.895 86.864 205.679 86.864H203.717ZM203.717 93.668H206.219C206.495 93.668 206.759 93.65 207.011 93.614C207.275 93.578 207.503 93.512 207.695 93.416C207.887 93.308 208.043 93.164 208.163 92.984C208.283 92.804 208.349 92.576 208.361 92.3C208.361 91.94 208.277 91.658 208.109 91.454C207.941 91.238 207.713 91.082 207.425 90.986C207.185 90.914 206.915 90.872 206.615 90.86C206.315 90.848 206.003 90.842 205.679 90.842L203.717 90.86V93.668ZM216.847 95V85.514H224.713V95H223.183V86.864H218.377V95H216.847ZM231.306 85.406C232.062 85.406 232.716 85.526 233.268 85.766C233.82 86.006 234.282 86.342 234.654 86.774C235.038 87.206 235.32 87.722 235.5 88.322C235.692 88.91 235.788 89.558 235.788 90.266C235.788 90.974 235.692 91.628 235.5 92.228C235.32 92.816 235.038 93.326 234.654 93.758C234.282 94.178 233.814 94.508 233.25 94.748C232.686 94.988 232.026 95.108 231.27 95.108C230.514 95.108 229.854 94.988 229.29 94.748C228.738 94.508 228.27 94.178 227.886 93.758C227.514 93.326 227.232 92.816 227.04 92.228C226.86 91.628 226.77 90.974 226.77 90.266C226.77 89.558 226.86 88.91 227.04 88.322C227.232 87.722 227.514 87.206 227.886 86.774C228.27 86.342 228.744 86.006 229.308 85.766C229.872 85.526 230.538 85.406 231.306 85.406ZM231.27 93.758C231.786 93.758 232.23 93.668 232.602 93.488C232.986 93.308 233.298 93.062 233.538 92.75C233.79 92.426 233.97 92.054 234.078 91.634C234.198 91.214 234.258 90.758 234.258 90.266C234.258 89.786 234.198 89.336 234.078 88.916C233.97 88.484 233.79 88.112 233.538 87.8C233.298 87.476 232.986 87.224 232.602 87.044C232.23 86.864 231.786 86.774 231.27 86.774C230.754 86.774 230.31 86.864 229.938 87.044C229.566 87.224 229.254 87.476 229.002 87.8C228.762 88.112 228.582 88.484 228.462 88.916C228.354 89.336 228.3 89.786 228.3 90.266C228.3 90.758 228.354 91.214 228.462 91.634C228.582 92.054 228.762 92.426 229.002 92.75C229.254 93.062 229.566 93.308 229.938 93.488C230.31 93.668 230.754 93.758 231.27 93.758ZM238.704 87.602C238.716 87.254 238.722 86.906 238.722 86.558C238.722 86.21 238.722 85.862 238.722 85.514H245.454V93.668H246.696V97.916H245.22V95H238.29V97.916H236.814V93.668C237.294 93.668 237.672 93.452 237.948 93.02C238.116 92.78 238.248 92.438 238.344 91.994C238.44 91.538 238.512 91.058 238.56 90.554C238.62 90.002 238.656 89.456 238.668 88.916C238.692 88.364 238.704 87.926 238.704 87.602ZM243.924 86.864H240.18C240.168 87.368 240.156 87.932 240.144 88.556C240.132 89.18 240.108 89.762 240.072 90.302C240.06 90.542 240.042 90.806 240.018 91.094C239.994 91.37 239.952 91.658 239.892 91.958C239.844 92.246 239.766 92.54 239.658 92.84C239.562 93.14 239.424 93.416 239.244 93.668H243.924V86.864ZM254.54 93.794C254.336 94.07 254.102 94.292 253.838 94.46C253.574 94.628 253.298 94.76 253.01 94.856C252.734 94.952 252.452 95.018 252.164 95.054C251.888 95.09 251.612 95.108 251.336 95.108C250.892 95.108 250.472 95.054 250.076 94.946C249.68 94.838 249.32 94.664 248.996 94.424C248.684 94.184 248.432 93.884 248.24 93.524C248.06 93.164 247.97 92.756 247.97 92.3C247.97 91.76 248.066 91.31 248.258 90.95C248.462 90.578 248.732 90.278 249.068 90.05C249.404 89.822 249.788 89.666 250.22 89.582C250.664 89.486 251.132 89.438 251.624 89.438H254.414C254.414 88.634 254.24 87.998 253.892 87.53C253.544 87.05 252.956 86.798 252.128 86.774C251.624 86.774 251.18 86.858 250.796 87.026C250.412 87.194 250.148 87.47 250.004 87.854H248.366C248.45 87.422 248.618 87.056 248.87 86.756C249.122 86.444 249.422 86.192 249.77 86C250.118 85.796 250.496 85.646 250.904 85.55C251.312 85.454 251.72 85.406 252.128 85.406C252.836 85.406 253.43 85.526 253.91 85.766C254.402 85.994 254.798 86.3 255.098 86.684C255.398 87.056 255.608 87.512 255.728 88.052C255.848 88.592 255.908 89.198 255.908 89.87V95H254.63L254.54 93.794ZM252.74 90.716C252.452 90.716 252.116 90.722 251.732 90.734C251.36 90.734 251 90.77 250.652 90.842C250.304 90.914 250.022 91.064 249.806 91.292C249.602 91.52 249.5 91.82 249.5 92.192C249.5 92.468 249.554 92.702 249.662 92.894C249.77 93.086 249.914 93.248 250.094 93.38C250.286 93.512 250.502 93.608 250.742 93.668C250.982 93.728 251.228 93.758 251.48 93.758C252.38 93.758 253.088 93.542 253.604 93.11C254.132 92.666 254.402 92.024 254.414 91.184V90.716H252.74ZM259.808 98.42H258.278V85.514H259.736L259.808 86.972C260.132 86.456 260.57 86.072 261.122 85.82C261.686 85.556 262.292 85.418 262.94 85.406C263.672 85.406 264.29 85.532 264.794 85.784C265.31 86.024 265.736 86.366 266.072 86.81C266.42 87.242 266.678 87.758 266.846 88.358C267.014 88.946 267.098 89.582 267.098 90.266C267.098 90.962 267.014 91.604 266.846 92.192C266.678 92.78 266.42 93.29 266.072 93.722C265.724 94.154 265.286 94.496 264.758 94.748C264.23 94.988 263.6 95.108 262.868 95.108C262.148 95.108 261.536 94.994 261.032 94.766C260.528 94.538 260.12 94.238 259.808 93.866V98.42ZM262.742 93.758C263.258 93.758 263.69 93.668 264.038 93.488C264.398 93.296 264.686 93.044 264.902 92.732C265.13 92.408 265.292 92.036 265.388 91.616C265.496 91.196 265.556 90.746 265.568 90.266C265.568 89.786 265.514 89.336 265.406 88.916C265.31 88.484 265.148 88.112 264.92 87.8C264.692 87.488 264.392 87.242 264.02 87.062C263.66 86.87 263.222 86.774 262.706 86.774C262.094 86.774 261.566 86.942 261.122 87.278C260.678 87.602 260.342 88.016 260.114 88.52C259.982 88.796 259.892 89.084 259.844 89.384C259.796 89.672 259.772 89.972 259.772 90.284C259.772 90.644 259.796 90.98 259.844 91.292C259.892 91.592 259.982 91.88 260.114 92.156C260.342 92.612 260.672 92.996 261.104 93.308C261.548 93.608 262.094 93.758 262.742 93.758ZM273.247 85.406C274.003 85.406 274.657 85.526 275.209 85.766C275.761 86.006 276.223 86.342 276.595 86.774C276.979 87.206 277.261 87.722 277.441 88.322C277.633 88.91 277.729 89.558 277.729 90.266C277.729 90.974 277.633 91.628 277.441 92.228C277.261 92.816 276.979 93.326 276.595 93.758C276.223 94.178 275.755 94.508 275.191 94.748C274.627 94.988 273.967 95.108 273.211 95.108C272.455 95.108 271.795 94.988 271.231 94.748C270.679 94.508 270.211 94.178 269.827 93.758C269.455 93.326 269.173 92.816 268.981 92.228C268.801 91.628 268.711 90.974 268.711 90.266C268.711 89.558 268.801 88.91 268.981 88.322C269.173 87.722 269.455 87.206 269.827 86.774C270.211 86.342 270.685 86.006 271.249 85.766C271.813 85.526 272.479 85.406 273.247 85.406ZM273.211 93.758C273.727 93.758 274.171 93.668 274.543 93.488C274.927 93.308 275.239 93.062 275.479 92.75C275.731 92.426 275.911 92.054 276.019 91.634C276.139 91.214 276.199 90.758 276.199 90.266C276.199 89.786 276.139 89.336 276.019 88.916C275.911 88.484 275.731 88.112 275.479 87.8C275.239 87.476 274.927 87.224 274.543 87.044C274.171 86.864 273.727 86.774 273.211 86.774C272.695 86.774 272.251 86.864 271.879 87.044C271.507 87.224 271.195 87.476 270.943 87.8C270.703 88.112 270.523 88.484 270.403 88.916C270.295 89.336 270.241 89.786 270.241 90.266C270.241 90.758 270.295 91.214 270.403 91.634C270.523 92.054 270.703 92.426 270.943 92.75C271.195 93.062 271.507 93.308 271.879 93.488C272.251 93.668 272.695 93.758 273.211 93.758ZM279.776 95V85.514H281.306V89.6H282.962L285.77 85.514H287.516L284.348 90.032L287.786 95H285.986L283.142 90.932H281.306V95H279.776Z" fill="#FDA8DC"/>
<path opacity="0.1" d="M280.199 244.352C279.769 240.207 278.708 236.152 277.053 232.328C270.921 218.3 263.867 209.917 254 198.708C242.965 186.162 237.007 168.648 226.726 155.622C215.864 141.861 194.522 133.851 177.414 131.32C160.307 128.788 140.895 135.755 127.221 145.922C112.918 156.661 101.763 171.046 94.9229 187.572C85.0031 211.4 84.1881 238.854 95.4439 263.116C104.749 283.156 123.781 297.411 144.495 305.167C185.183 320.397 212.331 316.923 241.769 303.443C254.715 297.518 267.107 285.828 274.047 273.383C279.007 264.559 281.153 254.43 280.199 244.352Z" fill="#B0FF1A"/>
<path opacity="0.1" d="M51.276 197.552C49.166 199.225 47.3253 201.212 45.8184 203.444C40.3074 211.667 39.9267 221.941 37.2547 231.206C34.2687 241.56 26.5667 249.509 23.073 259.629C19.3656 270.317 20.9421 282.548 25.5112 292.735C30.0804 302.922 40.6147 311.052 50.8952 314.953C61.7166 319.004 73.4288 320.068 84.8029 318.033C101.202 315.153 116.419 306.055 125.698 291.5C133.373 279.476 134.502 264.172 131.523 250.211C125.664 222.823 114.342 209.235 96.7868 197.913C89.0581 192.916 78.3968 190.244 69.2252 190.799C62.6932 191.166 56.43 193.522 51.276 197.552Z" fill="#B0FF1A"/>
<path opacity="0.1" d="M288.963 346.442C291.432 345.364 293.722 343.918 295.757 342.154C303.205 335.627 306.225 325.801 311.188 317.545C316.746 308.306 326.224 302.608 332.23 293.737C338.569 284.385 340.199 272.147 338.409 261.125C336.619 250.103 328.542 239.529 319.611 233.11C310.202 226.404 299.161 222.355 287.647 221.386C271.061 219.937 254.014 224.8 241.288 236.47C230.767 246.115 225.731 260.598 225.009 274.853C223.593 302.862 231.021 318.881 245.083 334.352C251.255 341.152 260.867 346.489 269.872 348.326C276.279 349.665 282.942 349.008 288.963 346.442Z" fill="#B0FF1A"/>
<path opacity="0.1" d="M242.851 161.193C244.281 162.275 245.864 163.377 247.654 163.364C249.585 163.364 251.308 161.948 252.177 160.224C252.962 158.448 253.283 156.501 253.112 154.566C252.801 147.585 249.825 140.988 244.795 136.136C239.064 130.672 225.951 124.219 221.061 133.905C217.908 140.151 223.56 144.426 227.741 148.374C232.543 152.916 237.587 157.195 242.851 161.193Z" fill="#B0FF1A"/>
<path d="M304.709 328.279C307.16 328.092 309.772 327.899 312.531 329.615C317.02 332.448 321.215 336.349 322.17 337.725C323.126 339.101 324.321 338.393 325.397 335.721C325.958 334.269 326.101 332.69 325.811 331.161C325.52 329.632 324.808 328.215 323.754 327.07C321.462 324.679 319.205 322.835 318.329 321.239C317.454 319.642 313.366 317.752 310.981 318.092C310.981 318.092 310.166 317.999 309.358 317.945C305.724 317.705 300.594 317.277 300.594 317.277L298.056 328.834C298.056 328.834 302.244 328.46 304.709 328.279Z" fill="#FFA8A7"/>
<path d="M320.707 347.524C321.629 348.126 324.227 348.627 325.797 347.832C329.064 346.168 330.473 340.21 329.952 336.75C329.324 332.561 327.334 330.223 326.886 327.698C326.438 325.173 327.08 321.686 326.338 319.462C326.035 318.592 325.548 317.798 324.91 317.133C324.273 316.468 323.5 315.947 322.644 315.607C322.097 315.38 321.506 315.28 320.914 315.314C320.323 315.349 319.747 315.518 319.231 315.808L318.235 316.355L320.707 347.524Z" fill="#263238"/>
<path d="M328.329 337.524C328.142 332.922 323.994 329.328 324.609 324.919C325.223 320.511 324.695 314.846 318.236 316.356C317.08 316.629 314.936 316.877 313.059 317.084C312.294 317.173 311.524 317.209 310.754 317.191C310.428 317.172 310.1 317.195 309.779 317.257C309.647 317.31 309.535 317.402 309.459 317.523C309.384 317.643 309.348 317.784 309.358 317.925L310.935 318.066C311.063 318.066 311.188 318.103 311.295 318.173C311.569 318.4 311.329 318.841 311.295 319.181C311.295 319.689 311.863 321.459 312.277 321.74L313.914 322.855C314.461 323.149 314.968 323.51 315.424 323.931C315.571 324.104 315.784 324.599 315.477 324.739C315.17 324.879 314.228 324.338 313.921 324.231C313.746 324.149 313.552 324.114 313.36 324.131C313.026 324.198 312.832 324.545 312.692 324.846C312.286 325.758 311.659 326.555 310.868 327.164C310.215 327.568 309.503 327.868 308.757 328.052C308.703 328.066 308.653 328.091 308.61 328.126C308.585 328.155 308.567 328.189 308.558 328.226C308.549 328.263 308.548 328.302 308.557 328.339C308.603 328.553 308.804 328.68 308.997 328.787C310.122 329.4 311.277 329.956 312.458 330.45C313.413 330.858 314.722 331.452 315.323 332.347C315.729 332.967 316.044 333.642 316.259 334.351C316.575 335.504 316.787 336.682 316.893 337.872C317.114 339.649 317.347 341.432 317.635 343.216C317.735 344.133 317.96 345.032 318.303 345.888C319.432 348.333 322.438 348.72 324.582 347.331C325.641 346.684 326.503 345.76 327.074 344.659C328.296 342.388 328.423 339.736 328.329 337.524Z" fill="#455A64"/>
<path d="M316.7 338.54C316.732 338.578 316.771 338.612 316.813 338.64C316.987 338.74 317.1 338.64 317.221 338.54C317.504 338.259 317.81 338.002 318.136 337.772C318.724 337.346 319.358 336.988 320.026 336.703C320.931 336.307 321.887 336.037 322.865 335.901L323.166 335.868C323.277 335.849 323.377 335.79 323.446 335.701C323.516 335.613 323.55 335.502 323.543 335.39C323.535 335.278 323.487 335.172 323.406 335.094C323.325 335.016 323.218 334.97 323.106 334.966C322.442 335.026 321.786 335.153 321.148 335.347C319.764 335.724 318.468 336.371 317.334 337.251C317.033 337.484 316.606 337.778 316.586 338.199C316.586 338.322 316.626 338.442 316.7 338.54Z" fill="#FAFAFA"/>
<path d="M316.272 336.108C316.512 336.375 316.826 335.961 317.007 335.794C317.286 335.534 317.583 335.293 317.895 335.073C318.472 334.679 319.09 334.35 319.739 334.091C320.545 333.759 321.392 333.534 322.257 333.423H322.364C322.483 333.413 322.594 333.356 322.671 333.264C322.749 333.173 322.787 333.055 322.778 332.935C322.773 332.876 322.756 332.819 322.729 332.767C322.702 332.714 322.664 332.668 322.619 332.63C322.574 332.592 322.521 332.564 322.465 332.546C322.409 332.529 322.349 332.522 322.29 332.528C321.628 332.595 320.975 332.729 320.34 332.929C318.992 333.324 317.741 333.995 316.666 334.899C316.531 334.984 316.416 335.095 316.326 335.226C316.236 335.357 316.175 335.505 316.145 335.661C316.13 335.794 316.155 335.929 316.218 336.048C316.235 336.069 316.253 336.089 316.272 336.108Z" fill="#FAFAFA"/>
<path d="M315.717 333.77C315.767 333.814 315.827 333.846 315.891 333.864C316.085 333.917 316.185 333.717 316.292 333.59L316.686 333.196C316.953 332.957 317.234 332.734 317.528 332.528C318.076 332.152 318.66 331.83 319.271 331.566C319.991 331.249 320.744 331.014 321.516 330.864H321.556C321.614 330.856 321.671 330.837 321.722 330.806C321.773 330.776 321.817 330.735 321.852 330.687C321.887 330.639 321.912 330.584 321.925 330.526C321.939 330.469 321.94 330.409 321.93 330.35C321.921 330.292 321.9 330.236 321.87 330.185C321.839 330.135 321.798 330.091 321.75 330.056C321.703 330.021 321.648 329.996 321.591 329.982C321.533 329.969 321.474 329.967 321.415 329.976C320.73 330.092 320.059 330.278 319.411 330.53C318.09 331.003 316.883 331.749 315.871 332.722C315.704 332.858 315.571 333.032 315.483 333.229C315.453 333.318 315.453 333.414 315.483 333.503C315.514 333.573 315.557 333.636 315.61 333.69L315.717 333.77Z" fill="#FAFAFA"/>
<path d="M319.071 326.689C319.012 326.662 318.949 326.644 318.884 326.636C318.683 326.636 318.637 326.856 318.557 327.003C318.476 327.15 318.376 327.324 318.276 327.484C318.073 327.786 317.85 328.074 317.608 328.346C317.17 328.838 316.685 329.286 316.158 329.682C315.541 330.171 314.869 330.586 314.154 330.918H314.121C314.011 330.965 313.925 331.053 313.88 331.164C313.836 331.275 313.837 331.399 313.884 331.509C313.931 331.619 314.02 331.706 314.13 331.75C314.241 331.795 314.365 331.793 314.475 331.746C315.102 331.464 315.7 331.119 316.259 330.717C317.423 329.935 318.408 328.915 319.151 327.725C319.275 327.549 319.36 327.349 319.398 327.137C319.409 327.042 319.388 326.945 319.338 326.863C319.292 326.804 319.236 326.754 319.171 326.716C319.138 326.705 319.105 326.696 319.071 326.689Z" fill="#FAFAFA"/>
<path d="M328.349 338.353C328.444 340.52 328.016 342.679 327.1 344.645C326.529 345.747 325.667 346.671 324.608 347.317C322.464 348.707 319.458 348.319 318.329 345.874C317.986 345.018 317.761 344.119 317.661 343.202C317.541 342.448 317.434 341.686 317.327 340.918C320.774 336.683 326.96 337.691 328.349 338.353Z" fill="#FAFAFA"/>
<path d="M243.099 351.786C244.451 354.82 244.811 358.202 244.128 361.452C242.792 367.277 240.788 373.035 239.626 374.598C238.463 376.162 239.786 377.103 243.219 377.19C246.653 377.277 250.534 375.42 252.291 372.08C254.048 368.74 255.19 365.641 256.633 364.097C258.076 362.554 257.662 360.196 256.306 357.825C254.949 355.454 253.373 342.167 253.373 342.167L240.167 344.839C240.167 344.839 242.03 349.228 243.099 351.786Z" fill="#FFA8A7"/>
<path d="M258.677 363.015C258.947 363.613 259.099 364.257 259.125 364.912C259.091 365.747 257.789 367.484 256.894 368.413C255.64 369.699 254.924 371.414 254.89 373.209C254.628 376.135 253.347 378.875 251.269 380.951C248.368 383.621 244.751 385.385 240.862 386.028C236.005 386.95 234.596 384.592 234.596 384.592C234.596 384.592 233.38 382.334 234.355 381.546C235.331 380.757 258.677 363.015 258.677 363.015Z" fill="#263238"/>
<path d="M255.317 352.307C255.808 354.461 256.602 356.535 257.675 358.466C258.343 359.649 259.191 361.559 258.677 363.015C258.062 365.24 255.43 366.863 254.589 369.903C253.747 372.942 252.845 378.206 247.361 381.512C241.877 384.819 236.633 384.732 234.876 383.563C233.119 382.394 233.5 380.53 236.513 377.204C239.706 373.663 242.525 365.621 242.525 365.621C243.193 363.289 243.861 360.945 243.72 358.206L241.543 355.36C241.496 354.405 250.227 351.766 251.442 352.688L252.271 356.696L252.525 352.548L255.317 352.307Z" fill="#455A64"/>
<path d="M250.654 378.76C250.654 378.76 249.117 374.846 243.747 374.378C238.376 373.91 236.225 376.289 235.236 377.718C234.061 379.421 232.685 382.581 234.795 383.73C237.073 384.952 239.879 384.899 244.475 383.249C249.071 381.599 250.654 378.76 250.654 378.76Z" fill="#FAFAFA"/>
<path d="M251.389 363.523C251.309 363.55 251.224 363.56 251.14 363.552C251.056 363.544 250.974 363.518 250.901 363.476C250.113 363.002 245.824 361.739 243.012 363.73C242.711 363.449 242.832 363.002 243.326 362.394C246.519 360.884 250.587 362.06 251.529 362.635C251.585 362.667 251.633 362.711 251.67 362.763C251.708 362.815 251.734 362.875 251.746 362.938C251.759 363.002 251.758 363.067 251.744 363.129C251.729 363.192 251.701 363.251 251.662 363.303C251.596 363.403 251.501 363.48 251.389 363.523Z" fill="#FAFAFA"/>
<path d="M242.124 366.596C242.088 366.352 242.111 366.103 242.193 365.87C242.274 365.637 242.411 365.428 242.592 365.26C245.711 364.031 249.486 365.133 250.394 365.681C250.449 365.714 250.496 365.758 250.533 365.81C250.57 365.863 250.596 365.922 250.608 365.985C250.621 366.048 250.62 366.113 250.606 366.175C250.592 366.238 250.566 366.297 250.528 366.349C250.46 366.441 250.363 366.509 250.254 366.542C250.174 366.572 250.089 366.582 250.005 366.574C249.92 366.566 249.839 366.539 249.766 366.496C249.005 366.055 244.936 364.859 242.124 366.596Z" fill="#FAFAFA"/>
<path d="M243.547 361.185C243.448 361.093 243.371 360.979 243.323 360.853C243.275 360.726 243.257 360.59 243.271 360.455C243.285 360.321 243.329 360.191 243.401 360.077C243.474 359.962 243.571 359.866 243.687 359.796C246.954 357.658 251.636 358.987 252.665 359.602C252.72 359.635 252.768 359.679 252.805 359.732C252.841 359.784 252.867 359.844 252.879 359.907C252.891 359.97 252.889 360.035 252.874 360.098C252.859 360.16 252.831 360.219 252.792 360.27C252.722 360.362 252.627 360.432 252.518 360.47C252.438 360.498 252.353 360.507 252.268 360.498C252.184 360.489 252.103 360.461 252.03 360.417C251.189 359.916 246.292 358.513 243.547 361.185Z" fill="#FAFAFA"/>
<path d="M239.171 373.202C239.249 372.529 239.567 371.905 240.066 371.446C243.239 370.036 247.207 371.185 248.142 371.746C248.197 371.779 248.244 371.823 248.281 371.876C248.318 371.928 248.344 371.988 248.356 372.051C248.369 372.114 248.368 372.178 248.354 372.241C248.341 372.304 248.314 372.363 248.276 372.414C248.206 372.505 248.111 372.573 248.002 372.608C247.921 372.637 247.835 372.647 247.75 372.639C247.664 372.631 247.582 372.605 247.508 372.561C246.679 372.087 241.95 370.711 239.171 373.202Z" fill="#FAFAFA"/>
<path d="M249.131 369.595C249.05 369.622 248.964 369.632 248.879 369.624C248.794 369.616 248.712 369.59 248.637 369.548C247.862 369.081 243.66 367.845 240.855 369.735C240.834 369.463 240.878 369.19 240.985 368.939C241.092 368.688 241.258 368.466 241.469 368.293C244.589 367.063 248.363 368.166 249.272 368.713C249.326 368.746 249.374 368.791 249.411 368.843C249.448 368.895 249.473 368.955 249.486 369.018C249.498 369.081 249.498 369.146 249.484 369.208C249.47 369.271 249.443 369.33 249.405 369.381C249.337 369.478 249.241 369.552 249.131 369.595Z" fill="#FAFAFA"/>
<path d="M302.137 317.044L284.475 312.895C284.475 312.895 287.428 294.285 289.325 282.916C290.861 273.744 289.164 264.592 288.37 261.192L248.363 263.657C248.363 263.657 237.595 286.088 230.641 304.525C228.443 310.357 227.475 313.016 230.641 321.613C234.829 333.009 241.088 347.805 241.088 347.805C243.727 347.992 251.569 347.979 253.78 343.71C252.578 333.376 252.905 320.33 249.519 313.998L264.014 293.29C264.014 298.847 263.38 311.66 263.907 320.364C264.502 330.29 269.826 330.731 275.771 330.771C286.212 330.851 300.307 329.923 300.307 329.923C301.943 328.62 304.114 320.945 302.137 317.044Z" fill="#455A64"/>
<path opacity="0.2" d="M284.475 312.895C284.475 312.895 284.087 317.458 281.97 320.243C283.355 319.249 284.497 317.955 285.31 316.456C286.546 314.064 293.927 316.897 299.451 316.376L284.475 312.895Z" fill="black"/>
<path opacity="0.2" d="M263.987 293.33L264.281 284.913C264.281 284.913 258.683 282.127 255.383 277.01C255.383 277.01 255.443 282.408 262.157 286.743L261.93 292.461L249.505 313.998L263.987 293.33Z" fill="black"/>
<path d="M202.766 203.918C202.96 203.781 203.19 203.705 203.428 203.698C203.665 203.691 203.899 203.753 204.102 203.878C204.541 204.104 204.957 204.372 205.344 204.679C206.112 205.254 207.248 206.249 208.016 206.817C208.35 207.104 208.732 207.33 209.145 207.485C209.141 207.237 209.195 206.993 209.303 206.77C209.411 206.547 209.57 206.353 209.766 206.202C210.147 205.895 210.755 205.955 211.069 205.568C211.165 205.415 211.23 205.245 211.262 205.067C211.623 203.731 213.066 203.297 214.315 203.377C213.4 201.253 212.311 199.021 211.643 197.124C211.329 196.243 211.256 195.067 211.917 194.706C212.912 194.165 213.56 195.154 214.075 196.209C215.063 198.213 216.693 201.112 217.816 203.457C218.129 204.125 218.671 204.993 219.025 205.621C219.786 206.957 220.822 208.073 221.115 209.629C221.249 210.297 221.276 211.333 221.363 212.248C221.411 213.893 221.871 215.501 222.699 216.924C224.195 219.375 230.407 228.447 230.407 228.447C230.407 228.447 240.087 224.258 245.037 221.967C252.839 218.353 253.447 218.14 257.101 218.073C255.564 223.504 250.421 233.717 250.421 233.717C250.421 233.717 235.791 239.135 230.821 240.805C227.194 242.014 224.763 242.615 221.71 236.082C220.588 233.684 220.14 232.595 218.19 228.3C215.885 223.203 215.357 222.161 213.614 218.854C212.723 217.406 211.735 216.02 210.655 214.706C210.045 213.906 209.49 213.067 208.991 212.194C207.655 209.937 204.562 207.705 202.979 205.608C202.712 205.154 202.305 204.392 202.766 203.918Z" fill="#FFBDA7"/>
<path d="M257.388 217.786C252.712 217.452 249.96 219.122 246.145 220.872C242.331 222.622 230.781 228.1 230.781 228.1C230.781 228.1 226.139 221.059 225.437 219.997C224.736 218.935 224.328 219.329 224.328 219.329L225.057 220.424C225.057 220.424 225.558 222.201 222.244 223.878C218.931 225.554 216.687 224.886 216.687 224.886L216.119 223.677C216.119 223.677 215.451 224.005 216.179 225.635C216.907 227.265 221.763 237.244 223.367 239.93C224.97 242.615 226.853 242.274 228.891 241.894C230.928 241.513 251.883 234.132 251.883 234.132L257.388 217.786Z" fill="#B0FF1A"/>
<path opacity="0.3" d="M257.388 217.786C252.712 217.452 249.96 219.122 246.145 220.872C242.331 222.622 230.781 228.1 230.781 228.1C230.781 228.1 226.139 221.059 225.437 219.997C224.736 218.935 224.328 219.329 224.328 219.329L225.057 220.424C225.057 220.424 225.558 222.201 222.244 223.878C218.931 225.554 216.687 224.886 216.687 224.886L216.119 223.677C216.119 223.677 215.451 224.005 216.179 225.635C216.907 227.265 221.763 237.244 223.367 239.93C224.97 242.615 226.853 242.274 228.891 241.894C230.928 241.513 251.883 234.132 251.883 234.132L257.388 217.786Z" fill="black"/>
<path d="M225.063 220.438L223.881 218.647C223.881 218.647 223.694 219.983 220.888 221.52C219.336 222.412 217.598 222.931 215.812 223.036L216.693 224.9C216.693 224.9 218.871 225.935 222.224 224.165C225.578 222.395 225.063 220.438 225.063 220.438Z" fill="#37474F"/>
<path d="M216.012 208.019L217.261 208.808C216.406 209.242 216.125 210.144 215.497 210.812C214.869 211.48 213.834 213.09 214.161 214.345C213.802 213.964 213.569 213.481 213.493 212.963C213.493 212.762 213.493 212.402 213.366 212.241C213.239 212.081 213.066 212.148 212.892 212.134C212.564 212.084 212.252 211.957 211.982 211.765C211.712 211.572 211.49 211.319 211.336 211.025C211.015 210.433 210.811 209.784 210.734 209.115C211.031 209.647 211.417 210.124 211.877 210.524C212.237 210.872 212.885 211.473 213.44 211.233C213.589 211.17 213.721 211.07 213.821 210.943C213.922 210.815 213.988 210.665 214.014 210.504C213.982 210.099 213.849 209.709 213.627 209.369C213.487 209.095 213.353 208.821 213.213 208.54C213.543 208.901 213.946 209.188 214.395 209.382C214.889 209.556 216.179 209.342 215.564 208.587C215.427 208.434 215.264 208.305 215.083 208.206C214.595 207.958 214.16 207.618 213.8 207.204C213.647 206.931 213.566 206.623 213.567 206.309C213.567 206.022 213.714 205.735 213.7 205.474C213.749 206.001 213.987 206.492 214.368 206.857C214.745 207.219 215.164 207.533 215.617 207.792L216.012 208.019Z" fill="#F0997A"/>
<path d="M214.736 204.272C214.51 204.298 214.301 204.407 214.149 204.577C213.998 204.747 213.914 204.966 213.914 205.194C213.957 205.085 214.031 204.991 214.127 204.924C214.224 204.857 214.338 204.821 214.455 204.82C214.702 204.82 214.909 205.014 215.123 205.134C215.675 205.518 216.308 205.769 216.974 205.869C217.387 205.89 217.798 205.946 218.203 206.036C218.588 206.136 218.947 206.32 219.251 206.577C219.17 206.451 219.081 206.33 218.984 206.216C218.671 205.854 218.274 205.575 217.829 205.401C217.16 205.244 216.504 205.038 215.865 204.786C215.464 204.573 215.13 204.232 214.736 204.272Z" fill="#F0997A"/>
<path d="M288.931 230.745C289.474 234.078 289.771 237.448 289.82 240.825C289.964 245.702 290.426 250.564 291.202 255.381C291.621 258.83 291.844 262.3 291.87 265.775C291.757 272.455 289.198 274.225 280.16 275.22C269.953 276.342 256.112 275.133 249.118 270.117C245.625 267.612 243.36 263.764 244.683 259.93C245.064 258.821 246.126 256.683 246.814 255.167C248.965 250.437 248.971 240.544 248.818 236.282C248.497 227.418 251.73 220.331 257.388 217.786C261.076 217.485 270.267 218.166 270.267 218.166L285.204 220.932C285.204 220.932 287.829 223.644 288.931 230.745Z" fill="#B0FF1A"/>
<path d="M270.267 218.166C270.267 218.166 263.433 217.665 259.192 217.719C258.888 220.53 259.332 223.372 260.481 225.955C261.743 228.627 263.407 228.34 264.369 226.677C265.73 224.526 267.722 222.848 270.073 221.874C272.247 221.144 274.377 220.29 276.453 219.315L270.267 218.166Z" fill="#E0E0E0"/>
<path d="M260.941 219.476L276.94 220.184L283.693 215.374L283.587 201.54L265.998 197.078L260.941 219.476Z" fill="#37474F"/>
<path d="M263.641 183.992C270.514 182.996 275.084 185.996 277.615 189.75C280.468 190.004 281.911 192.422 282.104 195.227C282.772 204.78 274.803 208.587 273.273 213.163L252.372 195.267C252.225 191.867 254.576 185.308 263.641 183.992Z" fill="#263238"/>
<path d="M281.236 188.601L277.389 189.797C277.573 190.309 277.945 190.733 278.43 190.981C278.916 191.229 279.477 191.283 280.001 191.133C280.255 191.057 280.49 190.93 280.693 190.759C280.895 190.588 281.059 190.377 281.175 190.139C281.292 189.901 281.357 189.641 281.368 189.376C281.378 189.111 281.333 188.847 281.236 188.601Z" fill="#263238"/>
<path d="M278.237 186.002L277.375 189.857C277.906 189.962 278.458 189.861 278.916 189.573C279.375 189.284 279.705 188.831 279.84 188.307C279.894 188.05 279.894 187.784 279.842 187.526C279.79 187.269 279.685 187.025 279.535 186.809C279.385 186.593 279.192 186.41 278.969 186.272C278.746 186.133 278.497 186.041 278.237 186.002Z" fill="#263238"/>
<path d="M277.455 189.509C274.923 185.768 270.514 182.996 263.641 183.992C254.576 185.328 252.225 191.867 252.372 195.267L256.894 199.142L265.698 192.976C267.061 190.745 274.656 189.002 277.455 189.509Z" fill="#B0FF1A"/>
<path d="M265.698 192.976C266.613 192.355 267.889 192.088 269.526 193.324C270.269 193.93 270.816 194.744 271.095 195.662C271.476 196.897 271.469 197.345 271.55 199.342C271.603 200.678 272.218 203.898 274.395 202.996C275.063 202.729 275.417 202.088 275.992 201.727C277.789 200.598 280.227 201.112 281.002 203.116C281.467 204.289 281.48 205.593 281.04 206.775C280.599 207.957 279.736 208.933 278.617 209.516C275.578 210.852 274.542 209.162 274.542 209.162L274.255 219.636C272.157 222.929 267.441 224.88 262.679 224.252C257.916 223.624 259.145 221.253 260.942 219.482V215.307C259.61 215.3 258.287 215.097 257.014 214.706C254.121 213.724 252.906 210.985 252.458 208.2C251.95 205.014 252.311 200.471 252.719 197.171C252.848 196.271 253.031 195.378 253.266 194.499C255.751 191.346 263.754 189.182 265.698 192.976Z" fill="#FFBDA7"/>
<path d="M270.728 202.769C270.828 203.684 269.826 204.546 268.49 204.686C267.154 204.827 265.999 204.205 265.899 203.29C265.798 202.375 266.8 201.513 268.136 201.373C269.472 201.233 270.628 201.854 270.728 202.769Z" fill="#F0997A"/>
<path d="M255.711 202.736C255.571 203.644 254.375 204.212 253.039 204.005C251.703 203.798 250.755 202.889 250.902 202.001C251.049 201.112 252.238 200.525 253.574 200.738C254.91 200.952 255.858 201.827 255.711 202.736Z" fill="#F0997A"/>
<path d="M261.283 198.3L259.76 206.029L255.973 204.245L261.283 198.3Z" fill="#F0997A"/>
<path d="M264.269 207.225L259.372 208.621C259.457 208.944 259.606 209.248 259.809 209.513C260.013 209.779 260.267 210.001 260.558 210.167C260.848 210.333 261.169 210.439 261.501 210.48C261.833 210.521 262.17 210.495 262.492 210.404C263.145 210.213 263.698 209.773 264.03 209.178C264.363 208.583 264.448 207.882 264.269 207.225Z" fill="#B16668"/>
<path d="M262.492 210.404C262.391 210.429 262.288 210.446 262.185 210.458C262.165 209.861 262.38 209.281 262.783 208.841C263.187 208.401 263.747 208.138 264.343 208.106C264.305 208.632 264.108 209.135 263.777 209.545C263.447 209.956 262.998 210.256 262.492 210.404Z" fill="#F28F8F"/>
<path d="M256.907 198.841C256.617 198.677 256.304 198.558 255.979 198.487C255.663 198.404 255.335 198.377 255.01 198.407C254.666 198.438 254.33 198.526 254.015 198.667C254.015 198.667 253.968 198.748 254.015 198.741C254.282 198.741 254.516 198.681 254.903 198.681C255.003 198.675 255.104 198.675 255.204 198.681C254.956 198.836 254.77 199.072 254.676 199.349C254.416 200.017 254.883 200.231 255.531 200.471C256.179 200.712 256.754 200.858 257.008 200.204C257.076 200.048 257.111 199.88 257.111 199.71C257.111 199.539 257.076 199.371 257.008 199.215L257.221 199.329C257.357 199.394 257.489 199.468 257.615 199.549C257.649 199.549 257.682 199.482 257.669 199.456C257.466 199.195 257.205 198.984 256.907 198.841Z" fill="#263238"/>
<path d="M257.115 195.588L254.403 196.463C254.293 196.098 254.33 195.705 254.506 195.367C254.682 195.029 254.983 194.773 255.345 194.653C255.522 194.596 255.709 194.576 255.895 194.592C256.081 194.609 256.261 194.662 256.426 194.749C256.591 194.836 256.737 194.955 256.855 195.099C256.973 195.243 257.062 195.41 257.115 195.588Z" fill="#263238"/>
<path d="M267.335 199.93C267.375 199.93 267.369 199.863 267.335 199.85C267.054 199.65 266.743 199.497 266.413 199.396C266.102 199.299 265.777 199.258 265.452 199.275C265.118 199.276 264.787 199.328 264.47 199.429C264.161 199.515 263.874 199.665 263.628 199.87C263.628 199.87 263.628 199.997 263.661 199.977L264.089 199.837L264.323 199.776C264.221 199.913 264.147 200.068 264.107 200.233C264.067 200.399 264.061 200.571 264.089 200.738C264.202 201.406 264.804 201.406 265.485 201.3C266.166 201.193 266.667 201.072 266.554 200.378C266.506 200.101 266.373 199.846 266.173 199.65C266.273 199.65 266.38 199.65 266.474 199.69C266.765 199.753 267.053 199.834 267.335 199.93Z" fill="#263238"/>
<path d="M265.19 196.53L267.542 198.126C267.753 197.809 267.832 197.421 267.761 197.047C267.69 196.672 267.474 196.34 267.161 196.122C267.005 196.018 266.831 195.946 266.647 195.91C266.463 195.874 266.274 195.875 266.09 195.913C265.907 195.95 265.733 196.025 265.578 196.131C265.424 196.237 265.292 196.372 265.19 196.53Z" fill="#263238"/>
<path d="M260.942 215.301C263.089 215.277 265.224 214.992 267.302 214.453C269.76 213.624 270.849 212.956 272.185 210.284C271.988 211.794 271.281 213.192 270.181 214.245C267.221 216.744 260.936 216.704 260.936 216.704L260.942 215.301Z" fill="#F0997A"/>
<path d="M265.698 192.976C266.086 192.308 265.638 190.972 265.077 190.505C264.704 190.257 264.282 190.091 263.84 190.017C263.398 189.944 262.945 189.964 262.512 190.077C261.176 190.464 260.795 191.847 260.368 192.956C260.129 193.715 259.773 194.432 259.312 195.08C258.964 195.617 258.482 196.053 257.914 196.345C257.346 196.638 256.711 196.778 256.072 196.75C256.463 196.403 256.767 195.969 256.96 195.483C257.153 194.997 257.228 194.472 257.181 193.951C256.019 195.1 253.841 196.517 252.198 196.704C251.022 196.831 250.495 196.263 250.301 195.154C249.813 192.255 251.223 188.895 253.32 186.844C253.599 186.568 253.896 186.312 254.209 186.076C258.477 182.876 265.197 181.654 270.628 182.322C273.674 182.696 277.976 185.241 277.455 189.509C274.643 189.082 267.001 190.705 265.698 192.976Z" fill="#B0FF1A"/>
<path opacity="0.3" d="M265.698 192.976C266.086 192.308 265.638 190.972 265.077 190.505C264.704 190.257 264.282 190.091 263.84 190.017C263.398 189.944 262.945 189.964 262.512 190.077C261.176 190.464 260.795 191.847 260.368 192.956C260.129 193.715 259.773 194.432 259.312 195.08C258.964 195.617 258.482 196.053 257.914 196.345C257.346 196.638 256.711 196.778 256.072 196.75C256.463 196.403 256.767 195.969 256.96 195.483C257.153 194.997 257.228 194.472 257.181 193.951C256.019 195.1 253.841 196.517 252.198 196.704C251.022 196.831 250.495 196.263 250.301 195.154C249.813 192.255 251.223 188.895 253.32 186.844C253.599 186.568 253.896 186.312 254.209 186.076C258.477 182.876 265.197 181.654 270.628 182.322C273.674 182.696 277.976 185.241 277.455 189.509C274.643 189.082 267.001 190.705 265.698 192.976Z" fill="white"/>
<path d="M260.48 225.955C259.144 224.405 258.343 222.675 258.476 219.669C258.588 218.147 258.902 216.646 259.412 215.207L260.928 215.301V219.476C260.928 219.476 259.144 222.014 260.48 225.955Z" fill="#455A64"/>
<path d="M287.635 222.976L283.854 221.994C279.565 220.878 269.158 222.081 264.114 226.897C264.114 226.897 264.114 225.855 265.45 224.305C266.586 222.969 268.697 221.226 272.625 219.476C273.219 219.215 273.78 218.935 274.308 218.647C279.652 215.688 282.057 211.192 281.289 205.915C281.478 204.972 281.387 203.995 281.028 203.103C280.952 202.914 280.858 202.733 280.747 202.562C281.344 201.337 281.76 200.032 281.983 198.688C282.539 199.039 283.076 199.418 283.593 199.823C287.755 203.083 285.858 207.171 286.88 210.511C287.902 213.851 290.427 212.235 291.148 216.911C291.392 218.175 291.17 219.485 290.525 220.6C289.879 221.714 288.853 222.558 287.635 222.976Z" fill="#455A64"/>
<path d="M267.595 241.934C265.964 239.696 264.851 237.125 264.335 234.405C264.1 233.119 264.015 231.81 264.081 230.504C264.121 229.836 264.195 229.235 264.295 228.607C264.474 227.877 264.608 227.136 264.696 226.389C264.696 226.242 264.522 226.002 264.388 226.182C264.038 226.762 263.811 227.408 263.72 228.079C263.571 228.761 263.475 229.454 263.433 230.15C263.341 231.537 263.418 232.93 263.66 234.299C264.146 237.212 265.485 239.915 267.508 242.067C267.581 242.134 267.628 241.987 267.595 241.934Z" fill="#263238"/>
<path d="M260.16 225.127C259.826 224.593 258.998 224.459 258.423 224.459C257.611 224.42 256.797 224.458 255.992 224.572C254.395 224.766 252.826 225.143 251.316 225.695C249.856 226.235 248.458 226.932 247.148 227.772C245.698 228.622 244.436 229.758 243.44 231.112C243.373 231.219 243.514 231.446 243.634 231.353C244.823 230.478 245.905 229.489 247.134 228.681C249.66 226.991 252.523 225.872 255.524 225.401C256.234 225.289 256.95 225.218 257.669 225.187C258.075 225.181 258.481 225.201 258.884 225.247C259.283 225.331 259.687 225.391 260.093 225.428C260.254 225.374 260.207 225.187 260.16 225.127Z" fill="#263238"/>
<path d="M305.764 216.503C295.958 233.744 292.718 237.305 290 243.751C285.07 242.595 280.648 231.106 284.91 222.943C284.91 222.943 292.364 213.277 296.493 205.361C296.646 201.253 295.718 187.559 294.575 181.981C294.361 181.051 293.818 180.23 293.046 179.67C290.821 177.993 289.706 175.708 288.103 173.711C286.867 172.155 285.724 171.707 285.952 171.253C286.246 170.692 287.321 169.85 288.958 170.525C289.786 170.865 291.803 172.756 292.505 173.01C293.206 173.263 291.903 170.097 289.773 166.937C288.557 165.127 287.862 163.491 288.109 161.981C288.223 161.266 288.73 160.799 289.272 160.966C289.475 161.041 289.661 161.157 289.819 161.306C289.728 161.066 289.704 160.806 289.748 160.553C289.793 160.3 289.905 160.064 290.073 159.87C290.661 159.122 291.342 159.456 291.863 160.03L292.531 160.799C292.875 160.605 293.274 160.535 293.662 160.6C294.051 160.664 294.406 160.859 294.669 161.153C294.876 161.353 295.337 161.954 295.337 161.954C295.925 161.654 296.86 161.333 297.936 162.582C299.186 163.82 300.305 165.183 301.276 166.65C302.025 167.867 302.63 169.168 303.079 170.525C303.644 171.863 304.032 173.268 304.235 174.706C304.562 178.681 303.68 179.209 304.856 184.252C306.7 192.181 309.044 197.752 309.906 205.915C310.187 208.614 309.345 210.204 305.764 216.503Z" fill="#FFBDA7"/>
<path d="M294.629 172.976C296.994 173.063 299.231 176.169 299.919 178.4C300.487 175.047 297.568 172.028 294.629 172.976Z" fill="#F0997A"/>
<path d="M283.413 222.856C284.482 220.304 288.216 218.968 291.369 213.624C294.522 208.28 296.232 205.154 296.232 205.154C296.232 205.154 295.41 194.466 295.27 192.682C295.13 190.899 295.711 190.678 295.711 190.678L295.864 192.361C297.95 193.022 300.178 193.084 302.297 192.542C305.57 191.593 306.265 189.683 306.265 189.683L305.905 188.394C306.539 188.093 306.78 189.73 307.361 191.947C308.697 197.124 310.367 204.679 310.3 206.643C310.233 208.607 309.973 209.883 307.053 215.033C304.134 220.184 291.021 240.324 289.913 244.779C284.876 242.856 278.236 235 283.413 222.856Z" fill="#B0FF1A"/>
<path opacity="0.3" d="M283.413 222.856C284.482 220.304 288.216 218.968 291.369 213.624C294.522 208.28 296.232 205.154 296.232 205.154C296.232 205.154 295.41 194.466 295.27 192.682C295.13 190.899 295.711 190.678 295.711 190.678L295.864 192.361C297.95 193.022 300.178 193.084 302.297 192.542C305.57 191.593 306.265 189.683 306.265 189.683L305.905 188.394C306.539 188.093 306.78 189.73 307.361 191.947C308.697 197.124 310.367 204.679 310.3 206.643C310.233 208.607 309.973 209.883 307.053 215.033C304.134 220.184 291.021 240.324 289.913 244.779C284.876 242.856 278.236 235 283.413 222.856Z" fill="black"/>
<path d="M295.871 192.382L295.604 189.496C297.398 190.207 299.363 190.365 301.248 189.95C304.688 189.316 305.53 186.978 305.53 186.978L306.392 190.13C306.392 190.13 305.724 192.355 301.656 193.11C297.587 193.865 295.871 192.382 295.871 192.382Z" fill="#37474F"/>
<path d="M148.338 371.179C147.55 371.847 147.743 372.575 148.478 373.336C149.674 374.572 155.198 375.674 159.286 374.833C161.061 374.524 162.7 373.684 163.986 372.423C165.272 371.162 166.144 369.54 166.487 367.772C167.222 364.372 167.516 361.706 168.792 359.636C170.068 357.565 171.217 356.663 172.526 355.2C173.835 353.737 174.777 351.933 173.528 350.15C172.279 348.366 148.338 371.179 148.338 371.179Z" fill="#455A64"/>
<path d="M182.599 236.169C182.599 236.169 171.871 242.148 148.07 236.917C146.16 243.176 144.73 247.725 142.372 257.031C140.428 264.686 137.389 277.538 136.32 291.767C135.913 297.264 138.117 302.214 139.306 305.04C143.399 314.801 147.545 324.539 151.744 334.251C153.274 337.798 153.982 339.001 155.418 342.535C157.068 346.596 157.957 347.812 156.848 352.107C156.26 354.392 154.784 360.123 153.575 362.16C152.343 364.401 150.957 366.552 149.426 368.6C148.758 369.388 148.09 370.377 148.377 371.359C148.488 371.645 148.66 371.904 148.882 372.116C149.103 372.329 149.369 372.49 149.66 372.588C150.242 372.779 150.851 372.878 151.464 372.882C155.138 373.076 159.82 374.285 162.653 371.412C164.523 369.502 165.685 366.068 166.3 363.49C166.64 361.663 167.305 359.911 168.264 358.319C169.246 356.856 170.709 355.774 171.757 354.311C173.027 352.581 173.761 350.21 172.8 348.299C172.192 347.13 171.056 346.349 170.128 345.434C166.921 342.314 166.788 337.932 166.226 333.777C165.523 328.656 164.844 323.534 164.189 318.413C162.653 306.469 163.521 301.513 156.514 295.454L170.174 261.292C174.89 252.368 182.599 236.169 182.599 236.169Z" fill="#FFA8A7"/>
<path d="M157.322 361.853C152.566 361.573 152.085 362.969 150.295 367.458C154.971 364.739 162.132 369.121 163.227 372.067C164.412 370.44 165.23 368.576 165.626 366.603C165.626 366.603 162.633 362.16 157.322 361.853ZM171.517 346.556C170.094 345.434 169.46 344.812 169.46 344.812C168.177 346.536 167.162 352.201 170.509 355.915C171.316 355.341 171.998 354.607 172.51 353.759C173.023 352.911 173.355 351.967 173.488 350.985C173.748 349.081 172.94 347.678 171.517 346.556Z" fill="#455A64"/>
<path d="M224.329 293.029C225.164 294.312 226.474 294.245 228.184 293.323C229.167 292.712 229.994 291.878 230.599 290.89C231.203 289.902 231.568 288.786 231.664 287.632C231.958 284.96 232.265 281.967 230.802 279.449C229.339 276.93 226.935 274.319 226.013 273.036C225.091 271.753 224.844 270.204 224.536 267.692C224.229 265.18 222.86 262.114 221.096 261.012C219.333 259.91 217.249 259.816 216.467 261.085C215.685 262.355 224.329 293.029 224.329 293.029Z" fill="#455A64"/>
<path d="M230.428 283.169C230.249 281.983 229.893 280.83 229.372 279.749C228.704 278.413 226.573 275.815 225.798 274.546C225.13 273.437 224.395 272.588 224.055 271.292C223.454 268.974 222.993 265.808 221.65 263.731C220.387 261.78 218.31 260.037 215.945 260.985C213.834 261.833 212.184 263.657 209.265 265.528C207.308 266.777 205.291 267.712 201.951 269.729C198.357 271.894 197.589 272.167 191.53 277.004C190.808 270.083 190.334 263.183 189.586 258.3C187.789 246.556 185.037 239.482 182.619 236.189C177.903 238.694 162.171 241.212 148.09 236.937L163.487 267.258C163.487 267.258 164.763 273.316 168.631 283.29C171.403 290.444 171.163 293.41 173.507 297.358C174.843 299.649 177.843 302.414 181.39 303.022C183.955 303.463 188.15 302.488 193.834 297.137C199.519 291.787 209.018 280.791 213.14 277.531C213.48 277.805 214.175 278.447 214.522 278.741C214.693 278.888 214.856 279.044 215.01 279.208C216.468 280.664 217.749 282.287 218.824 284.044C219.652 285.425 220.324 286.892 220.828 288.42C221.069 289.228 221.376 290.01 221.67 290.798C222.672 293.47 225.237 293.817 227.101 292.835C228.965 291.853 230.18 289.101 230.541 287.091C230.732 285.787 230.694 284.46 230.428 283.169Z" fill="#FFA8A7"/>
<path d="M227.93 276.93C226.46 276.933 225.014 277.293 223.714 277.978C222.415 278.664 221.301 279.654 220.468 280.865C217.629 284.693 218.771 284.379 221.083 288.988C221.363 283.604 227.162 280.457 230.221 281.152C229.756 279.602 228.976 278.165 227.93 276.93ZM222.713 265.227C222.091 263.624 220.254 260.478 217.723 260.377C215.812 260.297 214.556 260.852 212.993 262.381C211.544 263.811 210.655 264.552 210.655 264.552C212.492 265.675 219.353 268.921 222.713 265.227Z" fill="#455A64"/>
<path d="M214.276 278.347C215.726 275.741 216.32 272.815 215.699 271.186C216.02 273.457 214.51 276.095 213.174 277.385C213.441 277.598 213.909 278.026 214.276 278.347Z" fill="#F28F8F"/>
<path d="M147.676 235.561C151.517 238.233 172.479 240.571 182.927 234.613C187.055 241.326 188.638 247.739 189.78 256.463C190.922 265.187 191.904 275.307 191.904 275.307L196.894 271.793C196.894 271.793 200.642 270.638 204.049 275.748C207.455 280.858 205.779 287.211 205.779 287.211C205.779 287.211 193.548 300.35 187.596 302.822C181.644 305.294 175.999 305.541 171.884 296.69C168.585 289.589 165.305 277.358 165.305 277.358L159.473 294.278C159.473 294.278 161.958 296.95 163.394 306.048C164.369 312.194 165.973 321.306 165.973 321.306C165.973 321.306 160.956 329.555 148.752 329.141C148.752 329.141 137.85 303.644 136.2 298.52C134.55 293.397 135.271 288.647 137.015 280.284C138.758 271.92 147.676 235.561 147.676 235.561Z" fill="#B0FF1A"/>
<path opacity="0.3" d="M147.676 235.561C151.517 238.233 172.479 240.571 182.927 234.613C187.055 241.326 188.638 247.739 189.78 256.463C190.922 265.187 191.904 275.307 191.904 275.307L196.894 271.793C196.894 271.793 200.642 270.638 204.049 275.748C207.455 280.858 205.779 287.211 205.779 287.211C205.779 287.211 193.548 300.35 187.596 302.822C181.644 305.294 175.999 305.541 171.884 296.69C168.585 289.589 165.305 277.358 165.305 277.358L159.473 294.278C159.473 294.278 161.958 296.95 163.394 306.048C164.369 312.194 165.973 321.306 165.973 321.306C165.973 321.306 160.956 329.555 148.752 329.141C148.752 329.141 137.85 303.644 136.2 298.52C134.55 293.397 135.271 288.647 137.015 280.284C138.758 271.92 147.676 235.561 147.676 235.561Z" fill="white"/>
<path d="M165.305 277.365L161.01 261.433C161.01 261.433 154.817 259.128 150.883 253.871C151.891 258.32 156.621 262.876 159.467 263.945L162.807 279.85L159.467 294.285L165.305 277.365Z" fill="#B0FF1A"/>
<path d="M191.904 275.307C192.626 280.544 192.004 285.641 191.022 288.28C194.015 283.296 194.282 277.592 193.942 273.878L191.904 275.307Z" fill="#B0FF1A"/>
<path d="M147.021 239.589C148.455 240.192 149.937 240.674 151.45 241.032L152.579 241.312L153.715 241.533C154.476 241.693 155.245 241.8 156.013 241.9C159.08 242.319 162.176 242.491 165.271 242.415C168.365 242.36 171.448 242.029 174.483 241.426L176.741 240.892L178.965 240.224L181.136 239.395L183.24 238.373C182.572 238.787 181.904 239.202 181.236 239.589L179.112 240.604L176.901 241.413L174.63 242.081C171.567 242.826 168.43 243.229 165.278 243.283C162.145 243.358 159.012 243.118 155.926 242.568C152.816 242.062 149.809 241.056 147.021 239.589Z" fill="#B0FF1A"/>
<path d="M134.991 181.774C143.454 199.249 145.979 202.148 146.915 208.106C152.419 208.447 164.951 197.371 159.653 193.624C157.923 192.408 154.697 189.309 154.203 188.28C154.203 188.28 148.057 177.104 144.042 169.342C143.882 165.334 145.058 149.149 146.14 143.664C146.343 142.754 146.867 141.948 147.616 141.393C149.754 139.743 150.849 137.505 152.372 135.548C153.561 134.018 154.663 133.544 154.443 133.13C154.156 132.582 153.107 131.754 151.531 132.422C150.736 132.756 148.792 134.606 148.117 134.86C147.442 135.114 148.685 132.001 150.736 128.895C151.905 127.118 152.573 125.515 152.325 124.032C152.212 123.364 151.724 122.869 151.197 123.036C151.001 123.113 150.822 123.226 150.669 123.37C150.758 123.135 150.782 122.88 150.738 122.632C150.695 122.384 150.586 122.152 150.422 121.961C149.854 121.233 149.193 121.56 148.692 122.121L148.024 122.876C147.692 122.686 147.306 122.617 146.929 122.681C146.553 122.744 146.21 122.936 145.959 123.223C145.766 123.424 145.291 124.012 145.291 124.012C144.724 123.718 143.815 123.404 142.78 124.626C141.582 125.851 140.513 127.194 139.587 128.634C138.867 129.833 138.289 131.11 137.863 132.442C137.315 133.756 136.944 135.138 136.761 136.55C136.454 140.451 136.941 140.171 135.819 145.121C134.062 152.909 131.858 161.887 131.056 169.897C130.816 172.569 132.653 176.951 134.991 181.774Z" fill="#FFA8A7"/>
<path d="M141.517 139.984C141.931 136.644 144.529 135.261 146.727 134.486C143.354 134.052 140.455 137.078 141.517 139.984Z" fill="#F28F8F"/>
<path d="M158.624 192.802C158.751 190.798 157.629 188.607 155.678 186.35C153.728 184.092 145.445 169.429 145.445 169.429C145.445 169.429 145.705 158.741 145.605 157.151C145.505 155.561 144.823 155.04 144.823 155.04L144.65 157.165C144.65 157.165 143.053 158.454 138.965 157.793C134.877 157.131 133.621 155.047 133.621 155.047L133.995 153.35C133.995 153.35 132.94 152.722 132.345 155.695C131.677 158.968 129.339 169.055 129.767 171.787C130.194 174.519 131.25 177.699 133.775 183.143C136.3 188.587 142.151 199.596 142.592 202.602C143.033 205.608 142.045 210.037 142.045 210.037L158.624 192.802Z" fill="#E0E0E0"/>
<path d="M144.596 157.165L144.877 153.825C144.877 153.825 143.454 154.833 139.533 154.085C137.615 153.797 135.821 152.965 134.362 151.687L133.614 155.027C133.614 155.027 135.137 157.165 138.958 157.772C142.779 158.38 144.596 157.165 144.596 157.165Z" fill="#B0FF1A"/>
<path d="M150.916 236.837C149.777 236.589 148.686 236.161 147.683 235.568C147.683 235.568 146.908 238.701 145.779 243.35C141.964 242.014 137.315 239.255 134.71 233.784C135.946 214.112 144.997 200.451 158.571 192.809C160.528 193.905 161.377 193.824 161.377 193.824C161.377 193.824 151.069 206.911 150.021 216.383C149.426 221.887 150.181 230.551 150.916 236.837Z" fill="#37474F"/>
<path d="M182.004 235.107C171.777 240.21 153.173 238.34 148.277 235.915C148.277 235.762 148.343 235.588 148.377 235.421C149.833 228.621 147.368 219.155 147.368 219.155L181.336 226.59C179.613 231.226 180.114 232.014 182.004 235.06V235.107Z" fill="#FFA8A7"/>
<path d="M147.523 228.901C147.523 227.565 146.4 221.967 146.587 219.135C144.971 216.951 143.14 213.791 144.41 209.97C145.552 206.503 147.155 204.285 151.758 200.037C155.525 196.583 161.35 193.831 161.35 193.831C162.933 194.038 165.084 192.829 165.084 192.829L175.872 192.268C175.746 193.998 177.442 193.838 179.426 193.324C181.116 192.883 182.713 193.851 185.158 194.352C186.941 194.72 188.925 205 186.661 211.052C184.757 216.149 182.265 224.025 181.784 228.42C174.536 234.011 152.613 231.587 147.523 228.901Z" fill="#455A64"/>
<path d="M155.425 219.289C157.669 222.047 166.293 225.888 172.519 220.952C170.836 226.984 157.349 226.884 155.425 219.289Z" fill="#37474F"/>
<path d="M177.555 193.671C177.555 193.671 177.362 200.564 176.56 210.043C175.758 219.522 179.132 238.801 185.344 248.427C199.459 243.991 201.877 236.496 201.877 236.496C201.877 236.496 193.02 228.687 189.766 220.925C186.513 213.163 188.183 209.349 188.183 209.349C188.183 209.349 182.205 203.51 179.806 193.19C179.085 193.463 178.326 193.626 177.555 193.671Z" fill="#37474F"/>
<path d="M179.821 193.19C180.796 192.849 181.364 191.941 183.581 190.859C185.659 189.843 188.625 188.427 189.593 187.519C193.007 184.252 202.112 177.024 202.112 177.024C202.112 177.024 200.909 162.135 200.515 158.988C200.121 155.842 200.154 155.769 199.373 153.257C198.545 152.095 196.367 150.678 195.445 149.249C194.6 147.971 193.943 146.579 193.495 145.114C193.19 144.181 192.756 143.295 192.205 142.482C191.537 141.413 192.873 141.012 193.648 141.219C194.352 141.392 194.987 141.777 195.465 142.322C196.086 143.083 196.801 144.813 197.91 144.934C198.778 145.027 198.304 143.437 198.244 142.93C198.098 142.056 197.875 141.198 197.576 140.364C197.262 139.423 196.908 137.96 196.494 136.276C196.194 135.074 196.091 133.831 196.187 132.596C196.19 132.246 196.276 131.903 196.439 131.594C196.601 131.285 196.836 131.019 197.122 130.819C197.857 130.385 198.284 131.246 198.545 131.928C198.908 131.908 199.272 131.922 199.633 131.968C199.941 132.023 200.229 132.156 200.471 132.354C200.712 132.551 200.9 132.807 201.016 133.097C201.618 133.01 202.231 133.114 202.771 133.395C203.31 133.675 203.748 134.118 204.022 134.66C204.236 135.127 204.276 135.087 204.777 135.181C205.679 135.361 205.946 136.169 206.347 136.898C207.589 139.189 208.351 140.465 208.892 143.023C209.62 146.443 209.052 150.024 209.219 153.477C209.259 154.691 209.466 155.894 209.834 157.051C210.903 160.391 211.49 162.562 212.506 165.929C213.08 167.879 214.396 171.941 215.118 174.726C216.781 181.199 217.235 181.266 211.865 186.664C204.643 193.925 191.524 200.504 187.149 211.573C182.139 206.824 179.794 198.688 179.821 193.19Z" fill="#FFA8A7"/>
<path d="M199.8 145.268C202.118 145.722 203.841 149.142 204.169 151.453C205.257 148.227 202.859 144.82 199.8 145.268Z" fill="#F28F8F"/>
<path d="M202.112 177.011C202.379 178.481 203.555 183.103 205.799 183.992C202.513 183.678 201.404 179.269 201.21 177.752L202.112 177.011Z" fill="#F28F8F"/>
<path d="M179.82 193.19C181.156 190.839 181.383 190.919 186.033 188.794C190.682 186.67 200.608 176.984 200.608 176.984C200.608 176.984 198.497 163.19 200.942 163.297L201.056 164.573C201.056 164.573 204.463 166.457 208.023 165.334C211.584 164.212 211.684 163.117 211.684 163.117L211.283 161.74C211.283 161.74 212.238 160.885 213.254 163.978C214.269 167.071 217.375 176.61 217.115 180.177C216.854 183.744 214.89 185.114 210.815 189.249C206.741 193.384 188.558 207.245 187.776 212.903C183.013 209.616 178.538 201.032 179.82 193.19Z" fill="#E0E0E0"/>
<path d="M201.056 164.573L200.742 161.146C202.619 161.72 204.602 161.857 206.54 161.547C209.947 161.059 210.629 159.543 210.629 159.543L211.684 163.123C211.684 163.123 211.537 165.047 207.008 165.855C202.479 166.664 201.056 164.573 201.056 164.573Z" fill="#B0FF1A"/>
<path d="M156.808 190.912C159.567 192.395 163.701 192.328 165.565 191.687C168.325 191.773 171.086 191.585 173.808 191.126C173.808 191.126 177.917 191.861 180.649 190.591C183.381 189.322 183.234 185.915 183.234 185.915C183.234 185.915 185.024 187.966 183.007 189.736C186.848 190.518 188.498 186.497 187.629 183.831C186.46 180.197 184.583 179.316 184.957 174.913C185.331 170.511 185.365 166.477 181.33 164.96C181.048 164.306 180.803 163.637 180.595 162.956C180.243 162.278 179.813 161.643 179.313 161.066C178.229 159.832 176.91 158.828 175.432 158.113C172.125 156.463 168.384 156.363 164.744 156.403C160.268 156.457 155.392 157.833 152.766 161.747C152.251 162.506 151.919 163.374 151.797 164.283C151.675 165.192 151.767 166.117 152.065 166.984C152.613 168.367 153.722 169.589 154.069 171.066C154.51 173.13 152.419 174.987 151.237 176.41C149.4 178.587 147.195 183.557 151.978 187.659C151.237 186.156 151.698 183.217 152.7 182.315C152.112 184.74 152.239 188.467 156.808 190.912Z" fill="#B0FF1A"/>
<path opacity="0.2" d="M156.808 190.912C159.567 192.395 163.701 192.328 165.565 191.687C168.325 191.773 171.086 191.585 173.808 191.126C173.808 191.126 177.917 191.861 180.649 190.591C183.381 189.322 183.234 185.915 183.234 185.915C183.234 185.915 185.024 187.966 183.007 189.736C186.848 190.518 188.498 186.497 187.629 183.831C186.46 180.197 184.583 179.316 184.957 174.913C185.331 170.511 185.365 166.477 181.33 164.96C181.048 164.306 180.803 163.637 180.595 162.956C180.243 162.278 179.813 161.643 179.313 161.066C178.229 159.832 176.91 158.828 175.432 158.113C172.125 156.463 168.384 156.363 164.744 156.403C160.268 156.457 155.392 157.833 152.766 161.747C152.251 162.506 151.919 163.374 151.797 164.283C151.675 165.192 151.767 166.117 152.065 166.984C152.613 168.367 153.722 169.589 154.069 171.066C154.51 173.13 152.419 174.987 151.237 176.41C149.4 178.587 147.195 183.557 151.978 187.659C151.237 186.156 151.698 183.217 152.7 182.315C152.112 184.74 152.239 188.467 156.808 190.912Z" fill="black"/>
<path d="M176.06 190.585C176.22 186.864 176.38 184.573 176.38 184.573C176.808 185.321 179.052 185.969 181.51 183.791C182.45 182.934 183.044 181.763 183.18 180.498C183.317 179.233 182.987 177.962 182.252 176.924C180.729 175.027 178.244 175.147 176.661 177.646C174.977 177.846 173.869 175.909 174.57 172.602C174.744 170.812 173.942 166.971 171.898 165.708C169.613 164.286 166.22 166.123 165.165 166.283C164.459 166.394 163.738 166.356 163.048 166.172C162.357 165.988 161.713 165.661 161.157 165.214C160.041 164.493 158.03 164.546 156.868 166.597C155.993 168.347 155.011 170.819 154.73 175.949C154.37 182.629 155.398 185.969 157.837 187.752C159.052 188.627 160.415 189.088 163.02 189.249C163.02 189.249 162.973 190.171 162.947 191.981C162.945 192.422 162.785 192.848 162.496 193.182C162.206 193.515 161.807 193.734 161.37 193.798C160.034 195.194 156.447 200.538 163.241 201.213C172.833 202.161 176.601 194.613 177.549 193.637C175.766 193.23 175.993 191.887 176.06 190.585Z" fill="#FFA8A7"/>
<path d="M183.341 176.597C183.264 176.361 183.099 176.165 182.88 176.049C182.652 175.908 182.387 175.836 182.119 175.842C181.79 175.841 181.471 175.954 181.217 176.163C181.094 176.253 180.993 176.37 180.922 176.506C180.851 176.641 180.813 176.791 180.81 176.944C180.81 177.026 180.826 177.108 180.858 177.184C180.891 177.259 180.938 177.328 180.997 177.385C181.15 177.505 181.277 177.352 181.324 177.211C181.401 176.941 181.568 176.705 181.798 176.543C181.905 176.481 182.026 176.446 182.15 176.441C182.274 176.435 182.397 176.461 182.509 176.514C182.621 176.567 182.718 176.647 182.792 176.747C182.866 176.846 182.915 176.962 182.934 177.084C182.938 177.152 182.961 177.217 183.001 177.271C183.028 177.291 183.06 177.305 183.094 177.312C183.468 177.358 183.408 176.817 183.348 176.603L183.341 176.597Z" fill="#263238"/>
<path d="M183.801 177.873C183.764 177.756 183.704 177.647 183.625 177.553C183.546 177.459 183.449 177.382 183.34 177.325C183.086 177.168 182.789 177.094 182.49 177.114C182.192 177.135 181.908 177.248 181.677 177.439C181.554 177.529 181.453 177.646 181.382 177.782C181.311 177.917 181.273 178.067 181.27 178.22C181.27 178.302 181.286 178.384 181.318 178.459C181.35 178.535 181.397 178.604 181.457 178.661C181.604 178.781 181.73 178.661 181.784 178.487C181.858 178.217 182.023 177.981 182.251 177.819C182.359 177.757 182.48 177.721 182.605 177.715C182.729 177.709 182.853 177.734 182.966 177.786C183.079 177.839 183.177 177.92 183.252 178.02C183.326 178.12 183.375 178.237 183.394 178.36C183.394 178.42 183.394 178.501 183.461 178.547C183.488 178.569 183.52 178.582 183.554 178.587C183.928 178.628 183.868 178.086 183.808 177.879L183.801 177.873Z" fill="#263238"/>
<path d="M163.027 189.282C167.703 189.442 171.825 188.227 174.103 185.154C173.729 186.583 172.851 187.828 171.631 188.661C166.908 191.426 162.98 190.665 162.98 190.665L163.027 189.282Z" fill="#F28F8F"/>
<path d="M162.172 182.729L166.781 181.607C166.87 181.901 166.898 182.211 166.863 182.517C166.828 182.823 166.73 183.119 166.576 183.386C166.422 183.652 166.215 183.885 165.968 184.068C165.72 184.252 165.438 184.382 165.138 184.452C164.517 184.6 163.863 184.503 163.311 184.182C162.759 183.862 162.351 183.341 162.172 182.729Z" fill="#B16668"/>
<path d="M164.116 184.473C164.453 184.549 164.802 184.549 165.138 184.473C165.554 184.375 165.933 184.16 166.23 183.853C166.527 183.547 166.73 183.161 166.815 182.742C166.24 182.71 165.67 182.859 165.185 183.17C164.701 183.481 164.326 183.937 164.116 184.473Z" fill="#F28F8F"/>
<path d="M164.116 172.415L162.446 180.925L158.545 178.841L164.116 172.415Z" fill="#F28F8F"/>
<path d="M170.208 173.918C170.208 174.286 169.54 174.626 169.033 174.439C168.921 174.248 168.77 174.082 168.589 173.954C168.408 173.826 168.202 173.739 167.984 173.698C167.807 173.638 167.62 173.615 167.434 173.628C167.249 173.641 167.067 173.691 166.901 173.775C166.734 173.859 166.586 173.975 166.464 174.116C166.343 174.258 166.251 174.422 166.194 174.6C166.033 175.314 166.982 174.506 167.804 174.713C168.625 174.92 169.026 176.049 169.14 175.334C169.146 175.259 169.146 175.183 169.14 175.107C169.981 175.127 170.496 174.479 170.208 173.918Z" fill="#263238"/>
<path d="M156.708 172.569C156.641 172.93 157.222 173.404 157.75 173.324C157.898 173.161 158.08 173.032 158.283 172.946C158.486 172.859 158.705 172.817 158.925 172.823C159.111 172.801 159.299 172.817 159.479 172.869C159.658 172.922 159.826 173.009 159.971 173.127C160.117 173.244 160.238 173.389 160.326 173.554C160.415 173.718 160.47 173.899 160.488 174.085C160.488 174.813 159.734 173.825 158.892 173.851C158.05 173.878 157.416 174.9 157.442 174.172C157.435 174.099 157.435 174.025 157.442 173.952C156.694 173.805 156.307 173.056 156.708 172.569Z" fill="#263238"/>
<path d="M156.981 170.946L160.054 170.324C160.022 170.123 159.95 169.93 159.841 169.757C159.732 169.585 159.589 169.436 159.421 169.32C159.253 169.205 159.063 169.124 158.863 169.085C158.663 169.045 158.457 169.046 158.257 169.088C157.847 169.176 157.486 169.417 157.249 169.762C157.011 170.108 156.915 170.531 156.981 170.946Z" fill="#263238"/>
<path d="M170.649 172.662L167.896 171.086C167.992 170.902 168.123 170.739 168.283 170.608C168.442 170.476 168.627 170.379 168.826 170.321C169.024 170.262 169.233 170.245 169.438 170.27C169.643 170.295 169.842 170.361 170.021 170.464C170.386 170.681 170.655 171.03 170.772 171.438C170.889 171.847 170.845 172.285 170.649 172.662Z" fill="#263238"/>
<path d="M169.312 177.812C169.312 178.915 170.481 179.816 171.984 179.877C173.487 179.937 174.73 179.055 174.757 177.953C174.783 176.851 173.588 175.949 172.085 175.889C170.582 175.829 169.366 176.71 169.312 177.812Z" fill="#F28F8F"/>
<path d="M152.506 175.655C152.145 176.69 153.007 177.939 154.43 178.434C155.853 178.928 157.295 178.481 157.656 177.438C158.017 176.396 157.162 175.154 155.739 174.66C154.316 174.165 152.873 174.613 152.506 175.655Z" fill="#F28F8F"/>
<path d="M119.098 209.115C117.094 206.269 113.474 205.047 110.033 204.559C106.593 204.072 103.033 204.132 99.7128 203.076C96.7404 202.1 94.1188 200.274 92.171 197.826C92.2557 197.08 92.1736 196.325 91.9306 195.615C93.4135 195.688 94.6026 194.232 94.7629 192.756C94.7807 191.261 94.2749 189.808 93.3334 188.648C92.2832 187.157 90.9785 185.864 89.479 184.827C83.9613 181.006 76.266 180.879 70.3274 184.272C66.9874 186.169 63.908 189.382 63.9881 193.464C61.7303 193.865 60.274 196.309 59.9801 199.87C59.3121 207.539 60.5613 212.382 63.9347 217.739C67.4246 223.084 72.5598 227.148 78.5639 229.315C84.5542 231.447 90.9697 232.104 97.2679 231.233C94.8631 230.064 92.5919 228.728 91.7903 226.376C96.0778 227.279 100.482 227.491 104.836 227.004C109.419 226.49 114.128 225.067 117.348 221.754C120.568 218.44 121.757 212.889 119.098 209.115Z" fill="#263238"/>
<path d="M127.448 201.239C128.63 205.007 127.682 206.109 122.698 211.446C114.682 220.05 103.901 230.15 103.901 230.15L92.5449 218.734C96.0386 217.398 98.4033 216.663 100.16 215.074C107.354 208.561 112.592 203.617 114.188 201.82C114.188 201.82 108.844 186.597 108.063 184.833C107.281 183.07 105.224 181.767 104.763 181.393C101.583 178.855 101.229 177.385 99.7593 173.671C99.5055 173.003 99.2583 172.402 99.0178 171.76C98.9076 171.449 98.7805 171.143 98.6371 170.845C98.4901 170.571 98.3766 170.338 98.6371 170.057C98.8494 169.872 99.1238 169.774 99.4053 169.783C99.8686 169.797 100.324 169.906 100.743 170.105C101.161 170.304 101.534 170.588 101.837 170.939C102.438 171.644 102.976 172.399 103.447 173.197C103.841 173.784 104.115 173.023 104.188 172.642C104.556 170.785 103.52 167.966 102.852 166.216C102.338 165.11 101.909 163.967 101.57 162.796C101.391 162.054 101.447 161.274 101.73 160.565C101.937 160.09 102.284 159.73 102.845 160.044C103.17 160.28 103.437 160.586 103.627 160.939C104.088 161.607 104.529 161.467 105.384 161.607C105.934 161.652 106.475 161.772 106.994 161.961C107.596 162.285 108.105 162.759 108.47 163.337C108.744 163.223 109.049 163.207 109.333 163.291C109.618 163.375 109.865 163.554 110.033 163.798C111.334 165.271 112.378 166.954 113.119 168.774C113.911 170.949 114.348 173.235 114.415 175.548C114.517 176.984 114.872 178.391 115.464 179.703C116.192 181.313 117.922 184.506 121.028 189.723C124.201 195.127 126.272 197.472 127.448 201.239Z" fill="#C8856A"/>
<path d="M105.531 174.379C106.619 174.756 107.6 175.388 108.392 176.223C109.185 177.057 109.766 178.07 110.087 179.175C110.162 177.968 109.783 176.777 109.025 175.835C108.585 175.35 108.045 174.969 107.441 174.717C106.837 174.465 106.185 174.35 105.531 174.379Z" fill="#AF6152"/>
<path d="M71.3291 264.833C71.8606 262.252 72.0848 259.617 71.9971 256.984C71.9503 254.372 70.5141 251.994 67.8889 245.815C65.5664 240.159 64.7449 233.999 65.5041 227.933C70.0016 225.453 74.7065 223.37 79.5655 221.707C83.8634 220.197 88.3423 219.262 92.8854 218.928C92.8854 218.928 100.514 224.753 105.537 230.638C108.931 234.646 109.425 240.237 105.805 244.339L105.865 253.444L108.998 262.936C108.998 262.936 108.61 267.779 95.838 269.763C83.0658 271.747 71.3291 264.833 71.3291 264.833Z" fill="#C8856A"/>
<path d="M71.2429 256.904C75.1574 258.206 82.4921 260.524 93.7746 259.035C105.057 257.545 106.887 254.011 106.887 254.011L106.593 244.659C106.593 244.659 109.713 240.511 108.451 235.621C107.188 230.731 103.841 226.757 92.5722 218.694C91.1012 218.947 89.6149 219.101 88.1233 219.155C83.5341 219.496 77.2817 221.466 72.2115 223.831C69.8281 224.906 67.5848 226.267 65.5315 227.886C64.6097 232.188 65.1708 235.601 66.0593 240.431C66.3866 242.228 67.1214 245.234 67.756 246.443C69.4773 249.718 70.655 253.251 71.2429 256.904Z" fill="#F5F5F5"/>
<path d="M83.667 247.886C85.9783 249.529 93.4131 250.638 97.1339 245.521C97.1272 250.498 86.7598 253.303 83.667 247.886Z" fill="#E0E0E0"/>
<path d="M47.5553 219.021C60.6748 236.717 62.9193 239.062 67.7289 246.463C71.4296 245.742 77.2879 232.562 70.4009 224.793C65.3599 219.469 60.957 213.575 57.2813 207.231C56.9674 203.991 56.3127 188.701 56.8137 182.936C56.9206 181.979 57.3688 181.092 58.0763 180.438C60.0803 178.501 60.9687 176.076 62.3181 173.885C63.3735 172.181 64.4557 171.58 64.1818 171.173C63.8277 170.638 62.6587 169.903 61.109 170.765C60.3274 171.193 58.5305 173.324 57.8625 173.658C57.1945 173.992 58.1364 170.645 59.8665 167.231C60.8752 165.268 61.3762 163.544 60.962 162.048C60.7683 161.34 60.2139 160.919 59.6928 161.153C59.4976 161.25 59.3247 161.386 59.1851 161.553C59.249 161.301 59.2444 161.036 59.1715 160.786C59.0987 160.536 58.9604 160.309 58.771 160.131C58.103 159.463 57.435 159.85 57.0075 160.491L56.4196 161.34C56.0587 161.18 55.6535 161.151 55.2734 161.257C54.8933 161.363 54.5618 161.598 54.3355 161.921C54.1551 162.148 53.7543 162.803 53.7543 162.803C53.1397 162.562 52.1711 162.348 51.2426 163.718C50.1462 165.111 49.1949 166.613 48.4036 168.2C47.8033 169.514 47.3551 170.892 47.0676 172.308C46.6571 173.723 46.4325 175.185 46.3996 176.657C46.5199 180.705 46.7069 181.66 46.1057 186.877C45.1638 195.087 44.9768 197.231 43.7543 208.333C43.2801 212.455 43.4738 213.517 47.5553 219.021Z" fill="#C8856A"/>
<path d="M56.4199 173.718C54.0752 174.058 52.4119 177.131 51.9777 179.456C51.7439 176.53 52.8728 173.811 56.4199 173.718Z" fill="#AF6152"/>
<path d="M74.1019 220.665C73.6677 218.039 72.4319 212.114 72.4319 212.114C72.1313 212.923 69.9937 214.279 67.2014 212.528C66.1286 211.835 65.348 210.771 65.0081 209.539C64.6682 208.308 64.7926 206.994 65.3577 205.848C66.5535 203.724 69.005 203.444 70.989 205.655C72.6857 205.575 73.1533 203.998 71.4098 200.979C70.4279 197.291 74.2288 196.303 74.6697 191.059C80.1205 192.094 83.8881 188.808 87.9629 191.446C89.9735 194.155 91.3438 197.284 91.9709 200.598C93.4071 207.124 93.3069 210.464 91.2093 212.622C90.1539 213.684 88.8847 214.379 86.3329 214.933C86.3329 214.933 86.5333 215.835 86.854 217.605C87.0143 218.52 87.2748 219.195 88.1299 219.142C89.6596 220.304 93.7344 222.415 87.2748 224.619C78.9382 227.465 73.327 224.659 72.2181 223.851C73.9081 223.156 74.3156 221.947 74.1019 220.665Z" fill="#C8856A"/>
<path d="M86.326 214.96C81.7301 215.882 77.475 215.354 74.7295 212.682C75.3306 214.031 76.3979 215.117 77.7355 215.742C82.8524 217.746 86.6065 216.343 86.6065 216.343L86.326 214.96Z" fill="#AF6152"/>
<path d="M85.8918 207.852L81.1623 207.385C81.1154 207.688 81.1307 207.997 81.2072 208.294C81.2837 208.591 81.4199 208.869 81.6074 209.111C81.7949 209.354 82.0298 209.556 82.2978 209.704C82.5658 209.853 82.8614 209.946 83.1663 209.977C83.8062 210.039 84.4454 209.853 84.9524 209.458C85.4594 209.062 85.7956 208.488 85.8918 207.852Z" fill="#AF6152"/>
<path d="M84.2082 209.85C83.8809 209.966 83.532 210.009 83.1862 209.977C82.7625 209.936 82.3592 209.775 82.0233 209.514C81.6874 209.253 81.4328 208.901 81.2891 208.5C81.8558 208.388 82.4437 208.458 82.9682 208.7C83.4927 208.943 83.9269 209.345 84.2082 209.85Z" fill="#FFA8A7"/>
<path d="M77.0679 201.4C77.1306 201.649 77.2658 201.874 77.4565 202.046C77.6472 202.218 77.8847 202.329 78.1389 202.366C78.3931 202.403 78.6525 202.363 78.8842 202.252C79.1159 202.142 79.3093 201.964 79.4401 201.743C79.5709 201.522 79.633 201.267 79.6186 201.011C79.6042 200.754 79.5139 200.508 79.3592 200.303C79.2045 200.098 78.9924 199.944 78.7497 199.859C78.5071 199.775 78.2449 199.765 77.9965 199.83C77.8324 199.872 77.6782 199.946 77.5427 200.048C77.4073 200.149 77.2932 200.277 77.2069 200.422C77.1207 200.568 77.064 200.729 77.0402 200.897C77.0163 201.065 77.0258 201.236 77.0679 201.4Z" fill="#263238"/>
<path d="M86.6002 199.295C86.6628 199.544 86.7981 199.769 86.9888 199.941C87.1794 200.113 87.417 200.225 87.6711 200.262C87.9253 200.299 88.1847 200.259 88.4164 200.148C88.6481 200.037 88.8416 199.86 88.9723 199.639C89.1031 199.418 89.1652 199.163 89.1508 198.907C89.1364 198.65 89.0461 198.404 88.8914 198.199C88.7367 197.994 88.5246 197.839 88.282 197.755C88.0393 197.671 87.7771 197.661 87.5287 197.726C87.3646 197.768 87.2104 197.842 87.075 197.943C86.9395 198.045 86.8254 198.172 86.7392 198.318C86.6529 198.464 86.5963 198.625 86.5724 198.793C86.5486 198.961 86.558 199.131 86.6002 199.295Z" fill="#263238"/>
<path d="M82.1914 197.973L85.0371 206.169L88.6109 203.55L82.1914 197.973Z" fill="#AF6152"/>
<path d="M89.0989 196.002L86.0127 195.468C86.0393 195.265 86.1067 195.07 86.2108 194.895C86.315 194.719 86.4537 194.566 86.6185 194.446C86.7834 194.325 86.971 194.239 87.17 194.193C87.369 194.148 87.5752 194.142 87.7762 194.179C88.189 194.254 88.5569 194.485 88.8033 194.825C89.0497 195.165 89.1555 195.586 89.0989 196.002Z" fill="#263238"/>
<path d="M75.4984 199.375L78.0101 197.432C77.8899 197.263 77.7368 197.121 77.56 197.013C77.3833 196.906 77.1866 196.835 76.9817 196.806C76.7769 196.776 76.5683 196.789 76.3684 196.843C76.1686 196.896 75.9817 196.99 75.819 197.118C75.4852 197.38 75.2656 197.762 75.2058 198.182C75.1461 198.603 75.2509 199.03 75.4984 199.375Z" fill="#263238"/>
<path d="M78.2431 204.646C78.4502 205.735 77.4148 206.837 75.9385 207.118C74.4622 207.398 73.0928 206.757 72.8857 205.668C72.6787 204.579 73.7141 203.477 75.1903 203.197C76.6666 202.916 78.036 203.564 78.2431 204.646Z" fill="#AF6152"/>
<path d="M94.4961 199.79C95.0238 200.758 94.3759 202.121 93.0532 202.842C91.7306 203.564 90.2343 203.357 89.7132 202.388C89.1922 201.42 89.8335 200.05 91.1561 199.329C92.4788 198.607 93.9751 198.814 94.4961 199.79Z" fill="#AF6152"/>
<path d="M125.631 302.542C123.881 296.737 116.58 276.49 110.207 266.59L76.2193 269.502L97.1678 303.19C93.8278 302.522 86.7336 304.606 86.7336 304.606C80.5813 306.089 68.9314 310.23 64.0216 310.618C59.1118 311.005 59.2788 309.182 55.1973 309.809C52.198 310.27 50.8153 314.031 50.4479 317.318C50.0805 320.604 46.0324 325.548 44.1887 327.892C42.345 330.237 42.2849 333.083 43.5942 335.908C45.7184 340.464 48.9048 342.682 50.3477 343.256C52.7191 344.171 53.8346 342.642 53.8881 339.442C53.9415 336.69 59.0183 326.83 63.3269 323.998C65.9784 323.574 68.6579 323.351 71.3429 323.33C75.0436 323.33 95.1972 324.212 107.348 324.485C119.953 324.759 122.872 321.6 125.184 318.894C127.495 316.189 127.488 308.687 125.631 302.542Z" fill="#AF6152"/>
<path d="M111.37 266.49L76.293 269.496L98.9248 301.526C117.155 302.622 123.641 295.982 123.641 295.982C120.274 285.027 113.741 271.319 111.37 266.49Z" fill="#37474F"/>
<path d="M110.114 269.001L105.518 266.997L90.5613 268.28L79.1318 273.517L98.9247 301.526C103.618 301.869 108.335 301.583 112.953 300.678L107.609 283.884C110.528 279.643 111.864 274.619 110.114 269.001Z" fill="#263238"/>
<path d="M95.4111 297.164C98.9582 298.44 117.255 297.739 122.171 291.593L124.055 296.356C124.055 296.356 121.904 300.11 112.332 301.7C102.759 303.29 98.504 301.8 98.504 301.8L95.4111 297.164Z" fill="#263238"/>
<path d="M52.0775 309.696C50.4008 309.883 50.4008 310.217 49.2786 312.622C48.1564 315.026 48.7509 318.34 47.4616 320.05C46.1724 321.76 42.3514 326.342 41.3227 328.52C40.294 330.698 38.8845 333.864 42.1911 339.555C45.4977 345.247 49.4189 346.169 50.4543 346.102C51.4897 346.035 53.173 342.575 53.173 342.575L52.0775 309.696Z" fill="#263238"/>
<path d="M62.9729 310.685H61.7438C61.7438 310.685 60.4278 313.063 60.4278 314.793C60.476 315.576 60.3411 316.36 60.0339 317.082C59.7266 317.805 59.2554 318.446 58.6576 318.954C59.4002 318.618 60.2237 318.503 61.0301 318.621C61.8366 318.739 62.5921 319.087 63.2067 319.622C64.5427 320.885 66.0858 323.29 65.8186 324.238C65.5514 325.187 63.514 324.365 61.5167 326.022C59.5193 327.678 55.017 335.026 54.7431 336.656C54.4693 338.286 55.8119 343.109 51.5301 344.94C48.5307 344.525 43.808 340.698 42.2315 335.775C40.655 330.851 42.492 328.734 45.8253 324.171C49.1587 319.609 49.486 319.622 49.5862 316.904C49.6864 314.185 51.0558 311.306 52.0511 309.689C54.85 307.946 58.0631 308.948 59.6463 309.495C61.2294 310.043 62.9061 309.542 62.9729 310.685Z" fill="#37474F"/>
<path d="M41.9308 330.704C45.4579 329.235 54.035 332.809 54.9435 336.957C55.1305 339.976 55.2641 343.637 51.6035 345.167C47.4218 344.231 44.6964 340.858 43.4071 338.714C41.7572 335.968 40.9956 332.902 41.9308 330.704Z" fill="#EBEBEB"/>
<path d="M109.272 266.67L70.3339 270.01C69.5056 275.661 69.6191 282.395 72.0306 288.64C75.5643 297.799 89.6792 317.258 89.6792 317.258C89.6792 317.258 85.6712 318.119 80.1735 325.868C76.3592 331.212 73.1862 338.814 68.6772 343.503C67.0473 345.2 65.0433 345.307 62.9124 345.935C62.1182 346.124 61.3662 346.459 60.6946 346.923C60.1432 347.412 59.7037 348.015 59.4063 348.689C59.1089 349.364 58.9605 350.094 58.9712 350.831C59.0028 352.303 59.1615 353.769 59.4455 355.213C59.7228 357.008 59.7025 358.836 59.3854 360.624C58.7174 364.071 57.0206 367.11 56.9138 370.684C56.7735 375.267 60.7614 378.106 64.3954 380.036C65.8716 380.831 67.8489 381.559 69.4321 380.571C70.6078 379.829 70.9084 378.213 70.6545 376.843C70.4007 375.474 69.7327 374.218 69.4054 372.869C69.0871 371.101 69.0871 369.292 69.4054 367.525C69.5518 365.91 69.902 364.321 70.4474 362.795C70.8157 361.926 71.2374 361.08 71.71 360.263C72.5383 358.787 73.253 356.923 74.382 355.681C75.237 354.746 76.1588 353.864 77.054 353.009C81.9771 348.366 87.4414 344.325 92.6451 339.996C104.743 329.976 106.286 328.587 109.846 324.459C112.812 321.018 113.594 316.683 110.861 306.897C108.724 299.242 103.146 283.958 103.146 283.958C103.146 283.958 110.908 277.084 109.272 266.67Z" fill="#C8856A"/>
<path d="M109.933 266.616C96.8598 272.147 83.6066 272.027 70.2734 269.415C69.0309 276.302 68.5032 283.791 71.0082 289.228C74.3882 296.576 84.4216 309.936 84.4216 309.936C91.1016 299.883 105.484 296.543 108.75 299.916L104.074 283.884C104.074 283.884 111.322 277.037 109.933 266.616Z" fill="#455A64"/>
<path d="M79.0583 289.008C80.2082 288.723 81.2248 288.05 81.9373 287.104C84.2353 284.145 84.8164 278.186 83.6742 269.389L83.0863 269.462C84.2019 277.979 83.6408 283.951 81.4764 286.743C80.7649 287.701 79.7081 288.343 78.5305 288.534C75.4644 281.052 75.8986 274.926 76.4397 269.502L75.8385 269.556C75.2908 275.073 74.8766 281.312 78.0696 288.974C79.7196 292.916 83.4136 298.994 87.4216 305.334L87.8558 304.92C83.9881 298.807 80.4344 292.969 78.751 289.081C78.8549 289.063 78.9575 289.039 79.0583 289.008Z" fill="#263238"/>
<path d="M82.8389 308.427L85.8248 312.334C85.8248 312.334 90.8014 303.984 100.267 302.054C107.688 300.538 109.619 302.101 109.619 302.101L107.929 297.191C107.929 297.191 105.384 296.069 98.5769 297.338C92.5382 298.46 85.8849 301.92 82.8389 308.427Z" fill="#37474F"/>
<path d="M89.6795 317.258L88.751 317.612C88.5573 317.705 88.3502 317.805 88.083 317.946L91.6768 320.016L89.6795 317.258Z" fill="#AF6152"/>
<path d="M58.2362 346.723C56.653 347.471 56.7599 347.799 56.4727 350.551C56.1854 353.303 57.8955 356.356 57.2075 358.48C56.5194 360.604 54.3084 366.409 54.0412 368.921C53.774 371.432 53.4533 375.013 58.6437 379.495C63.834 383.978 67.9957 383.557 68.9977 383.136C69.9997 382.715 70.4472 378.74 70.4472 378.74L58.2362 346.723Z" fill="#263238"/>
<path d="M68.677 343.503L68.0825 344.392C68.0825 344.392 67.6216 347.197 68.2161 348.901C68.526 349.653 68.6571 350.467 68.5992 351.278C68.5412 352.09 68.2958 352.876 67.8821 353.577C68.4977 353.002 69.2641 352.613 70.0921 352.457C70.92 352.301 71.7753 352.383 72.5581 352.695C74.2749 353.497 76.6329 355.334 76.693 356.356C76.7532 357.378 74.4686 357.264 73.0658 359.569C71.663 361.873 69.7258 370.638 69.9997 372.334C70.2736 374.031 73.2462 378.346 69.6456 381.579C66.5528 382.194 60.6009 380.023 57.3812 375.714C54.1614 371.406 55.2502 368.687 56.987 363.076C58.7238 357.465 59.0512 357.351 58.2228 354.639C57.3945 351.927 57.7753 348.627 58.2228 346.703C60.3872 344.031 63.8875 343.931 65.6376 343.931C67.3878 343.931 68.0491 342.548 68.677 343.503Z" fill="#37474F"/>
<path d="M55.3712 370.845C58.3438 368.173 68.003 368.841 70.301 372.588C71.51 375.494 72.8861 379.061 69.8066 381.8C65.3711 382.301 61.5502 379.896 59.5462 378.226C56.9877 376.088 55.2042 373.33 55.3712 370.845Z" fill="#EBEBEB"/>
<path d="M70.2734 269.415L71.3289 264.833C71.3289 264.833 84.2814 269.375 96.4056 267.772C106.887 266.383 109.245 262.762 109.245 262.762L111.369 266.49C111.369 266.49 110.32 270.838 96.6728 272.682C80.9614 274.813 70.2734 269.415 70.2734 269.415Z" fill="#37474F"/>
<path d="M238.536 167.452L240.907 170.578L244.829 170.404C244.924 170.399 245.019 170.421 245.103 170.468C245.186 170.514 245.255 170.583 245.301 170.667C245.347 170.75 245.368 170.846 245.363 170.941C245.357 171.036 245.325 171.128 245.269 171.206L243.025 174.426L244.401 178.1C244.435 178.189 244.444 178.285 244.426 178.378C244.408 178.472 244.364 178.558 244.299 178.628C244.234 178.697 244.151 178.747 244.059 178.772C243.968 178.797 243.871 178.795 243.78 178.768L240.019 177.626L236.953 180.077C236.878 180.138 236.788 180.176 236.693 180.188C236.598 180.199 236.501 180.183 236.414 180.142C236.327 180.101 236.254 180.036 236.203 179.954C236.152 179.873 236.124 179.779 236.125 179.683L236.051 175.762L232.771 173.597C232.691 173.546 232.626 173.472 232.586 173.386C232.545 173.299 232.53 173.202 232.542 173.108C232.554 173.013 232.592 172.923 232.653 172.849C232.714 172.775 232.794 172.719 232.885 172.689L236.599 171.406L237.641 167.619C237.667 167.528 237.717 167.445 237.787 167.382C237.857 167.318 237.943 167.275 238.037 167.257C238.13 167.24 238.226 167.249 238.314 167.283C238.402 167.318 238.479 167.376 238.536 167.452Z" fill="#B0FF1A"/>
<path d="M96.9141 142.208L98.4037 144.172L100.869 144.065C100.928 144.064 100.986 144.078 101.037 144.108C101.088 144.137 101.131 144.18 101.159 144.232C101.187 144.284 101.201 144.342 101.198 144.401C101.195 144.46 101.176 144.517 101.143 144.566L99.733 146.57L100.601 148.875C100.623 148.931 100.628 148.992 100.617 149.051C100.605 149.11 100.577 149.165 100.536 149.208C100.495 149.252 100.442 149.284 100.384 149.299C100.326 149.315 100.265 149.313 100.207 149.296L97.8359 148.601L95.9054 150.137C95.8584 150.175 95.8019 150.199 95.7421 150.205C95.6824 150.212 95.6219 150.202 95.5676 150.177C95.5132 150.151 95.4672 150.11 95.4348 150.06C95.4024 150.009 95.3849 149.95 95.3844 149.89L95.3376 147.425L93.2802 146.089C93.2291 146.056 93.1885 146.01 93.1628 145.955C93.1372 145.9 93.1277 145.839 93.1354 145.779C93.1431 145.719 93.1677 145.662 93.2063 145.615C93.2449 145.568 93.296 145.534 93.3536 145.515L95.685 144.713L96.353 142.335C96.3669 142.277 96.3969 142.224 96.4395 142.182C96.4821 142.14 96.5356 142.11 96.594 142.097C96.6524 142.084 96.7134 142.087 96.7699 142.107C96.8265 142.126 96.8764 142.162 96.9141 142.208Z" fill="#B0FF1A"/>
<path d="M203.246 318.66L204.736 320.664L207.214 320.557C207.273 320.555 207.333 320.568 207.385 320.597C207.437 320.626 207.48 320.669 207.509 320.721C207.539 320.773 207.553 320.832 207.55 320.892C207.547 320.952 207.528 321.009 207.494 321.058L206.072 323.062L206.947 325.38C206.968 325.437 206.973 325.498 206.962 325.557C206.95 325.616 206.922 325.67 206.881 325.714C206.84 325.758 206.787 325.789 206.729 325.805C206.671 325.82 206.61 325.819 206.553 325.801L204.181 325.08L202.237 326.63C202.19 326.667 202.134 326.691 202.074 326.698C202.014 326.705 201.954 326.695 201.899 326.669C201.845 326.643 201.799 326.603 201.767 326.552C201.734 326.501 201.717 326.443 201.716 326.382L201.669 323.904L199.599 322.535C199.55 322.501 199.511 322.455 199.486 322.401C199.462 322.347 199.453 322.287 199.461 322.228C199.468 322.169 199.492 322.114 199.529 322.068C199.567 322.022 199.616 321.987 199.672 321.967L202.044 321.172L202.712 318.787C202.728 318.735 202.759 318.687 202.799 318.65C202.84 318.612 202.889 318.586 202.943 318.573C202.997 318.56 203.053 318.561 203.106 318.577C203.159 318.592 203.207 318.621 203.246 318.66Z" fill="#B0FF1A"/>
<path d="M311.749 283.096L312.617 286.81L316.171 288.2C316.256 288.234 316.331 288.291 316.385 288.365C316.44 288.438 316.473 288.526 316.481 288.618C316.488 288.709 316.47 288.801 316.429 288.883C316.387 288.965 316.323 289.034 316.245 289.081L312.985 291.085L312.758 294.893C312.751 294.984 312.719 295.072 312.666 295.147C312.613 295.221 312.54 295.279 312.455 295.314C312.371 295.35 312.278 295.361 312.187 295.347C312.097 295.332 312.012 295.293 311.943 295.234L309.057 292.742L305.369 293.704C305.28 293.73 305.185 293.73 305.096 293.704C305.006 293.677 304.926 293.626 304.865 293.556C304.804 293.486 304.764 293.399 304.751 293.307C304.737 293.215 304.75 293.121 304.788 293.036L306.265 289.522L304.207 286.309C304.158 286.231 304.132 286.141 304.132 286.05C304.131 285.958 304.156 285.868 304.204 285.789C304.252 285.711 304.321 285.647 304.403 285.606C304.485 285.564 304.577 285.546 304.668 285.554L308.462 285.875L310.88 282.922C310.938 282.852 311.014 282.798 311.099 282.767C311.185 282.737 311.278 282.73 311.367 282.748C311.456 282.766 311.539 282.807 311.606 282.869C311.674 282.93 311.723 283.009 311.749 283.096Z" fill="#B0FF1A"/>
<path d="M45.0034 252.742L45.8718 256.456L49.4256 257.846C49.5109 257.88 49.5851 257.937 49.6398 258.011C49.6945 258.085 49.7275 258.172 49.7352 258.264C49.7428 258.355 49.7247 258.447 49.683 258.529C49.6413 258.611 49.5776 258.68 49.499 258.727L46.2392 260.731L46.0121 264.539C46.0068 264.631 45.976 264.72 45.923 264.795C45.8701 264.87 45.7971 264.929 45.7124 264.966C45.6277 265.002 45.5345 265.013 45.4435 264.999C45.3524 264.985 45.2671 264.946 45.1971 264.886L42.3114 262.388L38.624 263.35C38.535 263.373 38.4412 263.371 38.3533 263.344C38.2654 263.317 38.1868 263.266 38.1264 263.196C38.066 263.127 38.0262 263.042 38.0114 262.951C37.9967 262.86 38.0075 262.767 38.0429 262.682L39.5191 259.168L37.4617 255.955C37.411 255.877 37.3834 255.787 37.3819 255.694C37.3804 255.601 37.4051 255.509 37.4533 255.43C37.5014 255.35 37.5709 255.286 37.654 255.244C37.737 255.203 37.8301 255.185 37.9226 255.194L41.7169 255.514L44.135 252.568C44.1913 252.496 44.2668 252.44 44.3531 252.408C44.4393 252.376 44.5328 252.368 44.6231 252.386C44.7133 252.404 44.7968 252.447 44.864 252.51C44.9312 252.573 44.9795 252.653 45.0034 252.742Z" fill="#B0FF1A"/>
<path d="M46.0124 277.398C46.0137 277.718 45.92 278.031 45.7432 278.298C45.5664 278.565 45.3144 278.773 45.0191 278.896C44.7238 279.02 44.3986 279.053 44.0846 278.991C43.7706 278.929 43.4819 278.776 43.2551 278.55C43.0284 278.324 42.8738 278.036 42.8109 277.723C42.7479 277.409 42.7796 277.083 42.9017 276.788C43.0239 276.492 43.2311 276.239 43.497 276.061C43.763 275.883 44.0758 275.788 44.3958 275.788C44.6078 275.787 44.8179 275.828 45.014 275.909C45.2101 275.989 45.3883 276.108 45.5385 276.257C45.6887 276.407 45.8079 276.585 45.8892 276.78C45.9705 276.976 46.0124 277.186 46.0124 277.398Z" fill="#B0FF1A"/>
<path d="M317.941 271.74C317.942 272.06 317.849 272.373 317.672 272.64C317.495 272.907 317.243 273.115 316.948 273.238C316.653 273.362 316.327 273.395 316.013 273.333C315.699 273.271 315.411 273.118 315.184 272.892C314.957 272.666 314.802 272.378 314.74 272.065C314.677 271.751 314.708 271.425 314.83 271.13C314.953 270.834 315.16 270.581 315.426 270.403C315.692 270.225 316.005 270.13 316.325 270.13C316.537 270.129 316.747 270.17 316.943 270.251C317.139 270.331 317.317 270.45 317.467 270.599C317.617 270.749 317.737 270.927 317.818 271.122C317.899 271.318 317.941 271.528 317.941 271.74Z" fill="#B0FF1A"/>
<path d="M83.6477 155.582C83.6464 155.762 83.5916 155.939 83.4902 156.088C83.3889 156.238 83.2455 156.354 83.0781 156.422C82.9108 156.49 82.727 156.508 82.5499 156.472C82.3728 156.436 82.2104 156.348 82.0831 156.22C81.9558 156.091 81.8693 155.928 81.8345 155.751C81.7997 155.574 81.8182 155.39 81.8877 155.223C81.9571 155.056 82.0744 154.914 82.2248 154.813C82.3751 154.713 82.5518 154.66 82.7325 154.66C82.8533 154.66 82.9728 154.684 83.0843 154.73C83.1958 154.776 83.2969 154.844 83.382 154.93C83.4671 155.016 83.5343 155.117 83.5799 155.229C83.6255 155.341 83.6486 155.461 83.6477 155.582Z" fill="#B0FF1A"/>
<path d="M193.006 336.349C193.563 336.349 194.014 335.897 194.014 335.34C194.014 334.783 193.563 334.332 193.006 334.332C192.449 334.332 191.997 334.783 191.997 335.34C191.997 335.897 192.449 336.349 193.006 336.349Z" fill="#B0FF1A"/>
<path d="M256.799 166.737C257.342 166.737 257.781 166.297 257.781 165.755C257.781 165.213 257.342 164.773 256.799 164.773C256.257 164.773 255.817 165.213 255.817 165.755C255.817 166.297 256.257 166.737 256.799 166.737Z" fill="#B0FF1A"/>
</svg>
