<svg width="360" height="360" viewBox="0 0 360 360" fill="none" xmlns="http://www.w3.org/2000/svg">
<rect width="360" height="360" rx="180" fill="#122023"/>
<path d="M99.5 231.48C99.5 228.64 99.96 226.24 100.88 224.28C101.8 222.28 103.24 220.54 105.2 219.06C107.16 217.54 109.82 216.1 113.18 214.74L118.76 212.46C121.2 211.5 122.84 210.6 123.68 209.76C124.52 208.88 124.94 207.84 124.94 206.64C124.94 205.44 124.48 204.5 123.56 203.82C122.64 203.14 121.22 202.8 119.3 202.8C115.46 202.8 113.12 204.48 112.28 207.84L100.58 205.98C101.34 202.5 103.36 199.68 106.64 197.52C109.92 195.32 114.74 194.22 121.1 194.22C125.5 194.22 129.14 194.76 132.02 195.84C134.9 196.88 137 198.3 138.32 200.1C139.68 201.86 140.36 203.82 140.36 205.98C140.36 208.5 139.48 210.72 137.72 212.64C135.96 214.56 132.86 216.48 128.42 218.4L122.18 220.92C120.26 221.72 118.8 222.44 117.8 223.08C116.84 223.68 116.18 224.28 115.82 224.88C115.46 225.44 115.26 226.1 115.22 226.86H140.9V237H99.5V231.48ZM166.533 237.78C159.413 237.78 153.873 235.9 149.913 232.14C145.993 228.34 144.033 222.98 144.033 216.06C144.033 209.06 145.993 203.68 149.913 199.92C153.873 196.12 159.413 194.22 166.533 194.22C171.213 194.22 175.233 195.06 178.593 196.74C181.953 198.38 184.513 200.78 186.273 203.94C188.073 207.1 188.973 210.9 188.973 215.34C188.973 222.5 186.993 228.04 183.033 231.96C179.113 235.84 173.613 237.78 166.533 237.78ZM159.513 215.94C159.513 220.42 160.153 223.66 161.433 225.66C162.753 227.62 164.453 228.6 166.533 228.6C168.613 228.6 170.293 227.58 171.573 225.54C172.853 223.5 173.493 220.14 173.493 215.46C173.493 211.02 172.853 207.84 171.573 205.92C170.333 204 168.653 203.04 166.533 203.04C161.853 203.04 159.513 207.34 159.513 215.94ZM242.78 195H254.18L208.7 237H197.18L242.78 195ZM191.36 205.32C191.36 203.28 191.94 201.44 193.1 199.8C194.26 198.16 195.98 196.88 198.26 195.96C200.58 195 203.36 194.52 206.6 194.52C209.88 194.52 212.68 195 215 195.96C217.32 196.88 219.06 198.16 220.22 199.8C221.42 201.44 222.02 203.28 222.02 205.32C222.02 207.44 221.42 209.34 220.22 211.02C219.06 212.7 217.32 214.02 215 214.98C212.72 215.9 209.92 216.36 206.6 216.36C203.36 216.36 200.58 215.9 198.26 214.98C195.98 214.02 194.26 212.7 193.1 211.02C191.94 209.34 191.36 207.44 191.36 205.32ZM202.82 205.32C202.82 206.96 203.16 208.2 203.84 209.04C204.56 209.88 205.5 210.3 206.66 210.3C207.86 210.3 208.8 209.9 209.48 209.1C210.16 208.26 210.5 207 210.5 205.32C210.5 203.8 210.16 202.64 209.48 201.84C208.8 201.04 207.86 200.64 206.66 200.64C205.5 200.64 204.56 201.04 203.84 201.84C203.16 202.64 202.82 203.8 202.82 205.32ZM229.46 226.44C229.46 224.4 230.04 222.56 231.2 220.92C232.36 219.28 234.08 218 236.36 217.08C238.64 216.12 241.42 215.64 244.7 215.64C247.98 215.64 250.76 216.12 253.04 217.08C255.36 218 257.1 219.28 258.26 220.92C259.46 222.56 260.06 224.4 260.06 226.44C260.06 228.56 259.46 230.46 258.26 232.14C257.1 233.78 255.36 235.08 253.04 236.04C250.76 237 247.98 237.48 244.7 237.48C241.42 237.48 238.64 237 236.36 236.04C234.08 235.08 232.36 233.78 231.2 232.14C230.04 230.46 229.46 228.56 229.46 226.44ZM240.92 226.44C240.92 228.08 241.26 229.32 241.94 230.16C242.62 230.96 243.54 231.36 244.7 231.36C245.9 231.36 246.84 230.96 247.52 230.16C248.24 229.32 248.6 228.08 248.6 226.44C248.6 224.88 248.24 223.7 247.52 222.9C246.84 222.1 245.9 221.7 244.7 221.7C243.54 221.7 242.62 222.1 241.94 222.9C241.26 223.7 240.92 224.88 240.92 226.44Z" fill="#B0FF1A"/>
<path d="M102.599 267.034H109.421V261.274H110.987V274H109.421V268.474H102.599V274H101.033V261.274H102.599V267.034ZM119.997 272.794C119.793 273.07 119.559 273.292 119.295 273.46C119.031 273.628 118.755 273.76 118.467 273.856C118.191 273.952 117.909 274.018 117.621 274.054C117.345 274.09 117.069 274.108 116.793 274.108C116.349 274.108 115.929 274.054 115.533 273.946C115.137 273.838 114.777 273.664 114.453 273.424C114.141 273.184 113.889 272.884 113.697 272.524C113.517 272.164 113.427 271.756 113.427 271.3C113.427 270.76 113.523 270.31 113.715 269.95C113.919 269.578 114.189 269.278 114.525 269.05C114.861 268.822 115.245 268.666 115.677 268.582C116.121 268.486 116.589 268.438 117.081 268.438H119.871C119.871 267.634 119.697 266.998 119.349 266.53C119.001 266.05 118.413 265.798 117.585 265.774C117.081 265.774 116.637 265.858 116.253 266.026C115.869 266.194 115.605 266.47 115.461 266.854H113.823C113.907 266.422 114.075 266.056 114.327 265.756C114.579 265.444 114.879 265.192 115.227 265C115.575 264.796 115.953 264.646 116.361 264.55C116.769 264.454 117.177 264.406 117.585 264.406C118.293 264.406 118.887 264.526 119.367 264.766C119.859 264.994 120.255 265.3 120.555 265.684C120.855 266.056 121.065 266.512 121.185 267.052C121.305 267.592 121.365 268.198 121.365 268.87V274H120.087L119.997 272.794ZM118.197 269.716C117.909 269.716 117.573 269.722 117.189 269.734C116.817 269.734 116.457 269.77 116.109 269.842C115.761 269.914 115.479 270.064 115.263 270.292C115.059 270.52 114.957 270.82 114.957 271.192C114.957 271.468 115.011 271.702 115.119 271.894C115.227 272.086 115.371 272.248 115.551 272.38C115.743 272.512 115.959 272.608 116.199 272.668C116.439 272.728 116.685 272.758 116.937 272.758C117.837 272.758 118.545 272.542 119.061 272.11C119.589 271.666 119.859 271.024 119.871 270.184V269.716H118.197ZM128.587 274V264.514H136.453V274H134.923V265.864H130.117V274H128.587ZM140.058 269.824C140.094 270.244 140.178 270.634 140.31 270.994C140.454 271.342 140.646 271.648 140.886 271.912C141.126 272.176 141.42 272.386 141.768 272.542C142.128 272.686 142.542 272.758 143.01 272.758C143.238 272.758 143.472 272.74 143.712 272.704C143.964 272.656 144.198 272.584 144.414 272.488C144.63 272.38 144.822 272.242 144.99 272.074C145.158 271.906 145.284 271.702 145.368 271.462H146.934C146.826 271.918 146.64 272.314 146.376 272.65C146.124 272.986 145.818 273.262 145.458 273.478C145.11 273.694 144.72 273.856 144.288 273.964C143.856 274.06 143.418 274.108 142.974 274.108C142.218 274.108 141.558 273.988 140.994 273.748C140.442 273.508 139.98 273.178 139.608 272.758C139.236 272.326 138.96 271.816 138.78 271.228C138.6 270.628 138.51 269.974 138.51 269.266C138.51 268.558 138.606 267.91 138.798 267.322C139.002 266.722 139.29 266.206 139.662 265.774C140.034 265.342 140.49 265.006 141.03 264.766C141.57 264.526 142.212 264.406 142.956 264.406C143.712 264.406 144.366 264.556 144.918 264.856C145.47 265.156 145.914 265.552 146.25 266.044C146.586 266.524 146.82 267.046 146.952 267.61C147.096 268.174 147.156 268.696 147.132 269.176C147.132 269.284 147.126 269.392 147.114 269.5C147.114 269.608 147.108 269.716 147.096 269.824H140.058ZM145.584 268.492C145.56 267.688 145.308 267.034 144.828 266.53C144.348 266.026 143.706 265.774 142.902 265.774C142.458 265.774 142.068 265.846 141.732 265.99C141.396 266.134 141.114 266.332 140.886 266.584C140.658 266.836 140.478 267.13 140.346 267.466C140.214 267.79 140.13 268.132 140.094 268.492H145.584ZM150.718 277.42H149.188V264.514H150.646L150.718 265.972C151.042 265.456 151.48 265.072 152.032 264.82C152.596 264.556 153.202 264.418 153.85 264.406C154.582 264.406 155.2 264.532 155.704 264.784C156.22 265.024 156.646 265.366 156.982 265.81C157.33 266.242 157.588 266.758 157.756 267.358C157.924 267.946 158.008 268.582 158.008 269.266C158.008 269.962 157.924 270.604 157.756 271.192C157.588 271.78 157.33 272.29 156.982 272.722C156.634 273.154 156.196 273.496 155.668 273.748C155.14 273.988 154.51 274.108 153.778 274.108C153.058 274.108 152.446 273.994 151.942 273.766C151.438 273.538 151.03 273.238 150.718 272.866V277.42ZM153.652 272.758C154.168 272.758 154.6 272.668 154.948 272.488C155.308 272.296 155.596 272.044 155.812 271.732C156.04 271.408 156.202 271.036 156.298 270.616C156.406 270.196 156.466 269.746 156.478 269.266C156.478 268.786 156.424 268.336 156.316 267.916C156.22 267.484 156.058 267.112 155.83 266.8C155.602 266.488 155.302 266.242 154.93 266.062C154.57 265.87 154.132 265.774 153.616 265.774C153.004 265.774 152.476 265.942 152.032 266.278C151.588 266.602 151.252 267.016 151.024 267.52C150.892 267.796 150.802 268.084 150.754 268.384C150.706 268.672 150.682 268.972 150.682 269.284C150.682 269.644 150.706 269.98 150.754 270.292C150.802 270.592 150.892 270.88 151.024 271.156C151.252 271.612 151.582 271.996 152.014 272.308C152.458 272.608 153.004 272.758 153.652 272.758ZM159.981 264.514H163.653C164.265 264.514 164.787 264.556 165.219 264.64C165.663 264.724 166.035 264.874 166.335 265.09C166.599 265.27 166.803 265.51 166.947 265.81C167.103 266.11 167.181 266.464 167.181 266.872C167.181 267.82 166.755 268.498 165.903 268.906C166.551 269.05 167.019 269.332 167.307 269.752C167.595 270.172 167.739 270.652 167.739 271.192C167.727 271.696 167.643 272.11 167.487 272.434C167.331 272.746 167.109 273.022 166.821 273.262C166.545 273.49 166.203 273.67 165.795 273.802C165.387 273.934 164.925 274 164.409 274H159.981V264.514ZM161.547 265.864V268.564H162.861C163.161 268.564 163.467 268.558 163.779 268.546C164.091 268.522 164.367 268.468 164.607 268.384C164.907 268.288 165.159 268.132 165.363 267.916C165.567 267.7 165.675 267.442 165.687 267.142C165.687 266.794 165.609 266.542 165.453 266.386C165.309 266.218 165.129 266.098 164.913 266.026C164.697 265.942 164.463 265.894 164.211 265.882C163.959 265.87 163.725 265.864 163.509 265.864H161.547ZM161.547 272.668H164.049C164.325 272.668 164.589 272.65 164.841 272.614C165.105 272.578 165.333 272.512 165.525 272.416C165.717 272.308 165.873 272.164 165.993 271.984C166.113 271.804 166.179 271.576 166.191 271.3C166.191 270.94 166.107 270.658 165.939 270.454C165.771 270.238 165.543 270.082 165.255 269.986C165.015 269.914 164.745 269.872 164.445 269.86C164.145 269.848 163.833 269.842 163.509 269.842L161.547 269.86V272.668ZM176.647 264.514H178.375L175.693 271.984C175.549 272.368 175.393 272.806 175.225 273.298C175.069 273.778 174.889 274.258 174.685 274.738C174.493 275.23 174.271 275.692 174.019 276.124C173.779 276.556 173.509 276.904 173.209 277.168C172.765 277.564 172.339 277.81 171.931 277.906C171.523 278.014 171.061 278.068 170.545 278.068H170.221V276.61C170.653 276.61 171.019 276.562 171.319 276.466C171.619 276.382 171.877 276.244 172.093 276.052C172.321 275.86 172.513 275.62 172.669 275.332C172.837 275.044 173.005 274.702 173.173 274.306L168.925 264.514H170.725L174.019 272.506L176.647 264.514ZM187.478 264.406C188.234 264.406 188.888 264.526 189.44 264.766C190.004 265.006 190.466 265.342 190.826 265.774C191.198 266.206 191.474 266.722 191.654 267.322C191.846 267.91 191.942 268.558 191.942 269.266C191.942 269.974 191.846 270.628 191.654 271.228C191.474 271.816 191.198 272.326 190.826 272.758C190.466 273.178 190.004 273.508 189.44 273.748C188.888 273.988 188.234 274.108 187.478 274.108C186.782 274.108 186.17 274.006 185.642 273.802C185.126 273.598 184.688 273.316 184.328 272.956C183.968 272.584 183.686 272.146 183.482 271.642C183.29 271.126 183.17 270.556 183.122 269.932H181.322V274H179.792V264.514H181.322V268.6H183.122C183.17 267.976 183.29 267.412 183.482 266.908C183.686 266.392 183.968 265.948 184.328 265.576C184.688 265.204 185.126 264.916 185.642 264.712C186.17 264.508 186.782 264.406 187.478 264.406ZM187.478 272.758C187.994 272.758 188.438 272.668 188.81 272.488C189.182 272.308 189.482 272.062 189.71 271.75C189.95 271.426 190.124 271.054 190.232 270.634C190.352 270.214 190.412 269.758 190.412 269.266C190.412 268.786 190.352 268.336 190.232 267.916C190.124 267.484 189.95 267.112 189.71 266.8C189.482 266.476 189.182 266.224 188.81 266.044C188.438 265.864 187.994 265.774 187.478 265.774C186.962 265.774 186.518 265.864 186.146 266.044C185.786 266.224 185.492 266.476 185.264 266.8C185.036 267.112 184.868 267.484 184.76 267.916C184.652 268.336 184.598 268.786 184.598 269.266C184.598 269.758 184.652 270.214 184.76 270.634C184.868 271.054 185.036 271.426 185.264 271.75C185.492 272.062 185.786 272.308 186.146 272.488C186.518 272.668 186.962 272.758 187.478 272.758ZM205.022 272.794C204.818 273.07 204.584 273.292 204.32 273.46C204.056 273.628 203.78 273.76 203.492 273.856C203.216 273.952 202.934 274.018 202.646 274.054C202.37 274.09 202.094 274.108 201.818 274.108C201.374 274.108 200.954 274.054 200.558 273.946C200.162 273.838 199.802 273.664 199.478 273.424C199.166 273.184 198.914 272.884 198.722 272.524C198.542 272.164 198.452 271.756 198.452 271.3C198.452 270.76 198.548 270.31 198.74 269.95C198.944 269.578 199.214 269.278 199.55 269.05C199.886 268.822 200.27 268.666 200.702 268.582C201.146 268.486 201.614 268.438 202.106 268.438H204.896C204.896 267.634 204.722 266.998 204.374 266.53C204.026 266.05 203.438 265.798 202.61 265.774C202.106 265.774 201.662 265.858 201.278 266.026C200.894 266.194 200.63 266.47 200.486 266.854H198.848C198.932 266.422 199.1 266.056 199.352 265.756C199.604 265.444 199.904 265.192 200.252 265C200.6 264.796 200.978 264.646 201.386 264.55C201.794 264.454 202.202 264.406 202.61 264.406C203.318 264.406 203.912 264.526 204.392 264.766C204.884 264.994 205.28 265.3 205.58 265.684C205.88 266.056 206.09 266.512 206.21 267.052C206.33 267.592 206.39 268.198 206.39 268.87V274H205.112L205.022 272.794ZM203.222 269.716C202.934 269.716 202.598 269.722 202.214 269.734C201.842 269.734 201.482 269.77 201.134 269.842C200.786 269.914 200.504 270.064 200.288 270.292C200.084 270.52 199.982 270.82 199.982 271.192C199.982 271.468 200.036 271.702 200.144 271.894C200.252 272.086 200.396 272.248 200.576 272.38C200.768 272.512 200.984 272.608 201.224 272.668C201.464 272.728 201.71 272.758 201.962 272.758C202.862 272.758 203.57 272.542 204.086 272.11C204.614 271.666 204.884 271.024 204.896 270.184V269.716H203.222ZM210.291 277.42H208.761V264.514H210.219L210.291 265.972C210.615 265.456 211.053 265.072 211.605 264.82C212.169 264.556 212.775 264.418 213.423 264.406C214.155 264.406 214.773 264.532 215.277 264.784C215.793 265.024 216.219 265.366 216.555 265.81C216.903 266.242 217.161 266.758 217.329 267.358C217.497 267.946 217.581 268.582 217.581 269.266C217.581 269.962 217.497 270.604 217.329 271.192C217.161 271.78 216.903 272.29 216.555 272.722C216.207 273.154 215.769 273.496 215.241 273.748C214.713 273.988 214.083 274.108 213.351 274.108C212.631 274.108 212.019 273.994 211.515 273.766C211.011 273.538 210.603 273.238 210.291 272.866V277.42ZM213.225 272.758C213.741 272.758 214.173 272.668 214.521 272.488C214.881 272.296 215.169 272.044 215.385 271.732C215.613 271.408 215.775 271.036 215.871 270.616C215.979 270.196 216.039 269.746 216.051 269.266C216.051 268.786 215.997 268.336 215.889 267.916C215.793 267.484 215.631 267.112 215.403 266.8C215.175 266.488 214.875 266.242 214.503 266.062C214.143 265.87 213.705 265.774 213.189 265.774C212.577 265.774 212.049 265.942 211.605 266.278C211.161 266.602 210.825 267.016 210.597 267.52C210.465 267.796 210.375 268.084 210.327 268.384C210.279 268.672 210.255 268.972 210.255 269.284C210.255 269.644 210.279 269.98 210.327 270.292C210.375 270.592 210.465 270.88 210.597 271.156C210.825 271.612 211.155 271.996 211.587 272.308C212.031 272.608 212.577 272.758 213.225 272.758ZM220.742 269.824C220.778 270.244 220.862 270.634 220.994 270.994C221.138 271.342 221.33 271.648 221.57 271.912C221.81 272.176 222.104 272.386 222.452 272.542C222.812 272.686 223.226 272.758 223.694 272.758C223.922 272.758 224.156 272.74 224.396 272.704C224.648 272.656 224.882 272.584 225.098 272.488C225.314 272.38 225.506 272.242 225.674 272.074C225.842 271.906 225.968 271.702 226.052 271.462H227.618C227.51 271.918 227.324 272.314 227.06 272.65C226.808 272.986 226.502 273.262 226.142 273.478C225.794 273.694 225.404 273.856 224.972 273.964C224.54 274.06 224.102 274.108 223.658 274.108C222.902 274.108 222.242 273.988 221.678 273.748C221.126 273.508 220.664 273.178 220.292 272.758C219.92 272.326 219.644 271.816 219.464 271.228C219.284 270.628 219.194 269.974 219.194 269.266C219.194 268.558 219.29 267.91 219.482 267.322C219.686 266.722 219.974 266.206 220.346 265.774C220.718 265.342 221.174 265.006 221.714 264.766C222.254 264.526 222.896 264.406 223.64 264.406C224.396 264.406 225.05 264.556 225.602 264.856C226.154 265.156 226.598 265.552 226.934 266.044C227.27 266.524 227.504 267.046 227.636 267.61C227.78 268.174 227.84 268.696 227.816 269.176C227.816 269.284 227.81 269.392 227.798 269.5C227.798 269.608 227.792 269.716 227.78 269.824H220.742ZM226.268 268.492C226.244 267.688 225.992 267.034 225.512 266.53C225.032 266.026 224.39 265.774 223.586 265.774C223.142 265.774 222.752 265.846 222.416 265.99C222.08 266.134 221.798 266.332 221.57 266.584C221.342 266.836 221.162 267.13 221.03 267.466C220.898 267.79 220.814 268.132 220.778 268.492H226.268ZM229.872 274V264.514H231.402V268.672H236.154V264.514H237.684V274H236.154V270.022H231.402V274H229.872ZM241.182 266.602C241.194 266.254 241.2 265.906 241.2 265.558C241.2 265.21 241.2 264.862 241.2 264.514H247.932V272.668H249.174V276.916H247.698V274H240.768V276.916H239.292V272.668C239.772 272.668 240.15 272.452 240.426 272.02C240.594 271.78 240.726 271.438 240.822 270.994C240.918 270.538 240.99 270.058 241.038 269.554C241.098 269.002 241.134 268.456 241.146 267.916C241.17 267.364 241.182 266.926 241.182 266.602ZM246.402 265.864H242.658C242.646 266.368 242.634 266.932 242.622 267.556C242.61 268.18 242.586 268.762 242.55 269.302C242.538 269.542 242.52 269.806 242.496 270.094C242.472 270.37 242.43 270.658 242.37 270.958C242.322 271.246 242.244 271.54 242.136 271.84C242.04 272.14 241.902 272.416 241.722 272.668H246.402V265.864ZM257.594 264.514H259.322L256.64 271.984C256.496 272.368 256.34 272.806 256.172 273.298C256.016 273.778 255.836 274.258 255.632 274.738C255.44 275.23 255.218 275.692 254.966 276.124C254.726 276.556 254.456 276.904 254.156 277.168C253.712 277.564 253.286 277.81 252.878 277.906C252.47 278.014 252.008 278.068 251.492 278.068H251.168V276.61C251.6 276.61 251.966 276.562 252.266 276.466C252.566 276.382 252.824 276.244 253.04 276.052C253.268 275.86 253.46 275.62 253.616 275.332C253.784 275.044 253.952 274.702 254.12 274.306L249.872 264.514H251.672L254.966 272.506L257.594 264.514ZM118.998 296V286.514H126.864V296H125.334V287.864H120.528V296H118.998ZM130.469 291.824C130.505 292.244 130.589 292.634 130.721 292.994C130.865 293.342 131.057 293.648 131.297 293.912C131.537 294.176 131.831 294.386 132.179 294.542C132.539 294.686 132.953 294.758 133.421 294.758C133.649 294.758 133.883 294.74 134.123 294.704C134.375 294.656 134.609 294.584 134.825 294.488C135.041 294.38 135.233 294.242 135.401 294.074C135.569 293.906 135.695 293.702 135.779 293.462H137.345C137.237 293.918 137.051 294.314 136.787 294.65C136.535 294.986 136.229 295.262 135.869 295.478C135.521 295.694 135.131 295.856 134.699 295.964C134.267 296.06 133.829 296.108 133.385 296.108C132.629 296.108 131.969 295.988 131.405 295.748C130.853 295.508 130.391 295.178 130.019 294.758C129.647 294.326 129.371 293.816 129.191 293.228C129.011 292.628 128.921 291.974 128.921 291.266C128.921 290.558 129.017 289.91 129.209 289.322C129.413 288.722 129.701 288.206 130.073 287.774C130.445 287.342 130.901 287.006 131.441 286.766C131.981 286.526 132.623 286.406 133.367 286.406C134.123 286.406 134.777 286.556 135.329 286.856C135.881 287.156 136.325 287.552 136.661 288.044C136.997 288.524 137.231 289.046 137.363 289.61C137.507 290.174 137.567 290.696 137.543 291.176C137.543 291.284 137.537 291.392 137.525 291.5C137.525 291.608 137.519 291.716 137.507 291.824H130.469ZM135.995 290.492C135.971 289.688 135.719 289.034 135.239 288.53C134.759 288.026 134.117 287.774 133.313 287.774C132.869 287.774 132.479 287.846 132.143 287.99C131.807 288.134 131.525 288.332 131.297 288.584C131.069 288.836 130.889 289.13 130.757 289.466C130.625 289.79 130.541 290.132 130.505 290.492H135.995ZM141.13 299.42H139.6V286.514H141.058L141.13 287.972C141.454 287.456 141.892 287.072 142.444 286.82C143.008 286.556 143.614 286.418 144.262 286.406C144.994 286.406 145.612 286.532 146.116 286.784C146.632 287.024 147.058 287.366 147.394 287.81C147.742 288.242 148 288.758 148.168 289.358C148.336 289.946 148.42 290.582 148.42 291.266C148.42 291.962 148.336 292.604 148.168 293.192C148 293.78 147.742 294.29 147.394 294.722C147.046 295.154 146.608 295.496 146.08 295.748C145.552 295.988 144.922 296.108 144.19 296.108C143.47 296.108 142.858 295.994 142.354 295.766C141.85 295.538 141.442 295.238 141.13 294.866V299.42ZM144.064 294.758C144.58 294.758 145.012 294.668 145.36 294.488C145.72 294.296 146.008 294.044 146.224 293.732C146.452 293.408 146.614 293.036 146.71 292.616C146.818 292.196 146.878 291.746 146.89 291.266C146.89 290.786 146.836 290.336 146.728 289.916C146.632 289.484 146.47 289.112 146.242 288.8C146.014 288.488 145.714 288.242 145.342 288.062C144.982 287.87 144.544 287.774 144.028 287.774C143.416 287.774 142.888 287.942 142.444 288.278C142 288.602 141.664 289.016 141.436 289.52C141.304 289.796 141.214 290.084 141.166 290.384C141.118 290.672 141.094 290.972 141.094 291.284C141.094 291.644 141.118 291.98 141.166 292.292C141.214 292.592 141.304 292.88 141.436 293.156C141.664 293.612 141.994 293.996 142.426 294.308C142.87 294.608 143.416 294.758 144.064 294.758ZM151.581 291.824C151.617 292.244 151.701 292.634 151.833 292.994C151.977 293.342 152.169 293.648 152.409 293.912C152.649 294.176 152.943 294.386 153.291 294.542C153.651 294.686 154.065 294.758 154.533 294.758C154.761 294.758 154.995 294.74 155.235 294.704C155.487 294.656 155.721 294.584 155.937 294.488C156.153 294.38 156.345 294.242 156.513 294.074C156.681 293.906 156.807 293.702 156.891 293.462H158.457C158.349 293.918 158.163 294.314 157.899 294.65C157.647 294.986 157.341 295.262 156.981 295.478C156.633 295.694 156.243 295.856 155.811 295.964C155.379 296.06 154.941 296.108 154.497 296.108C153.741 296.108 153.081 295.988 152.517 295.748C151.965 295.508 151.503 295.178 151.131 294.758C150.759 294.326 150.483 293.816 150.303 293.228C150.123 292.628 150.033 291.974 150.033 291.266C150.033 290.558 150.129 289.91 150.321 289.322C150.525 288.722 150.813 288.206 151.185 287.774C151.557 287.342 152.013 287.006 152.553 286.766C153.093 286.526 153.735 286.406 154.479 286.406C155.235 286.406 155.889 286.556 156.441 286.856C156.993 287.156 157.437 287.552 157.773 288.044C158.109 288.524 158.343 289.046 158.475 289.61C158.619 290.174 158.679 290.696 158.655 291.176C158.655 291.284 158.649 291.392 158.637 291.5C158.637 291.608 158.631 291.716 158.619 291.824H151.581ZM157.107 290.492C157.083 289.688 156.831 289.034 156.351 288.53C155.871 288.026 155.229 287.774 154.425 287.774C153.981 287.774 153.591 287.846 153.255 287.99C152.919 288.134 152.637 288.332 152.409 288.584C152.181 288.836 152.001 289.13 151.869 289.466C151.737 289.79 151.653 290.132 151.617 290.492H157.107ZM160.711 296V286.514H167.263V287.864H162.241V296H160.711ZM172.885 286.406C173.641 286.406 174.295 286.526 174.847 286.766C175.399 287.006 175.861 287.342 176.233 287.774C176.617 288.206 176.899 288.722 177.079 289.322C177.271 289.91 177.367 290.558 177.367 291.266C177.367 291.974 177.271 292.628 177.079 293.228C176.899 293.816 176.617 294.326 176.233 294.758C175.861 295.178 175.393 295.508 174.829 295.748C174.265 295.988 173.605 296.108 172.849 296.108C172.093 296.108 171.433 295.988 170.869 295.748C170.317 295.508 169.849 295.178 169.465 294.758C169.093 294.326 168.811 293.816 168.619 293.228C168.439 292.628 168.349 291.974 168.349 291.266C168.349 290.558 168.439 289.91 168.619 289.322C168.811 288.722 169.093 288.206 169.465 287.774C169.849 287.342 170.323 287.006 170.887 286.766C171.451 286.526 172.117 286.406 172.885 286.406ZM172.849 294.758C173.365 294.758 173.809 294.668 174.181 294.488C174.565 294.308 174.877 294.062 175.117 293.75C175.369 293.426 175.549 293.054 175.657 292.634C175.777 292.214 175.837 291.758 175.837 291.266C175.837 290.786 175.777 290.336 175.657 289.916C175.549 289.484 175.369 289.112 175.117 288.8C174.877 288.476 174.565 288.224 174.181 288.044C173.809 287.864 173.365 287.774 172.849 287.774C172.333 287.774 171.889 287.864 171.517 288.044C171.145 288.224 170.833 288.476 170.581 288.8C170.341 289.112 170.161 289.484 170.041 289.916C169.933 290.336 169.879 290.786 169.879 291.266C169.879 291.758 169.933 292.214 170.041 292.634C170.161 293.054 170.341 293.426 170.581 293.75C170.833 294.062 171.145 294.308 171.517 294.488C171.889 294.668 172.333 294.758 172.849 294.758ZM179.414 286.514H183.086C183.698 286.514 184.22 286.556 184.652 286.64C185.096 286.724 185.468 286.874 185.768 287.09C186.032 287.27 186.236 287.51 186.38 287.81C186.536 288.11 186.614 288.464 186.614 288.872C186.614 289.82 186.188 290.498 185.336 290.906C185.984 291.05 186.452 291.332 186.74 291.752C187.028 292.172 187.172 292.652 187.172 293.192C187.16 293.696 187.076 294.11 186.92 294.434C186.764 294.746 186.542 295.022 186.254 295.262C185.978 295.49 185.636 295.67 185.228 295.802C184.82 295.934 184.358 296 183.842 296H179.414V286.514ZM180.98 287.864V290.564H182.294C182.594 290.564 182.9 290.558 183.212 290.546C183.524 290.522 183.8 290.468 184.04 290.384C184.34 290.288 184.592 290.132 184.796 289.916C185 289.7 185.108 289.442 185.12 289.142C185.12 288.794 185.042 288.542 184.886 288.386C184.742 288.218 184.562 288.098 184.346 288.026C184.13 287.942 183.896 287.894 183.644 287.882C183.392 287.87 183.158 287.864 182.942 287.864H180.98ZM180.98 294.668H183.482C183.758 294.668 184.022 294.65 184.274 294.614C184.538 294.578 184.766 294.512 184.958 294.416C185.15 294.308 185.306 294.164 185.426 293.984C185.546 293.804 185.612 293.576 185.624 293.3C185.624 292.94 185.54 292.658 185.372 292.454C185.204 292.238 184.976 292.082 184.688 291.986C184.448 291.914 184.178 291.872 183.878 291.86C183.578 291.848 183.266 291.842 182.942 291.842L180.98 291.86V294.668ZM193.434 286.406C194.19 286.406 194.844 286.526 195.396 286.766C195.948 287.006 196.41 287.342 196.782 287.774C197.166 288.206 197.448 288.722 197.628 289.322C197.82 289.91 197.916 290.558 197.916 291.266C197.916 291.974 197.82 292.628 197.628 293.228C197.448 293.816 197.166 294.326 196.782 294.758C196.41 295.178 195.942 295.508 195.378 295.748C194.814 295.988 194.154 296.108 193.398 296.108C192.642 296.108 191.982 295.988 191.418 295.748C190.866 295.508 190.398 295.178 190.014 294.758C189.642 294.326 189.36 293.816 189.168 293.228C188.988 292.628 188.898 291.974 188.898 291.266C188.898 290.558 188.988 289.91 189.168 289.322C189.36 288.722 189.642 288.206 190.014 287.774C190.398 287.342 190.872 287.006 191.436 286.766C192 286.526 192.666 286.406 193.434 286.406ZM193.398 294.758C193.914 294.758 194.358 294.668 194.73 294.488C195.114 294.308 195.426 294.062 195.666 293.75C195.918 293.426 196.098 293.054 196.206 292.634C196.326 292.214 196.386 291.758 196.386 291.266C196.386 290.786 196.326 290.336 196.206 289.916C196.098 289.484 195.918 289.112 195.666 288.8C195.426 288.476 195.114 288.224 194.73 288.044C194.358 287.864 193.914 287.774 193.398 287.774C192.882 287.774 192.438 287.864 192.066 288.044C191.694 288.224 191.382 288.476 191.13 288.8C190.89 289.112 190.71 289.484 190.59 289.916C190.482 290.336 190.428 290.786 190.428 291.266C190.428 291.758 190.482 292.214 190.59 292.634C190.71 293.054 190.89 293.426 191.13 293.75C191.382 294.062 191.694 294.308 192.066 294.488C192.438 294.668 192.882 294.758 193.398 294.758ZM201.493 299.42H199.963V286.514H201.421L201.493 287.972C201.817 287.456 202.255 287.072 202.807 286.82C203.371 286.556 203.977 286.418 204.625 286.406C205.357 286.406 205.975 286.532 206.479 286.784C206.995 287.024 207.421 287.366 207.757 287.81C208.105 288.242 208.363 288.758 208.531 289.358C208.699 289.946 208.783 290.582 208.783 291.266C208.783 291.962 208.699 292.604 208.531 293.192C208.363 293.78 208.105 294.29 207.757 294.722C207.409 295.154 206.971 295.496 206.443 295.748C205.915 295.988 205.285 296.108 204.553 296.108C203.833 296.108 203.221 295.994 202.717 295.766C202.213 295.538 201.805 295.238 201.493 294.866V299.42ZM204.427 294.758C204.943 294.758 205.375 294.668 205.723 294.488C206.083 294.296 206.371 294.044 206.587 293.732C206.815 293.408 206.977 293.036 207.073 292.616C207.181 292.196 207.241 291.746 207.253 291.266C207.253 290.786 207.199 290.336 207.091 289.916C206.995 289.484 206.833 289.112 206.605 288.8C206.377 288.488 206.077 288.242 205.705 288.062C205.345 287.87 204.907 287.774 204.391 287.774C203.779 287.774 203.251 287.942 202.807 288.278C202.363 288.602 202.027 289.016 201.799 289.52C201.667 289.796 201.577 290.084 201.529 290.384C201.481 290.672 201.457 290.972 201.457 291.284C201.457 291.644 201.481 291.98 201.529 292.292C201.577 292.592 201.667 292.88 201.799 293.156C202.027 293.612 202.357 293.996 202.789 294.308C203.233 294.608 203.779 294.758 204.427 294.758ZM210.756 296V286.514H212.286V290.672H217.038V286.514H218.568V296H217.038V292.022H212.286V296H210.756ZM225.162 286.406C225.918 286.406 226.572 286.526 227.124 286.766C227.676 287.006 228.138 287.342 228.51 287.774C228.894 288.206 229.176 288.722 229.356 289.322C229.548 289.91 229.644 290.558 229.644 291.266C229.644 291.974 229.548 292.628 229.356 293.228C229.176 293.816 228.894 294.326 228.51 294.758C228.138 295.178 227.67 295.508 227.106 295.748C226.542 295.988 225.882 296.108 225.126 296.108C224.37 296.108 223.71 295.988 223.146 295.748C222.594 295.508 222.126 295.178 221.742 294.758C221.37 294.326 221.088 293.816 220.896 293.228C220.716 292.628 220.626 291.974 220.626 291.266C220.626 290.558 220.716 289.91 220.896 289.322C221.088 288.722 221.37 288.206 221.742 287.774C222.126 287.342 222.6 287.006 223.164 286.766C223.728 286.526 224.394 286.406 225.162 286.406ZM225.126 294.758C225.642 294.758 226.086 294.668 226.458 294.488C226.842 294.308 227.154 294.062 227.394 293.75C227.646 293.426 227.826 293.054 227.934 292.634C228.054 292.214 228.114 291.758 228.114 291.266C228.114 290.786 228.054 290.336 227.934 289.916C227.826 289.484 227.646 289.112 227.394 288.8C227.154 288.476 226.842 288.224 226.458 288.044C226.086 287.864 225.642 287.774 225.126 287.774C224.61 287.774 224.166 287.864 223.794 288.044C223.422 288.224 223.11 288.476 222.858 288.8C222.618 289.112 222.438 289.484 222.318 289.916C222.21 290.336 222.156 290.786 222.156 291.266C222.156 291.758 222.21 292.214 222.318 292.634C222.438 293.054 222.618 293.426 222.858 293.75C223.11 294.062 223.422 294.308 223.794 294.488C224.166 294.668 224.61 294.758 225.126 294.758ZM235.993 284.084C236.497 284.084 236.899 283.988 237.199 283.796C237.511 283.604 237.667 283.268 237.667 282.788H239.071C239.047 283.652 238.759 284.282 238.207 284.678C237.667 285.074 236.923 285.272 235.975 285.272C235.027 285.272 234.283 285.074 233.743 284.678C233.215 284.282 232.939 283.652 232.915 282.788H234.319C234.331 283.268 234.487 283.604 234.787 283.796C235.087 283.988 235.489 284.084 235.993 284.084ZM233.185 296H231.691V286.514H233.221V293.786C233.305 293.618 233.419 293.438 233.563 293.246C233.707 293.042 233.821 292.886 233.905 292.778L238.495 286.514H240.007V296H238.477V288.728C238.381 288.908 238.273 289.082 238.153 289.25C238.045 289.406 237.943 289.544 237.847 289.664L233.185 296Z" fill="white"/>
<path d="M117.874 69.8109C117.482 69.7852 117.114 69.6115 116.845 69.3249C116.576 69.0383 116.427 68.6604 116.427 68.2678C116.427 67.8751 116.576 67.4972 116.845 67.2106C117.114 66.9241 117.482 66.7503 117.874 66.7247C121.659 66.7247 124.848 61.3124 124.848 54.9021C124.874 54.5103 125.048 54.143 125.335 53.8746C125.622 53.6061 126 53.4568 126.393 53.4568C126.787 53.4568 127.165 53.6061 127.452 53.8746C127.739 54.143 127.913 54.5103 127.939 54.9021C127.939 63.2619 123.532 69.8109 117.874 69.8109Z" fill="#FF81AE"/>
<path d="M141.226 69.8109C140.833 69.7852 140.465 69.6115 140.197 69.3249C139.928 69.0383 139.778 68.6604 139.778 68.2678C139.778 67.8751 139.928 67.4972 140.197 67.2106C140.465 66.9241 140.833 66.7503 141.226 66.7247C145.011 66.7247 148.2 61.3124 148.2 54.9021C148.226 54.5103 148.4 54.143 148.687 53.8746C148.973 53.6061 149.352 53.4568 149.745 53.4568C150.138 53.4568 150.517 53.6061 150.804 53.8746C151.09 54.143 151.264 54.5103 151.29 54.9021C151.323 63.2619 146.87 69.8109 141.226 69.8109Z" fill="#FF81AE"/>
<path d="M164.558 69.811C164.165 69.7854 163.797 69.6116 163.529 69.3251C163.26 69.0385 163.11 68.6606 163.11 68.268C163.11 67.8753 163.26 67.4974 163.529 67.2108C163.797 66.9243 164.165 66.7505 164.558 66.7249C168.336 66.7249 171.532 61.3125 171.532 54.9023C171.532 54.494 171.694 54.1023 171.984 53.8135C172.273 53.5248 172.665 53.3625 173.074 53.3625C173.483 53.3625 173.875 53.5248 174.164 53.8135C174.453 54.1023 174.616 54.494 174.616 54.9023C174.635 63.262 170.222 69.811 164.558 69.811Z" fill="#FF81AE"/>
<path d="M187.929 69.811C187.717 69.8249 187.505 69.7952 187.306 69.7239C187.107 69.6526 186.924 69.5412 186.769 69.3966C186.615 69.2519 186.491 69.0771 186.407 68.883C186.323 68.6889 186.279 68.4796 186.279 68.268C186.279 68.0564 186.323 67.8471 186.407 67.6529C186.491 67.4588 186.615 67.284 186.769 67.1393C186.924 66.9947 187.107 66.8833 187.306 66.812C187.505 66.7407 187.717 66.7111 187.929 66.7249C191.707 66.7249 194.903 61.3125 194.903 54.9023C194.903 54.494 195.066 54.1023 195.355 53.8135C195.644 53.5248 196.036 53.3625 196.445 53.3625C196.854 53.3625 197.246 53.5248 197.535 53.8135C197.824 54.1023 197.987 54.494 197.987 54.9023C197.987 63.262 193.567 69.811 187.929 69.811Z" fill="#FF81AE"/>
<path d="M211.274 69.8109C210.882 69.7852 210.514 69.6115 210.245 69.3249C209.977 69.0383 209.827 68.6604 209.827 68.2678C209.827 67.8751 209.977 67.4972 210.245 67.2106C210.514 66.9241 210.882 66.7503 211.274 66.7247C215.059 66.7247 218.249 61.3124 218.249 54.9021C218.274 54.5103 218.448 54.143 218.735 53.8746C219.022 53.6061 219.401 53.4568 219.794 53.4568C220.187 53.4568 220.565 53.6061 220.852 53.8746C221.139 54.143 221.313 54.5103 221.339 54.9021C221.339 63.2619 216.919 69.8109 211.274 69.8109Z" fill="#FF81AE"/>
<path d="M234.626 69.8109C234.234 69.7852 233.866 69.6115 233.597 69.3249C233.328 69.0383 233.179 68.6604 233.179 68.2678C233.179 67.8751 233.328 67.4972 233.597 67.2106C233.866 66.9241 234.234 66.7503 234.626 66.7247C238.404 66.7247 241.6 61.3124 241.6 54.9021C241.626 54.5103 241.8 54.143 242.087 53.8746C242.374 53.6061 242.752 53.4568 243.145 53.4568C243.539 53.4568 243.917 53.6061 244.204 53.8746C244.491 54.143 244.665 54.5103 244.691 54.9021C244.691 63.2619 240.27 69.8109 234.626 69.8109Z" fill="#FF81AE"/>
<g opacity="0.3">
<path d="M117.875 69.8109C117.483 69.7852 117.115 69.6115 116.846 69.3249C116.577 69.0383 116.428 68.6604 116.428 68.2678C116.428 67.8751 116.577 67.4972 116.846 67.2106C117.115 66.9241 117.483 66.7503 117.875 66.7247C121.66 66.7247 124.849 61.3124 124.849 54.9021C124.875 54.5103 125.049 54.143 125.336 53.8746C125.623 53.6061 126.001 53.4568 126.394 53.4568C126.788 53.4568 127.166 53.6061 127.453 53.8746C127.74 54.143 127.914 54.5103 127.94 54.9021C127.94 63.2619 123.533 69.8109 117.875 69.8109Z" fill="black"/>
<path d="M141.227 69.8109C140.834 69.7852 140.466 69.6115 140.198 69.3249C139.929 69.0383 139.779 68.6604 139.779 68.2678C139.779 67.8751 139.929 67.4972 140.198 67.2106C140.466 66.9241 140.834 66.7503 141.227 66.7247C145.011 66.7247 148.201 61.3124 148.201 54.9021C148.227 54.5103 148.401 54.143 148.688 53.8746C148.974 53.6061 149.353 53.4568 149.746 53.4568C150.139 53.4568 150.518 53.6061 150.805 53.8746C151.091 54.143 151.265 54.5103 151.291 54.9021C151.324 63.2619 146.871 69.8109 141.227 69.8109Z" fill="black"/>
<path d="M164.559 69.811C164.166 69.7854 163.798 69.6116 163.53 69.3251C163.261 69.0385 163.111 68.6606 163.111 68.268C163.111 67.8753 163.261 67.4974 163.53 67.2108C163.798 66.9243 164.166 66.7505 164.559 66.7249C168.337 66.7249 171.533 61.3125 171.533 54.9023C171.533 54.494 171.695 54.1023 171.985 53.8135C172.274 53.5248 172.666 53.3625 173.075 53.3625C173.484 53.3625 173.876 53.5248 174.165 53.8135C174.454 54.1023 174.617 54.494 174.617 54.9023C174.636 63.262 170.223 69.811 164.559 69.811Z" fill="black"/>
<path d="M187.931 69.811C187.719 69.8249 187.507 69.7952 187.308 69.7239C187.108 69.6526 186.926 69.5412 186.771 69.3966C186.617 69.2519 186.493 69.0771 186.409 68.883C186.325 68.6889 186.281 68.4796 186.281 68.268C186.281 68.0564 186.325 67.8471 186.409 67.6529C186.493 67.4588 186.617 67.284 186.771 67.1393C186.926 66.9947 187.108 66.8833 187.308 66.812C187.507 66.7407 187.719 66.7111 187.931 66.7249C191.709 66.7249 194.905 61.3125 194.905 54.9023C194.905 54.494 195.068 54.1023 195.357 53.8135C195.646 53.5248 196.038 53.3625 196.447 53.3625C196.856 53.3625 197.248 53.5248 197.537 53.8135C197.826 54.1023 197.989 54.494 197.989 54.9023C197.989 63.262 193.569 69.811 187.931 69.811Z" fill="black"/>
<path d="M211.275 69.8109C210.883 69.7852 210.515 69.6115 210.246 69.3249C209.978 69.0383 209.828 68.6604 209.828 68.2678C209.828 67.8751 209.978 67.4972 210.246 67.2106C210.515 66.9241 210.883 66.7503 211.275 66.7247C215.06 66.7247 218.25 61.3124 218.25 54.9021C218.275 54.5103 218.449 54.143 218.736 53.8746C219.023 53.6061 219.402 53.4568 219.795 53.4568C220.188 53.4568 220.566 53.6061 220.853 53.8746C221.14 54.143 221.314 54.5103 221.34 54.9021C221.34 63.2619 216.92 69.8109 211.275 69.8109Z" fill="black"/>
<path d="M234.627 69.8109C234.235 69.7852 233.867 69.6115 233.598 69.3249C233.329 69.0383 233.18 68.6604 233.18 68.2678C233.18 67.8751 233.329 67.4972 233.598 67.2106C233.867 66.9241 234.235 66.7503 234.627 66.7247C238.405 66.7247 241.601 61.3124 241.601 54.9021C241.627 54.5103 241.801 54.143 242.088 53.8746C242.375 53.6061 242.753 53.4568 243.146 53.4568C243.54 53.4568 243.918 53.6061 244.205 53.8746C244.492 54.143 244.666 54.5103 244.691 54.9021C244.691 63.2619 240.271 69.8109 234.627 69.8109Z" fill="black"/>
</g>
<path d="M103.245 56.4813H253.571C255.587 56.5216 257.518 57.2951 259.004 58.6566C260.489 60.0181 261.425 61.874 261.638 63.8762L269.962 157.604C270.063 158.545 269.963 159.496 269.669 160.395C269.375 161.294 268.892 162.12 268.254 162.819C267.616 163.518 266.837 164.074 265.968 164.45C265.099 164.826 264.159 165.013 263.212 164.999H112.879C110.864 164.956 108.934 164.182 107.45 162.821C105.965 161.46 105.028 159.605 104.813 157.604L96.4952 63.8762C96.3928 62.9355 96.4919 61.9838 96.7858 61.0843C97.0798 60.1848 97.5618 59.358 98.2001 58.6587C98.8384 57.9594 99.6182 57.4036 100.488 57.0282C101.358 56.6528 102.297 56.4664 103.245 56.4813Z" fill="#FF81AE"/>
<path opacity="0.4" d="M103.245 56.4813H253.571C255.587 56.5216 257.518 57.2951 259.004 58.6566C260.489 60.0181 261.425 61.874 261.638 63.8762L269.962 157.604C270.063 158.545 269.963 159.496 269.669 160.395C269.375 161.294 268.892 162.12 268.254 162.819C267.616 163.518 266.837 164.074 265.968 164.45C265.099 164.826 264.159 165.013 263.212 164.999H112.879C110.864 164.956 108.934 164.182 107.45 162.821C105.965 161.46 105.028 159.605 104.813 157.604L96.4952 63.8762C96.3928 62.9355 96.4919 61.9838 96.7858 61.0843C97.0798 60.1848 97.5618 59.358 98.2001 58.6587C98.8384 57.9594 99.6182 57.4036 100.488 57.0282C101.358 56.6528 102.297 56.4664 103.245 56.4813Z" fill="#FAFAFA"/>
<path d="M252.32 56.4813H101.987C99.9982 56.505 98.0929 57.2816 96.6558 58.6543C95.2187 60.027 94.3569 61.8934 94.2447 63.8762L90.0098 157.604C89.9593 158.559 90.1046 159.514 90.4367 160.411C90.7688 161.308 91.2807 162.127 91.9411 162.82C92.6014 163.512 93.3964 164.062 94.2772 164.437C95.158 164.812 96.1062 165.003 97.0636 164.999H247.41C249.399 164.975 251.304 164.199 252.741 162.826C254.178 161.453 255.04 159.587 255.152 157.604L259.394 63.8762C259.443 62.9199 259.297 61.9636 258.963 61.0659C258.629 60.1681 258.116 59.3479 257.453 58.6555C256.791 57.9631 255.994 57.4132 255.111 57.0393C254.229 56.6654 253.279 56.4755 252.32 56.4813Z" fill="#FF81AE"/>
<path opacity="0.2" d="M252.32 56.4813H101.987C99.9982 56.505 98.0929 57.2816 96.6558 58.6543C95.2187 60.027 94.3569 61.8934 94.2447 63.8762L90.0098 157.604C89.9593 158.559 90.1046 159.514 90.4367 160.411C90.7688 161.308 91.2807 162.127 91.9411 162.82C92.6014 163.512 93.3964 164.062 94.2772 164.437C95.158 164.812 96.1062 165.003 97.0636 164.999H247.41C249.399 164.975 251.304 164.199 252.741 162.826C254.178 161.453 255.04 159.587 255.152 157.604L259.394 63.8762C259.443 62.9199 259.297 61.9636 258.963 61.0659C258.629 60.1681 258.116 59.3479 257.453 58.6555C256.791 57.9631 255.994 57.4132 255.111 57.0393C254.229 56.6654 253.279 56.4755 252.32 56.4813Z" fill="#FAFAFA"/>
<path d="M104.746 140.231L108.246 62.8258C108.288 62.0665 108.618 61.3516 109.169 60.8263C109.719 60.301 110.449 60.0046 111.211 59.9974H242.778C243.145 59.9951 243.508 60.0676 243.846 60.2106C244.184 60.3536 244.488 60.5639 244.742 60.8288C244.995 61.0936 245.192 61.4073 245.32 61.7507C245.447 62.0941 245.503 62.46 245.484 62.8258L241.977 140.231C241.935 140.99 241.606 141.705 241.055 142.23C240.504 142.756 239.774 143.052 239.013 143.059H107.452C107.085 143.062 106.722 142.989 106.384 142.846C106.047 142.703 105.742 142.493 105.488 142.228C105.235 141.963 105.038 141.649 104.911 141.306C104.783 140.963 104.727 140.597 104.746 140.231Z" fill="#FF81AE"/>
<path opacity="0.1" d="M104.746 140.231L108.246 62.8258C108.288 62.0665 108.618 61.3516 109.169 60.8263C109.719 60.301 110.449 60.0046 111.211 59.9974H242.778C243.145 59.9951 243.508 60.0676 243.846 60.2106C244.184 60.3536 244.488 60.5639 244.742 60.8288C244.995 61.0936 245.192 61.4073 245.32 61.7507C245.447 62.0941 245.503 62.46 245.484 62.8258L241.977 140.231C241.935 140.99 241.606 141.705 241.055 142.23C240.504 142.756 239.774 143.052 239.013 143.059H107.452C107.085 143.062 106.722 142.989 106.384 142.846C106.047 142.703 105.742 142.493 105.488 142.228C105.235 141.963 105.038 141.649 104.911 141.306C104.783 140.963 104.727 140.597 104.746 140.231Z" fill="#FAFAFA"/>
<path opacity="0.1" d="M101.033 146.548L104.706 65.2639C104.748 64.4667 105.093 63.7156 105.671 63.1641C106.249 62.6126 107.016 62.3024 107.816 62.2967H245.98C246.365 62.2935 246.747 62.369 247.102 62.5187C247.456 62.6684 247.776 62.889 248.042 63.167C248.308 63.4451 248.514 63.7745 248.648 64.1352C248.782 64.4958 248.84 64.88 248.819 65.2639L245.14 146.548C245.098 147.345 244.754 148.096 244.177 148.648C243.601 149.201 242.835 149.513 242.036 149.522H103.859C103.474 149.524 103.093 149.448 102.739 149.297C102.385 149.147 102.065 148.925 101.801 148.647C101.536 148.368 101.331 148.038 101.199 147.677C101.067 147.316 101.011 146.932 101.033 146.548Z" fill="black"/>
<path d="M97.6199 153.104L101.451 68.3172C101.503 67.4882 101.865 66.7089 102.466 66.1345C103.067 65.5602 103.862 65.2329 104.694 65.2179H248.82C249.222 65.2146 249.621 65.2936 249.991 65.45C250.361 65.6064 250.696 65.8369 250.974 66.1273C251.251 66.4177 251.467 66.7618 251.606 67.1384C251.745 67.5151 251.806 67.9163 251.785 68.3172L247.933 153.104C247.882 153.933 247.52 154.712 246.919 155.287C246.318 155.861 245.523 156.188 244.691 156.203H100.584C100.182 156.208 99.783 156.129 99.4122 155.973C99.0414 155.817 98.7067 155.587 98.4287 155.296C98.1508 155.005 97.9356 154.661 97.7964 154.284C97.6573 153.907 97.5972 153.505 97.6199 153.104Z" fill="#FAFAFA"/>
<path d="M234.606 70.2999C234.335 70.3003 234.066 70.2454 233.818 70.1384C233.569 70.0314 233.344 69.8747 233.158 69.6778C232.972 69.4809 232.829 69.2481 232.736 68.9936C232.644 68.7392 232.605 68.4685 232.621 68.1984C232.646 67.6682 232.873 67.1676 233.256 66.7991C233.638 66.4306 234.147 66.222 234.678 66.2158C234.949 66.2153 235.218 66.2703 235.467 66.3773C235.715 66.4843 235.94 66.641 236.126 66.8379C236.312 67.0348 236.455 67.2676 236.548 67.522C236.64 67.7765 236.68 68.0471 236.663 68.3173C236.638 68.8475 236.411 69.348 236.028 69.7166C235.646 70.0851 235.137 70.2937 234.606 70.2999Z" fill="#FF81AE"/>
<path d="M211.254 70.2999C210.983 70.3003 210.715 70.2454 210.466 70.1384C210.217 70.0314 209.993 69.8747 209.807 69.6778C209.621 69.4809 209.477 69.2481 209.385 68.9936C209.292 68.7392 209.253 68.4685 209.269 68.1984C209.294 67.6682 209.522 67.1676 209.904 66.7991C210.287 66.4306 210.795 66.222 211.327 66.2158C211.598 66.2153 211.866 66.2703 212.115 66.3773C212.364 66.4843 212.588 66.641 212.774 66.8379C212.96 67.0348 213.104 67.2676 213.196 67.522C213.289 67.7765 213.328 68.0471 213.312 68.3173C213.288 68.8481 213.061 69.3495 212.679 69.7183C212.296 70.0872 211.786 70.2953 211.254 70.2999Z" fill="#FF81AE"/>
<path d="M187.903 70.2999C187.632 70.3003 187.363 70.2454 187.114 70.1384C186.865 70.0314 186.641 69.8747 186.455 69.6778C186.269 69.4809 186.126 69.2481 186.033 68.9936C185.941 68.7392 185.901 68.4685 185.918 68.1984C185.944 67.6687 186.172 67.1691 186.554 66.8009C186.936 66.4327 187.444 66.2235 187.975 66.2158C188.246 66.2153 188.515 66.2703 188.763 66.3773C189.012 66.4843 189.237 66.641 189.423 66.8379C189.609 67.0348 189.752 67.2676 189.845 67.522C189.937 67.7765 189.976 68.0471 189.96 68.3173C189.936 68.8481 189.71 69.3495 189.327 69.7183C188.944 70.0872 188.434 70.2953 187.903 70.2999Z" fill="#FF81AE"/>
<path d="M164.557 70.2999C164.286 70.3003 164.018 70.2454 163.769 70.1384C163.52 70.0314 163.295 69.8747 163.109 69.6778C162.923 69.4809 162.78 69.2481 162.687 68.9936C162.595 68.7392 162.556 68.4685 162.572 68.1984C162.6 67.6681 162.829 67.1685 163.213 66.8004C163.596 66.4324 164.105 66.2234 164.636 66.2158C164.907 66.2153 165.175 66.2703 165.424 66.3773C165.673 66.4843 165.898 66.641 166.084 66.8379C166.27 67.0348 166.413 67.2676 166.506 67.522C166.598 67.7765 166.637 68.0471 166.621 68.3173C166.597 68.8492 166.37 69.3516 165.986 69.7206C165.601 70.0896 165.09 70.297 164.557 70.2999Z" fill="#FF81AE"/>
<path d="M141.205 70.2999C140.934 70.3003 140.666 70.2454 140.417 70.1384C140.168 70.0314 139.944 69.8747 139.758 69.6778C139.572 69.4809 139.428 69.2481 139.336 68.9936C139.243 68.7392 139.204 68.4685 139.22 68.1984C139.246 67.6682 139.473 67.1676 139.855 66.7991C140.238 66.4306 140.747 66.222 141.278 66.2158C141.549 66.2153 141.817 66.2703 142.066 66.3773C142.315 66.4843 142.539 66.641 142.725 66.8379C142.911 67.0348 143.055 67.2676 143.147 67.522C143.24 67.7765 143.279 68.0471 143.263 68.3173C143.238 68.8475 143.011 69.348 142.628 69.7166C142.246 70.0851 141.737 70.2937 141.205 70.2999Z" fill="#FF81AE"/>
<path d="M117.855 70.2999C117.584 70.3003 117.315 70.2454 117.067 70.1384C116.818 70.0314 116.593 69.8747 116.407 69.6778C116.221 69.4809 116.078 69.2481 115.985 68.9936C115.893 68.7392 115.854 68.4685 115.87 68.1984C115.895 67.6682 116.122 67.1676 116.505 66.7991C116.887 66.4306 117.396 66.222 117.927 66.2158C118.198 66.2153 118.467 66.2703 118.716 66.3773C118.965 66.4843 119.189 66.641 119.375 66.8379C119.561 67.0348 119.704 67.2676 119.797 67.522C119.889 67.7765 119.929 68.0471 119.912 68.3173C119.889 68.8481 119.662 69.3495 119.279 69.7183C118.896 70.0872 118.387 70.2953 117.855 70.2999Z" fill="#FF81AE"/>
<g opacity="0.1">
<path d="M234.608 70.2999C234.337 70.3003 234.068 70.2454 233.819 70.1384C233.571 70.0314 233.346 69.8747 233.16 69.6778C232.974 69.4809 232.831 69.2481 232.738 68.9936C232.646 68.7392 232.606 68.4685 232.623 68.1984C232.648 67.6682 232.875 67.1676 233.258 66.7991C233.64 66.4306 234.149 66.222 234.68 66.2158C234.951 66.2153 235.22 66.2703 235.469 66.3773C235.717 66.4843 235.942 66.641 236.128 66.8379C236.314 67.0348 236.457 67.2676 236.55 67.522C236.642 67.7765 236.682 68.0471 236.665 68.3173C236.64 68.8475 236.413 69.348 236.03 69.7166C235.648 70.0851 235.139 70.2937 234.608 70.2999Z" fill="#FAFAFA"/>
<path d="M211.256 70.2999C210.985 70.3003 210.717 70.2454 210.468 70.1384C210.219 70.0314 209.995 69.8747 209.809 69.6778C209.623 69.4809 209.479 69.2481 209.387 68.9936C209.294 68.7392 209.255 68.4685 209.271 68.1984C209.296 67.6682 209.524 67.1676 209.906 66.7991C210.288 66.4306 210.797 66.222 211.329 66.2158C211.6 66.2153 211.868 66.2703 212.117 66.3773C212.366 66.4843 212.59 66.641 212.776 66.8379C212.962 67.0348 213.106 67.2676 213.198 67.522C213.291 67.7765 213.33 68.0471 213.314 68.3173C213.29 68.8481 213.063 69.3495 212.681 69.7183C212.298 70.0872 211.788 70.2953 211.256 70.2999Z" fill="#FAFAFA"/>
<path d="M187.904 70.2999C187.633 70.3003 187.365 70.2454 187.116 70.1384C186.867 70.0314 186.643 69.8747 186.457 69.6778C186.271 69.4809 186.128 69.2481 186.035 68.9936C185.943 68.7392 185.903 68.4685 185.92 68.1984C185.946 67.6687 186.174 67.1691 186.556 66.8009C186.938 66.4327 187.446 66.2235 187.977 66.2158C188.248 66.2153 188.516 66.2703 188.765 66.3773C189.014 66.4843 189.239 66.641 189.425 66.8379C189.611 67.0348 189.754 67.2676 189.847 67.522C189.939 67.7765 189.978 68.0471 189.962 68.3173C189.938 68.8481 189.712 69.3495 189.329 69.7183C188.946 70.0872 188.436 70.2953 187.904 70.2999Z" fill="#FAFAFA"/>
<path d="M164.559 70.2999C164.288 70.3003 164.02 70.2454 163.771 70.1384C163.522 70.0314 163.297 69.8747 163.111 69.6778C162.925 69.4809 162.782 69.2481 162.689 68.9936C162.597 68.7392 162.558 68.4685 162.574 68.1984C162.602 67.6681 162.831 67.1685 163.215 66.8004C163.598 66.4324 164.107 66.2234 164.638 66.2158C164.909 66.2153 165.177 66.2703 165.426 66.3773C165.675 66.4843 165.9 66.641 166.086 66.8379C166.271 67.0348 166.415 67.2676 166.508 67.522C166.6 67.7765 166.639 68.0471 166.623 68.3173C166.599 68.8492 166.372 69.3516 165.988 69.7206C165.603 70.0896 165.092 70.297 164.559 70.2999Z" fill="#FAFAFA"/>
<path d="M141.207 70.2999C140.936 70.3003 140.668 70.2454 140.419 70.1384C140.17 70.0314 139.946 69.8747 139.76 69.6778C139.574 69.4809 139.43 69.2481 139.338 68.9936C139.245 68.7392 139.206 68.4685 139.222 68.1984C139.248 67.6682 139.475 67.1676 139.857 66.7991C140.24 66.4306 140.749 66.222 141.28 66.2158C141.551 66.2153 141.819 66.2703 142.068 66.3773C142.317 66.4843 142.541 66.641 142.727 66.8379C142.913 67.0348 143.057 67.2676 143.149 67.522C143.242 67.7765 143.281 68.0471 143.265 68.3173C143.24 68.8475 143.012 69.348 142.63 69.7166C142.248 70.0851 141.739 70.2937 141.207 70.2999Z" fill="#FAFAFA"/>
<path d="M117.856 70.2999C117.585 70.3003 117.316 70.2454 117.068 70.1384C116.819 70.0314 116.594 69.8747 116.408 69.6778C116.222 69.4809 116.079 69.2481 115.986 68.9936C115.894 68.7392 115.855 68.4685 115.871 68.1984C115.896 67.6682 116.123 67.1676 116.506 66.7991C116.888 66.4306 117.397 66.222 117.928 66.2158C118.199 66.2153 118.468 66.2703 118.717 66.3773C118.965 66.4843 119.19 66.641 119.376 66.8379C119.562 67.0348 119.705 67.2676 119.798 67.522C119.89 67.7765 119.93 68.0471 119.913 68.3173C119.89 68.8481 119.663 69.3495 119.28 69.7183C118.897 70.0872 118.388 70.2953 117.856 70.2999Z" fill="#FAFAFA"/>
</g>
<path d="M123.69 77.6881H111.945C111.775 77.6895 111.606 77.6556 111.45 77.5885C111.293 77.5215 111.152 77.4227 111.036 77.2985C110.92 77.1742 110.83 77.0273 110.774 76.8668C110.717 76.7064 110.695 76.536 110.708 76.3664C110.721 76.0201 110.864 75.6914 111.11 75.4464C111.355 75.2013 111.684 75.0578 112.031 75.0447H123.776C123.947 75.0433 124.115 75.0772 124.272 75.1443C124.428 75.2114 124.569 75.3101 124.685 75.4344C124.802 75.5586 124.891 75.7056 124.947 75.866C125.004 76.0265 125.027 76.1968 125.014 76.3664C125.001 76.7128 124.857 77.0414 124.612 77.2865C124.366 77.5316 124.037 77.675 123.69 77.6881Z" fill="#FF81AE"/>
<path d="M147.043 77.6881H135.298C135.127 77.6895 134.959 77.6556 134.802 77.5885C134.646 77.5215 134.505 77.4227 134.388 77.2985C134.272 77.1742 134.183 77.0273 134.126 76.8668C134.07 76.7064 134.047 76.536 134.06 76.3664C134.074 76.0145 134.222 75.6812 134.474 75.4353C134.727 75.1893 135.064 75.0495 135.417 75.0447H147.155C147.326 75.0434 147.495 75.0773 147.652 75.1443C147.808 75.2113 147.95 75.31 148.067 75.4341C148.183 75.5582 148.273 75.7051 148.33 75.8655C148.388 76.026 148.411 76.1965 148.399 76.3664C148.386 76.7183 148.238 77.0516 147.985 77.2976C147.733 77.5435 147.395 77.6833 147.043 77.6881Z" fill="#FF81AE"/>
<path d="M170.395 77.6881H158.649C158.479 77.6894 158.31 77.6555 158.153 77.5885C157.996 77.5215 157.855 77.4229 157.738 77.2988C157.621 77.1747 157.531 77.0278 157.474 76.8673C157.417 76.7069 157.393 76.5363 157.405 76.3664C157.419 76.0145 157.567 75.6812 157.82 75.4353C158.072 75.1894 158.409 75.0495 158.762 75.0447H170.514C170.684 75.0433 170.853 75.0772 171.009 75.1443C171.166 75.2114 171.307 75.3101 171.423 75.4344C171.539 75.5586 171.628 75.7056 171.685 75.866C171.741 76.0265 171.764 76.1968 171.751 76.3664C171.739 76.7189 171.591 77.0531 171.339 77.2994C171.086 77.5456 170.748 77.6849 170.395 77.6881Z" fill="#FF81AE"/>
<path d="M193.738 77.6881H181.993C181.823 77.6895 181.654 77.6556 181.497 77.5885C181.341 77.5215 181.2 77.4227 181.084 77.2985C180.967 77.1742 180.878 77.0273 180.822 76.8668C180.765 76.7064 180.743 76.536 180.755 76.3664C180.769 76.0201 180.912 75.6914 181.158 75.4464C181.403 75.2013 181.732 75.0578 182.079 75.0447H193.824C193.994 75.0433 194.163 75.0772 194.32 75.1443C194.476 75.2114 194.617 75.3101 194.733 75.4344C194.85 75.5586 194.939 75.7056 194.995 75.866C195.052 76.0265 195.074 76.1968 195.062 76.3664C195.048 76.7128 194.905 77.0414 194.659 77.2865C194.414 77.5316 194.085 77.675 193.738 77.6881Z" fill="#FF81AE"/>
<path d="M217.091 77.6881H205.345C205.175 77.6895 205.006 77.6556 204.85 77.5885C204.693 77.5215 204.553 77.4227 204.436 77.2985C204.32 77.1742 204.231 77.0273 204.174 76.8668C204.118 76.7064 204.095 76.536 204.108 76.3664C204.122 76.0145 204.27 75.6812 204.522 75.4353C204.775 75.1894 205.112 75.0495 205.464 75.0447H217.21C217.38 75.0433 217.549 75.0772 217.705 75.1443C217.862 75.2114 218.003 75.3101 218.119 75.4344C218.235 75.5586 218.324 75.7056 218.381 75.866C218.437 76.0265 218.46 76.1968 218.447 76.3664C218.434 76.7183 218.285 77.0516 218.033 77.2976C217.781 77.5435 217.443 77.6833 217.091 77.6881Z" fill="#FF81AE"/>
<path d="M240.442 77.6881H228.697C228.527 77.6895 228.358 77.6556 228.201 77.5885C228.045 77.5215 227.904 77.4227 227.788 77.2985C227.672 77.1742 227.582 77.0273 227.526 76.8668C227.469 76.7064 227.447 76.536 227.46 76.3664C227.473 76.0145 227.621 75.6812 227.874 75.4353C228.126 75.1893 228.463 75.0495 228.816 75.0447H240.555C240.725 75.0434 240.894 75.0773 241.051 75.1443C241.208 75.2113 241.349 75.31 241.466 75.4341C241.583 75.5582 241.673 75.7051 241.73 75.8655C241.787 76.026 241.811 76.1965 241.799 76.3664C241.785 76.7183 241.637 77.0516 241.385 77.2976C241.132 77.5435 240.795 77.6833 240.442 77.6881Z" fill="#FF81AE"/>
<g opacity="0.3">
<path d="M123.689 77.6881H111.944C111.774 77.6895 111.605 77.6556 111.449 77.5885C111.292 77.5215 111.151 77.4227 111.035 77.2985C110.919 77.1742 110.829 77.0273 110.773 76.8668C110.716 76.7064 110.694 76.536 110.707 76.3664C110.72 76.0201 110.863 75.6914 111.109 75.4464C111.354 75.2013 111.683 75.0578 112.03 75.0447H123.775C123.946 75.0433 124.114 75.0772 124.271 75.1443C124.427 75.2114 124.568 75.3101 124.684 75.4344C124.801 75.5586 124.89 75.7056 124.947 75.866C125.003 76.0265 125.026 76.1968 125.013 76.3664C125 76.7128 124.856 77.0414 124.611 77.2865C124.365 77.5316 124.036 77.675 123.689 77.6881Z" fill="black"/>
<path d="M147.041 77.6881H135.296C135.125 77.6895 134.957 77.6556 134.8 77.5885C134.644 77.5215 134.503 77.4227 134.386 77.2985C134.27 77.1742 134.181 77.0273 134.124 76.8668C134.068 76.7064 134.045 76.536 134.058 76.3664C134.072 76.0145 134.22 75.6812 134.472 75.4353C134.725 75.1893 135.062 75.0495 135.415 75.0447H147.153C147.324 75.0434 147.493 75.0773 147.65 75.1443C147.807 75.2113 147.948 75.31 148.065 75.4341C148.181 75.5582 148.271 75.7051 148.329 75.8655C148.386 76.026 148.409 76.1965 148.397 76.3664C148.384 76.7183 148.236 77.0516 147.983 77.2976C147.731 77.5435 147.393 77.6833 147.041 77.6881Z" fill="black"/>
<path d="M170.393 77.6881H158.647C158.477 77.6894 158.308 77.6555 158.151 77.5885C157.994 77.5215 157.853 77.4229 157.736 77.2988C157.619 77.1747 157.53 77.0278 157.472 76.8673C157.415 76.7069 157.392 76.5363 157.403 76.3664C157.417 76.0145 157.565 75.6812 157.818 75.4353C158.07 75.1894 158.407 75.0495 158.76 75.0447H170.512C170.682 75.0433 170.851 75.0772 171.007 75.1443C171.164 75.2114 171.305 75.3101 171.421 75.4344C171.537 75.5586 171.626 75.7056 171.683 75.866C171.739 76.0265 171.762 76.1968 171.749 76.3664C171.737 76.7189 171.59 77.0531 171.337 77.2994C171.084 77.5456 170.746 77.6849 170.393 77.6881Z" fill="black"/>
<path d="M193.738 77.6881H181.993C181.823 77.6895 181.654 77.6556 181.497 77.5885C181.341 77.5215 181.2 77.4227 181.084 77.2985C180.967 77.1742 180.878 77.0273 180.822 76.8668C180.765 76.7064 180.743 76.536 180.755 76.3664C180.769 76.0201 180.912 75.6914 181.158 75.4464C181.403 75.2013 181.732 75.0578 182.079 75.0447H193.824C193.994 75.0433 194.163 75.0772 194.32 75.1443C194.476 75.2114 194.617 75.3101 194.733 75.4344C194.85 75.5586 194.939 75.7056 194.995 75.866C195.052 76.0265 195.074 76.1968 195.062 76.3664C195.048 76.7128 194.905 77.0414 194.659 77.2865C194.414 77.5316 194.085 77.675 193.738 77.6881Z" fill="black"/>
<path d="M217.09 77.6881H205.344C205.174 77.6895 205.005 77.6556 204.849 77.5885C204.692 77.5215 204.552 77.4227 204.435 77.2985C204.319 77.1742 204.23 77.0273 204.173 76.8668C204.117 76.7064 204.094 76.536 204.107 76.3664C204.121 76.0145 204.269 75.6812 204.521 75.4353C204.774 75.1894 205.111 75.0495 205.464 75.0447H217.209C217.379 75.0433 217.548 75.0772 217.704 75.1443C217.861 75.2114 218.002 75.3101 218.118 75.4344C218.234 75.5586 218.323 75.7056 218.38 75.866C218.436 76.0265 218.459 76.1968 218.446 76.3664C218.433 76.7183 218.284 77.0516 218.032 77.2976C217.78 77.5435 217.442 77.6833 217.09 77.6881Z" fill="black"/>
<path d="M240.441 77.6881H228.696C228.526 77.6895 228.357 77.6556 228.2 77.5885C228.044 77.5215 227.903 77.4227 227.787 77.2985C227.671 77.1742 227.581 77.0273 227.525 76.8668C227.468 76.7064 227.446 76.536 227.459 76.3664C227.472 76.0145 227.62 75.6812 227.873 75.4353C228.125 75.1893 228.462 75.0495 228.815 75.0447H240.554C240.724 75.0434 240.893 75.0773 241.05 75.1443C241.207 75.2113 241.348 75.31 241.465 75.4341C241.582 75.5582 241.672 75.7051 241.729 75.8655C241.786 76.026 241.81 76.1965 241.798 76.3664C241.784 76.7183 241.636 77.0516 241.384 77.2976C241.131 77.5435 240.794 77.6833 240.441 77.6881Z" fill="black"/>
</g>
<path d="M124.339 102.648H109.04C108.705 102.65 108.373 102.583 108.064 102.451C107.755 102.32 107.477 102.127 107.245 101.885C107.013 101.642 106.834 101.355 106.717 101.041C106.6 100.727 106.549 100.392 106.566 100.058L107.227 84.779C107.268 84.0845 107.57 83.4311 108.073 82.9503C108.577 82.4696 109.244 82.1974 109.94 82.1885H125.239C125.575 82.1872 125.907 82.2542 126.216 82.3854C126.524 82.5167 126.803 82.7094 127.035 82.9519C127.266 83.1943 127.446 83.4814 127.563 83.7956C127.68 84.1097 127.731 84.4443 127.714 84.779L127.052 100.058C127.011 100.752 126.708 101.404 126.205 101.885C125.702 102.365 125.035 102.638 124.339 102.648Z" fill="#FF81AE"/>
<path d="M147.691 102.648H132.392C132.057 102.651 131.724 102.584 131.415 102.453C131.106 102.322 130.826 102.13 130.595 101.887C130.363 101.644 130.183 101.357 130.067 101.042C129.95 100.728 129.9 100.393 129.918 100.058L130.579 84.779C130.619 84.0845 130.922 83.4311 131.425 82.9503C131.929 82.4696 132.596 82.1974 133.292 82.1885H148.611C148.947 82.1872 149.279 82.2542 149.588 82.3854C149.897 82.5166 150.177 82.7092 150.409 82.9515C150.641 83.1939 150.821 83.4809 150.939 83.7951C151.056 84.1092 151.108 84.444 151.092 84.779L150.397 100.058C150.359 100.752 150.058 101.405 149.556 101.886C149.053 102.367 148.387 102.639 147.691 102.648Z" fill="#FF81AE"/>
<path d="M171.036 102.648H155.744C155.408 102.649 155.076 102.582 154.767 102.451C154.458 102.32 154.178 102.127 153.946 101.885C153.714 101.643 153.534 101.356 153.416 101.042C153.299 100.727 153.246 100.393 153.263 100.058L153.924 84.7788C153.964 84.0843 154.267 83.4309 154.77 82.9501C155.274 82.4694 155.941 82.1972 156.637 82.1883H171.929C172.265 82.186 172.598 82.2523 172.907 82.3833C173.216 82.5142 173.495 82.7069 173.727 82.9496C173.959 83.1922 174.139 83.4797 174.255 83.7943C174.372 84.1089 174.422 84.4439 174.404 84.7788L173.742 100.058C173.702 100.751 173.401 101.403 172.899 101.884C172.397 102.365 171.731 102.638 171.036 102.648Z" fill="#FF81AE"/>
<path d="M194.388 102.648H179.115C178.779 102.651 178.446 102.584 178.137 102.453C177.827 102.323 177.548 102.13 177.316 101.887C177.083 101.645 176.903 101.357 176.786 101.043C176.669 100.728 176.617 100.393 176.634 100.058L177.296 84.779C177.334 84.0851 177.635 83.4317 178.138 82.9508C178.64 82.4699 179.306 82.1975 180.002 82.1885H195.301C195.636 82.1872 195.969 82.2542 196.277 82.3854C196.586 82.5167 196.865 82.7094 197.096 82.9519C197.328 83.1943 197.508 83.4814 197.625 83.7956C197.741 84.1097 197.793 84.4443 197.776 84.779L197.114 100.058C197.074 100.755 196.77 101.41 196.263 101.891C195.757 102.372 195.086 102.643 194.388 102.648Z" fill="#FF81AE"/>
<path d="M217.74 102.648H202.441C202.105 102.649 201.773 102.582 201.464 102.451C201.156 102.32 200.877 102.127 200.645 101.885C200.414 101.642 200.234 101.355 200.117 101.041C200 100.727 199.949 100.392 199.966 100.058L200.628 84.7788C200.668 84.0843 200.97 83.4309 201.474 82.9501C201.977 82.4694 202.644 82.1972 203.341 82.1883H218.633C218.969 82.1861 219.302 82.2524 219.611 82.3832C219.921 82.5141 220.2 82.7067 220.433 82.9492C220.665 83.1918 220.845 83.4792 220.963 83.7938C221.08 84.1084 221.131 84.4436 221.114 84.7788L220.453 100.058C220.411 100.752 220.108 101.404 219.605 101.885C219.102 102.365 218.436 102.638 217.74 102.648Z" fill="#FF81AE"/>
<path d="M241.085 102.648H225.793C225.457 102.651 225.124 102.584 224.815 102.453C224.506 102.322 224.227 102.13 223.995 101.887C223.763 101.644 223.584 101.357 223.467 101.042C223.351 100.728 223.3 100.393 223.318 100.058L223.98 84.779C224.02 84.0845 224.322 83.4311 224.826 82.9503C225.329 82.4696 225.996 82.1974 226.693 82.1885H241.985C242.321 82.1872 242.653 82.2542 242.962 82.3854C243.271 82.5166 243.55 82.7092 243.783 82.9515C244.015 83.1939 244.195 83.4809 244.313 83.7951C244.43 84.1092 244.482 84.444 244.466 84.779L243.771 100.058C243.733 100.748 243.435 101.399 242.937 101.879C242.439 102.36 241.777 102.634 241.085 102.648Z" fill="#FF81AE"/>
<g opacity="0.8">
<path d="M124.34 102.648H109.041C108.706 102.649 108.374 102.582 108.065 102.451C107.756 102.32 107.477 102.127 107.246 101.885C107.014 101.642 106.835 101.355 106.718 101.041C106.601 100.727 106.55 100.392 106.567 100.058L107.228 84.7788C107.269 84.0843 107.571 83.4308 108.074 82.9501C108.578 82.4694 109.245 82.1971 109.941 82.1883H125.24C125.576 82.1869 125.908 82.2539 126.217 82.3852C126.525 82.5164 126.804 82.7092 127.036 82.9516C127.267 83.1941 127.447 83.4812 127.564 83.7953C127.681 84.1095 127.732 84.4441 127.715 84.7788L127.053 100.058C127.012 100.751 126.709 101.404 126.206 101.884C125.703 102.365 125.036 102.638 124.34 102.648Z" fill="#FAFAFA"/>
<path d="M147.692 102.648H132.393C132.058 102.65 131.725 102.584 131.416 102.453C131.106 102.322 130.827 102.129 130.596 101.887C130.364 101.644 130.184 101.357 130.068 101.042C129.951 100.728 129.901 100.392 129.919 100.058L130.58 84.7788C130.62 84.0843 130.923 83.4308 131.426 82.9501C131.93 82.4694 132.597 82.1971 133.293 82.1883H148.612C148.948 82.187 149.28 82.2539 149.589 82.3851C149.898 82.5163 150.177 82.7089 150.41 82.9513C150.642 83.1936 150.822 83.4806 150.94 83.7948C151.057 84.109 151.109 84.4438 151.093 84.7788L150.398 100.058C150.36 100.751 150.059 101.405 149.557 101.886C149.054 102.367 148.388 102.639 147.692 102.648Z" fill="#FAFAFA"/>
<path d="M171.037 102.648H155.745C155.409 102.649 155.077 102.582 154.768 102.451C154.458 102.32 154.179 102.127 153.947 101.885C153.715 101.643 153.535 101.356 153.417 101.042C153.3 100.727 153.247 100.393 153.264 100.058L153.925 84.7788C153.965 84.0843 154.268 83.4309 154.771 82.9501C155.275 82.4694 155.942 82.1972 156.638 82.1883H171.93C172.266 82.186 172.599 82.2523 172.908 82.3833C173.217 82.5142 173.496 82.7069 173.728 82.9496C173.96 83.1922 174.14 83.4797 174.256 83.7943C174.372 84.1089 174.423 84.4439 174.405 84.7788L173.743 100.058C173.703 100.751 173.402 101.403 172.9 101.884C172.398 102.365 171.732 102.638 171.037 102.648Z" fill="#FAFAFA"/>
<path d="M194.389 102.648H179.116C178.78 102.65 178.447 102.584 178.138 102.453C177.828 102.322 177.549 102.13 177.317 101.887C177.084 101.645 176.904 101.357 176.787 101.043C176.67 100.728 176.618 100.393 176.635 100.058L177.297 84.7788C177.335 84.0849 177.636 83.4314 178.138 82.9506C178.641 82.4697 179.307 82.1972 180.003 82.1883H195.302C195.637 82.1869 195.97 82.2539 196.278 82.3852C196.587 82.5164 196.866 82.7092 197.097 82.9516C197.329 83.1941 197.509 83.4812 197.625 83.7953C197.742 84.1095 197.794 84.4441 197.777 84.7788L197.115 100.058C197.075 100.754 196.77 101.41 196.264 101.891C195.758 102.372 195.087 102.643 194.389 102.648Z" fill="#FAFAFA"/>
<path d="M217.741 102.648H202.442C202.106 102.649 201.774 102.582 201.465 102.451C201.157 102.32 200.878 102.127 200.646 101.885C200.415 101.642 200.235 101.355 200.118 101.041C200.001 100.727 199.95 100.392 199.967 100.058L200.629 84.7788C200.669 84.0843 200.971 83.4309 201.475 82.9501C201.978 82.4694 202.645 82.1972 203.342 82.1883H218.634C218.97 82.1861 219.303 82.2524 219.612 82.3832C219.922 82.5141 220.201 82.7067 220.434 82.9492C220.666 83.1918 220.846 83.4792 220.964 83.7938C221.081 84.1084 221.132 84.4436 221.115 84.7788L220.454 100.058C220.412 100.752 220.109 101.404 219.606 101.885C219.103 102.365 218.437 102.638 217.741 102.648Z" fill="#FAFAFA"/>
<path d="M241.086 102.648H225.794C225.458 102.65 225.125 102.584 224.816 102.453C224.507 102.322 224.228 102.129 223.996 101.887C223.764 101.644 223.585 101.357 223.468 101.042C223.352 100.728 223.301 100.392 223.319 100.058L223.981 84.7788C224.021 84.0843 224.323 83.4308 224.827 82.9501C225.33 82.4694 225.997 82.1971 226.694 82.1883H241.986C242.322 82.187 242.654 82.2539 242.963 82.3851C243.272 82.5163 243.551 82.7089 243.784 82.9513C244.016 83.1936 244.196 83.4806 244.314 83.7948C244.431 84.109 244.483 84.4438 244.467 84.7788L243.772 100.058C243.734 100.748 243.436 101.399 242.938 101.879C242.44 102.359 241.778 102.634 241.086 102.648Z" fill="#FAFAFA"/>
</g>
<path d="M123.267 126.353H107.968C107.633 126.354 107.3 126.287 106.992 126.156C106.683 126.025 106.404 125.832 106.173 125.59C105.941 125.347 105.761 125.06 105.645 124.746C105.528 124.432 105.476 124.097 105.493 123.762L106.155 108.484C106.197 107.79 106.5 107.137 107.003 106.657C107.506 106.176 108.172 105.904 108.868 105.893H124.193C124.529 105.892 124.861 105.959 125.17 106.09C125.479 106.221 125.757 106.414 125.989 106.656C126.221 106.899 126.4 107.186 126.517 107.5C126.634 107.814 126.685 108.149 126.668 108.484L126.006 123.762C125.964 124.461 125.658 125.117 125.149 125.598C124.64 126.079 123.968 126.349 123.267 126.353Z" fill="#FF81AE"/>
<path d="M146.619 126.353H131.321C130.985 126.354 130.653 126.287 130.344 126.156C130.035 126.025 129.757 125.832 129.525 125.59C129.294 125.347 129.114 125.06 128.997 124.746C128.88 124.432 128.829 124.097 128.846 123.762L129.508 108.484C129.548 107.789 129.85 107.136 130.354 106.655C130.857 106.174 131.524 105.902 132.221 105.893H147.513C147.851 105.891 148.187 105.958 148.499 106.09C148.811 106.223 149.092 106.417 149.325 106.663C149.558 106.908 149.739 107.199 149.855 107.516C149.971 107.834 150.021 108.172 150.001 108.51L149.339 123.762C149.3 124.459 148.998 125.114 148.492 125.595C147.987 126.076 147.318 126.347 146.619 126.353Z" fill="#FF81AE"/>
<path d="M169.964 126.353H154.672C154.336 126.355 154.003 126.289 153.694 126.158C153.385 126.027 153.106 125.834 152.874 125.592C152.642 125.349 152.462 125.062 152.346 124.747C152.23 124.432 152.179 124.097 152.197 123.762L152.859 108.484C152.899 107.789 153.201 107.136 153.704 106.655C154.208 106.174 154.875 105.902 155.572 105.893H170.864C171.2 105.891 171.532 105.957 171.841 106.088C172.151 106.219 172.43 106.412 172.661 106.654C172.893 106.897 173.073 107.185 173.189 107.499C173.306 107.814 173.357 108.149 173.338 108.484L172.677 123.762C172.637 124.457 172.334 125.11 171.831 125.591C171.327 126.072 170.66 126.344 169.964 126.353Z" fill="#FF81AE"/>
<path d="M193.315 126.353H178.023C177.688 126.354 177.355 126.287 177.046 126.156C176.737 126.025 176.458 125.832 176.226 125.59C175.993 125.348 175.813 125.061 175.696 124.746C175.578 124.432 175.526 124.098 175.542 123.763L176.204 108.484C176.242 107.79 176.543 107.136 177.045 106.656C177.548 106.175 178.214 105.902 178.91 105.893H194.209C194.549 105.887 194.888 105.951 195.202 106.082C195.517 106.213 195.801 106.408 196.036 106.653C196.272 106.899 196.454 107.191 196.571 107.511C196.688 107.83 196.738 108.171 196.717 108.51L196.055 123.789C196.008 124.483 195.699 125.134 195.191 125.61C194.682 126.086 194.012 126.351 193.315 126.353Z" fill="#FF81AE"/>
<path d="M216.667 126.353H201.369C201.033 126.354 200.701 126.287 200.392 126.156C200.083 126.025 199.805 125.832 199.573 125.589C199.341 125.347 199.162 125.06 199.045 124.746C198.928 124.432 198.877 124.097 198.894 123.762L199.556 108.483C199.591 107.784 199.892 107.124 200.397 106.637C200.902 106.151 201.574 105.876 202.275 105.866H217.574C217.909 105.865 218.242 105.932 218.55 106.063C218.859 106.195 219.138 106.387 219.369 106.63C219.601 106.872 219.781 107.159 219.898 107.474C220.014 107.788 220.066 108.122 220.049 108.457L219.387 123.736C219.352 124.436 219.051 125.096 218.546 125.582C218.04 126.068 217.369 126.344 216.667 126.353Z" fill="#FF81AE"/>
<path d="M239.993 126.353H224.721C224.385 126.355 224.052 126.289 223.743 126.158C223.434 126.027 223.155 125.834 222.923 125.592C222.691 125.349 222.511 125.062 222.395 124.747C222.278 124.432 222.228 124.097 222.246 123.762L222.907 108.484C222.948 107.789 223.25 107.136 223.753 106.655C224.257 106.174 224.924 105.902 225.62 105.893H240.913C241.248 105.892 241.581 105.959 241.89 106.09C242.199 106.221 242.478 106.414 242.71 106.656C242.942 106.898 243.123 107.185 243.24 107.5C243.358 107.814 243.41 108.149 243.394 108.484L242.699 123.762C242.661 124.456 242.36 125.11 241.857 125.591C241.355 126.071 240.689 126.344 239.993 126.353Z" fill="#FF81AE"/>
<g opacity="0.8">
<path d="M123.267 126.353H107.968C107.633 126.354 107.3 126.287 106.992 126.156C106.683 126.025 106.404 125.832 106.173 125.59C105.941 125.347 105.761 125.06 105.645 124.746C105.528 124.432 105.476 124.097 105.493 123.762L106.155 108.484C106.197 107.79 106.5 107.137 107.003 106.657C107.506 106.176 108.172 105.904 108.868 105.893H124.193C124.529 105.892 124.861 105.959 125.17 106.09C125.479 106.221 125.757 106.414 125.989 106.656C126.221 106.899 126.4 107.186 126.517 107.5C126.634 107.814 126.685 108.149 126.668 108.484L126.006 123.762C125.964 124.461 125.658 125.117 125.149 125.598C124.64 126.079 123.968 126.349 123.267 126.353Z" fill="#FAFAFA"/>
<path d="M146.618 126.353H131.32C130.984 126.354 130.652 126.287 130.343 126.156C130.035 126.025 129.756 125.832 129.524 125.59C129.293 125.347 129.113 125.06 128.996 124.746C128.879 124.432 128.828 124.097 128.845 123.762L129.507 108.484C129.547 107.789 129.849 107.136 130.353 106.655C130.856 106.174 131.523 105.902 132.22 105.893H147.512C147.851 105.891 148.186 105.958 148.498 106.09C148.81 106.223 149.091 106.417 149.324 106.663C149.557 106.908 149.738 107.199 149.854 107.516C149.97 107.834 150.02 108.172 150 108.51L149.338 123.762C149.299 124.459 148.997 125.114 148.492 125.595C147.986 126.076 147.317 126.347 146.618 126.353Z" fill="#FAFAFA"/>
<path d="M169.963 126.353H154.671C154.335 126.355 154.002 126.289 153.693 126.158C153.384 126.027 153.105 125.834 152.873 125.592C152.641 125.349 152.461 125.062 152.345 124.747C152.229 124.432 152.178 124.097 152.196 123.762L152.858 108.484C152.898 107.789 153.2 107.136 153.703 106.655C154.207 106.174 154.874 105.902 155.571 105.893H170.863C171.199 105.891 171.531 105.957 171.84 106.088C172.15 106.219 172.429 106.412 172.66 106.654C172.892 106.897 173.072 107.185 173.188 107.499C173.305 107.814 173.356 108.149 173.337 108.484L172.676 123.762C172.636 124.457 172.333 125.11 171.83 125.591C171.326 126.072 170.659 126.344 169.963 126.353Z" fill="#FAFAFA"/>
<path d="M193.315 126.353H178.023C177.688 126.354 177.355 126.287 177.046 126.156C176.737 126.025 176.458 125.832 176.226 125.59C175.993 125.347 175.813 125.06 175.696 124.746C175.578 124.432 175.526 124.097 175.542 123.762L176.204 108.483C176.242 107.79 176.543 107.136 177.045 106.655C177.548 106.174 178.214 105.902 178.91 105.893H194.209C194.549 105.887 194.888 105.951 195.202 106.082C195.517 106.213 195.801 106.407 196.036 106.653C196.272 106.899 196.454 107.191 196.571 107.51C196.688 107.83 196.738 108.17 196.717 108.51L196.055 123.789C196.008 124.483 195.699 125.134 195.191 125.61C194.682 126.085 194.012 126.351 193.315 126.353Z" fill="#FAFAFA"/>
<path d="M216.667 126.353H201.369C201.033 126.354 200.701 126.287 200.392 126.156C200.083 126.025 199.805 125.832 199.573 125.589C199.341 125.347 199.162 125.06 199.045 124.746C198.928 124.432 198.877 124.097 198.894 123.762L199.556 108.483C199.591 107.784 199.892 107.124 200.397 106.637C200.902 106.151 201.574 105.876 202.275 105.866H217.574C217.909 105.865 218.242 105.932 218.55 106.063C218.859 106.195 219.138 106.387 219.369 106.63C219.601 106.872 219.781 107.159 219.898 107.474C220.014 107.788 220.066 108.122 220.049 108.457L219.387 123.736C219.352 124.436 219.051 125.096 218.546 125.582C218.04 126.068 217.369 126.344 216.667 126.353Z" fill="#FAFAFA"/>
<path d="M239.992 126.353H224.72C224.384 126.355 224.051 126.289 223.742 126.158C223.433 126.027 223.154 125.834 222.922 125.592C222.69 125.349 222.51 125.062 222.394 124.747C222.277 124.432 222.227 124.097 222.245 123.762L222.906 108.484C222.947 107.789 223.249 107.136 223.752 106.655C224.256 106.174 224.923 105.902 225.619 105.893H240.912C241.247 105.892 241.58 105.959 241.889 106.09C242.198 106.221 242.477 106.414 242.709 106.656C242.941 106.898 243.122 107.185 243.239 107.5C243.357 107.814 243.409 108.149 243.393 108.484L242.698 123.762C242.66 124.456 242.359 125.11 241.856 125.591C241.354 126.071 240.688 126.344 239.992 126.353Z" fill="#FAFAFA"/>
</g>
<path d="M122.208 150.051H106.896C106.561 150.053 106.228 149.987 105.919 149.856C105.609 149.725 105.33 149.532 105.099 149.29C104.867 149.047 104.687 148.76 104.571 148.445C104.454 148.13 104.403 147.795 104.422 147.46L105.083 132.188C105.123 131.494 105.426 130.84 105.929 130.36C106.433 129.879 107.1 129.607 107.796 129.598H123.095C123.431 129.595 123.763 129.662 124.073 129.793C124.382 129.924 124.661 130.116 124.893 130.359C125.125 130.602 125.304 130.889 125.421 131.204C125.537 131.518 125.588 131.853 125.57 132.188L124.908 147.46C124.87 148.153 124.57 148.806 124.069 149.286C123.568 149.767 122.903 150.04 122.208 150.051Z" fill="#FF81AE"/>
<path d="M145.547 150.051H130.248C129.912 150.053 129.579 149.987 129.27 149.856C128.961 149.725 128.682 149.532 128.45 149.29C128.218 149.047 128.039 148.76 127.922 148.445C127.806 148.13 127.755 147.795 127.773 147.46L128.435 132.188C128.473 131.493 128.775 130.839 129.279 130.358C129.783 129.877 130.451 129.605 131.148 129.598H146.44C146.776 129.595 147.11 129.66 147.42 129.791C147.73 129.921 148.009 130.114 148.242 130.357C148.475 130.599 148.655 130.887 148.772 131.202C148.888 131.517 148.939 131.853 148.921 132.188L148.26 147.46C148.223 148.156 147.921 148.811 147.417 149.293C146.913 149.774 146.244 150.045 145.547 150.051Z" fill="#FF81AE"/>
<path d="M168.892 150.051H153.6C153.265 150.053 152.932 149.987 152.623 149.856C152.314 149.725 152.034 149.532 151.803 149.29C151.571 149.047 151.391 148.76 151.275 148.445C151.158 148.13 151.108 147.795 151.126 147.46L151.787 132.188C151.826 131.493 152.128 130.839 152.631 130.358C153.135 129.877 153.803 129.605 154.5 129.598H169.852C170.188 129.595 170.521 129.662 170.831 129.793C171.14 129.924 171.42 130.116 171.652 130.359C171.884 130.601 172.065 130.889 172.182 131.203C172.299 131.518 172.35 131.853 172.333 132.188L171.639 147.46C171.6 148.161 171.293 148.82 170.782 149.302C170.272 149.784 169.595 150.052 168.892 150.051Z" fill="#FF81AE"/>
<path d="M192.244 150.051H176.952C176.616 150.053 176.283 149.987 175.974 149.856C175.664 149.725 175.385 149.533 175.152 149.29C174.92 149.047 174.74 148.76 174.623 148.445C174.505 148.131 174.454 147.796 174.471 147.46L175.133 132.188C175.17 131.494 175.47 130.839 175.973 130.358C176.475 129.877 177.143 129.605 177.839 129.598H193.138C193.474 129.595 193.806 129.662 194.115 129.793C194.425 129.924 194.704 130.116 194.936 130.359C195.167 130.602 195.347 130.889 195.463 131.204C195.58 131.518 195.631 131.853 195.613 132.188L194.951 147.46C194.912 148.154 194.611 148.808 194.109 149.289C193.607 149.769 192.94 150.042 192.244 150.051Z" fill="#FF81AE"/>
<path d="M215.596 150.051H200.291C199.955 150.053 199.622 149.987 199.313 149.856C199.004 149.725 198.725 149.532 198.493 149.29C198.261 149.047 198.082 148.76 197.965 148.445C197.849 148.13 197.798 147.795 197.816 147.46L198.478 132.188C198.518 131.494 198.82 130.84 199.324 130.36C199.827 129.879 200.494 129.607 201.191 129.598H216.489C216.825 129.595 217.158 129.662 217.467 129.793C217.776 129.924 218.055 130.116 218.287 130.359C218.519 130.602 218.699 130.889 218.815 131.204C218.932 131.518 218.982 131.853 218.964 132.188L218.303 147.46C218.262 148.154 217.961 148.806 217.459 149.287C216.957 149.767 216.291 150.04 215.596 150.051Z" fill="#FF81AE"/>
<path d="M238.947 150.051H223.648C223.312 150.053 222.98 149.987 222.671 149.856C222.361 149.725 222.082 149.532 221.85 149.29C221.619 149.047 221.439 148.76 221.323 148.445C221.206 148.13 221.155 147.795 221.173 147.46L221.835 132.188C221.874 131.493 222.176 130.839 222.679 130.358C223.183 129.877 223.851 129.605 224.548 129.598H239.84C240.176 129.595 240.509 129.662 240.819 129.793C241.128 129.924 241.408 130.116 241.64 130.359C241.873 130.601 242.053 130.889 242.17 131.203C242.287 131.518 242.339 131.853 242.322 132.188L241.627 147.46C241.59 148.15 241.294 148.801 240.796 149.281C240.299 149.762 239.639 150.037 238.947 150.051Z" fill="#FF81AE"/>
<g opacity="0.8">
<path d="M122.209 150.051H106.897C106.561 150.053 106.229 149.987 105.92 149.856C105.61 149.725 105.331 149.532 105.1 149.29C104.868 149.047 104.688 148.76 104.572 148.445C104.455 148.13 104.404 147.795 104.423 147.46L105.084 132.188C105.124 131.494 105.427 130.84 105.93 130.36C106.434 129.879 107.101 129.607 107.797 129.598H123.096C123.432 129.595 123.764 129.662 124.074 129.793C124.383 129.924 124.662 130.116 124.894 130.359C125.125 130.602 125.305 130.889 125.422 131.204C125.538 131.518 125.589 131.853 125.571 132.188L124.909 147.46C124.871 148.153 124.571 148.806 124.07 149.286C123.569 149.767 122.904 150.04 122.209 150.051Z" fill="#FAFAFA"/>
<path d="M145.548 150.051H130.249C129.913 150.053 129.58 149.987 129.271 149.856C128.962 149.725 128.683 149.532 128.451 149.29C128.219 149.047 128.04 148.76 127.923 148.445C127.807 148.13 127.756 147.795 127.774 147.46L128.436 132.188C128.474 131.493 128.776 130.839 129.28 130.358C129.784 129.877 130.452 129.605 131.149 129.598H146.441C146.777 129.595 147.111 129.66 147.421 129.791C147.731 129.921 148.01 130.114 148.243 130.357C148.476 130.599 148.656 130.887 148.773 131.202C148.889 131.517 148.94 131.853 148.922 132.188L148.261 147.46C148.223 148.156 147.922 148.811 147.418 149.293C146.914 149.774 146.245 150.045 145.548 150.051Z" fill="#FAFAFA"/>
<path d="M168.892 150.051H153.6C153.265 150.053 152.932 149.987 152.623 149.856C152.314 149.725 152.034 149.532 151.803 149.29C151.571 149.047 151.391 148.76 151.275 148.445C151.158 148.13 151.108 147.795 151.126 147.46L151.787 132.188C151.826 131.493 152.128 130.839 152.631 130.358C153.135 129.877 153.803 129.605 154.5 129.598H169.852C170.188 129.595 170.521 129.662 170.831 129.793C171.14 129.924 171.42 130.116 171.652 130.359C171.884 130.601 172.065 130.889 172.182 131.203C172.299 131.518 172.35 131.853 172.333 132.188L171.639 147.46C171.6 148.161 171.293 148.82 170.782 149.302C170.272 149.784 169.595 150.052 168.892 150.051Z" fill="#FAFAFA"/>
<path d="M192.244 150.051H176.952C176.616 150.053 176.283 149.987 175.974 149.856C175.664 149.725 175.385 149.533 175.152 149.29C174.92 149.047 174.74 148.76 174.623 148.445C174.505 148.131 174.454 147.796 174.471 147.46L175.133 132.188C175.17 131.494 175.47 130.839 175.973 130.358C176.475 129.877 177.143 129.605 177.839 129.598H193.138C193.474 129.595 193.806 129.662 194.115 129.793C194.425 129.924 194.704 130.116 194.936 130.359C195.167 130.602 195.347 130.889 195.463 131.204C195.58 131.518 195.631 131.853 195.613 132.188L194.951 147.46C194.912 148.154 194.611 148.808 194.109 149.289C193.607 149.769 192.94 150.042 192.244 150.051Z" fill="#FAFAFA"/>
<path d="M215.596 150.051H200.291C199.955 150.053 199.622 149.987 199.313 149.856C199.004 149.725 198.725 149.532 198.493 149.29C198.261 149.047 198.082 148.76 197.965 148.445C197.849 148.13 197.798 147.795 197.816 147.46L198.478 132.188C198.518 131.494 198.82 130.84 199.324 130.36C199.827 129.879 200.494 129.607 201.191 129.598H216.489C216.825 129.595 217.158 129.662 217.467 129.793C217.776 129.924 218.055 130.116 218.287 130.359C218.519 130.602 218.699 130.889 218.815 131.204C218.932 131.518 218.982 131.853 218.964 132.188L218.303 147.46C218.262 148.154 217.961 148.806 217.459 149.287C216.957 149.767 216.291 150.04 215.596 150.051Z" fill="#FAFAFA"/>
<path d="M238.948 150.051H223.649C223.313 150.053 222.981 149.987 222.672 149.856C222.362 149.725 222.083 149.532 221.851 149.29C221.62 149.047 221.44 148.76 221.324 148.445C221.207 148.13 221.156 147.795 221.174 147.46L221.836 132.188C221.875 131.493 222.177 130.839 222.68 130.358C223.184 129.877 223.852 129.605 224.549 129.598H239.841C240.177 129.595 240.51 129.662 240.82 129.793C241.129 129.924 241.409 130.116 241.641 130.359C241.874 130.601 242.054 130.889 242.171 131.203C242.288 131.518 242.34 131.853 242.323 132.188L241.628 147.46C241.591 148.15 241.295 148.801 240.797 149.281C240.3 149.762 239.64 150.037 238.948 150.051Z" fill="#FAFAFA"/>
</g>
<path d="M117.874 69.8108C112.237 69.8108 107.816 63.2618 107.816 54.9021C107.816 46.5424 112.237 40 117.874 40C123.512 40 127.939 46.549 127.939 54.9021C127.913 55.2939 127.739 55.6613 127.452 55.9297C127.165 56.1981 126.787 56.3475 126.394 56.3475C126.001 56.3475 125.622 56.1981 125.335 55.9297C125.048 55.6613 124.874 55.2939 124.849 54.9021C124.849 48.4985 121.659 43.0796 117.874 43.0796C114.089 43.0796 110.9 48.4985 110.9 54.9021C110.9 61.3057 114.096 66.7247 117.874 66.7247C118.086 66.7108 118.298 66.7405 118.497 66.8118C118.697 66.8831 118.879 66.9945 119.034 67.1391C119.189 67.2838 119.312 67.4586 119.396 67.6527C119.48 67.8468 119.524 68.0562 119.524 68.2678C119.524 68.4793 119.48 68.6887 119.396 68.8828C119.312 69.0769 119.189 69.2517 119.034 69.3964C118.879 69.541 118.697 69.6524 118.497 69.7237C118.298 69.795 118.086 69.8247 117.874 69.8108Z" fill="#FF81AE"/>
<path d="M141.226 69.8108C135.588 69.8108 131.168 63.2618 131.168 54.9021C131.168 46.5424 135.588 40 141.226 40C146.864 40 151.324 46.549 151.324 54.9021C151.298 55.2939 151.124 55.6613 150.837 55.9297C150.55 56.1981 150.172 56.3475 149.778 56.3475C149.385 56.3475 149.007 56.1981 148.72 55.9297C148.433 55.6613 148.259 55.2939 148.233 54.9021C148.233 48.4985 145.044 43.0796 141.259 43.0796C137.474 43.0796 134.285 48.4985 134.285 54.9021C134.285 61.3057 137.481 66.7247 141.259 66.7247C141.651 66.7503 142.019 66.9241 142.288 67.2106C142.557 67.4972 142.706 67.8751 142.706 68.2678C142.706 68.6604 142.557 69.0383 142.288 69.3249C142.019 69.6114 141.651 69.7852 141.259 69.8108H141.226Z" fill="#FF81AE"/>
<path d="M164.558 69.8108C158.913 69.8108 154.493 63.2618 154.493 54.9021C154.493 46.5424 158.913 40 164.558 40C170.202 40 174.616 46.549 174.616 54.9021C174.616 55.3105 174.453 55.7021 174.164 55.9909C173.875 56.2797 173.483 56.4419 173.074 56.4419C172.665 56.4419 172.273 56.2797 171.984 55.9909C171.695 55.7021 171.532 55.3105 171.532 54.9021C171.532 48.4985 168.336 43.0796 164.558 43.0796C160.779 43.0796 157.583 48.4985 157.583 54.9021C157.583 61.3057 160.779 66.7247 164.558 66.7247C164.95 66.7503 165.318 66.9241 165.587 67.2106C165.855 67.4972 166.005 67.8751 166.005 68.2678C166.005 68.6604 165.855 69.0383 165.587 69.3249C165.318 69.6114 164.95 69.7852 164.558 69.8108Z" fill="#FF81AE"/>
<path d="M187.93 69.8108C182.285 69.8108 177.865 63.2618 177.865 54.9021C177.865 46.5424 182.285 40 187.93 40C193.574 40 197.988 46.549 197.988 54.9021C197.988 55.3105 197.825 55.7021 197.536 55.9909C197.247 56.2797 196.855 56.4419 196.446 56.4419C196.037 56.4419 195.645 56.2797 195.356 55.9909C195.067 55.7021 194.904 55.3105 194.904 54.9021C194.904 48.4985 191.708 43.0796 187.93 43.0796C184.151 43.0796 180.955 48.4985 180.955 54.9021C180.955 61.3057 184.145 66.7247 187.93 66.7247C188.322 66.7503 188.69 66.9241 188.959 67.2106C189.227 67.4972 189.377 67.8751 189.377 68.2678C189.377 68.6604 189.227 69.0383 188.959 69.3249C188.69 69.6114 188.322 69.7852 187.93 69.8108Z" fill="#FF81AE"/>
<path d="M211.275 69.8108C205.637 69.8108 201.217 63.2618 201.217 54.9021C201.217 46.5424 205.637 40 211.275 40C216.913 40 221.339 46.549 221.339 54.9021C221.314 55.2939 221.14 55.6613 220.853 55.9297C220.566 56.1981 220.187 56.3475 219.794 56.3475C219.401 56.3475 219.023 56.1981 218.736 55.9297C218.449 55.6613 218.275 55.2939 218.249 54.9021C218.249 48.4985 215.06 43.0796 211.275 43.0796C207.49 43.0796 204.3 48.4985 204.3 54.9021C204.3 61.3057 207.496 66.7247 211.275 66.7247C211.486 66.7108 211.698 66.7405 211.898 66.8118C212.097 66.8831 212.28 66.9945 212.434 67.1391C212.589 67.2838 212.712 67.4586 212.797 67.6527C212.881 67.8468 212.924 68.0562 212.924 68.2678C212.924 68.4793 212.881 68.6887 212.797 68.8828C212.712 69.0769 212.589 69.2517 212.434 69.3964C212.28 69.541 212.097 69.6524 211.898 69.7237C211.698 69.795 211.486 69.8247 211.275 69.8108Z" fill="#FF81AE"/>
<path d="M234.626 69.8108C228.989 69.8108 224.568 63.2618 224.568 54.9021C224.568 46.5424 228.989 40 234.626 40C240.264 40 244.691 46.549 244.691 54.9021C244.665 55.2939 244.491 55.6613 244.204 55.9297C243.917 56.1981 243.539 56.3475 243.146 56.3475C242.753 56.3475 242.374 56.1981 242.087 55.9297C241.8 55.6613 241.626 55.2939 241.601 54.9021C241.601 48.4985 238.405 43.0796 234.626 43.0796C230.848 43.0796 227.652 48.4985 227.652 54.9021C227.652 61.3057 230.848 66.7247 234.626 66.7247C235.019 66.7503 235.386 66.9241 235.655 67.2106C235.924 67.4972 236.074 67.8751 236.074 68.2678C236.074 68.6604 235.924 69.0383 235.655 69.3249C235.386 69.6114 235.019 69.7852 234.626 69.8108Z" fill="#FF81AE"/>
<g opacity="0.3">
<path d="M117.875 69.8108C112.238 69.8108 107.817 63.2618 107.817 54.9021C107.817 46.5424 112.238 40 117.875 40C123.513 40 127.94 46.549 127.94 54.9021C127.914 55.2939 127.74 55.6613 127.453 55.9297C127.166 56.1981 126.788 56.3475 126.395 56.3475C126.002 56.3475 125.623 56.1981 125.336 55.9297C125.049 55.6613 124.875 55.2939 124.85 54.9021C124.85 48.4985 121.66 43.0796 117.875 43.0796C114.09 43.0796 110.901 48.4985 110.901 54.9021C110.901 61.3057 114.097 66.7247 117.875 66.7247C118.087 66.7108 118.299 66.7405 118.498 66.8118C118.698 66.8831 118.88 66.9945 119.035 67.1391C119.19 67.2838 119.313 67.4586 119.397 67.6527C119.481 67.8468 119.525 68.0562 119.525 68.2678C119.525 68.4793 119.481 68.6887 119.397 68.8828C119.313 69.0769 119.19 69.2517 119.035 69.3964C118.88 69.541 118.698 69.6524 118.498 69.7237C118.299 69.795 118.087 69.8247 117.875 69.8108Z" fill="black"/>
<path d="M141.227 69.8108C135.589 69.8108 131.169 63.2618 131.169 54.9021C131.169 46.5424 135.589 40 141.227 40C146.865 40 151.325 46.549 151.325 54.9021C151.299 55.2939 151.125 55.6613 150.838 55.9297C150.551 56.1981 150.173 56.3475 149.779 56.3475C149.386 56.3475 149.008 56.1981 148.721 55.9297C148.434 55.6613 148.26 55.2939 148.234 54.9021C148.234 48.4985 145.045 43.0796 141.26 43.0796C137.475 43.0796 134.286 48.4985 134.286 54.9021C134.286 61.3057 137.482 66.7247 141.26 66.7247C141.652 66.7503 142.02 66.9241 142.289 67.2106C142.558 67.4972 142.707 67.8751 142.707 68.2678C142.707 68.6604 142.558 69.0383 142.289 69.3249C142.02 69.6114 141.652 69.7852 141.26 69.8108H141.227Z" fill="black"/>
<path d="M164.559 69.8108C158.914 69.8108 154.494 63.2618 154.494 54.9021C154.494 46.5424 158.914 40 164.559 40C170.203 40 174.617 46.549 174.617 54.9021C174.617 55.3105 174.454 55.7021 174.165 55.9909C173.876 56.2797 173.484 56.4419 173.075 56.4419C172.666 56.4419 172.274 56.2797 171.985 55.9909C171.696 55.7021 171.533 55.3105 171.533 54.9021C171.533 48.4985 168.337 43.0796 164.559 43.0796C160.78 43.0796 157.584 48.4985 157.584 54.9021C157.584 61.3057 160.78 66.7247 164.559 66.7247C164.951 66.7503 165.319 66.9241 165.588 67.2106C165.856 67.4972 166.006 67.8751 166.006 68.2678C166.006 68.6604 165.856 69.0383 165.588 69.3249C165.319 69.6114 164.951 69.7852 164.559 69.8108Z" fill="black"/>
<path d="M187.931 69.8108C182.286 69.8108 177.866 63.2618 177.866 54.9021C177.866 46.5424 182.286 40 187.931 40C193.575 40 197.989 46.549 197.989 54.9021C197.989 55.3105 197.826 55.7021 197.537 55.9909C197.248 56.2797 196.856 56.4419 196.447 56.4419C196.038 56.4419 195.646 56.2797 195.357 55.9909C195.068 55.7021 194.905 55.3105 194.905 54.9021C194.905 48.4985 191.709 43.0796 187.931 43.0796C184.152 43.0796 180.956 48.4985 180.956 54.9021C180.956 61.3057 184.146 66.7247 187.931 66.7247C188.323 66.7503 188.691 66.9241 188.96 67.2106C189.228 67.4972 189.378 67.8751 189.378 68.2678C189.378 68.6604 189.228 69.0383 188.96 69.3249C188.691 69.6114 188.323 69.7852 187.931 69.8108Z" fill="black"/>
<path d="M211.276 69.8108C205.638 69.8108 201.218 63.2618 201.218 54.9021C201.218 46.5424 205.638 40 211.276 40C216.913 40 221.34 46.549 221.34 54.9021C221.315 55.2939 221.141 55.6613 220.854 55.9297C220.567 56.1981 220.188 56.3475 219.795 56.3475C219.402 56.3475 219.024 56.1981 218.737 55.9297C218.45 55.6613 218.276 55.2939 218.25 54.9021C218.25 48.4985 215.061 43.0796 211.276 43.0796C207.491 43.0796 204.301 48.4985 204.301 54.9021C204.301 61.3057 207.497 66.7247 211.276 66.7247C211.487 66.7108 211.699 66.7405 211.899 66.8118C212.098 66.8831 212.281 66.9945 212.435 67.1391C212.59 67.2838 212.713 67.4586 212.798 67.6527C212.882 67.8468 212.925 68.0562 212.925 68.2678C212.925 68.4793 212.882 68.6887 212.798 68.8828C212.713 69.0769 212.59 69.2517 212.435 69.3964C212.281 69.541 212.098 69.6524 211.899 69.7237C211.699 69.795 211.487 69.8247 211.276 69.8108Z" fill="black"/>
<path d="M234.627 69.8108C228.99 69.8108 224.569 63.2618 224.569 54.9021C224.569 46.5424 228.99 40 234.627 40C240.265 40 244.692 46.549 244.692 54.9021C244.666 55.2939 244.492 55.6613 244.205 55.9297C243.918 56.1981 243.54 56.3475 243.147 56.3475C242.754 56.3475 242.375 56.1981 242.088 55.9297C241.801 55.6613 241.627 55.2939 241.602 54.9021C241.602 48.4985 238.406 43.0796 234.627 43.0796C230.849 43.0796 227.653 48.4985 227.653 54.9021C227.653 61.3057 230.849 66.7247 234.627 66.7247C235.02 66.7503 235.387 66.9241 235.656 67.2106C235.925 67.4972 236.075 67.8751 236.075 68.2678C236.075 68.6604 235.925 69.0383 235.656 69.3249C235.387 69.6114 235.02 69.7852 234.627 69.8108Z" fill="black"/>
</g>
<path d="M189.492 103.501C184.092 102.43 178.031 103.679 175.867 109.363C174.127 113.936 176.357 118.892 181.161 120.101C185.396 121.165 192.701 119.863 194.21 114.986C195.937 109.409 188.916 107.598 184.979 107.268C183.794 107.169 183.801 109.019 184.979 109.118C186.772 109.27 188.823 109.369 190.411 110.354C193.72 112.422 192.357 115.74 189.538 117.326C186.719 118.912 182.398 119.308 179.612 117.55C176.568 115.614 176.469 111.358 178.289 108.583C180.678 104.915 185.038 104.505 188.969 105.278C190.133 105.51 190.63 103.726 189.459 103.494L189.492 103.501Z" fill="#FF81AE"/>
<path opacity="0.1" d="M189.492 103.501C184.092 102.43 178.031 103.679 175.867 109.363C174.127 113.936 176.357 118.892 181.161 120.101C185.396 121.165 192.701 119.863 194.21 114.986C195.937 109.409 188.916 107.598 184.979 107.268C183.794 107.169 183.801 109.019 184.979 109.118C186.772 109.27 188.823 109.369 190.411 110.354C193.72 112.422 192.357 115.74 189.538 117.326C186.719 118.912 182.398 119.308 179.612 117.55C176.568 115.614 176.469 111.358 178.289 108.583C180.678 104.915 185.038 104.505 188.969 105.278C190.133 105.51 190.63 103.726 189.459 103.494L189.492 103.501Z" fill="#FAFAFA"/>
<path d="M129.917 82.215C135.081 89.0516 140.838 95.4203 147.121 101.247C147.995 102.06 149.311 100.752 148.445 99.9257C142.269 94.2138 136.607 87.9712 131.525 81.27C130.817 80.3316 129.209 81.27 129.93 82.2018L129.917 82.215Z" fill="#FF81AE"/>
<path d="M131.83 100.474C135.734 93.5419 142.569 87.6273 149.034 83.1005C150 82.4397 149.081 80.814 148.101 81.5013C141.378 86.2197 134.311 92.3128 130.235 99.5358C130.123 99.7463 130.097 99.9917 130.162 100.221C130.227 100.45 130.378 100.646 130.583 100.767C130.789 100.888 131.033 100.925 131.265 100.87C131.497 100.816 131.7 100.674 131.83 100.474Z" fill="#FF81AE"/>
<g opacity="0.2">
<path d="M129.917 82.215C135.081 89.0516 140.838 95.4203 147.121 101.247C147.995 102.06 149.311 100.752 148.445 99.9257C142.269 94.2138 136.607 87.9712 131.525 81.27C130.817 80.3316 129.209 81.27 129.93 82.2018L129.917 82.215Z" fill="black"/>
<path d="M131.829 100.474C135.733 93.5419 142.568 87.6273 149.033 83.1005C149.999 82.4397 149.08 80.814 148.1 81.5013C141.377 86.2197 134.31 92.3128 130.234 99.5358C130.122 99.7463 130.096 99.9917 130.161 100.221C130.226 100.45 130.377 100.646 130.582 100.767C130.788 100.888 131.032 100.925 131.264 100.87C131.496 100.816 131.699 100.674 131.829 100.474Z" fill="black"/>
</g>
<path d="M203.512 88.1297H215.588C215.82 88.1101 216.035 88.0045 216.192 87.8337C216.349 87.663 216.437 87.4396 216.437 87.2078C216.437 86.9759 216.349 86.7525 216.192 86.5818C216.035 86.4111 215.82 86.3055 215.588 86.2859H203.512C203.281 86.3055 203.065 86.4111 202.908 86.5818C202.751 86.7525 202.664 86.9759 202.664 87.2078C202.664 87.4396 202.751 87.663 202.908 87.8337C203.065 88.0045 203.281 88.1101 203.512 88.1297Z" fill="#FF81AE"/>
<path d="M203.373 91.5594H210.374C210.619 91.5594 210.855 91.4619 211.029 91.2884C211.202 91.1149 211.3 90.8796 211.3 90.6342C211.3 90.3888 211.202 90.1535 211.029 89.98C210.855 89.8065 210.619 89.709 210.374 89.709H203.373C203.127 89.709 202.891 89.8065 202.718 89.98C202.544 90.1535 202.446 90.3888 202.446 90.6342C202.446 90.8796 202.544 91.1149 202.718 91.2884C202.891 91.4619 203.127 91.5594 203.373 91.5594Z" fill="#FF81AE"/>
<g opacity="0.1">
<path d="M203.511 88.1297H215.587C215.819 88.1101 216.034 88.0045 216.191 87.8337C216.348 87.663 216.436 87.4396 216.436 87.2078C216.436 86.9759 216.348 86.7525 216.191 86.5818C216.034 86.4111 215.819 86.3055 215.587 86.2859H203.511C203.28 86.3055 203.064 86.4111 202.907 86.5818C202.75 86.7525 202.663 86.9759 202.663 87.2078C202.663 87.4396 202.75 87.663 202.907 87.8337C203.064 88.0045 203.28 88.1101 203.511 88.1297Z" fill="#FAFAFA"/>
<path d="M203.373 91.5591H210.374C210.619 91.5591 210.855 91.4616 211.029 91.2881C211.202 91.1146 211.3 90.8793 211.3 90.6339C211.3 90.3886 211.202 90.1532 211.029 89.9797C210.855 89.8062 210.619 89.7087 210.374 89.7087H203.373C203.127 89.7087 202.891 89.8062 202.718 89.9797C202.544 90.1532 202.446 90.3886 202.446 90.6339C202.446 90.8793 202.544 91.1146 202.718 91.2881C202.891 91.4616 203.127 91.5591 203.373 91.5591Z" fill="#FAFAFA"/>
</g>
<path d="M131.181 135.472H141.537C141.783 135.472 142.018 135.375 142.192 135.201C142.366 135.028 142.463 134.793 142.463 134.547C142.463 134.302 142.366 134.067 142.192 133.893C142.018 133.72 141.783 133.622 141.537 133.622H131.181C130.936 133.622 130.7 133.72 130.526 133.893C130.352 134.067 130.255 134.302 130.255 134.547C130.255 134.793 130.352 135.028 130.526 135.201C130.7 135.375 130.936 135.472 131.181 135.472Z" fill="#FF81AE"/>
<path d="M130.81 139.444H144.243C144.489 139.444 144.724 139.347 144.898 139.173C145.072 139 145.169 138.764 145.169 138.519C145.169 138.274 145.072 138.038 144.898 137.865C144.724 137.691 144.489 137.594 144.243 137.594H130.81C130.564 137.594 130.329 137.691 130.155 137.865C129.981 138.038 129.884 138.274 129.884 138.519C129.884 138.764 129.981 139 130.155 139.173C130.329 139.347 130.564 139.444 130.81 139.444Z" fill="#FF81AE"/>
<path d="M130.81 143.535H137.527C137.772 143.535 138.008 143.437 138.182 143.264C138.355 143.09 138.453 142.855 138.453 142.61C138.453 142.364 138.355 142.129 138.182 141.956C138.008 141.782 137.772 141.685 137.527 141.685H130.81C130.564 141.685 130.329 141.782 130.155 141.956C129.981 142.129 129.884 142.364 129.884 142.61C129.884 142.855 129.981 143.09 130.155 143.264C130.329 143.437 130.564 143.535 130.81 143.535Z" fill="#FF81AE"/>
<g opacity="0.1">
<path d="M131.181 135.472H141.537C141.783 135.472 142.018 135.375 142.192 135.201C142.366 135.028 142.463 134.793 142.463 134.547C142.463 134.302 142.366 134.067 142.192 133.893C142.018 133.72 141.783 133.622 141.537 133.622H131.181C130.936 133.622 130.7 133.72 130.526 133.893C130.352 134.067 130.255 134.302 130.255 134.547C130.255 134.793 130.352 135.028 130.526 135.201C130.7 135.375 130.936 135.472 131.181 135.472Z" fill="#FAFAFA"/>
<path d="M130.811 139.444H144.244C144.49 139.444 144.725 139.347 144.899 139.173C145.073 139 145.17 138.764 145.17 138.519C145.17 138.274 145.073 138.038 144.899 137.865C144.725 137.691 144.49 137.594 144.244 137.594H130.811C130.565 137.594 130.33 137.691 130.156 137.865C129.982 138.038 129.885 138.274 129.885 138.519C129.885 138.764 129.982 139 130.156 139.173C130.33 139.347 130.565 139.444 130.811 139.444Z" fill="#FAFAFA"/>
<path d="M130.811 143.535H137.527C137.773 143.535 138.009 143.437 138.183 143.264C138.356 143.09 138.454 142.855 138.454 142.61C138.454 142.364 138.356 142.129 138.183 141.955C138.009 141.782 137.773 141.684 137.527 141.684H130.811C130.565 141.684 130.33 141.782 130.156 141.955C129.982 142.129 129.885 142.364 129.885 142.61C129.885 142.855 129.982 143.09 130.156 143.264C130.33 143.437 130.565 143.535 130.811 143.535Z" fill="#FAFAFA"/>
</g>
</svg>
