<svg width="360" height="430" viewBox="0 0 360 430" fill="none" xmlns="http://www.w3.org/2000/svg">
<rect width="360" height="430" fill="#FDF8F1"/>
<circle cx="180" cy="179" r="179" fill="#122023"/>
<path d="M98.5 231.48C98.5 228.64 98.96 226.24 99.88 224.28C100.8 222.28 102.24 220.54 104.2 219.06C106.16 217.54 108.82 216.1 112.18 214.74L117.76 212.46C120.2 211.5 121.84 210.6 122.68 209.76C123.52 208.88 123.94 207.84 123.94 206.64C123.94 205.44 123.48 204.5 122.56 203.82C121.64 203.14 120.22 202.8 118.3 202.8C114.46 202.8 112.12 204.48 111.28 207.84L99.58 205.98C100.34 202.5 102.36 199.68 105.64 197.52C108.92 195.32 113.74 194.22 120.1 194.22C124.5 194.22 128.14 194.76 131.02 195.84C133.9 196.88 136 198.3 137.32 200.1C138.68 201.86 139.36 203.82 139.36 205.98C139.36 208.5 138.48 210.72 136.72 212.64C134.96 214.56 131.86 216.48 127.42 218.4L121.18 220.92C119.26 221.72 117.8 222.44 116.8 223.08C115.84 223.68 115.18 224.28 114.82 224.88C114.46 225.44 114.26 226.1 114.22 226.86H139.9V237H98.5V231.48ZM166.733 237.78C159.613 237.78 154.073 235.9 150.113 232.14C146.193 228.34 144.233 222.98 144.233 216.06C144.233 209.06 146.193 203.68 150.113 199.92C154.073 196.12 159.613 194.22 166.733 194.22C171.413 194.22 175.433 195.06 178.793 196.74C182.153 198.38 184.713 200.78 186.473 203.94C188.273 207.1 189.173 210.9 189.173 215.34C189.173 222.5 187.193 228.04 183.233 231.96C179.313 235.84 173.813 237.78 166.733 237.78ZM159.713 215.94C159.713 220.42 160.353 223.66 161.633 225.66C162.953 227.62 164.653 228.6 166.733 228.6C168.813 228.6 170.493 227.58 171.773 225.54C173.053 223.5 173.693 220.14 173.693 215.46C173.693 211.02 173.053 207.84 171.773 205.92C170.533 204 168.853 203.04 166.733 203.04C162.053 203.04 159.713 207.34 159.713 215.94ZM244.18 195H255.58L210.1 237H198.58L244.18 195ZM192.76 205.32C192.76 203.28 193.34 201.44 194.5 199.8C195.66 198.16 197.38 196.88 199.66 195.96C201.98 195 204.76 194.52 208 194.52C211.28 194.52 214.08 195 216.4 195.96C218.72 196.88 220.46 198.16 221.62 199.8C222.82 201.44 223.42 203.28 223.42 205.32C223.42 207.44 222.82 209.34 221.62 211.02C220.46 212.7 218.72 214.02 216.4 214.98C214.12 215.9 211.32 216.36 208 216.36C204.76 216.36 201.98 215.9 199.66 214.98C197.38 214.02 195.66 212.7 194.5 211.02C193.34 209.34 192.76 207.44 192.76 205.32ZM204.22 205.32C204.22 206.96 204.56 208.2 205.24 209.04C205.96 209.88 206.9 210.3 208.06 210.3C209.26 210.3 210.2 209.9 210.88 209.1C211.56 208.26 211.9 207 211.9 205.32C211.9 203.8 211.56 202.64 210.88 201.84C210.2 201.04 209.26 200.64 208.06 200.64C206.9 200.64 205.96 201.04 205.24 201.84C204.56 202.64 204.22 203.8 204.22 205.32ZM230.86 226.44C230.86 224.4 231.44 222.56 232.6 220.92C233.76 219.28 235.48 218 237.76 217.08C240.04 216.12 242.82 215.64 246.1 215.64C249.38 215.64 252.16 216.12 254.44 217.08C256.76 218 258.5 219.28 259.66 220.92C260.86 222.56 261.46 224.4 261.46 226.44C261.46 228.56 260.86 230.46 259.66 232.14C258.5 233.78 256.76 235.08 254.44 236.04C252.16 237 249.38 237.48 246.1 237.48C242.82 237.48 240.04 237 237.76 236.04C235.48 235.08 233.76 233.78 232.6 232.14C231.44 230.46 230.86 228.56 230.86 226.44ZM242.32 226.44C242.32 228.08 242.66 229.32 243.34 230.16C244.02 230.96 244.94 231.36 246.1 231.36C247.3 231.36 248.24 230.96 248.92 230.16C249.64 229.32 250 228.08 250 226.44C250 224.88 249.64 223.7 248.92 222.9C248.24 222.1 247.3 221.7 246.1 221.7C244.94 221.7 244.02 222.1 243.34 222.9C242.66 223.7 242.32 224.88 242.32 226.44Z" fill="#B0FF1A"/>
<path d="M103.099 267.034H109.921V261.274H111.487V274H109.921V268.474H103.099V274H101.533V261.274H103.099V267.034ZM120.497 272.794C120.293 273.07 120.059 273.292 119.795 273.46C119.531 273.628 119.255 273.76 118.967 273.856C118.691 273.952 118.409 274.018 118.121 274.054C117.845 274.09 117.569 274.108 117.293 274.108C116.849 274.108 116.429 274.054 116.033 273.946C115.637 273.838 115.277 273.664 114.953 273.424C114.641 273.184 114.389 272.884 114.197 272.524C114.017 272.164 113.927 271.756 113.927 271.3C113.927 270.76 114.023 270.31 114.215 269.95C114.419 269.578 114.689 269.278 115.025 269.05C115.361 268.822 115.745 268.666 116.177 268.582C116.621 268.486 117.089 268.438 117.581 268.438H120.371C120.371 267.634 120.197 266.998 119.849 266.53C119.501 266.05 118.913 265.798 118.085 265.774C117.581 265.774 117.137 265.858 116.753 266.026C116.369 266.194 116.105 266.47 115.961 266.854H114.323C114.407 266.422 114.575 266.056 114.827 265.756C115.079 265.444 115.379 265.192 115.727 265C116.075 264.796 116.453 264.646 116.861 264.55C117.269 264.454 117.677 264.406 118.085 264.406C118.793 264.406 119.387 264.526 119.867 264.766C120.359 264.994 120.755 265.3 121.055 265.684C121.355 266.056 121.565 266.512 121.685 267.052C121.805 267.592 121.865 268.198 121.865 268.87V274H120.587L120.497 272.794ZM118.697 269.716C118.409 269.716 118.073 269.722 117.689 269.734C117.317 269.734 116.957 269.77 116.609 269.842C116.261 269.914 115.979 270.064 115.763 270.292C115.559 270.52 115.457 270.82 115.457 271.192C115.457 271.468 115.511 271.702 115.619 271.894C115.727 272.086 115.871 272.248 116.051 272.38C116.243 272.512 116.459 272.608 116.699 272.668C116.939 272.728 117.185 272.758 117.437 272.758C118.337 272.758 119.045 272.542 119.561 272.11C120.089 271.666 120.359 271.024 120.371 270.184V269.716H118.697ZM129.087 274V264.514H136.953V274H135.423V265.864H130.617V274H129.087ZM140.558 269.824C140.594 270.244 140.678 270.634 140.81 270.994C140.954 271.342 141.146 271.648 141.386 271.912C141.626 272.176 141.92 272.386 142.268 272.542C142.628 272.686 143.042 272.758 143.51 272.758C143.738 272.758 143.972 272.74 144.212 272.704C144.464 272.656 144.698 272.584 144.914 272.488C145.13 272.38 145.322 272.242 145.49 272.074C145.658 271.906 145.784 271.702 145.868 271.462H147.434C147.326 271.918 147.14 272.314 146.876 272.65C146.624 272.986 146.318 273.262 145.958 273.478C145.61 273.694 145.22 273.856 144.788 273.964C144.356 274.06 143.918 274.108 143.474 274.108C142.718 274.108 142.058 273.988 141.494 273.748C140.942 273.508 140.48 273.178 140.108 272.758C139.736 272.326 139.46 271.816 139.28 271.228C139.1 270.628 139.01 269.974 139.01 269.266C139.01 268.558 139.106 267.91 139.298 267.322C139.502 266.722 139.79 266.206 140.162 265.774C140.534 265.342 140.99 265.006 141.53 264.766C142.07 264.526 142.712 264.406 143.456 264.406C144.212 264.406 144.866 264.556 145.418 264.856C145.97 265.156 146.414 265.552 146.75 266.044C147.086 266.524 147.32 267.046 147.452 267.61C147.596 268.174 147.656 268.696 147.632 269.176C147.632 269.284 147.626 269.392 147.614 269.5C147.614 269.608 147.608 269.716 147.596 269.824H140.558ZM146.084 268.492C146.06 267.688 145.808 267.034 145.328 266.53C144.848 266.026 144.206 265.774 143.402 265.774C142.958 265.774 142.568 265.846 142.232 265.99C141.896 266.134 141.614 266.332 141.386 266.584C141.158 266.836 140.978 267.13 140.846 267.466C140.714 267.79 140.63 268.132 140.594 268.492H146.084ZM151.218 277.42H149.688V264.514H151.146L151.218 265.972C151.542 265.456 151.98 265.072 152.532 264.82C153.096 264.556 153.702 264.418 154.35 264.406C155.082 264.406 155.7 264.532 156.204 264.784C156.72 265.024 157.146 265.366 157.482 265.81C157.83 266.242 158.088 266.758 158.256 267.358C158.424 267.946 158.508 268.582 158.508 269.266C158.508 269.962 158.424 270.604 158.256 271.192C158.088 271.78 157.83 272.29 157.482 272.722C157.134 273.154 156.696 273.496 156.168 273.748C155.64 273.988 155.01 274.108 154.278 274.108C153.558 274.108 152.946 273.994 152.442 273.766C151.938 273.538 151.53 273.238 151.218 272.866V277.42ZM154.152 272.758C154.668 272.758 155.1 272.668 155.448 272.488C155.808 272.296 156.096 272.044 156.312 271.732C156.54 271.408 156.702 271.036 156.798 270.616C156.906 270.196 156.966 269.746 156.978 269.266C156.978 268.786 156.924 268.336 156.816 267.916C156.72 267.484 156.558 267.112 156.33 266.8C156.102 266.488 155.802 266.242 155.43 266.062C155.07 265.87 154.632 265.774 154.116 265.774C153.504 265.774 152.976 265.942 152.532 266.278C152.088 266.602 151.752 267.016 151.524 267.52C151.392 267.796 151.302 268.084 151.254 268.384C151.206 268.672 151.182 268.972 151.182 269.284C151.182 269.644 151.206 269.98 151.254 270.292C151.302 270.592 151.392 270.88 151.524 271.156C151.752 271.612 152.082 271.996 152.514 272.308C152.958 272.608 153.504 272.758 154.152 272.758ZM160.481 264.514H164.153C164.765 264.514 165.287 264.556 165.719 264.64C166.163 264.724 166.535 264.874 166.835 265.09C167.099 265.27 167.303 265.51 167.447 265.81C167.603 266.11 167.681 266.464 167.681 266.872C167.681 267.82 167.255 268.498 166.403 268.906C167.051 269.05 167.519 269.332 167.807 269.752C168.095 270.172 168.239 270.652 168.239 271.192C168.227 271.696 168.143 272.11 167.987 272.434C167.831 272.746 167.609 273.022 167.321 273.262C167.045 273.49 166.703 273.67 166.295 273.802C165.887 273.934 165.425 274 164.909 274H160.481V264.514ZM162.047 265.864V268.564H163.361C163.661 268.564 163.967 268.558 164.279 268.546C164.591 268.522 164.867 268.468 165.107 268.384C165.407 268.288 165.659 268.132 165.863 267.916C166.067 267.7 166.175 267.442 166.187 267.142C166.187 266.794 166.109 266.542 165.953 266.386C165.809 266.218 165.629 266.098 165.413 266.026C165.197 265.942 164.963 265.894 164.711 265.882C164.459 265.87 164.225 265.864 164.009 265.864H162.047ZM162.047 272.668H164.549C164.825 272.668 165.089 272.65 165.341 272.614C165.605 272.578 165.833 272.512 166.025 272.416C166.217 272.308 166.373 272.164 166.493 271.984C166.613 271.804 166.679 271.576 166.691 271.3C166.691 270.94 166.607 270.658 166.439 270.454C166.271 270.238 166.043 270.082 165.755 269.986C165.515 269.914 165.245 269.872 164.945 269.86C164.645 269.848 164.333 269.842 164.009 269.842L162.047 269.86V272.668ZM177.147 264.514H178.875L176.193 271.984C176.049 272.368 175.893 272.806 175.725 273.298C175.569 273.778 175.389 274.258 175.185 274.738C174.993 275.23 174.771 275.692 174.519 276.124C174.279 276.556 174.009 276.904 173.709 277.168C173.265 277.564 172.839 277.81 172.431 277.906C172.023 278.014 171.561 278.068 171.045 278.068H170.721V276.61C171.153 276.61 171.519 276.562 171.819 276.466C172.119 276.382 172.377 276.244 172.593 276.052C172.821 275.86 173.013 275.62 173.169 275.332C173.337 275.044 173.505 274.702 173.673 274.306L169.425 264.514H171.225L174.519 272.506L177.147 264.514ZM187.978 264.406C188.734 264.406 189.388 264.526 189.94 264.766C190.504 265.006 190.966 265.342 191.326 265.774C191.698 266.206 191.974 266.722 192.154 267.322C192.346 267.91 192.442 268.558 192.442 269.266C192.442 269.974 192.346 270.628 192.154 271.228C191.974 271.816 191.698 272.326 191.326 272.758C190.966 273.178 190.504 273.508 189.94 273.748C189.388 273.988 188.734 274.108 187.978 274.108C187.282 274.108 186.67 274.006 186.142 273.802C185.626 273.598 185.188 273.316 184.828 272.956C184.468 272.584 184.186 272.146 183.982 271.642C183.79 271.126 183.67 270.556 183.622 269.932H181.822V274H180.292V264.514H181.822V268.6H183.622C183.67 267.976 183.79 267.412 183.982 266.908C184.186 266.392 184.468 265.948 184.828 265.576C185.188 265.204 185.626 264.916 186.142 264.712C186.67 264.508 187.282 264.406 187.978 264.406ZM187.978 272.758C188.494 272.758 188.938 272.668 189.31 272.488C189.682 272.308 189.982 272.062 190.21 271.75C190.45 271.426 190.624 271.054 190.732 270.634C190.852 270.214 190.912 269.758 190.912 269.266C190.912 268.786 190.852 268.336 190.732 267.916C190.624 267.484 190.45 267.112 190.21 266.8C189.982 266.476 189.682 266.224 189.31 266.044C188.938 265.864 188.494 265.774 187.978 265.774C187.462 265.774 187.018 265.864 186.646 266.044C186.286 266.224 185.992 266.476 185.764 266.8C185.536 267.112 185.368 267.484 185.26 267.916C185.152 268.336 185.098 268.786 185.098 269.266C185.098 269.758 185.152 270.214 185.26 270.634C185.368 271.054 185.536 271.426 185.764 271.75C185.992 272.062 186.286 272.308 186.646 272.488C187.018 272.668 187.462 272.758 187.978 272.758ZM205.522 272.794C205.318 273.07 205.084 273.292 204.82 273.46C204.556 273.628 204.28 273.76 203.992 273.856C203.716 273.952 203.434 274.018 203.146 274.054C202.87 274.09 202.594 274.108 202.318 274.108C201.874 274.108 201.454 274.054 201.058 273.946C200.662 273.838 200.302 273.664 199.978 273.424C199.666 273.184 199.414 272.884 199.222 272.524C199.042 272.164 198.952 271.756 198.952 271.3C198.952 270.76 199.048 270.31 199.24 269.95C199.444 269.578 199.714 269.278 200.05 269.05C200.386 268.822 200.77 268.666 201.202 268.582C201.646 268.486 202.114 268.438 202.606 268.438H205.396C205.396 267.634 205.222 266.998 204.874 266.53C204.526 266.05 203.938 265.798 203.11 265.774C202.606 265.774 202.162 265.858 201.778 266.026C201.394 266.194 201.13 266.47 200.986 266.854H199.348C199.432 266.422 199.6 266.056 199.852 265.756C200.104 265.444 200.404 265.192 200.752 265C201.1 264.796 201.478 264.646 201.886 264.55C202.294 264.454 202.702 264.406 203.11 264.406C203.818 264.406 204.412 264.526 204.892 264.766C205.384 264.994 205.78 265.3 206.08 265.684C206.38 266.056 206.59 266.512 206.71 267.052C206.83 267.592 206.89 268.198 206.89 268.87V274H205.612L205.522 272.794ZM203.722 269.716C203.434 269.716 203.098 269.722 202.714 269.734C202.342 269.734 201.982 269.77 201.634 269.842C201.286 269.914 201.004 270.064 200.788 270.292C200.584 270.52 200.482 270.82 200.482 271.192C200.482 271.468 200.536 271.702 200.644 271.894C200.752 272.086 200.896 272.248 201.076 272.38C201.268 272.512 201.484 272.608 201.724 272.668C201.964 272.728 202.21 272.758 202.462 272.758C203.362 272.758 204.07 272.542 204.586 272.11C205.114 271.666 205.384 271.024 205.396 270.184V269.716H203.722ZM210.791 277.42H209.261V264.514H210.719L210.791 265.972C211.115 265.456 211.553 265.072 212.105 264.82C212.669 264.556 213.275 264.418 213.923 264.406C214.655 264.406 215.273 264.532 215.777 264.784C216.293 265.024 216.719 265.366 217.055 265.81C217.403 266.242 217.661 266.758 217.829 267.358C217.997 267.946 218.081 268.582 218.081 269.266C218.081 269.962 217.997 270.604 217.829 271.192C217.661 271.78 217.403 272.29 217.055 272.722C216.707 273.154 216.269 273.496 215.741 273.748C215.213 273.988 214.583 274.108 213.851 274.108C213.131 274.108 212.519 273.994 212.015 273.766C211.511 273.538 211.103 273.238 210.791 272.866V277.42ZM213.725 272.758C214.241 272.758 214.673 272.668 215.021 272.488C215.381 272.296 215.669 272.044 215.885 271.732C216.113 271.408 216.275 271.036 216.371 270.616C216.479 270.196 216.539 269.746 216.551 269.266C216.551 268.786 216.497 268.336 216.389 267.916C216.293 267.484 216.131 267.112 215.903 266.8C215.675 266.488 215.375 266.242 215.003 266.062C214.643 265.87 214.205 265.774 213.689 265.774C213.077 265.774 212.549 265.942 212.105 266.278C211.661 266.602 211.325 267.016 211.097 267.52C210.965 267.796 210.875 268.084 210.827 268.384C210.779 268.672 210.755 268.972 210.755 269.284C210.755 269.644 210.779 269.98 210.827 270.292C210.875 270.592 210.965 270.88 211.097 271.156C211.325 271.612 211.655 271.996 212.087 272.308C212.531 272.608 213.077 272.758 213.725 272.758ZM221.242 269.824C221.278 270.244 221.362 270.634 221.494 270.994C221.638 271.342 221.83 271.648 222.07 271.912C222.31 272.176 222.604 272.386 222.952 272.542C223.312 272.686 223.726 272.758 224.194 272.758C224.422 272.758 224.656 272.74 224.896 272.704C225.148 272.656 225.382 272.584 225.598 272.488C225.814 272.38 226.006 272.242 226.174 272.074C226.342 271.906 226.468 271.702 226.552 271.462H228.118C228.01 271.918 227.824 272.314 227.56 272.65C227.308 272.986 227.002 273.262 226.642 273.478C226.294 273.694 225.904 273.856 225.472 273.964C225.04 274.06 224.602 274.108 224.158 274.108C223.402 274.108 222.742 273.988 222.178 273.748C221.626 273.508 221.164 273.178 220.792 272.758C220.42 272.326 220.144 271.816 219.964 271.228C219.784 270.628 219.694 269.974 219.694 269.266C219.694 268.558 219.79 267.91 219.982 267.322C220.186 266.722 220.474 266.206 220.846 265.774C221.218 265.342 221.674 265.006 222.214 264.766C222.754 264.526 223.396 264.406 224.14 264.406C224.896 264.406 225.55 264.556 226.102 264.856C226.654 265.156 227.098 265.552 227.434 266.044C227.77 266.524 228.004 267.046 228.136 267.61C228.28 268.174 228.34 268.696 228.316 269.176C228.316 269.284 228.31 269.392 228.298 269.5C228.298 269.608 228.292 269.716 228.28 269.824H221.242ZM226.768 268.492C226.744 267.688 226.492 267.034 226.012 266.53C225.532 266.026 224.89 265.774 224.086 265.774C223.642 265.774 223.252 265.846 222.916 265.99C222.58 266.134 222.298 266.332 222.07 266.584C221.842 266.836 221.662 267.13 221.53 267.466C221.398 267.79 221.314 268.132 221.278 268.492H226.768ZM230.372 274V264.514H231.902V268.672H236.654V264.514H238.184V274H236.654V270.022H231.902V274H230.372ZM241.682 266.602C241.694 266.254 241.7 265.906 241.7 265.558C241.7 265.21 241.7 264.862 241.7 264.514H248.432V272.668H249.674V276.916H248.198V274H241.268V276.916H239.792V272.668C240.272 272.668 240.65 272.452 240.926 272.02C241.094 271.78 241.226 271.438 241.322 270.994C241.418 270.538 241.49 270.058 241.538 269.554C241.598 269.002 241.634 268.456 241.646 267.916C241.67 267.364 241.682 266.926 241.682 266.602ZM246.902 265.864H243.158C243.146 266.368 243.134 266.932 243.122 267.556C243.11 268.18 243.086 268.762 243.05 269.302C243.038 269.542 243.02 269.806 242.996 270.094C242.972 270.37 242.93 270.658 242.87 270.958C242.822 271.246 242.744 271.54 242.636 271.84C242.54 272.14 242.402 272.416 242.222 272.668H246.902V265.864ZM258.094 264.514H259.822L257.14 271.984C256.996 272.368 256.84 272.806 256.672 273.298C256.516 273.778 256.336 274.258 256.132 274.738C255.94 275.23 255.718 275.692 255.466 276.124C255.226 276.556 254.956 276.904 254.656 277.168C254.212 277.564 253.786 277.81 253.378 277.906C252.97 278.014 252.508 278.068 251.992 278.068H251.668V276.61C252.1 276.61 252.466 276.562 252.766 276.466C253.066 276.382 253.324 276.244 253.54 276.052C253.768 275.86 253.96 275.62 254.116 275.332C254.284 275.044 254.452 274.702 254.62 274.306L250.372 264.514H252.172L255.466 272.506L258.094 264.514ZM119.498 296V286.514H127.364V296H125.834V287.864H121.028V296H119.498ZM130.969 291.824C131.005 292.244 131.089 292.634 131.221 292.994C131.365 293.342 131.557 293.648 131.797 293.912C132.037 294.176 132.331 294.386 132.679 294.542C133.039 294.686 133.453 294.758 133.921 294.758C134.149 294.758 134.383 294.74 134.623 294.704C134.875 294.656 135.109 294.584 135.325 294.488C135.541 294.38 135.733 294.242 135.901 294.074C136.069 293.906 136.195 293.702 136.279 293.462H137.845C137.737 293.918 137.551 294.314 137.287 294.65C137.035 294.986 136.729 295.262 136.369 295.478C136.021 295.694 135.631 295.856 135.199 295.964C134.767 296.06 134.329 296.108 133.885 296.108C133.129 296.108 132.469 295.988 131.905 295.748C131.353 295.508 130.891 295.178 130.519 294.758C130.147 294.326 129.871 293.816 129.691 293.228C129.511 292.628 129.421 291.974 129.421 291.266C129.421 290.558 129.517 289.91 129.709 289.322C129.913 288.722 130.201 288.206 130.573 287.774C130.945 287.342 131.401 287.006 131.941 286.766C132.481 286.526 133.123 286.406 133.867 286.406C134.623 286.406 135.277 286.556 135.829 286.856C136.381 287.156 136.825 287.552 137.161 288.044C137.497 288.524 137.731 289.046 137.863 289.61C138.007 290.174 138.067 290.696 138.043 291.176C138.043 291.284 138.037 291.392 138.025 291.5C138.025 291.608 138.019 291.716 138.007 291.824H130.969ZM136.495 290.492C136.471 289.688 136.219 289.034 135.739 288.53C135.259 288.026 134.617 287.774 133.813 287.774C133.369 287.774 132.979 287.846 132.643 287.99C132.307 288.134 132.025 288.332 131.797 288.584C131.569 288.836 131.389 289.13 131.257 289.466C131.125 289.79 131.041 290.132 131.005 290.492H136.495ZM141.63 299.42H140.1V286.514H141.558L141.63 287.972C141.954 287.456 142.392 287.072 142.944 286.82C143.508 286.556 144.114 286.418 144.762 286.406C145.494 286.406 146.112 286.532 146.616 286.784C147.132 287.024 147.558 287.366 147.894 287.81C148.242 288.242 148.5 288.758 148.668 289.358C148.836 289.946 148.92 290.582 148.92 291.266C148.92 291.962 148.836 292.604 148.668 293.192C148.5 293.78 148.242 294.29 147.894 294.722C147.546 295.154 147.108 295.496 146.58 295.748C146.052 295.988 145.422 296.108 144.69 296.108C143.97 296.108 143.358 295.994 142.854 295.766C142.35 295.538 141.942 295.238 141.63 294.866V299.42ZM144.564 294.758C145.08 294.758 145.512 294.668 145.86 294.488C146.22 294.296 146.508 294.044 146.724 293.732C146.952 293.408 147.114 293.036 147.21 292.616C147.318 292.196 147.378 291.746 147.39 291.266C147.39 290.786 147.336 290.336 147.228 289.916C147.132 289.484 146.97 289.112 146.742 288.8C146.514 288.488 146.214 288.242 145.842 288.062C145.482 287.87 145.044 287.774 144.528 287.774C143.916 287.774 143.388 287.942 142.944 288.278C142.5 288.602 142.164 289.016 141.936 289.52C141.804 289.796 141.714 290.084 141.666 290.384C141.618 290.672 141.594 290.972 141.594 291.284C141.594 291.644 141.618 291.98 141.666 292.292C141.714 292.592 141.804 292.88 141.936 293.156C142.164 293.612 142.494 293.996 142.926 294.308C143.37 294.608 143.916 294.758 144.564 294.758ZM152.081 291.824C152.117 292.244 152.201 292.634 152.333 292.994C152.477 293.342 152.669 293.648 152.909 293.912C153.149 294.176 153.443 294.386 153.791 294.542C154.151 294.686 154.565 294.758 155.033 294.758C155.261 294.758 155.495 294.74 155.735 294.704C155.987 294.656 156.221 294.584 156.437 294.488C156.653 294.38 156.845 294.242 157.013 294.074C157.181 293.906 157.307 293.702 157.391 293.462H158.957C158.849 293.918 158.663 294.314 158.399 294.65C158.147 294.986 157.841 295.262 157.481 295.478C157.133 295.694 156.743 295.856 156.311 295.964C155.879 296.06 155.441 296.108 154.997 296.108C154.241 296.108 153.581 295.988 153.017 295.748C152.465 295.508 152.003 295.178 151.631 294.758C151.259 294.326 150.983 293.816 150.803 293.228C150.623 292.628 150.533 291.974 150.533 291.266C150.533 290.558 150.629 289.91 150.821 289.322C151.025 288.722 151.313 288.206 151.685 287.774C152.057 287.342 152.513 287.006 153.053 286.766C153.593 286.526 154.235 286.406 154.979 286.406C155.735 286.406 156.389 286.556 156.941 286.856C157.493 287.156 157.937 287.552 158.273 288.044C158.609 288.524 158.843 289.046 158.975 289.61C159.119 290.174 159.179 290.696 159.155 291.176C159.155 291.284 159.149 291.392 159.137 291.5C159.137 291.608 159.131 291.716 159.119 291.824H152.081ZM157.607 290.492C157.583 289.688 157.331 289.034 156.851 288.53C156.371 288.026 155.729 287.774 154.925 287.774C154.481 287.774 154.091 287.846 153.755 287.99C153.419 288.134 153.137 288.332 152.909 288.584C152.681 288.836 152.501 289.13 152.369 289.466C152.237 289.79 152.153 290.132 152.117 290.492H157.607ZM161.211 296V286.514H167.763V287.864H162.741V296H161.211ZM173.385 286.406C174.141 286.406 174.795 286.526 175.347 286.766C175.899 287.006 176.361 287.342 176.733 287.774C177.117 288.206 177.399 288.722 177.579 289.322C177.771 289.91 177.867 290.558 177.867 291.266C177.867 291.974 177.771 292.628 177.579 293.228C177.399 293.816 177.117 294.326 176.733 294.758C176.361 295.178 175.893 295.508 175.329 295.748C174.765 295.988 174.105 296.108 173.349 296.108C172.593 296.108 171.933 295.988 171.369 295.748C170.817 295.508 170.349 295.178 169.965 294.758C169.593 294.326 169.311 293.816 169.119 293.228C168.939 292.628 168.849 291.974 168.849 291.266C168.849 290.558 168.939 289.91 169.119 289.322C169.311 288.722 169.593 288.206 169.965 287.774C170.349 287.342 170.823 287.006 171.387 286.766C171.951 286.526 172.617 286.406 173.385 286.406ZM173.349 294.758C173.865 294.758 174.309 294.668 174.681 294.488C175.065 294.308 175.377 294.062 175.617 293.75C175.869 293.426 176.049 293.054 176.157 292.634C176.277 292.214 176.337 291.758 176.337 291.266C176.337 290.786 176.277 290.336 176.157 289.916C176.049 289.484 175.869 289.112 175.617 288.8C175.377 288.476 175.065 288.224 174.681 288.044C174.309 287.864 173.865 287.774 173.349 287.774C172.833 287.774 172.389 287.864 172.017 288.044C171.645 288.224 171.333 288.476 171.081 288.8C170.841 289.112 170.661 289.484 170.541 289.916C170.433 290.336 170.379 290.786 170.379 291.266C170.379 291.758 170.433 292.214 170.541 292.634C170.661 293.054 170.841 293.426 171.081 293.75C171.333 294.062 171.645 294.308 172.017 294.488C172.389 294.668 172.833 294.758 173.349 294.758ZM179.914 286.514H183.586C184.198 286.514 184.72 286.556 185.152 286.64C185.596 286.724 185.968 286.874 186.268 287.09C186.532 287.27 186.736 287.51 186.88 287.81C187.036 288.11 187.114 288.464 187.114 288.872C187.114 289.82 186.688 290.498 185.836 290.906C186.484 291.05 186.952 291.332 187.24 291.752C187.528 292.172 187.672 292.652 187.672 293.192C187.66 293.696 187.576 294.11 187.42 294.434C187.264 294.746 187.042 295.022 186.754 295.262C186.478 295.49 186.136 295.67 185.728 295.802C185.32 295.934 184.858 296 184.342 296H179.914V286.514ZM181.48 287.864V290.564H182.794C183.094 290.564 183.4 290.558 183.712 290.546C184.024 290.522 184.3 290.468 184.54 290.384C184.84 290.288 185.092 290.132 185.296 289.916C185.5 289.7 185.608 289.442 185.62 289.142C185.62 288.794 185.542 288.542 185.386 288.386C185.242 288.218 185.062 288.098 184.846 288.026C184.63 287.942 184.396 287.894 184.144 287.882C183.892 287.87 183.658 287.864 183.442 287.864H181.48ZM181.48 294.668H183.982C184.258 294.668 184.522 294.65 184.774 294.614C185.038 294.578 185.266 294.512 185.458 294.416C185.65 294.308 185.806 294.164 185.926 293.984C186.046 293.804 186.112 293.576 186.124 293.3C186.124 292.94 186.04 292.658 185.872 292.454C185.704 292.238 185.476 292.082 185.188 291.986C184.948 291.914 184.678 291.872 184.378 291.86C184.078 291.848 183.766 291.842 183.442 291.842L181.48 291.86V294.668ZM193.934 286.406C194.69 286.406 195.344 286.526 195.896 286.766C196.448 287.006 196.91 287.342 197.282 287.774C197.666 288.206 197.948 288.722 198.128 289.322C198.32 289.91 198.416 290.558 198.416 291.266C198.416 291.974 198.32 292.628 198.128 293.228C197.948 293.816 197.666 294.326 197.282 294.758C196.91 295.178 196.442 295.508 195.878 295.748C195.314 295.988 194.654 296.108 193.898 296.108C193.142 296.108 192.482 295.988 191.918 295.748C191.366 295.508 190.898 295.178 190.514 294.758C190.142 294.326 189.86 293.816 189.668 293.228C189.488 292.628 189.398 291.974 189.398 291.266C189.398 290.558 189.488 289.91 189.668 289.322C189.86 288.722 190.142 288.206 190.514 287.774C190.898 287.342 191.372 287.006 191.936 286.766C192.5 286.526 193.166 286.406 193.934 286.406ZM193.898 294.758C194.414 294.758 194.858 294.668 195.23 294.488C195.614 294.308 195.926 294.062 196.166 293.75C196.418 293.426 196.598 293.054 196.706 292.634C196.826 292.214 196.886 291.758 196.886 291.266C196.886 290.786 196.826 290.336 196.706 289.916C196.598 289.484 196.418 289.112 196.166 288.8C195.926 288.476 195.614 288.224 195.23 288.044C194.858 287.864 194.414 287.774 193.898 287.774C193.382 287.774 192.938 287.864 192.566 288.044C192.194 288.224 191.882 288.476 191.63 288.8C191.39 289.112 191.21 289.484 191.09 289.916C190.982 290.336 190.928 290.786 190.928 291.266C190.928 291.758 190.982 292.214 191.09 292.634C191.21 293.054 191.39 293.426 191.63 293.75C191.882 294.062 192.194 294.308 192.566 294.488C192.938 294.668 193.382 294.758 193.898 294.758ZM201.993 299.42H200.463V286.514H201.921L201.993 287.972C202.317 287.456 202.755 287.072 203.307 286.82C203.871 286.556 204.477 286.418 205.125 286.406C205.857 286.406 206.475 286.532 206.979 286.784C207.495 287.024 207.921 287.366 208.257 287.81C208.605 288.242 208.863 288.758 209.031 289.358C209.199 289.946 209.283 290.582 209.283 291.266C209.283 291.962 209.199 292.604 209.031 293.192C208.863 293.78 208.605 294.29 208.257 294.722C207.909 295.154 207.471 295.496 206.943 295.748C206.415 295.988 205.785 296.108 205.053 296.108C204.333 296.108 203.721 295.994 203.217 295.766C202.713 295.538 202.305 295.238 201.993 294.866V299.42ZM204.927 294.758C205.443 294.758 205.875 294.668 206.223 294.488C206.583 294.296 206.871 294.044 207.087 293.732C207.315 293.408 207.477 293.036 207.573 292.616C207.681 292.196 207.741 291.746 207.753 291.266C207.753 290.786 207.699 290.336 207.591 289.916C207.495 289.484 207.333 289.112 207.105 288.8C206.877 288.488 206.577 288.242 206.205 288.062C205.845 287.87 205.407 287.774 204.891 287.774C204.279 287.774 203.751 287.942 203.307 288.278C202.863 288.602 202.527 289.016 202.299 289.52C202.167 289.796 202.077 290.084 202.029 290.384C201.981 290.672 201.957 290.972 201.957 291.284C201.957 291.644 201.981 291.98 202.029 292.292C202.077 292.592 202.167 292.88 202.299 293.156C202.527 293.612 202.857 293.996 203.289 294.308C203.733 294.608 204.279 294.758 204.927 294.758ZM211.256 296V286.514H212.786V290.672H217.538V286.514H219.068V296H217.538V292.022H212.786V296H211.256ZM225.662 286.406C226.418 286.406 227.072 286.526 227.624 286.766C228.176 287.006 228.638 287.342 229.01 287.774C229.394 288.206 229.676 288.722 229.856 289.322C230.048 289.91 230.144 290.558 230.144 291.266C230.144 291.974 230.048 292.628 229.856 293.228C229.676 293.816 229.394 294.326 229.01 294.758C228.638 295.178 228.17 295.508 227.606 295.748C227.042 295.988 226.382 296.108 225.626 296.108C224.87 296.108 224.21 295.988 223.646 295.748C223.094 295.508 222.626 295.178 222.242 294.758C221.87 294.326 221.588 293.816 221.396 293.228C221.216 292.628 221.126 291.974 221.126 291.266C221.126 290.558 221.216 289.91 221.396 289.322C221.588 288.722 221.87 288.206 222.242 287.774C222.626 287.342 223.1 287.006 223.664 286.766C224.228 286.526 224.894 286.406 225.662 286.406ZM225.626 294.758C226.142 294.758 226.586 294.668 226.958 294.488C227.342 294.308 227.654 294.062 227.894 293.75C228.146 293.426 228.326 293.054 228.434 292.634C228.554 292.214 228.614 291.758 228.614 291.266C228.614 290.786 228.554 290.336 228.434 289.916C228.326 289.484 228.146 289.112 227.894 288.8C227.654 288.476 227.342 288.224 226.958 288.044C226.586 287.864 226.142 287.774 225.626 287.774C225.11 287.774 224.666 287.864 224.294 288.044C223.922 288.224 223.61 288.476 223.358 288.8C223.118 289.112 222.938 289.484 222.818 289.916C222.71 290.336 222.656 290.786 222.656 291.266C222.656 291.758 222.71 292.214 222.818 292.634C222.938 293.054 223.118 293.426 223.358 293.75C223.61 294.062 223.922 294.308 224.294 294.488C224.666 294.668 225.11 294.758 225.626 294.758ZM236.493 284.084C236.997 284.084 237.399 283.988 237.699 283.796C238.011 283.604 238.167 283.268 238.167 282.788H239.571C239.547 283.652 239.259 284.282 238.707 284.678C238.167 285.074 237.423 285.272 236.475 285.272C235.527 285.272 234.783 285.074 234.243 284.678C233.715 284.282 233.439 283.652 233.415 282.788H234.819C234.831 283.268 234.987 283.604 235.287 283.796C235.587 283.988 235.989 284.084 236.493 284.084ZM233.685 296H232.191V286.514H233.721V293.786C233.805 293.618 233.919 293.438 234.063 293.246C234.207 293.042 234.321 292.886 234.405 292.778L238.995 286.514H240.507V296H238.977V288.728C238.881 288.908 238.773 289.082 238.653 289.25C238.545 289.406 238.443 289.544 238.347 289.664L233.685 296Z" fill="white"/>
<path d="M117.874 69.8109C117.482 69.7852 117.114 69.6115 116.846 69.3249C116.577 69.0383 116.427 68.6604 116.427 68.2678C116.427 67.8751 116.577 67.4972 116.846 67.2106C117.114 66.9241 117.482 66.7503 117.874 66.7247C121.659 66.7247 124.849 61.3124 124.849 54.9021C124.875 54.5103 125.049 54.143 125.335 53.8746C125.622 53.6061 126.001 53.4568 126.394 53.4568C126.787 53.4568 127.166 53.6061 127.452 53.8746C127.739 54.143 127.913 54.5103 127.939 54.9021C127.939 63.2619 123.532 69.8109 117.874 69.8109Z" fill="#FF81AE"/>
<path d="M141.226 69.8109C140.834 69.7852 140.466 69.6115 140.197 69.3249C139.928 69.0383 139.779 68.6604 139.779 68.2678C139.779 67.8751 139.928 67.4972 140.197 67.2106C140.466 66.9241 140.834 66.7503 141.226 66.7247C145.011 66.7247 148.2 61.3124 148.2 54.9021C148.226 54.5103 148.4 54.143 148.687 53.8746C148.974 53.6061 149.352 53.4568 149.746 53.4568C150.139 53.4568 150.517 53.6061 150.804 53.8746C151.091 54.143 151.265 54.5103 151.291 54.9021C151.324 63.2619 146.87 69.8109 141.226 69.8109Z" fill="#FF81AE"/>
<path d="M164.558 69.811C164.165 69.7854 163.797 69.6116 163.529 69.3251C163.26 69.0385 163.11 68.6606 163.11 68.268C163.11 67.8753 163.26 67.4974 163.529 67.2108C163.797 66.9243 164.165 66.7505 164.558 66.7249C168.336 66.7249 171.532 61.3125 171.532 54.9023C171.532 54.494 171.694 54.1023 171.984 53.8135C172.273 53.5248 172.665 53.3625 173.074 53.3625C173.483 53.3625 173.875 53.5248 174.164 53.8135C174.453 54.1023 174.616 54.494 174.616 54.9023C174.635 63.262 170.222 69.811 164.558 69.811Z" fill="#FF81AE"/>
<path d="M187.929 69.811C187.717 69.8249 187.505 69.7952 187.306 69.7239C187.107 69.6526 186.924 69.5412 186.769 69.3966C186.615 69.2519 186.491 69.0771 186.407 68.883C186.323 68.6889 186.279 68.4796 186.279 68.268C186.279 68.0564 186.323 67.8471 186.407 67.6529C186.491 67.4588 186.615 67.284 186.769 67.1393C186.924 66.9947 187.107 66.8833 187.306 66.812C187.505 66.7407 187.717 66.7111 187.929 66.7249C191.707 66.7249 194.903 61.3125 194.903 54.9023C194.903 54.494 195.066 54.1023 195.355 53.8135C195.644 53.5248 196.036 53.3625 196.445 53.3625C196.854 53.3625 197.246 53.5248 197.535 53.8135C197.824 54.1023 197.987 54.494 197.987 54.9023C197.987 63.262 193.567 69.811 187.929 69.811Z" fill="#FF81AE"/>
<path d="M211.274 69.8109C210.882 69.7852 210.514 69.6115 210.245 69.3249C209.977 69.0383 209.827 68.6604 209.827 68.2678C209.827 67.8751 209.977 67.4972 210.245 67.2106C210.514 66.9241 210.882 66.7503 211.274 66.7247C215.059 66.7247 218.249 61.3124 218.249 54.9021C218.274 54.5103 218.448 54.143 218.735 53.8746C219.022 53.6061 219.401 53.4568 219.794 53.4568C220.187 53.4568 220.565 53.6061 220.852 53.8746C221.139 54.143 221.313 54.5103 221.339 54.9021C221.339 63.2619 216.919 69.8109 211.274 69.8109Z" fill="#FF81AE"/>
<path d="M234.626 69.8109C234.234 69.7852 233.866 69.6115 233.597 69.3249C233.328 69.0383 233.179 68.6604 233.179 68.2678C233.179 67.8751 233.328 67.4972 233.597 67.2106C233.866 66.9241 234.234 66.7503 234.626 66.7247C238.404 66.7247 241.6 61.3124 241.6 54.9021C241.626 54.5103 241.8 54.143 242.087 53.8746C242.374 53.6061 242.752 53.4568 243.145 53.4568C243.539 53.4568 243.917 53.6061 244.204 53.8746C244.491 54.143 244.665 54.5103 244.691 54.9021C244.691 63.2619 240.27 69.8109 234.626 69.8109Z" fill="#FF81AE"/>
<g opacity="0.3">
<path d="M117.874 69.8109C117.482 69.7852 117.114 69.6115 116.846 69.3249C116.577 69.0383 116.427 68.6604 116.427 68.2678C116.427 67.8751 116.577 67.4972 116.846 67.2106C117.114 66.9241 117.482 66.7503 117.874 66.7247C121.659 66.7247 124.849 61.3124 124.849 54.9021C124.875 54.5103 125.049 54.143 125.335 53.8746C125.622 53.6061 126.001 53.4568 126.394 53.4568C126.787 53.4568 127.166 53.6061 127.452 53.8746C127.739 54.143 127.913 54.5103 127.939 54.9021C127.939 63.2619 123.532 69.8109 117.874 69.8109Z" fill="black"/>
<path d="M141.226 69.8109C140.834 69.7852 140.466 69.6115 140.197 69.3249C139.928 69.0383 139.779 68.6604 139.779 68.2678C139.779 67.8751 139.928 67.4972 140.197 67.2106C140.466 66.9241 140.834 66.7503 141.226 66.7247C145.011 66.7247 148.2 61.3124 148.2 54.9021C148.226 54.5103 148.4 54.143 148.687 53.8746C148.974 53.6061 149.352 53.4568 149.746 53.4568C150.139 53.4568 150.517 53.6061 150.804 53.8746C151.091 54.143 151.265 54.5103 151.291 54.9021C151.324 63.2619 146.87 69.8109 141.226 69.8109Z" fill="black"/>
<path d="M164.558 69.811C164.166 69.7854 163.798 69.6116 163.529 69.3251C163.26 69.0385 163.111 68.6606 163.111 68.268C163.111 67.8753 163.26 67.4974 163.529 67.2108C163.798 66.9243 164.166 66.7505 164.558 66.7249C168.336 66.7249 171.532 61.3125 171.532 54.9023C171.532 54.494 171.695 54.1023 171.984 53.8135C172.273 53.5248 172.665 53.3625 173.074 53.3625C173.483 53.3625 173.875 53.5248 174.164 53.8135C174.454 54.1023 174.616 54.494 174.616 54.9023C174.636 63.262 170.222 69.811 164.558 69.811Z" fill="black"/>
<path d="M187.93 69.811C187.719 69.8249 187.507 69.7952 187.307 69.7239C187.108 69.6526 186.925 69.5412 186.771 69.3966C186.616 69.2519 186.493 69.0771 186.409 68.883C186.324 68.6889 186.281 68.4796 186.281 68.268C186.281 68.0564 186.324 67.8471 186.409 67.6529C186.493 67.4588 186.616 67.284 186.771 67.1393C186.925 66.9947 187.108 66.8833 187.307 66.812C187.507 66.7407 187.719 66.7111 187.93 66.7249C191.709 66.7249 194.905 61.3125 194.905 54.9023C194.905 54.494 195.067 54.1023 195.356 53.8135C195.645 53.5248 196.038 53.3625 196.446 53.3625C196.855 53.3625 197.248 53.5248 197.537 53.8135C197.826 54.1023 197.988 54.494 197.988 54.9023C197.988 63.262 193.568 69.811 187.93 69.811Z" fill="black"/>
<path d="M211.275 69.8109C210.883 69.7852 210.515 69.6115 210.246 69.3249C209.977 69.0383 209.828 68.6604 209.828 68.2678C209.828 67.8751 209.977 67.4972 210.246 67.2106C210.515 66.9241 210.883 66.7503 211.275 66.7247C215.06 66.7247 218.249 61.3124 218.249 54.9021C218.275 54.5103 218.449 54.143 218.736 53.8746C219.023 53.6061 219.401 53.4568 219.794 53.4568C220.187 53.4568 220.566 53.6061 220.853 53.8746C221.14 54.143 221.314 54.5103 221.339 54.9021C221.339 63.2619 216.919 69.8109 211.275 69.8109Z" fill="black"/>
<path d="M234.626 69.8109C234.234 69.7852 233.866 69.6115 233.598 69.3249C233.329 69.0383 233.179 68.6604 233.179 68.2678C233.179 67.8751 233.329 67.4972 233.598 67.2106C233.866 66.9241 234.234 66.7503 234.626 66.7247C238.405 66.7247 241.601 61.3124 241.601 54.9021C241.627 54.5103 241.8 54.143 242.087 53.8746C242.374 53.6061 242.753 53.4568 243.146 53.4568C243.539 53.4568 243.917 53.6061 244.204 53.8746C244.491 54.143 244.665 54.5103 244.691 54.9021C244.691 63.2619 240.271 69.8109 234.626 69.8109Z" fill="black"/>
</g>
<path d="M103.245 56.4813H253.571C255.587 56.5216 257.518 57.2951 259.004 58.6566C260.489 60.0181 261.425 61.874 261.638 63.8762L269.962 157.604C270.063 158.545 269.963 159.496 269.669 160.395C269.375 161.294 268.892 162.12 268.254 162.819C267.616 163.518 266.837 164.074 265.968 164.45C265.099 164.826 264.159 165.013 263.212 164.999H112.879C110.864 164.956 108.934 164.182 107.45 162.821C105.965 161.46 105.028 159.605 104.813 157.604L96.4952 63.8762C96.3928 62.9355 96.4919 61.9838 96.7858 61.0843C97.0798 60.1848 97.5618 59.358 98.2001 58.6587C98.8384 57.9594 99.6182 57.4036 100.488 57.0282C101.358 56.6528 102.297 56.4664 103.245 56.4813Z" fill="#FF81AE"/>
<path opacity="0.4" d="M103.245 56.4813H253.571C255.587 56.5216 257.518 57.2951 259.004 58.6566C260.489 60.0181 261.425 61.874 261.638 63.8762L269.962 157.604C270.063 158.545 269.963 159.496 269.669 160.395C269.375 161.294 268.892 162.12 268.254 162.819C267.616 163.518 266.837 164.074 265.968 164.45C265.099 164.826 264.159 165.013 263.212 164.999H112.879C110.864 164.956 108.934 164.182 107.45 162.821C105.965 161.46 105.028 159.605 104.813 157.604L96.4952 63.8762C96.3928 62.9355 96.4919 61.9838 96.7858 61.0843C97.0798 60.1848 97.5618 59.358 98.2001 58.6587C98.8384 57.9594 99.6182 57.4036 100.488 57.0282C101.358 56.6528 102.297 56.4664 103.245 56.4813Z" fill="#FAFAFA"/>
<path d="M252.32 56.4813H101.987C99.9982 56.505 98.0929 57.2816 96.6558 58.6543C95.2187 60.027 94.3569 61.8934 94.2447 63.8762L90.0098 157.604C89.9593 158.559 90.1046 159.514 90.4367 160.411C90.7688 161.308 91.2807 162.127 91.9411 162.82C92.6014 163.512 93.3964 164.062 94.2772 164.437C95.158 164.812 96.1062 165.003 97.0636 164.999H247.41C249.399 164.975 251.304 164.199 252.741 162.826C254.178 161.453 255.04 159.587 255.152 157.604L259.394 63.8762C259.443 62.9199 259.297 61.9636 258.963 61.0659C258.629 60.1681 258.116 59.3479 257.453 58.6555C256.791 57.9631 255.994 57.4132 255.111 57.0393C254.229 56.6654 253.279 56.4755 252.32 56.4813Z" fill="#FF81AE"/>
<path opacity="0.2" d="M252.32 56.4813H101.987C99.9982 56.505 98.0929 57.2816 96.6558 58.6543C95.2187 60.027 94.3569 61.8934 94.2447 63.8762L90.0098 157.604C89.9593 158.559 90.1046 159.514 90.4367 160.411C90.7688 161.308 91.2807 162.127 91.9411 162.82C92.6014 163.512 93.3964 164.062 94.2772 164.437C95.158 164.812 96.1062 165.003 97.0636 164.999H247.41C249.399 164.975 251.304 164.199 252.741 162.826C254.178 161.453 255.04 159.587 255.152 157.604L259.394 63.8762C259.443 62.9199 259.297 61.9636 258.963 61.0659C258.629 60.1681 258.116 59.3479 257.453 58.6555C256.791 57.9631 255.994 57.4132 255.111 57.0393C254.229 56.6654 253.279 56.4755 252.32 56.4813Z" fill="#FAFAFA"/>
<path d="M104.746 140.231L108.246 62.8258C108.288 62.0665 108.618 61.3516 109.169 60.8263C109.719 60.301 110.449 60.0046 111.211 59.9974H242.778C243.145 59.9951 243.508 60.0676 243.846 60.2106C244.184 60.3536 244.488 60.5639 244.742 60.8288C244.995 61.0936 245.192 61.4073 245.32 61.7507C245.447 62.0941 245.503 62.46 245.484 62.8258L241.977 140.231C241.935 140.99 241.606 141.705 241.055 142.23C240.504 142.756 239.774 143.052 239.013 143.059H107.452C107.085 143.062 106.722 142.989 106.384 142.846C106.047 142.703 105.742 142.493 105.488 142.228C105.235 141.963 105.038 141.649 104.911 141.306C104.783 140.963 104.727 140.597 104.746 140.231Z" fill="#FF81AE"/>
<path opacity="0.1" d="M104.746 140.231L108.246 62.8258C108.288 62.0665 108.618 61.3516 109.169 60.8263C109.719 60.301 110.449 60.0046 111.211 59.9974H242.778C243.145 59.9951 243.508 60.0676 243.846 60.2106C244.184 60.3536 244.488 60.5639 244.742 60.8288C244.995 61.0936 245.192 61.4073 245.32 61.7507C245.447 62.0941 245.503 62.46 245.484 62.8258L241.977 140.231C241.935 140.99 241.606 141.705 241.055 142.23C240.504 142.756 239.774 143.052 239.013 143.059H107.452C107.085 143.062 106.722 142.989 106.384 142.846C106.047 142.703 105.742 142.493 105.488 142.228C105.235 141.963 105.038 141.649 104.911 141.306C104.783 140.963 104.727 140.597 104.746 140.231Z" fill="#FAFAFA"/>
<path opacity="0.1" d="M101.034 146.548L104.706 65.2639C104.748 64.4667 105.094 63.7156 105.672 63.1641C106.25 62.6126 107.017 62.3024 107.816 62.2967H245.981C246.366 62.2935 246.747 62.369 247.102 62.5187C247.457 62.6684 247.777 62.889 248.043 63.167C248.309 63.4451 248.515 63.7745 248.649 64.1352C248.782 64.4958 248.84 64.88 248.819 65.2639L245.14 146.548C245.098 147.345 244.754 148.096 244.178 148.648C243.601 149.201 242.836 149.513 242.037 149.522H103.859C103.474 149.524 103.093 149.448 102.739 149.297C102.385 149.147 102.066 148.925 101.801 148.647C101.536 148.368 101.331 148.038 101.199 147.677C101.067 147.316 101.011 146.932 101.034 146.548Z" fill="black"/>
<path d="M97.6199 153.104L101.451 68.3172C101.503 67.4882 101.865 66.7089 102.466 66.1345C103.067 65.5602 103.862 65.2329 104.694 65.2179H248.82C249.222 65.2146 249.621 65.2936 249.991 65.45C250.361 65.6064 250.696 65.8369 250.974 66.1273C251.251 66.4177 251.467 66.7618 251.606 67.1384C251.745 67.5151 251.806 67.9163 251.785 68.3172L247.933 153.104C247.882 153.933 247.52 154.712 246.919 155.287C246.318 155.861 245.523 156.188 244.691 156.203H100.584C100.182 156.208 99.783 156.129 99.4122 155.973C99.0414 155.817 98.7067 155.587 98.4287 155.296C98.1508 155.005 97.9356 154.661 97.7964 154.284C97.6573 153.907 97.5972 153.505 97.6199 153.104Z" fill="#FAFAFA"/>
<path d="M234.606 70.2999C234.335 70.3003 234.066 70.2454 233.818 70.1384C233.569 70.0314 233.344 69.8747 233.158 69.6778C232.972 69.4809 232.829 69.2481 232.736 68.9936C232.644 68.7392 232.605 68.4685 232.621 68.1984C232.646 67.6682 232.873 67.1676 233.256 66.7991C233.638 66.4306 234.147 66.222 234.678 66.2158C234.949 66.2153 235.218 66.2703 235.467 66.3773C235.715 66.4843 235.94 66.641 236.126 66.8379C236.312 67.0348 236.455 67.2676 236.548 67.522C236.64 67.7765 236.68 68.0471 236.663 68.3173C236.638 68.8475 236.411 69.348 236.028 69.7166C235.646 70.0851 235.137 70.2937 234.606 70.2999Z" fill="#FF81AE"/>
<path d="M211.254 70.2999C210.983 70.3003 210.715 70.2454 210.466 70.1384C210.217 70.0314 209.993 69.8747 209.807 69.6778C209.621 69.4809 209.477 69.2481 209.385 68.9936C209.292 68.7392 209.253 68.4685 209.269 68.1984C209.294 67.6682 209.522 67.1676 209.904 66.7991C210.287 66.4306 210.795 66.222 211.327 66.2158C211.598 66.2153 211.866 66.2703 212.115 66.3773C212.364 66.4843 212.588 66.641 212.774 66.8379C212.96 67.0348 213.104 67.2676 213.196 67.522C213.289 67.7765 213.328 68.0471 213.312 68.3173C213.288 68.8481 213.061 69.3495 212.679 69.7183C212.296 70.0872 211.786 70.2953 211.254 70.2999Z" fill="#FF81AE"/>
<path d="M187.903 70.2999C187.632 70.3003 187.363 70.2454 187.114 70.1384C186.865 70.0314 186.641 69.8747 186.455 69.6778C186.269 69.4809 186.126 69.2481 186.033 68.9936C185.941 68.7392 185.901 68.4685 185.918 68.1984C185.944 67.6687 186.172 67.1691 186.554 66.8009C186.936 66.4327 187.444 66.2235 187.975 66.2158C188.246 66.2153 188.515 66.2703 188.763 66.3773C189.012 66.4843 189.237 66.641 189.423 66.8379C189.609 67.0348 189.752 67.2676 189.845 67.522C189.937 67.7765 189.976 68.0471 189.96 68.3173C189.936 68.8481 189.71 69.3495 189.327 69.7183C188.944 70.0872 188.434 70.2953 187.903 70.2999Z" fill="#FF81AE"/>
<path d="M164.557 70.2999C164.286 70.3003 164.018 70.2454 163.769 70.1384C163.52 70.0314 163.295 69.8747 163.109 69.6778C162.923 69.4809 162.78 69.2481 162.687 68.9936C162.595 68.7392 162.556 68.4685 162.572 68.1984C162.6 67.6681 162.829 67.1685 163.213 66.8004C163.596 66.4324 164.105 66.2234 164.636 66.2158C164.907 66.2153 165.175 66.2703 165.424 66.3773C165.673 66.4843 165.898 66.641 166.084 66.8379C166.27 67.0348 166.413 67.2676 166.506 67.522C166.598 67.7765 166.637 68.0471 166.621 68.3173C166.597 68.8492 166.37 69.3516 165.986 69.7206C165.601 70.0896 165.09 70.297 164.557 70.2999Z" fill="#FF81AE"/>
<path d="M141.205 70.2999C140.934 70.3003 140.666 70.2454 140.417 70.1384C140.168 70.0314 139.944 69.8747 139.758 69.6778C139.572 69.4809 139.428 69.2481 139.336 68.9936C139.243 68.7392 139.204 68.4685 139.22 68.1984C139.246 67.6682 139.473 67.1676 139.855 66.7991C140.238 66.4306 140.747 66.222 141.278 66.2158C141.549 66.2153 141.817 66.2703 142.066 66.3773C142.315 66.4843 142.539 66.641 142.725 66.8379C142.911 67.0348 143.055 67.2676 143.147 67.522C143.24 67.7765 143.279 68.0471 143.263 68.3173C143.238 68.8475 143.011 69.348 142.628 69.7166C142.246 70.0851 141.737 70.2937 141.205 70.2999Z" fill="#FF81AE"/>
<path d="M117.855 70.2999C117.584 70.3003 117.316 70.2454 117.067 70.1384C116.818 70.0314 116.594 69.8747 116.408 69.6778C116.222 69.4809 116.078 69.2481 115.986 68.9936C115.893 68.7392 115.854 68.4685 115.87 68.1984C115.896 67.6682 116.123 67.1676 116.505 66.7991C116.888 66.4306 117.397 66.222 117.928 66.2158C118.199 66.2153 118.467 66.2703 118.716 66.3773C118.965 66.4843 119.189 66.641 119.375 66.8379C119.561 67.0348 119.705 67.2676 119.797 67.522C119.89 67.7765 119.929 68.0471 119.913 68.3173C119.889 68.8481 119.663 69.3495 119.28 69.7183C118.897 70.0872 118.387 70.2953 117.855 70.2999Z" fill="#FF81AE"/>
<g opacity="0.1">
<path d="M234.607 70.2999C234.336 70.3003 234.068 70.2454 233.819 70.1384C233.57 70.0314 233.346 69.8747 233.16 69.6778C232.974 69.4809 232.83 69.2481 232.738 68.9936C232.645 68.7392 232.606 68.4685 232.622 68.1984C232.647 67.6682 232.875 67.1676 233.257 66.7991C233.64 66.4306 234.149 66.222 234.68 66.2158C234.951 66.2153 235.219 66.2703 235.468 66.3773C235.717 66.4843 235.941 66.641 236.127 66.8379C236.313 67.0348 236.457 67.2676 236.549 67.522C236.642 67.7765 236.681 68.0471 236.665 68.3173C236.64 68.8475 236.412 69.348 236.03 69.7166C235.647 70.0851 235.138 70.2937 234.607 70.2999Z" fill="#FAFAFA"/>
<path d="M211.256 70.2999C210.985 70.3003 210.716 70.2454 210.467 70.1384C210.218 70.0314 209.994 69.8747 209.808 69.6778C209.622 69.4809 209.479 69.2481 209.386 68.9936C209.294 68.7392 209.254 68.4685 209.271 68.1984C209.296 67.6682 209.523 67.1676 209.905 66.7991C210.288 66.4306 210.797 66.222 211.328 66.2158C211.599 66.2153 211.868 66.2703 212.116 66.3773C212.365 66.4843 212.59 66.641 212.776 66.8379C212.962 67.0348 213.105 67.2676 213.198 67.522C213.29 67.7765 213.329 68.0471 213.313 68.3173C213.289 68.8481 213.063 69.3495 212.68 69.7183C212.297 70.0872 211.787 70.2953 211.256 70.2999Z" fill="#FAFAFA"/>
<path d="M187.904 70.2999C187.633 70.3003 187.365 70.2454 187.116 70.1384C186.867 70.0314 186.643 69.8747 186.457 69.6778C186.271 69.4809 186.127 69.2481 186.035 68.9936C185.942 68.7392 185.903 68.4685 185.919 68.1984C185.946 67.6687 186.174 67.1691 186.556 66.8009C186.938 66.4327 187.446 66.2235 187.977 66.2158C188.248 66.2153 188.516 66.2703 188.765 66.3773C189.014 66.4843 189.238 66.641 189.424 66.8379C189.61 67.0348 189.754 67.2676 189.846 67.522C189.939 67.7765 189.978 68.0471 189.962 68.3173C189.938 68.8481 189.711 69.3495 189.329 69.7183C188.946 70.0872 188.436 70.2953 187.904 70.2999Z" fill="#FAFAFA"/>
<path d="M164.558 70.2999C164.287 70.3003 164.019 70.2454 163.77 70.1384C163.521 70.0314 163.297 69.8747 163.111 69.6778C162.925 69.4809 162.781 69.2481 162.689 68.9936C162.596 68.7392 162.557 68.4685 162.573 68.1984C162.602 67.6681 162.831 67.1685 163.214 66.8004C163.597 66.4324 164.106 66.2234 164.638 66.2158C164.909 66.2153 165.177 66.2703 165.426 66.3773C165.675 66.4843 165.899 66.641 166.085 66.8379C166.271 67.0348 166.415 67.2676 166.507 67.522C166.6 67.7765 166.639 68.0471 166.623 68.3173C166.599 68.8492 166.371 69.3516 165.987 69.7206C165.603 70.0896 165.091 70.297 164.558 70.2999Z" fill="#FAFAFA"/>
<path d="M141.207 70.2999C140.936 70.3003 140.668 70.2454 140.419 70.1384C140.17 70.0314 139.945 69.8747 139.759 69.6778C139.573 69.4809 139.43 69.2481 139.337 68.9936C139.245 68.7392 139.206 68.4685 139.222 68.1984C139.247 67.6682 139.474 67.1676 139.857 66.7991C140.239 66.4306 140.748 66.222 141.279 66.2158C141.55 66.2153 141.819 66.2703 142.068 66.3773C142.317 66.4843 142.541 66.641 142.727 66.8379C142.913 67.0348 143.056 67.2676 143.149 67.522C143.241 67.7765 143.281 68.0471 143.264 68.3173C143.239 68.8475 143.012 69.348 142.63 69.7166C142.247 70.0851 141.738 70.2937 141.207 70.2999Z" fill="#FAFAFA"/>
<path d="M117.855 70.2999C117.584 70.3003 117.316 70.2454 117.067 70.1384C116.818 70.0314 116.594 69.8747 116.408 69.6778C116.222 69.4809 116.078 69.2481 115.986 68.9936C115.893 68.7392 115.854 68.4685 115.87 68.1984C115.896 67.6682 116.123 67.1676 116.505 66.7991C116.888 66.4306 117.397 66.222 117.928 66.2158C118.199 66.2153 118.467 66.2703 118.716 66.3773C118.965 66.4843 119.189 66.641 119.375 66.8379C119.561 67.0348 119.705 67.2676 119.797 67.522C119.89 67.7765 119.929 68.0471 119.913 68.3173C119.889 68.8481 119.663 69.3495 119.28 69.7183C118.897 70.0872 118.387 70.2953 117.855 70.2999Z" fill="#FAFAFA"/>
</g>
<path d="M123.69 77.6881H111.945C111.774 77.6895 111.606 77.6556 111.449 77.5885C111.293 77.5215 111.152 77.4227 111.035 77.2985C110.919 77.1742 110.83 77.0273 110.773 76.8668C110.717 76.7064 110.694 76.536 110.707 76.3664C110.72 76.0201 110.864 75.6914 111.109 75.4464C111.355 75.2013 111.684 75.0578 112.031 75.0447H123.776C123.946 75.0433 124.115 75.0772 124.271 75.1443C124.428 75.2114 124.569 75.3101 124.685 75.4344C124.801 75.5586 124.89 75.7056 124.947 75.866C125.004 76.0265 125.026 76.1968 125.013 76.3664C125 76.7128 124.856 77.0414 124.611 77.2865C124.366 77.5316 124.037 77.675 123.69 77.6881Z" fill="#FF81AE"/>
<path d="M147.042 77.6881H135.297C135.127 77.6895 134.958 77.6556 134.802 77.5885C134.645 77.5215 134.504 77.4227 134.388 77.2985C134.272 77.1742 134.182 77.0273 134.126 76.8668C134.069 76.7064 134.047 76.536 134.06 76.3664C134.073 76.0145 134.221 75.6812 134.474 75.4353C134.726 75.1893 135.064 75.0495 135.416 75.0447H147.155C147.325 75.0434 147.494 75.0773 147.651 75.1443C147.808 75.2113 147.949 75.31 148.066 75.4341C148.183 75.5582 148.273 75.7051 148.33 75.8655C148.387 76.026 148.411 76.1965 148.399 76.3664C148.385 76.7183 148.237 77.0516 147.985 77.2976C147.732 77.5435 147.395 77.6833 147.042 77.6881Z" fill="#FF81AE"/>
<path d="M170.394 77.6881H158.649C158.478 77.6894 158.309 77.6555 158.153 77.5885C157.996 77.5215 157.854 77.4229 157.738 77.2988C157.621 77.1747 157.531 77.0278 157.474 76.8673C157.416 76.7069 157.393 76.5363 157.405 76.3664C157.418 76.0145 157.567 75.6812 157.819 75.4353C158.071 75.1894 158.409 75.0495 158.761 75.0447H170.513C170.684 75.0433 170.852 75.0772 171.009 75.1443C171.165 75.2114 171.306 75.3101 171.422 75.4344C171.539 75.5586 171.628 75.7056 171.684 75.866C171.741 76.0265 171.763 76.1968 171.751 76.3664C171.739 76.7189 171.591 77.0531 171.338 77.2994C171.085 77.5456 170.747 77.6849 170.394 77.6881Z" fill="#FF81AE"/>
<path d="M193.739 77.6881H181.993C181.823 77.6895 181.654 77.6556 181.498 77.5885C181.341 77.5215 181.2 77.4227 181.084 77.2985C180.968 77.1742 180.879 77.0273 180.822 76.8668C180.766 76.7064 180.743 76.536 180.756 76.3664C180.769 76.0201 180.913 75.6914 181.158 75.4464C181.403 75.2013 181.733 75.0578 182.079 75.0447H193.825C193.995 75.0433 194.164 75.0772 194.32 75.1443C194.477 75.2114 194.617 75.3101 194.734 75.4344C194.85 75.5586 194.939 75.7056 194.996 75.866C195.052 76.0265 195.075 76.1968 195.062 76.3664C195.049 76.7128 194.905 77.0414 194.66 77.2865C194.415 77.5316 194.085 77.675 193.739 77.6881Z" fill="#FF81AE"/>
<path d="M217.091 77.6881H205.346C205.176 77.6895 205.007 77.6556 204.85 77.5885C204.694 77.5215 204.553 77.4227 204.437 77.2985C204.32 77.1742 204.231 77.0273 204.175 76.8668C204.118 76.7064 204.096 76.536 204.108 76.3664C204.122 76.0145 204.27 75.6812 204.523 75.4353C204.775 75.1894 205.112 75.0495 205.465 75.0447H217.21C217.381 75.0433 217.549 75.0772 217.706 75.1443C217.862 75.2114 218.003 75.3101 218.119 75.4344C218.236 75.5586 218.325 75.7056 218.381 75.866C218.438 76.0265 218.461 76.1968 218.448 76.3664C218.434 76.7183 218.286 77.0516 218.033 77.2976C217.781 77.5435 217.444 77.6833 217.091 77.6881Z" fill="#FF81AE"/>
<path d="M240.443 77.6881H228.697C228.527 77.6895 228.358 77.6556 228.202 77.5885C228.045 77.5215 227.905 77.4227 227.788 77.2985C227.672 77.1742 227.583 77.0273 227.526 76.8668C227.47 76.7064 227.447 76.536 227.46 76.3664C227.474 76.0145 227.622 75.6812 227.874 75.4353C228.127 75.1893 228.464 75.0495 228.817 75.0447H240.555C240.726 75.0434 240.895 75.0773 241.052 75.1443C241.208 75.2113 241.35 75.31 241.466 75.4341C241.583 75.5582 241.673 75.7051 241.73 75.8655C241.788 76.026 241.811 76.1965 241.799 76.3664C241.786 76.7183 241.637 77.0516 241.385 77.2976C241.133 77.5435 240.795 77.6833 240.443 77.6881Z" fill="#FF81AE"/>
<g opacity="0.3">
<path d="M123.689 77.6881H111.944C111.774 77.6895 111.605 77.6556 111.449 77.5885C111.292 77.5215 111.151 77.4227 111.035 77.2985C110.919 77.1742 110.829 77.0273 110.773 76.8668C110.716 76.7064 110.694 76.536 110.707 76.3664C110.72 76.0201 110.863 75.6914 111.109 75.4464C111.354 75.2013 111.683 75.0578 112.03 75.0447H123.775C123.946 75.0433 124.114 75.0772 124.271 75.1443C124.427 75.2114 124.568 75.3101 124.684 75.4344C124.801 75.5586 124.89 75.7056 124.947 75.866C125.003 76.0265 125.026 76.1968 125.013 76.3664C125 76.7128 124.856 77.0414 124.611 77.2865C124.365 77.5316 124.036 77.675 123.689 77.6881Z" fill="black"/>
<path d="M147.041 77.6881H135.296C135.125 77.6895 134.957 77.6556 134.8 77.5885C134.644 77.5215 134.503 77.4227 134.386 77.2985C134.27 77.1742 134.181 77.0273 134.124 76.8668C134.068 76.7064 134.045 76.536 134.058 76.3664C134.072 76.0145 134.22 75.6812 134.472 75.4353C134.725 75.1893 135.062 75.0495 135.415 75.0447H147.153C147.324 75.0434 147.493 75.0773 147.65 75.1443C147.807 75.2113 147.948 75.31 148.065 75.4341C148.181 75.5582 148.271 75.7051 148.329 75.8655C148.386 76.026 148.409 76.1965 148.397 76.3664C148.384 76.7183 148.236 77.0516 147.983 77.2976C147.731 77.5435 147.393 77.6833 147.041 77.6881Z" fill="black"/>
<path d="M170.393 77.6881H158.647C158.477 77.6894 158.308 77.6555 158.151 77.5885C157.994 77.5215 157.853 77.4229 157.736 77.2988C157.619 77.1747 157.53 77.0278 157.472 76.8673C157.415 76.7069 157.392 76.5363 157.403 76.3664C157.417 76.0145 157.565 75.6812 157.818 75.4353C158.07 75.1894 158.407 75.0495 158.76 75.0447H170.512C170.682 75.0433 170.851 75.0772 171.007 75.1443C171.164 75.2114 171.305 75.3101 171.421 75.4344C171.537 75.5586 171.626 75.7056 171.683 75.866C171.739 76.0265 171.762 76.1968 171.749 76.3664C171.737 76.7189 171.59 77.0531 171.337 77.2994C171.084 77.5456 170.746 77.6849 170.393 77.6881Z" fill="black"/>
<path d="M193.738 77.6881H181.993C181.823 77.6895 181.654 77.6556 181.497 77.5885C181.341 77.5215 181.2 77.4227 181.084 77.2985C180.967 77.1742 180.878 77.0273 180.822 76.8668C180.765 76.7064 180.743 76.536 180.755 76.3664C180.769 76.0201 180.912 75.6914 181.158 75.4464C181.403 75.2013 181.732 75.0578 182.079 75.0447H193.824C193.994 75.0433 194.163 75.0772 194.32 75.1443C194.476 75.2114 194.617 75.3101 194.733 75.4344C194.85 75.5586 194.939 75.7056 194.995 75.866C195.052 76.0265 195.074 76.1968 195.062 76.3664C195.048 76.7128 194.905 77.0414 194.659 77.2865C194.414 77.5316 194.085 77.675 193.738 77.6881Z" fill="black"/>
<path d="M217.09 77.6881H205.344C205.174 77.6895 205.005 77.6556 204.849 77.5885C204.692 77.5215 204.552 77.4227 204.435 77.2985C204.319 77.1742 204.23 77.0273 204.173 76.8668C204.117 76.7064 204.094 76.536 204.107 76.3664C204.121 76.0145 204.269 75.6812 204.521 75.4353C204.774 75.1894 205.111 75.0495 205.464 75.0447H217.209C217.379 75.0433 217.548 75.0772 217.704 75.1443C217.861 75.2114 218.002 75.3101 218.118 75.4344C218.234 75.5586 218.323 75.7056 218.38 75.866C218.436 76.0265 218.459 76.1968 218.446 76.3664C218.433 76.7183 218.284 77.0516 218.032 77.2976C217.78 77.5435 217.442 77.6833 217.09 77.6881Z" fill="black"/>
<path d="M240.441 77.6881H228.696C228.526 77.6895 228.357 77.6556 228.2 77.5885C228.044 77.5215 227.903 77.4227 227.787 77.2985C227.671 77.1742 227.581 77.0273 227.525 76.8668C227.468 76.7064 227.446 76.536 227.459 76.3664C227.472 76.0145 227.62 75.6812 227.873 75.4353C228.125 75.1893 228.462 75.0495 228.815 75.0447H240.554C240.724 75.0434 240.893 75.0773 241.05 75.1443C241.207 75.2113 241.348 75.31 241.465 75.4341C241.582 75.5582 241.672 75.7051 241.729 75.8655C241.786 76.026 241.81 76.1965 241.798 76.3664C241.784 76.7183 241.636 77.0516 241.384 77.2976C241.131 77.5435 240.794 77.6833 240.441 77.6881Z" fill="black"/>
</g>
<path d="M124.339 102.648H109.04C108.705 102.65 108.373 102.583 108.064 102.451C107.755 102.32 107.477 102.127 107.245 101.885C107.013 101.642 106.834 101.355 106.717 101.041C106.6 100.727 106.549 100.392 106.566 100.058L107.227 84.779C107.268 84.0845 107.57 83.4311 108.073 82.9503C108.577 82.4696 109.244 82.1974 109.94 82.1885H125.239C125.575 82.1872 125.907 82.2542 126.216 82.3854C126.524 82.5167 126.803 82.7094 127.035 82.9519C127.266 83.1943 127.446 83.4814 127.563 83.7956C127.68 84.1097 127.731 84.4443 127.714 84.779L127.052 100.058C127.011 100.752 126.708 101.404 126.205 101.885C125.702 102.365 125.035 102.638 124.339 102.648Z" fill="#FF81AE"/>
<path d="M147.691 102.648H132.392C132.057 102.651 131.724 102.584 131.415 102.453C131.106 102.322 130.826 102.13 130.595 101.887C130.363 101.644 130.183 101.357 130.067 101.042C129.95 100.728 129.9 100.393 129.918 100.058L130.579 84.779C130.619 84.0845 130.922 83.4311 131.425 82.9503C131.929 82.4696 132.596 82.1974 133.292 82.1885H148.611C148.947 82.1872 149.279 82.2542 149.588 82.3854C149.897 82.5166 150.177 82.7092 150.409 82.9515C150.641 83.1939 150.821 83.4809 150.939 83.7951C151.056 84.1092 151.108 84.444 151.092 84.779L150.397 100.058C150.359 100.752 150.058 101.405 149.556 101.886C149.053 102.367 148.387 102.639 147.691 102.648Z" fill="#FF81AE"/>
<path d="M171.036 102.648H155.744C155.408 102.649 155.076 102.582 154.767 102.451C154.458 102.32 154.178 102.127 153.946 101.885C153.714 101.643 153.534 101.356 153.416 101.042C153.299 100.727 153.246 100.393 153.263 100.058L153.924 84.7788C153.964 84.0843 154.267 83.4309 154.77 82.9501C155.274 82.4694 155.941 82.1972 156.637 82.1883H171.929C172.265 82.186 172.598 82.2523 172.907 82.3833C173.216 82.5142 173.495 82.7069 173.727 82.9496C173.959 83.1922 174.139 83.4797 174.255 83.7943C174.372 84.1089 174.422 84.4439 174.404 84.7788L173.742 100.058C173.702 100.751 173.401 101.403 172.899 101.884C172.397 102.365 171.731 102.638 171.036 102.648Z" fill="#FF81AE"/>
<path d="M194.388 102.648H179.115C178.779 102.651 178.446 102.584 178.137 102.453C177.827 102.323 177.548 102.13 177.316 101.887C177.083 101.645 176.903 101.357 176.786 101.043C176.669 100.728 176.617 100.393 176.634 100.058L177.296 84.779C177.334 84.0851 177.635 83.4317 178.138 82.9508C178.64 82.4699 179.306 82.1975 180.002 82.1885H195.301C195.636 82.1872 195.969 82.2542 196.277 82.3854C196.586 82.5167 196.865 82.7094 197.096 82.9519C197.328 83.1943 197.508 83.4814 197.625 83.7956C197.741 84.1097 197.793 84.4443 197.776 84.779L197.114 100.058C197.074 100.755 196.77 101.41 196.263 101.891C195.757 102.372 195.086 102.643 194.388 102.648Z" fill="#FF81AE"/>
<path d="M217.74 102.648H202.441C202.105 102.649 201.773 102.582 201.464 102.451C201.156 102.32 200.877 102.127 200.645 101.885C200.414 101.642 200.234 101.355 200.117 101.041C200 100.727 199.949 100.392 199.966 100.058L200.628 84.7788C200.668 84.0843 200.97 83.4309 201.474 82.9501C201.977 82.4694 202.644 82.1972 203.341 82.1883H218.633C218.969 82.1861 219.302 82.2524 219.611 82.3832C219.921 82.5141 220.2 82.7067 220.433 82.9492C220.665 83.1918 220.845 83.4792 220.963 83.7938C221.08 84.1084 221.131 84.4436 221.114 84.7788L220.453 100.058C220.411 100.752 220.108 101.404 219.605 101.885C219.102 102.365 218.436 102.638 217.74 102.648Z" fill="#FF81AE"/>
<path d="M241.085 102.648H225.793C225.457 102.651 225.124 102.584 224.815 102.453C224.506 102.322 224.227 102.13 223.995 101.887C223.763 101.644 223.584 101.357 223.467 101.042C223.351 100.728 223.3 100.393 223.318 100.058L223.98 84.779C224.02 84.0845 224.322 83.4311 224.826 82.9503C225.329 82.4696 225.996 82.1974 226.693 82.1885H241.985C242.321 82.1872 242.653 82.2542 242.962 82.3854C243.271 82.5166 243.55 82.7092 243.783 82.9515C244.015 83.1939 244.195 83.4809 244.313 83.7951C244.43 84.1092 244.482 84.444 244.466 84.779L243.771 100.058C243.733 100.748 243.435 101.399 242.937 101.879C242.439 102.36 241.777 102.634 241.085 102.648Z" fill="#FF81AE"/>
<g opacity="0.8">
<path d="M124.34 102.648H109.041C108.706 102.649 108.374 102.582 108.065 102.451C107.756 102.32 107.477 102.127 107.246 101.885C107.014 101.642 106.835 101.355 106.718 101.041C106.601 100.727 106.55 100.392 106.567 100.058L107.228 84.7788C107.269 84.0843 107.571 83.4308 108.074 82.9501C108.578 82.4694 109.245 82.1971 109.941 82.1883H125.24C125.576 82.1869 125.908 82.2539 126.217 82.3852C126.525 82.5164 126.804 82.7092 127.036 82.9516C127.267 83.1941 127.447 83.4812 127.564 83.7953C127.681 84.1095 127.732 84.4441 127.715 84.7788L127.053 100.058C127.012 100.751 126.709 101.404 126.206 101.884C125.703 102.365 125.036 102.638 124.34 102.648Z" fill="#FAFAFA"/>
<path d="M147.692 102.648H132.393C132.058 102.65 131.725 102.584 131.416 102.453C131.106 102.322 130.827 102.129 130.596 101.887C130.364 101.644 130.184 101.357 130.068 101.042C129.951 100.728 129.901 100.392 129.919 100.058L130.58 84.7788C130.62 84.0843 130.923 83.4308 131.426 82.9501C131.93 82.4694 132.597 82.1971 133.293 82.1883H148.612C148.948 82.187 149.28 82.2539 149.589 82.3851C149.898 82.5163 150.177 82.7089 150.41 82.9513C150.642 83.1936 150.822 83.4806 150.94 83.7948C151.057 84.109 151.109 84.4438 151.093 84.7788L150.398 100.058C150.36 100.751 150.059 101.405 149.557 101.886C149.054 102.367 148.388 102.639 147.692 102.648Z" fill="#FAFAFA"/>
<path d="M171.037 102.648H155.745C155.409 102.649 155.077 102.582 154.768 102.451C154.458 102.32 154.179 102.127 153.947 101.885C153.715 101.643 153.535 101.356 153.417 101.042C153.3 100.727 153.247 100.393 153.264 100.058L153.925 84.7788C153.965 84.0843 154.268 83.4309 154.771 82.9501C155.275 82.4694 155.942 82.1972 156.638 82.1883H171.93C172.266 82.186 172.599 82.2523 172.908 82.3833C173.217 82.5142 173.496 82.7069 173.728 82.9496C173.96 83.1922 174.14 83.4797 174.256 83.7943C174.372 84.1089 174.423 84.4439 174.405 84.7788L173.743 100.058C173.703 100.751 173.402 101.403 172.9 101.884C172.398 102.365 171.732 102.638 171.037 102.648Z" fill="#FAFAFA"/>
<path d="M194.389 102.648H179.116C178.78 102.65 178.447 102.584 178.138 102.453C177.828 102.322 177.549 102.13 177.317 101.887C177.084 101.645 176.904 101.357 176.787 101.043C176.67 100.728 176.618 100.393 176.635 100.058L177.297 84.7788C177.335 84.0849 177.636 83.4314 178.138 82.9506C178.641 82.4697 179.307 82.1972 180.003 82.1883H195.302C195.637 82.1869 195.97 82.2539 196.278 82.3852C196.587 82.5164 196.866 82.7092 197.097 82.9516C197.329 83.1941 197.509 83.4812 197.625 83.7953C197.742 84.1095 197.794 84.4441 197.777 84.7788L197.115 100.058C197.075 100.754 196.77 101.41 196.264 101.891C195.758 102.372 195.087 102.643 194.389 102.648Z" fill="#FAFAFA"/>
<path d="M217.741 102.648H202.442C202.106 102.649 201.774 102.582 201.465 102.451C201.157 102.32 200.878 102.127 200.646 101.885C200.415 101.642 200.235 101.355 200.118 101.041C200.001 100.727 199.95 100.392 199.967 100.058L200.629 84.7788C200.669 84.0843 200.971 83.4309 201.475 82.9501C201.978 82.4694 202.645 82.1972 203.342 82.1883H218.634C218.97 82.1861 219.303 82.2524 219.612 82.3832C219.922 82.5141 220.201 82.7067 220.434 82.9492C220.666 83.1918 220.846 83.4792 220.964 83.7938C221.081 84.1084 221.132 84.4436 221.115 84.7788L220.454 100.058C220.412 100.752 220.109 101.404 219.606 101.885C219.103 102.365 218.437 102.638 217.741 102.648Z" fill="#FAFAFA"/>
<path d="M241.086 102.648H225.794C225.458 102.65 225.125 102.584 224.816 102.453C224.507 102.322 224.228 102.129 223.996 101.887C223.764 101.644 223.585 101.357 223.468 101.042C223.352 100.728 223.301 100.392 223.319 100.058L223.981 84.7788C224.021 84.0843 224.323 83.4308 224.827 82.9501C225.33 82.4694 225.997 82.1971 226.694 82.1883H241.986C242.322 82.187 242.654 82.2539 242.963 82.3851C243.272 82.5163 243.551 82.7089 243.784 82.9513C244.016 83.1936 244.196 83.4806 244.314 83.7948C244.431 84.109 244.483 84.4438 244.467 84.7788L243.772 100.058C243.734 100.748 243.436 101.399 242.938 101.879C242.44 102.359 241.778 102.634 241.086 102.648Z" fill="#FAFAFA"/>
</g>
<path d="M123.267 126.353H107.968C107.633 126.354 107.3 126.287 106.992 126.156C106.683 126.025 106.404 125.832 106.173 125.59C105.941 125.347 105.761 125.06 105.645 124.746C105.528 124.432 105.476 124.097 105.493 123.762L106.155 108.484C106.197 107.79 106.5 107.137 107.003 106.657C107.506 106.176 108.172 105.904 108.868 105.893H124.193C124.529 105.892 124.861 105.959 125.17 106.09C125.479 106.221 125.757 106.414 125.989 106.656C126.221 106.899 126.4 107.186 126.517 107.5C126.634 107.814 126.685 108.149 126.668 108.484L126.006 123.762C125.964 124.461 125.658 125.117 125.149 125.598C124.64 126.079 123.968 126.349 123.267 126.353Z" fill="#FF81AE"/>
<path d="M146.619 126.353H131.321C130.985 126.354 130.653 126.287 130.344 126.156C130.035 126.025 129.757 125.832 129.525 125.59C129.294 125.347 129.114 125.06 128.997 124.746C128.88 124.432 128.829 124.097 128.846 123.762L129.508 108.484C129.548 107.789 129.85 107.136 130.354 106.655C130.857 106.174 131.524 105.902 132.221 105.893H147.513C147.851 105.891 148.187 105.958 148.499 106.09C148.811 106.223 149.092 106.417 149.325 106.663C149.558 106.908 149.739 107.199 149.855 107.516C149.971 107.834 150.021 108.172 150.001 108.51L149.339 123.762C149.3 124.459 148.998 125.114 148.492 125.595C147.987 126.076 147.318 126.347 146.619 126.353Z" fill="#FF81AE"/>
<path d="M169.964 126.353H154.672C154.336 126.355 154.003 126.289 153.694 126.158C153.385 126.027 153.106 125.834 152.874 125.592C152.642 125.349 152.462 125.062 152.346 124.747C152.23 124.432 152.179 124.097 152.197 123.762L152.859 108.484C152.899 107.789 153.201 107.136 153.704 106.655C154.208 106.174 154.875 105.902 155.572 105.893H170.864C171.2 105.891 171.532 105.957 171.841 106.088C172.151 106.219 172.43 106.412 172.661 106.654C172.893 106.897 173.073 107.185 173.189 107.499C173.306 107.814 173.357 108.149 173.338 108.484L172.677 123.762C172.637 124.457 172.334 125.11 171.831 125.591C171.327 126.072 170.66 126.344 169.964 126.353Z" fill="#FF81AE"/>
<path d="M193.315 126.353H178.023C177.688 126.354 177.355 126.287 177.046 126.156C176.737 126.025 176.458 125.832 176.226 125.59C175.993 125.348 175.813 125.061 175.696 124.746C175.578 124.432 175.526 124.098 175.542 123.763L176.204 108.484C176.242 107.79 176.543 107.136 177.045 106.656C177.548 106.175 178.214 105.902 178.91 105.893H194.209C194.549 105.887 194.888 105.951 195.202 106.082C195.517 106.213 195.801 106.408 196.036 106.653C196.272 106.899 196.454 107.191 196.571 107.511C196.688 107.83 196.738 108.171 196.717 108.51L196.055 123.789C196.008 124.483 195.699 125.134 195.191 125.61C194.682 126.086 194.012 126.351 193.315 126.353Z" fill="#FF81AE"/>
<path d="M216.667 126.353H201.369C201.033 126.354 200.701 126.287 200.392 126.156C200.083 126.025 199.805 125.832 199.573 125.589C199.341 125.347 199.162 125.06 199.045 124.746C198.928 124.432 198.877 124.097 198.894 123.762L199.556 108.483C199.591 107.784 199.892 107.124 200.397 106.637C200.902 106.151 201.574 105.876 202.275 105.866H217.574C217.909 105.865 218.242 105.932 218.55 106.063C218.859 106.195 219.138 106.387 219.369 106.63C219.601 106.872 219.781 107.159 219.898 107.474C220.014 107.788 220.066 108.122 220.049 108.457L219.387 123.736C219.352 124.436 219.051 125.096 218.546 125.582C218.04 126.068 217.369 126.344 216.667 126.353Z" fill="#FF81AE"/>
<path d="M239.992 126.353H224.72C224.384 126.355 224.052 126.289 223.742 126.158C223.433 126.027 223.154 125.834 222.922 125.592C222.69 125.349 222.511 125.062 222.394 124.747C222.278 124.432 222.227 124.097 222.245 123.762L222.907 108.484C222.947 107.789 223.249 107.136 223.753 106.655C224.256 106.174 224.923 105.902 225.62 105.893H240.912C241.248 105.892 241.58 105.959 241.89 106.09C242.199 106.221 242.478 106.414 242.71 106.656C242.942 106.898 243.122 107.185 243.24 107.5C243.357 107.814 243.41 108.149 243.393 108.484L242.699 123.762C242.66 124.456 242.359 125.11 241.857 125.591C241.355 126.071 240.688 126.344 239.992 126.353Z" fill="#FF81AE"/>
<g opacity="0.8">
<path d="M123.267 126.353H107.968C107.633 126.354 107.3 126.287 106.992 126.156C106.683 126.025 106.404 125.832 106.173 125.59C105.941 125.347 105.761 125.06 105.645 124.746C105.528 124.432 105.476 124.097 105.493 123.762L106.155 108.484C106.197 107.79 106.5 107.137 107.003 106.657C107.506 106.176 108.172 105.904 108.868 105.893H124.193C124.529 105.892 124.861 105.959 125.17 106.09C125.479 106.221 125.757 106.414 125.989 106.656C126.221 106.899 126.4 107.186 126.517 107.5C126.634 107.814 126.685 108.149 126.668 108.484L126.006 123.762C125.964 124.461 125.658 125.117 125.149 125.598C124.64 126.079 123.968 126.349 123.267 126.353Z" fill="#FAFAFA"/>
<path d="M146.618 126.353H131.32C130.984 126.354 130.652 126.287 130.343 126.156C130.035 126.025 129.756 125.832 129.524 125.59C129.293 125.347 129.113 125.06 128.996 124.746C128.879 124.432 128.828 124.097 128.845 123.762L129.507 108.484C129.547 107.789 129.849 107.136 130.353 106.655C130.856 106.174 131.523 105.902 132.22 105.893H147.512C147.851 105.891 148.186 105.958 148.498 106.09C148.81 106.223 149.091 106.417 149.324 106.663C149.557 106.908 149.738 107.199 149.854 107.516C149.97 107.834 150.02 108.172 150 108.51L149.338 123.762C149.299 124.459 148.997 125.114 148.492 125.595C147.986 126.076 147.317 126.347 146.618 126.353Z" fill="#FAFAFA"/>
<path d="M169.963 126.353H154.671C154.335 126.355 154.002 126.289 153.693 126.158C153.384 126.027 153.105 125.834 152.873 125.592C152.641 125.349 152.461 125.062 152.345 124.747C152.229 124.432 152.178 124.097 152.196 123.762L152.858 108.484C152.898 107.789 153.2 107.136 153.703 106.655C154.207 106.174 154.874 105.902 155.571 105.893H170.863C171.199 105.891 171.531 105.957 171.84 106.088C172.15 106.219 172.429 106.412 172.66 106.654C172.892 106.897 173.072 107.185 173.188 107.499C173.305 107.814 173.356 108.149 173.337 108.484L172.676 123.762C172.636 124.457 172.333 125.11 171.83 125.591C171.326 126.072 170.659 126.344 169.963 126.353Z" fill="#FAFAFA"/>
<path d="M193.315 126.353H178.023C177.688 126.354 177.355 126.287 177.046 126.156C176.737 126.025 176.458 125.832 176.226 125.59C175.993 125.347 175.813 125.06 175.696 124.746C175.578 124.432 175.526 124.097 175.542 123.762L176.204 108.483C176.242 107.79 176.543 107.136 177.045 106.655C177.548 106.174 178.214 105.902 178.91 105.893H194.209C194.549 105.887 194.888 105.951 195.202 106.082C195.517 106.213 195.801 106.407 196.036 106.653C196.272 106.899 196.454 107.191 196.571 107.51C196.688 107.83 196.738 108.17 196.717 108.51L196.055 123.789C196.008 124.483 195.699 125.134 195.191 125.61C194.682 126.085 194.012 126.351 193.315 126.353Z" fill="#FAFAFA"/>
<path d="M216.667 126.353H201.369C201.033 126.354 200.701 126.287 200.392 126.156C200.083 126.025 199.805 125.832 199.573 125.589C199.341 125.347 199.162 125.06 199.045 124.746C198.928 124.432 198.877 124.097 198.894 123.762L199.556 108.483C199.591 107.784 199.892 107.124 200.397 106.637C200.902 106.151 201.574 105.876 202.275 105.866H217.574C217.909 105.865 218.242 105.932 218.55 106.063C218.859 106.195 219.138 106.387 219.369 106.63C219.601 106.872 219.781 107.159 219.898 107.474C220.014 107.788 220.066 108.122 220.049 108.457L219.387 123.736C219.352 124.436 219.051 125.096 218.546 125.582C218.04 126.068 217.369 126.344 216.667 126.353Z" fill="#FAFAFA"/>
<path d="M239.991 126.353H224.719C224.383 126.355 224.051 126.289 223.741 126.158C223.432 126.027 223.153 125.834 222.921 125.592C222.689 125.349 222.51 125.062 222.393 124.747C222.277 124.432 222.226 124.097 222.244 123.762L222.906 108.484C222.946 107.789 223.248 107.136 223.752 106.655C224.255 106.174 224.923 105.902 225.619 105.893H240.911C241.247 105.892 241.579 105.959 241.889 106.09C242.198 106.221 242.477 106.414 242.709 106.656C242.941 106.898 243.121 107.185 243.239 107.5C243.356 107.814 243.409 108.149 243.392 108.484L242.698 123.762C242.659 124.456 242.358 125.11 241.856 125.591C241.354 126.071 240.687 126.344 239.991 126.353Z" fill="#FAFAFA"/>
</g>
<path d="M122.208 150.051H106.896C106.561 150.053 106.228 149.987 105.919 149.856C105.609 149.725 105.33 149.532 105.099 149.29C104.867 149.047 104.687 148.76 104.571 148.445C104.454 148.13 104.403 147.795 104.422 147.46L105.083 132.188C105.123 131.494 105.426 130.84 105.929 130.36C106.433 129.879 107.1 129.607 107.796 129.598H123.095C123.431 129.595 123.763 129.662 124.073 129.793C124.382 129.924 124.661 130.116 124.893 130.359C125.125 130.602 125.304 130.889 125.421 131.204C125.537 131.518 125.588 131.853 125.57 132.188L124.908 147.46C124.87 148.153 124.57 148.806 124.069 149.286C123.568 149.767 122.903 150.04 122.208 150.051Z" fill="#FF81AE"/>
<path d="M145.547 150.051H130.248C129.912 150.053 129.579 149.987 129.27 149.856C128.961 149.725 128.682 149.532 128.45 149.29C128.218 149.047 128.039 148.76 127.922 148.445C127.806 148.13 127.755 147.795 127.773 147.46L128.435 132.188C128.473 131.493 128.775 130.839 129.279 130.358C129.783 129.877 130.451 129.605 131.148 129.598H146.44C146.776 129.595 147.11 129.66 147.42 129.791C147.73 129.921 148.009 130.114 148.242 130.357C148.475 130.599 148.655 130.887 148.772 131.202C148.888 131.517 148.939 131.853 148.921 132.188L148.26 147.46C148.223 148.156 147.921 148.811 147.417 149.293C146.913 149.774 146.244 150.045 145.547 150.051Z" fill="#FF81AE"/>
<path d="M168.892 150.051H153.6C153.264 150.053 152.931 149.987 152.622 149.856C152.313 149.725 152.034 149.532 151.802 149.29C151.57 149.047 151.391 148.76 151.274 148.445C151.158 148.13 151.107 147.795 151.125 147.46L151.787 132.188C151.825 131.493 152.127 130.839 152.631 130.358C153.135 129.877 153.803 129.605 154.5 129.598H169.851C170.188 129.595 170.521 129.662 170.83 129.793C171.14 129.924 171.419 130.116 171.651 130.359C171.884 130.601 172.064 130.889 172.181 131.203C172.298 131.518 172.35 131.853 172.333 132.188L171.638 147.46C171.599 148.161 171.293 148.82 170.782 149.302C170.271 149.784 169.595 150.052 168.892 150.051Z" fill="#FF81AE"/>
<path d="M192.244 150.051H176.952C176.616 150.053 176.283 149.987 175.973 149.856C175.664 149.725 175.384 149.533 175.152 149.29C174.92 149.047 174.739 148.76 174.622 148.445C174.505 148.131 174.453 147.796 174.47 147.46L175.132 132.188C175.169 131.494 175.47 130.839 175.972 130.358C176.475 129.877 177.142 129.605 177.839 129.598H193.137C193.473 129.595 193.806 129.662 194.115 129.793C194.424 129.924 194.703 130.116 194.935 130.359C195.167 130.602 195.347 130.889 195.463 131.204C195.579 131.518 195.63 131.853 195.612 132.188L194.95 147.46C194.912 148.154 194.611 148.808 194.109 149.289C193.606 149.769 192.94 150.042 192.244 150.051Z" fill="#FF81AE"/>
<path d="M215.596 150.051H200.29C199.955 150.053 199.622 149.987 199.313 149.856C199.003 149.725 198.724 149.532 198.493 149.29C198.261 149.047 198.081 148.76 197.965 148.445C197.848 148.13 197.798 147.795 197.816 147.46L198.477 132.188C198.517 131.494 198.82 130.84 199.323 130.36C199.827 129.879 200.494 129.607 201.19 129.598H216.489C216.825 129.595 217.157 129.662 217.467 129.793C217.776 129.924 218.055 130.116 218.287 130.359C218.519 130.602 218.698 130.889 218.815 131.204C218.931 131.518 218.982 131.853 218.964 132.188L218.302 147.46C218.262 148.154 217.961 148.806 217.459 149.287C216.957 149.767 216.291 150.04 215.596 150.051Z" fill="#FF81AE"/>
<path d="M238.946 150.051H223.648C223.312 150.053 222.979 149.987 222.67 149.856C222.361 149.725 222.082 149.532 221.85 149.29C221.618 149.047 221.439 148.76 221.322 148.445C221.206 148.13 221.155 147.795 221.173 147.46L221.835 132.188C221.873 131.493 222.175 130.839 222.679 130.358C223.183 129.877 223.851 129.605 224.548 129.598H239.84C240.176 129.595 240.509 129.662 240.818 129.793C241.128 129.924 241.407 130.116 241.64 130.359C241.872 130.601 242.052 130.889 242.17 131.203C242.287 131.518 242.338 131.853 242.321 132.188L241.626 147.46C241.59 148.15 241.293 148.801 240.796 149.281C240.299 149.762 239.638 150.037 238.946 150.051Z" fill="#FF81AE"/>
<g opacity="0.8">
<path d="M122.209 150.051H106.897C106.561 150.053 106.229 149.987 105.92 149.856C105.61 149.725 105.331 149.532 105.1 149.29C104.868 149.047 104.688 148.76 104.572 148.445C104.455 148.13 104.404 147.795 104.423 147.46L105.084 132.188C105.124 131.494 105.427 130.84 105.93 130.36C106.434 129.879 107.101 129.607 107.797 129.598H123.096C123.432 129.595 123.764 129.662 124.074 129.793C124.383 129.924 124.662 130.116 124.894 130.359C125.125 130.602 125.305 130.889 125.422 131.204C125.538 131.518 125.589 131.853 125.571 132.188L124.909 147.46C124.871 148.153 124.571 148.806 124.07 149.286C123.569 149.767 122.904 150.04 122.209 150.051Z" fill="#FAFAFA"/>
<path d="M145.548 150.051H130.249C129.913 150.053 129.58 149.987 129.271 149.856C128.962 149.725 128.683 149.532 128.451 149.29C128.219 149.047 128.04 148.76 127.923 148.445C127.807 148.13 127.756 147.795 127.774 147.46L128.436 132.188C128.474 131.493 128.776 130.839 129.28 130.358C129.784 129.877 130.452 129.605 131.149 129.598H146.441C146.777 129.595 147.111 129.66 147.421 129.791C147.731 129.921 148.01 130.114 148.243 130.357C148.476 130.599 148.656 130.887 148.773 131.202C148.889 131.517 148.94 131.853 148.922 132.188L148.261 147.46C148.223 148.156 147.922 148.811 147.418 149.293C146.914 149.774 146.245 150.045 145.548 150.051Z" fill="#FAFAFA"/>
<path d="M168.892 150.051H153.6C153.264 150.053 152.931 149.987 152.622 149.856C152.313 149.725 152.034 149.532 151.802 149.29C151.57 149.047 151.391 148.76 151.274 148.445C151.158 148.13 151.107 147.795 151.125 147.46L151.787 132.188C151.825 131.493 152.127 130.839 152.631 130.358C153.135 129.877 153.803 129.605 154.5 129.598H169.851C170.188 129.595 170.521 129.662 170.83 129.793C171.14 129.924 171.419 130.116 171.651 130.359C171.884 130.601 172.064 130.889 172.181 131.203C172.298 131.518 172.35 131.853 172.333 132.188L171.638 147.46C171.599 148.161 171.293 148.82 170.782 149.302C170.271 149.784 169.595 150.052 168.892 150.051Z" fill="#FAFAFA"/>
<path d="M192.244 150.051H176.952C176.616 150.053 176.283 149.987 175.973 149.856C175.664 149.725 175.384 149.533 175.152 149.29C174.92 149.047 174.739 148.76 174.622 148.445C174.505 148.131 174.453 147.796 174.47 147.46L175.132 132.188C175.169 131.494 175.47 130.839 175.972 130.358C176.475 129.877 177.142 129.605 177.839 129.598H193.137C193.473 129.595 193.806 129.662 194.115 129.793C194.424 129.924 194.703 130.116 194.935 130.359C195.167 130.602 195.347 130.889 195.463 131.204C195.579 131.518 195.63 131.853 195.612 132.188L194.95 147.46C194.912 148.154 194.611 148.808 194.109 149.289C193.606 149.769 192.94 150.042 192.244 150.051Z" fill="#FAFAFA"/>
<path d="M215.596 150.051H200.29C199.955 150.053 199.622 149.987 199.313 149.856C199.003 149.725 198.724 149.532 198.493 149.29C198.261 149.047 198.081 148.76 197.965 148.445C197.848 148.13 197.798 147.795 197.816 147.46L198.477 132.188C198.517 131.494 198.82 130.84 199.323 130.36C199.827 129.879 200.494 129.607 201.19 129.598H216.489C216.825 129.595 217.157 129.662 217.467 129.793C217.776 129.924 218.055 130.116 218.287 130.359C218.519 130.602 218.698 130.889 218.815 131.204C218.931 131.518 218.982 131.853 218.964 132.188L218.302 147.46C218.262 148.154 217.961 148.806 217.459 149.287C216.957 149.767 216.291 150.04 215.596 150.051Z" fill="#FAFAFA"/>
<path d="M238.947 150.051H223.649C223.313 150.053 222.98 149.987 222.671 149.856C222.362 149.725 222.083 149.532 221.851 149.29C221.619 149.047 221.44 148.76 221.323 148.445C221.207 148.13 221.156 147.795 221.174 147.46L221.836 132.188C221.874 131.493 222.176 130.839 222.68 130.358C223.184 129.877 223.852 129.605 224.549 129.598H239.841C240.177 129.595 240.51 129.662 240.819 129.793C241.129 129.924 241.408 130.116 241.641 130.359C241.873 130.601 242.053 130.889 242.17 131.203C242.288 131.518 242.339 131.853 242.322 132.188L241.627 147.46C241.591 148.15 241.294 148.801 240.797 149.281C240.3 149.762 239.639 150.037 238.947 150.051Z" fill="#FAFAFA"/>
</g>
<path d="M117.875 69.8108C112.237 69.8108 107.817 63.2618 107.817 54.9021C107.817 46.5424 112.237 40 117.875 40C123.513 40 127.939 46.549 127.939 54.9021C127.914 55.2939 127.74 55.6613 127.453 55.9297C127.166 56.1981 126.787 56.3475 126.394 56.3475C126.001 56.3475 125.623 56.1981 125.336 55.9297C125.049 55.6613 124.875 55.2939 124.849 54.9021C124.849 48.4985 121.66 43.0796 117.875 43.0796C114.09 43.0796 110.9 48.4985 110.9 54.9021C110.9 61.3057 114.096 66.7247 117.875 66.7247C118.086 66.7108 118.298 66.7405 118.498 66.8118C118.697 66.8831 118.88 66.9945 119.035 67.1391C119.189 67.2838 119.312 67.4586 119.397 67.6527C119.481 67.8468 119.524 68.0562 119.524 68.2678C119.524 68.4793 119.481 68.6887 119.397 68.8828C119.312 69.0769 119.189 69.2517 119.035 69.3964C118.88 69.541 118.697 69.6524 118.498 69.7237C118.298 69.795 118.086 69.8247 117.875 69.8108Z" fill="#FF81AE"/>
<path d="M141.226 69.8108C135.588 69.8108 131.168 63.2618 131.168 54.9021C131.168 46.5424 135.588 40 141.226 40C146.864 40 151.324 46.549 151.324 54.9021C151.298 55.2939 151.124 55.6613 150.837 55.9297C150.55 56.1981 150.172 56.3475 149.778 56.3475C149.385 56.3475 149.007 56.1981 148.72 55.9297C148.433 55.6613 148.259 55.2939 148.233 54.9021C148.233 48.4985 145.044 43.0796 141.259 43.0796C137.474 43.0796 134.285 48.4985 134.285 54.9021C134.285 61.3057 137.481 66.7247 141.259 66.7247C141.651 66.7503 142.019 66.9241 142.288 67.2106C142.557 67.4972 142.706 67.8751 142.706 68.2678C142.706 68.6604 142.557 69.0383 142.288 69.3249C142.019 69.6114 141.651 69.7852 141.259 69.8108H141.226Z" fill="#FF81AE"/>
<path d="M164.558 69.8108C158.913 69.8108 154.493 63.2618 154.493 54.9021C154.493 46.5424 158.913 40 164.558 40C170.202 40 174.616 46.549 174.616 54.9021C174.616 55.3105 174.453 55.7021 174.164 55.9909C173.875 56.2797 173.483 56.4419 173.074 56.4419C172.665 56.4419 172.273 56.2797 171.984 55.9909C171.695 55.7021 171.532 55.3105 171.532 54.9021C171.532 48.4985 168.336 43.0796 164.558 43.0796C160.779 43.0796 157.583 48.4985 157.583 54.9021C157.583 61.3057 160.779 66.7247 164.558 66.7247C164.95 66.7503 165.318 66.9241 165.587 67.2106C165.855 67.4972 166.005 67.8751 166.005 68.2678C166.005 68.6604 165.855 69.0383 165.587 69.3249C165.318 69.6114 164.95 69.7852 164.558 69.8108Z" fill="#FF81AE"/>
<path d="M187.93 69.8108C182.285 69.8108 177.865 63.2618 177.865 54.9021C177.865 46.5424 182.285 40 187.93 40C193.574 40 197.988 46.549 197.988 54.9021C197.988 55.3105 197.825 55.7021 197.536 55.9909C197.247 56.2797 196.855 56.4419 196.446 56.4419C196.037 56.4419 195.645 56.2797 195.356 55.9909C195.067 55.7021 194.904 55.3105 194.904 54.9021C194.904 48.4985 191.708 43.0796 187.93 43.0796C184.151 43.0796 180.955 48.4985 180.955 54.9021C180.955 61.3057 184.145 66.7247 187.93 66.7247C188.322 66.7503 188.69 66.9241 188.959 67.2106C189.227 67.4972 189.377 67.8751 189.377 68.2678C189.377 68.6604 189.227 69.0383 188.959 69.3249C188.69 69.6114 188.322 69.7852 187.93 69.8108Z" fill="#FF81AE"/>
<path d="M211.275 69.8108C205.637 69.8108 201.217 63.2618 201.217 54.9021C201.217 46.5424 205.637 40 211.275 40C216.913 40 221.339 46.549 221.339 54.9021C221.314 55.2939 221.14 55.6613 220.853 55.9297C220.566 56.1981 220.187 56.3475 219.794 56.3475C219.401 56.3475 219.023 56.1981 218.736 55.9297C218.449 55.6613 218.275 55.2939 218.249 54.9021C218.249 48.4985 215.06 43.0796 211.275 43.0796C207.49 43.0796 204.3 48.4985 204.3 54.9021C204.3 61.3057 207.496 66.7247 211.275 66.7247C211.486 66.7108 211.698 66.7405 211.898 66.8118C212.097 66.8831 212.28 66.9945 212.434 67.1391C212.589 67.2838 212.712 67.4586 212.797 67.6527C212.881 67.8468 212.924 68.0562 212.924 68.2678C212.924 68.4793 212.881 68.6887 212.797 68.8828C212.712 69.0769 212.589 69.2517 212.434 69.3964C212.28 69.541 212.097 69.6524 211.898 69.7237C211.698 69.795 211.486 69.8247 211.275 69.8108Z" fill="#FF81AE"/>
<path d="M234.626 69.8108C228.989 69.8108 224.568 63.2618 224.568 54.9021C224.568 46.5424 228.989 40 234.626 40C240.264 40 244.691 46.549 244.691 54.9021C244.665 55.2939 244.491 55.6613 244.204 55.9297C243.917 56.1981 243.539 56.3475 243.146 56.3475C242.753 56.3475 242.374 56.1981 242.087 55.9297C241.8 55.6613 241.626 55.2939 241.601 54.9021C241.601 48.4985 238.405 43.0796 234.626 43.0796C230.848 43.0796 227.652 48.4985 227.652 54.9021C227.652 61.3057 230.848 66.7247 234.626 66.7247C235.019 66.7503 235.386 66.9241 235.655 67.2106C235.924 67.4972 236.074 67.8751 236.074 68.2678C236.074 68.6604 235.924 69.0383 235.655 69.3249C235.386 69.6114 235.019 69.7852 234.626 69.8108Z" fill="#FF81AE"/>
<g opacity="0.3">
<path d="M117.875 69.8108C112.237 69.8108 107.817 63.2618 107.817 54.9021C107.817 46.5424 112.237 40 117.875 40C123.513 40 127.939 46.549 127.939 54.9021C127.914 55.2939 127.74 55.6613 127.453 55.9297C127.166 56.1981 126.787 56.3475 126.394 56.3475C126.001 56.3475 125.623 56.1981 125.336 55.9297C125.049 55.6613 124.875 55.2939 124.849 54.9021C124.849 48.4985 121.66 43.0796 117.875 43.0796C114.09 43.0796 110.9 48.4985 110.9 54.9021C110.9 61.3057 114.096 66.7247 117.875 66.7247C118.086 66.7108 118.298 66.7405 118.498 66.8118C118.697 66.8831 118.88 66.9945 119.035 67.1391C119.189 67.2838 119.312 67.4586 119.397 67.6527C119.481 67.8468 119.524 68.0562 119.524 68.2678C119.524 68.4793 119.481 68.6887 119.397 68.8828C119.312 69.0769 119.189 69.2517 119.035 69.3964C118.88 69.541 118.697 69.6524 118.498 69.7237C118.298 69.795 118.086 69.8247 117.875 69.8108Z" fill="black"/>
<path d="M141.226 69.8108C135.589 69.8108 131.168 63.2618 131.168 54.9021C131.168 46.5424 135.589 40 141.226 40C146.864 40 151.324 46.549 151.324 54.9021C151.298 55.2939 151.124 55.6613 150.837 55.9297C150.551 56.1981 150.172 56.3475 149.779 56.3475C149.386 56.3475 149.007 56.1981 148.72 55.9297C148.434 55.6613 148.26 55.2939 148.234 54.9021C148.234 48.4985 145.044 43.0796 141.259 43.0796C137.475 43.0796 134.285 48.4985 134.285 54.9021C134.285 61.3057 137.481 66.7247 141.259 66.7247C141.652 66.7503 142.02 66.9241 142.288 67.2106C142.557 67.4972 142.707 67.8751 142.707 68.2678C142.707 68.6604 142.557 69.0383 142.288 69.3249C142.02 69.6114 141.652 69.7852 141.259 69.8108H141.226Z" fill="black"/>
<path d="M164.558 69.8108C158.914 69.8108 154.494 63.2618 154.494 54.9021C154.494 46.5424 158.914 40 164.558 40C170.203 40 174.616 46.549 174.616 54.9021C174.616 55.3105 174.454 55.7021 174.165 55.9909C173.875 56.2797 173.483 56.4419 173.074 56.4419C172.665 56.4419 172.273 56.2797 171.984 55.9909C171.695 55.7021 171.533 55.3105 171.533 54.9021C171.533 48.4985 168.337 43.0796 164.558 43.0796C160.78 43.0796 157.584 48.4985 157.584 54.9021C157.584 61.3057 160.78 66.7247 164.558 66.7247C164.951 66.7503 165.318 66.9241 165.587 67.2106C165.856 67.4972 166.005 67.8751 166.005 68.2678C166.005 68.6604 165.856 69.0383 165.587 69.3249C165.318 69.6114 164.951 69.7852 164.558 69.8108Z" fill="black"/>
<path d="M187.93 69.8108C182.286 69.8108 177.866 63.2618 177.866 54.9021C177.866 46.5424 182.286 40 187.93 40C193.575 40 197.988 46.549 197.988 54.9021C197.988 55.3105 197.826 55.7021 197.537 55.9909C197.248 56.2797 196.855 56.4419 196.446 56.4419C196.038 56.4419 195.645 56.2797 195.356 55.9909C195.067 55.7021 194.905 55.3105 194.905 54.9021C194.905 48.4985 191.709 43.0796 187.93 43.0796C184.152 43.0796 180.956 48.4985 180.956 54.9021C180.956 61.3057 184.145 66.7247 187.93 66.7247C188.323 66.7503 188.69 66.9241 188.959 67.2106C189.228 67.4972 189.378 67.8751 189.378 68.2678C189.378 68.6604 189.228 69.0383 188.959 69.3249C188.69 69.6114 188.323 69.7852 187.93 69.8108Z" fill="black"/>
<path d="M211.275 69.8108C205.637 69.8108 201.217 63.2618 201.217 54.9021C201.217 46.5424 205.637 40 211.275 40C216.913 40 221.34 46.549 221.34 54.9021C221.314 55.2939 221.14 55.6613 220.853 55.9297C220.566 56.1981 220.188 56.3475 219.795 56.3475C219.402 56.3475 219.023 56.1981 218.736 55.9297C218.449 55.6613 218.275 55.2939 218.25 54.9021C218.25 48.4985 215.06 43.0796 211.275 43.0796C207.49 43.0796 204.301 48.4985 204.301 54.9021C204.301 61.3057 207.497 66.7247 211.275 66.7247C211.487 66.7108 211.699 66.7405 211.898 66.8118C212.098 66.8831 212.28 66.9945 212.435 67.1391C212.59 67.2838 212.713 67.4586 212.797 67.6527C212.881 67.8468 212.925 68.0562 212.925 68.2678C212.925 68.4793 212.881 68.6887 212.797 68.8828C212.713 69.0769 212.59 69.2517 212.435 69.3964C212.28 69.541 212.098 69.6524 211.898 69.7237C211.699 69.795 211.487 69.8247 211.275 69.8108Z" fill="black"/>
<path d="M234.627 69.8108C228.989 69.8108 224.569 63.2618 224.569 54.9021C224.569 46.5424 228.989 40 234.627 40C240.265 40 244.691 46.549 244.691 54.9021C244.666 55.2939 244.492 55.6613 244.205 55.9297C243.918 56.1981 243.539 56.3475 243.146 56.3475C242.753 56.3475 242.375 56.1981 242.088 55.9297C241.801 55.6613 241.627 55.2939 241.601 54.9021C241.601 48.4985 238.405 43.0796 234.627 43.0796C230.848 43.0796 227.652 48.4985 227.652 54.9021C227.652 61.3057 230.848 66.7247 234.627 66.7247C235.019 66.7503 235.387 66.9241 235.656 67.2106C235.924 67.4972 236.074 67.8751 236.074 68.2678C236.074 68.6604 235.924 69.0383 235.656 69.3249C235.387 69.6114 235.019 69.7852 234.627 69.8108Z" fill="black"/>
</g>
<path d="M189.492 103.501C184.092 102.43 178.031 103.679 175.867 109.363C174.127 113.936 176.357 118.892 181.161 120.101C185.396 121.165 192.701 119.863 194.21 114.986C195.937 109.409 188.916 107.598 184.979 107.268C183.794 107.169 183.801 109.019 184.979 109.118C186.772 109.27 188.823 109.369 190.411 110.354C193.72 112.422 192.357 115.74 189.538 117.326C186.719 118.912 182.398 119.308 179.612 117.55C176.568 115.614 176.469 111.358 178.289 108.583C180.678 104.915 185.038 104.505 188.969 105.278C190.133 105.51 190.63 103.726 189.459 103.494L189.492 103.501Z" fill="#FF81AE"/>
<path opacity="0.1" d="M189.492 103.501C184.092 102.43 178.031 103.679 175.867 109.363C174.127 113.936 176.357 118.892 181.161 120.101C185.396 121.165 192.701 119.863 194.21 114.986C195.937 109.409 188.916 107.598 184.979 107.268C183.794 107.169 183.801 109.019 184.979 109.118C186.772 109.27 188.823 109.369 190.411 110.354C193.72 112.422 192.357 115.74 189.538 117.326C186.719 118.912 182.398 119.308 179.612 117.55C176.568 115.614 176.469 111.358 178.289 108.583C180.678 104.915 185.038 104.505 188.969 105.278C190.133 105.51 190.63 103.726 189.459 103.494L189.492 103.501Z" fill="#FAFAFA"/>
<path d="M129.917 82.215C135.081 89.0516 140.838 95.4203 147.121 101.247C147.995 102.06 149.311 100.752 148.445 99.9257C142.269 94.2138 136.607 87.9712 131.525 81.27C130.817 80.3316 129.209 81.27 129.93 82.2018L129.917 82.215Z" fill="#FF81AE"/>
<path d="M131.83 100.474C135.734 93.5419 142.569 87.6273 149.034 83.1005C150 82.4397 149.081 80.814 148.101 81.5013C141.378 86.2197 134.311 92.3128 130.235 99.5358C130.123 99.7463 130.097 99.9917 130.162 100.221C130.227 100.45 130.378 100.646 130.583 100.767C130.789 100.888 131.033 100.925 131.265 100.87C131.497 100.816 131.7 100.674 131.83 100.474Z" fill="#FF81AE"/>
<g opacity="0.2">
<path d="M129.917 82.215C135.081 89.0516 140.838 95.4203 147.121 101.247C147.995 102.06 149.311 100.752 148.445 99.9257C142.269 94.2138 136.607 87.9712 131.525 81.27C130.817 80.3316 129.209 81.27 129.93 82.2018L129.917 82.215Z" fill="black"/>
<path d="M131.829 100.474C135.733 93.5419 142.568 87.6273 149.033 83.1005C149.999 82.4397 149.08 80.814 148.1 81.5013C141.377 86.2197 134.31 92.3128 130.234 99.5358C130.122 99.7463 130.096 99.9917 130.161 100.221C130.226 100.45 130.377 100.646 130.582 100.767C130.788 100.888 131.032 100.925 131.264 100.87C131.496 100.816 131.699 100.674 131.829 100.474Z" fill="black"/>
</g>
<path d="M203.513 88.1297H215.589C215.82 88.1101 216.036 88.0045 216.193 87.8337C216.35 87.663 216.437 87.4396 216.437 87.2078C216.437 86.9759 216.35 86.7525 216.193 86.5818C216.036 86.4111 215.82 86.3055 215.589 86.2859H203.513C203.281 86.3055 203.066 86.4111 202.909 86.5818C202.752 86.7525 202.665 86.9759 202.665 87.2078C202.665 87.4396 202.752 87.663 202.909 87.8337C203.066 88.0045 203.281 88.1101 203.513 88.1297Z" fill="#FF81AE"/>
<path d="M203.373 91.5594H210.374C210.619 91.5594 210.855 91.4619 211.029 91.2884C211.202 91.1149 211.3 90.8796 211.3 90.6342C211.3 90.3888 211.202 90.1535 211.029 89.98C210.855 89.8065 210.619 89.709 210.374 89.709H203.373C203.127 89.709 202.891 89.8065 202.718 89.98C202.544 90.1535 202.446 90.3888 202.446 90.6342C202.446 90.8796 202.544 91.1149 202.718 91.2884C202.891 91.4619 203.127 91.5594 203.373 91.5594Z" fill="#FF81AE"/>
<g opacity="0.1">
<path d="M203.511 88.1297H215.587C215.819 88.1101 216.034 88.0045 216.191 87.8337C216.348 87.663 216.436 87.4396 216.436 87.2078C216.436 86.9759 216.348 86.7525 216.191 86.5818C216.034 86.4111 215.819 86.3055 215.587 86.2859H203.511C203.28 86.3055 203.064 86.4111 202.907 86.5818C202.75 86.7525 202.663 86.9759 202.663 87.2078C202.663 87.4396 202.75 87.663 202.907 87.8337C203.064 88.0045 203.28 88.1101 203.511 88.1297Z" fill="#FAFAFA"/>
<path d="M203.373 91.5591H210.374C210.619 91.5591 210.855 91.4616 211.029 91.2881C211.202 91.1146 211.3 90.8793 211.3 90.6339C211.3 90.3886 211.202 90.1532 211.029 89.9797C210.855 89.8062 210.619 89.7087 210.374 89.7087H203.373C203.127 89.7087 202.891 89.8062 202.718 89.9797C202.544 90.1532 202.446 90.3886 202.446 90.6339C202.446 90.8793 202.544 91.1146 202.718 91.2881C202.891 91.4616 203.127 91.5591 203.373 91.5591Z" fill="#FAFAFA"/>
</g>
<path d="M131.181 135.472H141.537C141.783 135.472 142.018 135.375 142.192 135.201C142.366 135.028 142.463 134.793 142.463 134.547C142.463 134.302 142.366 134.067 142.192 133.893C142.018 133.72 141.783 133.622 141.537 133.622H131.181C130.936 133.622 130.7 133.72 130.526 133.893C130.352 134.067 130.255 134.302 130.255 134.547C130.255 134.793 130.352 135.028 130.526 135.201C130.7 135.375 130.936 135.472 131.181 135.472Z" fill="#FF81AE"/>
<path d="M130.81 139.444H144.243C144.489 139.444 144.724 139.347 144.898 139.173C145.072 139 145.169 138.764 145.169 138.519C145.169 138.274 145.072 138.038 144.898 137.865C144.724 137.691 144.489 137.594 144.243 137.594H130.81C130.564 137.594 130.329 137.691 130.155 137.865C129.981 138.038 129.884 138.274 129.884 138.519C129.884 138.764 129.981 139 130.155 139.173C130.329 139.347 130.564 139.444 130.81 139.444Z" fill="#FF81AE"/>
<path d="M130.81 143.535H137.527C137.772 143.535 138.008 143.437 138.182 143.264C138.355 143.09 138.453 142.855 138.453 142.61C138.453 142.364 138.355 142.129 138.182 141.956C138.008 141.782 137.772 141.685 137.527 141.685H130.81C130.564 141.685 130.329 141.782 130.155 141.956C129.981 142.129 129.884 142.364 129.884 142.61C129.884 142.855 129.981 143.09 130.155 143.264C130.329 143.437 130.564 143.535 130.81 143.535Z" fill="#FF81AE"/>
<g opacity="0.1">
<path d="M131.181 135.472H141.537C141.783 135.472 142.018 135.375 142.192 135.201C142.366 135.028 142.463 134.793 142.463 134.547C142.463 134.302 142.366 134.067 142.192 133.893C142.018 133.72 141.783 133.622 141.537 133.622H131.181C130.936 133.622 130.7 133.72 130.526 133.893C130.352 134.067 130.255 134.302 130.255 134.547C130.255 134.793 130.352 135.028 130.526 135.201C130.7 135.375 130.936 135.472 131.181 135.472Z" fill="#FAFAFA"/>
<path d="M130.811 139.444H144.244C144.49 139.444 144.725 139.347 144.899 139.173C145.073 139 145.17 138.764 145.17 138.519C145.17 138.274 145.073 138.038 144.899 137.865C144.725 137.691 144.49 137.594 144.244 137.594H130.811C130.565 137.594 130.33 137.691 130.156 137.865C129.982 138.038 129.885 138.274 129.885 138.519C129.885 138.764 129.982 139 130.156 139.173C130.33 139.347 130.565 139.444 130.811 139.444Z" fill="#FAFAFA"/>
<path d="M130.811 143.535H137.527C137.773 143.535 138.009 143.437 138.183 143.264C138.356 143.09 138.454 142.855 138.454 142.61C138.454 142.364 138.356 142.129 138.183 141.955C138.009 141.782 137.773 141.684 137.527 141.684H130.811C130.565 141.684 130.33 141.782 130.156 141.955C129.982 142.129 129.885 142.364 129.885 142.61C129.885 142.855 129.982 143.09 130.156 143.264C130.33 143.437 130.565 143.535 130.811 143.535Z" fill="#FAFAFA"/>
</g>
</svg>
