<svg width="500" height="500" viewBox="0 0 500 500" fill="none" xmlns="http://www.w3.org/2000/svg">
<path d="M250 476.72C373.38 476.72 473.4 422.327 473.4 355.23C473.4 288.133 373.38 233.74 250 233.74C126.62 233.74 26.6001 288.133 26.6001 355.23C26.6001 422.327 126.62 476.72 250 476.72Z" fill="#F5F5F5"/>
<path d="M250 348.87C268.59 348.87 283.66 340.167 283.66 329.43C283.66 318.694 268.59 309.99 250 309.99C231.41 309.99 216.34 318.694 216.34 329.43C216.34 340.167 231.41 348.87 250 348.87Z" fill="#E0E0E0"/>
<path d="M375.53 400.82C404.917 400.82 428.74 387.066 428.74 370.1C428.74 353.134 404.917 339.38 375.53 339.38C346.143 339.38 322.32 353.134 322.32 370.1C322.32 387.066 346.143 400.82 375.53 400.82Z" fill="#E0E0E0"/>
<path d="M114.42 404.14C143.807 404.14 167.63 390.386 167.63 373.42C167.63 356.454 143.807 342.7 114.42 342.7C85.0329 342.7 61.21 356.454 61.21 373.42C61.21 390.386 85.0329 404.14 114.42 404.14Z" fill="#E0E0E0"/>
<path d="M401.83 363.759L392.51 362.689L390.1 343.909L401.49 347.289L401.83 363.759Z" fill="#FFBDA7"/>
<path d="M381.41 379.079C381.275 379.449 381.22 379.843 381.248 380.236C381.275 380.629 381.385 381.011 381.57 381.359C382.57 382.519 385.15 383.879 388.67 384.129C392.04 384.369 395.04 383.919 397.01 382.669C397.867 382.226 398.6 381.578 399.144 380.782C399.689 379.986 400.028 379.068 400.13 378.109C400.32 376.199 400.13 374.349 401.02 372.879C401.91 371.409 403.2 369.979 403.49 369.239C403.836 367.962 403.836 366.616 403.49 365.339L381.41 379.079Z" fill="#122023"/>
<path d="M390.62 362.36C390.59 363.084 390.459 363.801 390.23 364.49C389.715 365.97 389.023 367.384 388.17 368.7C387.751 369.399 387.283 370.067 386.77 370.7C385.77 371.91 384.49 372.91 383.41 374.07C382.264 375.163 381.53 376.618 381.33 378.19C381.19 380.83 385.39 381.73 387.6 382.12C389.984 382.536 392.43 382.413 394.76 381.76C395.983 381.441 397.089 380.776 397.944 379.845C398.799 378.914 399.367 377.756 399.58 376.51C399.71 375.77 399.66 375.02 399.75 374.29C400.041 372.604 400.745 371.017 401.8 369.67C402.413 368.892 402.939 368.051 403.37 367.16C404.06 365.53 403.51 363.69 403.07 362.07C402.69 360.66 402.23 359.07 401.73 359.18C401.73 359.91 401.73 360.01 401.24 360.5C400.75 360.99 400.56 362.07 399.86 362.62C400.083 362.01 400.247 361.381 400.35 360.74C400.394 360.483 400.34 360.219 400.2 360C399.968 359.792 399.691 359.641 399.39 359.56C398.35 359.212 397.278 358.967 396.19 358.83C394.705 358.66 393.205 358.66 391.72 358.83C391.411 358.885 391.131 359.048 390.93 359.29C390.75 359.556 390.653 359.869 390.65 360.19C390.6 360.57 390.64 361.66 390.62 362.36Z" fill="#455A64"/>
<path d="M387.81 369.259C388.81 368.519 392.34 368.509 393.54 368.639C394.763 368.744 395.94 369.157 396.96 369.839C397.11 369.946 397.292 369.996 397.475 369.981C397.658 369.967 397.829 369.888 397.96 369.759C398.036 369.684 398.095 369.594 398.132 369.494C398.17 369.394 398.185 369.287 398.177 369.181C398.17 369.075 398.139 368.971 398.088 368.878C398.037 368.784 397.966 368.703 397.88 368.639C396.759 367.812 395.429 367.317 394.04 367.209C392.308 367.082 390.566 367.183 388.86 367.509C388.86 367.509 387.52 368.379 387.81 369.259Z" fill="#F5F5F5"/>
<path d="M385.55 371.999C386.79 371.269 390.55 371.369 391.76 371.499C392.959 371.622 394.105 372.06 395.08 372.769C395.23 372.873 395.412 372.923 395.594 372.908C395.777 372.893 395.948 372.816 396.08 372.689C396.156 372.614 396.214 372.523 396.252 372.424C396.289 372.324 396.305 372.217 396.297 372.111C396.289 372.004 396.259 371.901 396.208 371.807C396.156 371.714 396.085 371.632 396 371.569C394.359 370.719 392.57 370.196 390.73 370.029C387.73 369.819 387 370.419 387 370.419C386.656 370.558 386.347 370.771 386.096 371.045C385.845 371.318 385.659 371.644 385.55 371.999Z" fill="#F5F5F5"/>
<path d="M395.22 364.379C393.528 364.186 391.815 364.291 390.16 364.689C389.64 364.979 389.29 365.809 389.63 366.019C391.141 365.612 392.708 365.456 394.27 365.559C395.378 365.67 396.46 365.968 397.47 366.439C397.73 366.559 398.03 366.709 398.29 366.859C398.373 366.912 398.468 366.947 398.566 366.961C398.664 366.974 398.764 366.967 398.858 366.938C398.953 366.91 399.041 366.861 399.115 366.796C399.19 366.73 399.249 366.65 399.29 366.559C399.361 366.412 399.375 366.243 399.329 366.086C399.283 365.929 399.18 365.795 399.04 365.709C397.876 364.998 396.574 364.545 395.22 364.379Z" fill="#F5F5F5"/>
<path d="M367.08 355.219L358.22 352.749V334.839L369.21 335.319L367.08 355.219Z" fill="#FFBDA7"/>
<path d="M339.5 364.809C339.25 365.582 339.297 366.419 339.63 367.159C339.96 367.839 343.55 369.869 348.39 369.539C351.975 369.282 355.427 368.074 358.39 366.039C360.23 364.819 362.15 364.589 364.55 364.459C366.95 364.329 370.09 363.119 370.62 361.999C370.89 360.996 370.862 359.937 370.54 358.949L339.5 364.809Z" fill="#122023"/>
<path d="M359 349.709L358.62 349.629C358.409 349.58 358.19 349.58 357.98 349.629C357.747 349.706 357.54 349.844 357.38 350.029C356.908 350.638 356.496 351.291 356.15 351.979C355.15 353.629 353 354.979 350.68 356.249C349.1 357.099 347.55 357.759 345.92 358.489C344.29 359.219 342.04 359.699 340.74 360.579C338.84 361.859 338.59 365.069 340.74 366.339C342.6 367.439 347.52 368.629 352.67 367.169C355.47 366.369 358.59 363.379 362.27 363.089C364.61 362.899 369.04 362.249 370.55 360.469C371.11 359.679 370.36 357.179 369.75 355.019C369.08 352.659 368.45 349.019 367.67 349.189C367.677 349.358 367.643 349.526 367.572 349.679C367.5 349.832 367.393 349.966 367.26 350.069C366.97 350.369 366.58 350.559 366.26 350.829C365.714 351.366 365.273 352.001 364.96 352.699C364.833 353.01 364.599 353.266 364.3 353.419C363.9 353.559 363.61 353.319 363.3 353.159C362.861 352.958 362.363 352.922 361.9 353.059C361.948 352.59 362.032 352.126 362.15 351.669C362.195 351.526 362.195 351.373 362.15 351.229C362.093 351.084 361.987 350.964 361.85 350.889C360.993 350.301 360.022 349.899 359 349.709Z" fill="#455A64"/>
<path d="M352.9 354.939C353.067 354.616 353.313 354.34 353.616 354.137C353.918 353.934 354.267 353.811 354.63 353.779C355.69 353.579 357.57 354.369 358.74 355.329C358.851 355.418 358.939 355.534 358.996 355.665C359.052 355.796 359.076 355.939 359.064 356.081C359.052 356.224 359.005 356.361 358.928 356.481C358.85 356.601 358.745 356.7 358.62 356.769C358.463 356.858 358.282 356.895 358.102 356.876C357.923 356.856 357.754 356.78 357.62 356.659C356.329 355.495 354.637 354.879 352.9 354.939Z" fill="#F5F5F5"/>
<path d="M349.59 356.789C349.822 356.462 350.129 356.194 350.486 356.01C350.843 355.825 351.238 355.729 351.64 355.729C353.284 355.802 354.863 356.393 356.15 357.419C356.255 357.507 356.338 357.619 356.39 357.745C356.443 357.872 356.465 358.009 356.453 358.146C356.441 358.282 356.396 358.414 356.323 358.53C356.249 358.645 356.149 358.741 356.03 358.809C355.874 358.903 355.692 358.943 355.511 358.923C355.331 358.903 355.161 358.825 355.03 358.699C354.322 357.996 353.467 357.46 352.526 357.129C351.585 356.799 350.582 356.683 349.59 356.789Z" fill="#F5F5F5"/>
<path d="M346 358.449C346.264 358.147 346.59 357.906 346.956 357.742C347.322 357.578 347.719 357.495 348.12 357.499C349.703 357.597 351.215 358.192 352.44 359.199C352.545 359.288 352.628 359.401 352.68 359.528C352.733 359.655 352.754 359.793 352.743 359.93C352.731 360.067 352.686 360.2 352.613 360.316C352.539 360.433 352.439 360.53 352.32 360.599C352.164 360.693 351.982 360.733 351.801 360.713C351.621 360.693 351.452 360.614 351.32 360.489C350.652 359.761 349.823 359.197 348.9 358.843C347.977 358.489 346.984 358.354 346 358.449Z" fill="#F5F5F5"/>
<path d="M399.79 238.37C400.4 256.84 400.44 296.84 400.44 296.84C400.63 299.14 400.83 303.22 401 311.5C401.25 323.5 401.83 353.13 401.83 353.13C401.83 353.13 396.1 355.82 390.83 353.63C390.83 353.63 383.51 311.97 382.01 300.09C380.7 289.72 378.19 265.4 378.19 265.4L374.73 296.27C374.73 296.27 374.73 304.27 374.26 311.33C373.87 316.83 368.53 345.16 368.53 345.16C365.042 346.086 361.359 345.965 357.94 344.81C357.94 344.81 357.46 301.32 357.36 296.27C357.25 290.53 358.73 228.47 358.73 228.47L399.79 238.37Z" fill="#455A64"/>
<path d="M378.21 265.4L376.89 254.93C372.627 253.84 368.596 251.99 364.99 249.47C364.99 249.47 367.53 252.87 374.99 256.47L376.67 265.97L374.77 296.27L378.21 265.4Z" fill="#37474F"/>
<path d="M358.26 186.539C355.56 190.079 341.67 209.139 341.67 209.139L328.84 199.199C325.84 196.849 324.95 193.769 323.07 191.639C321.19 189.509 319.13 188.999 317.02 187.219C314.91 185.439 314.1 184.089 313.38 185.609C312.66 187.129 314.99 189.779 315.38 190.419C315.77 191.059 318.18 192.589 315 192.419C311.82 192.249 305.7 188.619 304.22 187.949C302.74 187.279 302.7 189.109 303.4 190.309C304.1 191.509 303.75 194.849 304.57 196.999C305.39 199.149 306.83 200.469 309.76 201.919C312.49 203.279 319.13 204.129 321.29 205.489C326.03 210.349 334.97 219.419 337.23 221.099C340.34 223.409 343.35 225.539 348.11 220.959C352.87 216.379 366.66 198.409 366.66 198.409L369.51 181.319C364.83 181.149 361.52 182.269 358.26 186.539Z" fill="#FFBDA7"/>
<path d="M341.67 209.139C343.43 210.439 345.26 213.359 345.43 214.669C345.409 213.428 345.132 212.205 344.616 211.076C344.1 209.947 343.355 208.937 342.43 208.109L341.67 209.139Z" fill="#F0997A"/>
<path d="M370.61 180.899C370.61 180.899 364.01 180.819 361.11 182.849C358.21 184.879 356.06 187.849 351.35 194.699C347.22 200.699 345.22 203.579 345.22 203.579C347.923 207.578 351.86 210.584 356.43 212.139L368.75 196.879L370.61 180.899Z" fill="#37474F"/>
<path d="M383.38 180.58C387.12 180.94 392.38 180.98 396.08 181.36C398.65 182.42 403.61 186.74 403.24 189.82C401.86 201.33 399.07 220.2 399.07 220.2L399.99 240.2C394.84 245.34 370.74 247.35 358.32 239.13C358.32 239.13 358.72 203.21 359.58 197.13C361.11 186.24 362.45 182.2 368.07 181.24C373.69 180.28 383.38 180.58 383.38 180.58Z" fill="#B0FF1A"/>
<path d="M404.56 186.829C407.26 190.369 421.16 209.429 421.16 209.429L434 199.489C437 197.129 437.89 194.049 439.77 191.929C441.65 189.809 443.71 189.289 445.82 187.509C447.93 185.729 448.74 184.379 449.46 185.889C450.18 187.399 447.85 190.069 447.46 190.709C447.07 191.349 444.66 192.879 447.84 192.709C451.02 192.539 457.13 188.899 458.62 188.229C460.11 187.559 460.13 189.389 459.44 190.589C458.75 191.789 459.08 195.139 458.27 197.289C457.46 199.439 456.01 200.749 453.08 202.209C450.35 203.569 443.71 204.419 441.55 205.779C436.81 210.629 427.87 219.709 425.61 221.379C422.5 223.689 419.49 225.819 414.73 221.249C409.97 216.679 399.09 202.449 399.09 202.449L393.33 181.609C398 181.439 401.31 182.559 404.56 186.829Z" fill="#FFBDA7"/>
<path d="M421.16 209.43C419.4 210.73 417.57 213.65 417.4 214.96C417.419 213.717 417.696 212.491 418.212 211.361C418.728 210.23 419.473 209.218 420.4 208.39L421.16 209.43Z" fill="#F0997A"/>
<path d="M392.67 181.11C392.67 181.11 398.6 180.74 401.72 183.11C404.53 185.27 406.72 188.11 411.48 194.96C415.61 200.96 417.61 203.84 417.61 203.84C414.901 207.838 410.962 210.843 406.39 212.4L398 202.06C393.63 196.52 389.3 188.09 392.67 181.11Z" fill="#37474F"/>
<path d="M384.31 153.499C384.33 155.794 383.669 158.042 382.41 159.961C381.152 161.879 379.353 163.381 377.242 164.277C375.13 165.174 372.799 165.423 370.545 164.995C368.291 164.567 366.215 163.48 364.579 161.872C362.943 160.264 361.82 158.206 361.353 155.96C360.886 153.714 361.096 151.38 361.955 149.253C362.815 147.126 364.286 145.301 366.183 144.01C368.079 142.719 370.316 142.019 372.61 141.999C374.133 141.986 375.644 142.273 377.057 142.844C378.469 143.415 379.755 144.258 380.842 145.326C381.928 146.394 382.794 147.666 383.389 149.068C383.984 150.47 384.297 151.976 384.31 153.499Z" fill="#122023"/>
<path d="M392.84 161.68C392.84 161.68 391.03 170.53 390.29 171.98C389.797 172.88 388.978 173.557 388 173.87L388.07 167.65L392.84 161.68Z" fill="#122023"/>
<path d="M390.37 149.049C391.026 148.965 391.692 149.032 392.318 149.245C392.943 149.458 393.512 149.812 393.98 150.279C395.54 151.849 394.72 156.809 392.84 161.679L389.3 162.119L390.37 149.049Z" fill="#122023"/>
<path d="M388.24 162.13C388.95 162.55 389.95 161.13 390.82 160.25C391.69 159.37 394.53 158.05 395.99 161.04C397.45 164.03 394.79 168.16 392.55 168.88C388.68 170.14 388.07 167.65 388.07 167.65L387.91 182.07C383.15 188.3 369.76 187.89 375.28 181.39V177.13C373.556 177.419 371.806 177.523 370.06 177.44C367.2 177.03 365.39 174.79 364.49 171.71C363.06 166.77 362.49 162.77 363.59 153C364.79 142.3 377.22 142.08 383.97 146.25C390.72 150.42 388.24 162.13 388.24 162.13Z" fill="#FFBDA7"/>
<path d="M388.25 163.319C388.6 163.319 389.94 161.059 390.82 160.249C392.03 159.119 390.37 149.049 390.37 149.049C390.785 148.156 390.922 147.158 390.761 146.185C390.6 145.213 390.15 144.312 389.47 143.599C387.78 141.769 385.42 139.539 377.82 140.499C372.39 141.189 366.5 142.939 361.71 140.639C361.283 142.199 361.332 143.85 361.848 145.382C362.365 146.914 363.326 148.257 364.61 149.239C364.61 149.239 366.35 150.339 370.9 150.849C375.095 151.125 379.307 151.008 383.48 150.499C384.8 150.309 385.09 151.579 385.83 155.069C386.48 158.119 387.05 163.309 388.25 163.319Z" fill="#122023"/>
<path d="M390.37 149.83L394.64 147.49C394.502 147.201 394.306 146.943 394.064 146.732C393.823 146.522 393.541 146.362 393.236 146.264C392.931 146.166 392.609 146.131 392.29 146.161C391.971 146.191 391.661 146.286 391.38 146.44C390.808 146.766 390.384 147.301 390.195 147.932C390.007 148.564 390.07 149.243 390.37 149.83Z" fill="#122023"/>
<path d="M375.25 177.13C375.25 177.13 381.61 175.79 383.82 174.59C385.123 173.897 386.186 172.827 386.87 171.52C386.547 172.822 385.966 174.046 385.16 175.12C383.55 177.22 375.27 178.82 375.27 178.82L375.25 177.13Z" fill="#F0997A"/>
<path d="M374.74 161.11C374.737 161.28 374.768 161.449 374.831 161.607C374.894 161.765 374.988 161.91 375.107 162.031C375.226 162.153 375.368 162.25 375.525 162.317C375.681 162.384 375.85 162.419 376.02 162.42C376.286 162.43 376.548 162.36 376.774 162.219C377 162.078 377.178 161.873 377.286 161.63C377.393 161.387 377.426 161.117 377.379 160.855C377.332 160.593 377.207 160.351 377.021 160.161C376.835 159.971 376.597 159.841 376.336 159.788C376.075 159.734 375.805 159.761 375.559 159.863C375.314 159.965 375.104 160.138 374.958 160.361C374.812 160.583 374.736 160.844 374.74 161.11Z" fill="#122023"/>
<path d="M378.53 156.72L375.69 155.43C375.525 155.818 375.516 156.255 375.665 156.65C375.814 157.045 376.11 157.367 376.49 157.55C376.678 157.633 376.881 157.677 377.086 157.681C377.292 157.684 377.496 157.645 377.686 157.568C377.877 157.491 378.05 157.375 378.195 157.23C378.34 157.084 378.454 156.911 378.53 156.72Z" fill="#122023"/>
<path d="M366.38 155.149L363.91 157.089C364.027 157.258 364.177 157.4 364.351 157.508C364.525 157.615 364.72 157.686 364.923 157.715C365.125 157.744 365.332 157.731 365.529 157.677C365.727 157.622 365.911 157.528 366.07 157.399C366.398 157.134 366.613 156.754 366.67 156.336C366.728 155.918 366.624 155.494 366.38 155.149Z" fill="#122023"/>
<path d="M364.89 160.8C364.902 161.038 364.983 161.268 365.125 161.461C365.266 161.654 365.461 161.801 365.685 161.884C365.91 161.967 366.153 161.982 366.386 161.927C366.619 161.873 366.831 161.751 366.995 161.578C367.159 161.404 367.269 161.186 367.31 160.95C367.351 160.715 367.322 160.472 367.227 160.253C367.132 160.034 366.974 159.847 366.774 159.717C366.573 159.587 366.339 159.518 366.1 159.52C365.936 159.523 365.775 159.56 365.625 159.626C365.476 159.693 365.341 159.788 365.228 159.907C365.116 160.026 365.028 160.167 364.97 160.32C364.912 160.473 364.884 160.636 364.89 160.8Z" fill="#122023"/>
<path d="M371.51 159.77L370.79 167.42L366.84 165.9L371.51 159.77Z" fill="#F0997A"/>
<path d="M373.68 170.289C373.678 170.533 373.748 170.772 373.882 170.975C374.016 171.179 374.208 171.338 374.432 171.433C374.657 171.527 374.904 171.553 375.144 171.507C375.383 171.461 375.603 171.344 375.776 171.173C375.949 171.001 376.067 170.782 376.115 170.543C376.164 170.304 376.14 170.056 376.047 169.831C375.954 169.606 375.797 169.413 375.594 169.277C375.392 169.142 375.153 169.069 374.91 169.069C374.585 169.069 374.274 169.198 374.043 169.426C373.813 169.655 373.682 169.965 373.68 170.289Z" fill="#F0997A"/>
<path d="M404.9 88.8198C406.807 89.2445 408.645 89.9345 410.36 90.8698C412 91.7527 413.47 92.921 414.7 94.3198C415.883 95.675 416.757 97.2722 417.26 98.9998C417.786 100.831 417.827 102.768 417.38 104.62C417.084 106.09 416.499 107.487 415.66 108.73C414.906 109.799 414 110.753 412.97 111.56C411.962 112.342 410.888 113.035 409.76 113.63L406.58 115.31C405.621 115.811 404.71 116.4 403.86 117.07C403.092 117.652 402.503 118.439 402.16 119.34C401.987 119.741 401.707 120.088 401.35 120.34C401.179 120.471 400.98 120.561 400.769 120.605C400.557 120.648 400.339 120.643 400.13 120.59L395.45 119.59C395.225 119.542 395.012 119.451 394.824 119.32C394.635 119.19 394.474 119.023 394.35 118.83C394.219 118.649 394.133 118.439 394.098 118.219C394.063 117.998 394.081 117.772 394.15 117.56C394.54 116.105 395.22 114.744 396.15 113.56C396.988 112.514 397.956 111.58 399.03 110.78C400.068 110.021 401.168 109.351 402.32 108.78C403.46 108.21 404.52 107.66 405.5 107.12C406.396 106.646 407.238 106.076 408.01 105.42C408.683 104.853 409.151 104.079 409.34 103.22C409.513 102.469 409.501 101.687 409.306 100.942C409.111 100.197 408.738 99.5097 408.22 98.9398C406.927 97.5267 405.199 96.5868 403.31 96.2698C399.817 95.4898 396.863 96.6665 394.45 99.7998C394.218 100.143 393.923 100.438 393.58 100.67C393.394 100.764 393.192 100.821 392.984 100.836C392.776 100.852 392.568 100.826 392.37 100.76L387.37 99.6498C387.194 99.6158 387.026 99.547 386.876 99.4474C386.727 99.3479 386.599 99.2195 386.5 99.0698C386.391 98.9166 386.318 98.7412 386.285 98.5561C386.252 98.3711 386.26 98.1811 386.31 97.9998C386.73 96.4629 387.52 95.052 388.61 93.8898C389.833 92.5392 391.286 91.4153 392.9 90.5698C394.669 89.641 396.577 89.0061 398.55 88.6898C400.655 88.3195 402.812 88.3636 404.9 88.8198ZM399.62 124.36C399.839 124.407 400.047 124.498 400.229 124.629C400.412 124.76 400.565 124.927 400.68 125.12C400.803 125.306 400.887 125.516 400.926 125.736C400.966 125.956 400.96 126.182 400.91 126.4L399.71 131.82C399.609 132.252 399.344 132.629 398.971 132.87C398.598 133.111 398.146 133.197 397.71 133.11L392.41 131.94C392.192 131.893 391.985 131.802 391.803 131.673C391.621 131.545 391.467 131.38 391.35 131.19C391.225 131.004 391.14 130.794 391.101 130.574C391.061 130.354 391.068 130.127 391.12 129.91L392.32 124.48C392.42 124.047 392.685 123.671 393.059 123.43C393.432 123.189 393.884 123.103 394.32 123.19L399.62 124.36Z" fill="#B0FF1A"/>
<path d="M420.62 139.809C421.942 139.591 423.289 139.565 424.62 139.729C425.899 139.875 427.142 140.247 428.29 140.829C429.386 141.39 430.348 142.182 431.11 143.149C431.917 144.187 432.438 145.418 432.62 146.719C432.827 147.732 432.827 148.777 432.62 149.789C432.412 150.671 432.075 151.517 431.62 152.299C431.174 153.054 430.666 153.77 430.1 154.439L428.49 156.339C428.005 156.908 427.57 157.517 427.19 158.159C426.851 158.731 426.678 159.385 426.69 160.049C426.688 160.361 426.598 160.667 426.43 160.929C426.353 161.055 426.25 161.163 426.127 161.244C426.005 161.325 425.865 161.378 425.72 161.399L422.45 161.939C422.134 161.989 421.811 161.914 421.55 161.729C421.422 161.646 421.314 161.534 421.236 161.402C421.158 161.27 421.112 161.122 421.1 160.969C420.963 159.945 421.041 158.902 421.33 157.909C421.589 157.018 421.969 156.167 422.46 155.379C422.928 154.625 423.46 153.913 424.05 153.249C424.64 152.589 425.17 151.969 425.67 151.369C426.12 150.836 426.513 150.256 426.84 149.639C427.126 149.104 427.228 148.489 427.13 147.889C427.048 147.363 426.84 146.864 426.523 146.435C426.206 146.006 425.79 145.661 425.31 145.429C424.124 144.851 422.779 144.688 421.49 144.969C420.324 145.141 419.239 145.669 418.384 146.479C417.529 147.29 416.944 148.344 416.71 149.499C416.646 149.782 416.531 150.049 416.37 150.289C416.176 150.502 415.907 150.631 415.62 150.649L412.14 151.219C411.893 151.26 411.639 151.207 411.43 151.069C411.32 150.999 411.228 150.905 411.159 150.794C411.089 150.683 411.045 150.559 411.03 150.429C410.909 149.337 411.056 148.232 411.46 147.209C411.894 146.027 412.538 144.933 413.36 143.979C414.257 142.933 415.317 142.038 416.5 141.329C417.761 140.56 419.161 140.044 420.62 139.809ZM426.33 163.999C426.483 163.974 426.64 163.979 426.791 164.015C426.942 164.051 427.085 164.117 427.21 164.209C427.335 164.298 427.441 164.411 427.522 164.542C427.602 164.672 427.656 164.818 427.68 164.969L428.3 168.749C428.325 168.903 428.32 169.06 428.284 169.211C428.248 169.362 428.182 169.504 428.09 169.629C428.002 169.756 427.889 169.863 427.759 169.944C427.628 170.024 427.482 170.077 427.33 170.099L423.63 170.709C423.478 170.734 423.323 170.729 423.174 170.693C423.024 170.657 422.883 170.591 422.76 170.499C422.632 170.413 422.523 170.301 422.44 170.17C422.358 170.039 422.303 169.892 422.28 169.739L421.66 165.949C421.614 165.638 421.693 165.321 421.881 165.068C422.068 164.815 422.348 164.646 422.66 164.599L426.33 163.999Z" fill="#B0FF1A"/>
<g opacity="0.2">
<path d="M420.62 139.809C421.942 139.591 423.289 139.565 424.62 139.729C425.899 139.875 427.142 140.247 428.29 140.829C429.386 141.39 430.348 142.182 431.11 143.149C431.917 144.187 432.438 145.418 432.62 146.719C432.827 147.732 432.827 148.777 432.62 149.789C432.412 150.671 432.075 151.517 431.62 152.299C431.174 153.054 430.666 153.77 430.1 154.439L428.49 156.339C428.005 156.908 427.57 157.517 427.19 158.159C426.851 158.731 426.678 159.385 426.69 160.049C426.688 160.361 426.598 160.667 426.43 160.929C426.353 161.055 426.25 161.163 426.127 161.244C426.005 161.325 425.865 161.378 425.72 161.399L422.45 161.939C422.134 161.989 421.811 161.914 421.55 161.729C421.422 161.646 421.314 161.534 421.236 161.402C421.158 161.27 421.112 161.122 421.1 160.969C420.963 159.945 421.041 158.902 421.33 157.909C421.589 157.018 421.969 156.167 422.46 155.379C422.928 154.625 423.46 153.913 424.05 153.249C424.64 152.589 425.17 151.969 425.67 151.369C426.12 150.836 426.513 150.256 426.84 149.639C427.126 149.104 427.228 148.489 427.13 147.889C427.048 147.363 426.84 146.864 426.523 146.435C426.206 146.006 425.79 145.661 425.31 145.429C424.124 144.851 422.779 144.688 421.49 144.969C420.324 145.141 419.239 145.669 418.384 146.479C417.529 147.29 416.944 148.344 416.71 149.499C416.646 149.782 416.531 150.049 416.37 150.289C416.176 150.502 415.907 150.631 415.62 150.649L412.14 151.219C411.893 151.26 411.639 151.207 411.43 151.069C411.32 150.999 411.228 150.905 411.159 150.794C411.089 150.683 411.045 150.559 411.03 150.429C410.909 149.337 411.056 148.232 411.46 147.209C411.894 146.027 412.538 144.933 413.36 143.979C414.257 142.933 415.317 142.038 416.5 141.329C417.761 140.56 419.161 140.044 420.62 139.809ZM426.33 163.999C426.483 163.974 426.64 163.979 426.791 164.015C426.942 164.051 427.085 164.117 427.21 164.209C427.335 164.298 427.441 164.411 427.522 164.542C427.602 164.672 427.656 164.818 427.68 164.969L428.3 168.749C428.325 168.903 428.32 169.06 428.284 169.211C428.248 169.362 428.182 169.504 428.09 169.629C428.002 169.756 427.889 169.863 427.759 169.944C427.628 170.024 427.482 170.077 427.33 170.099L423.63 170.709C423.478 170.734 423.323 170.729 423.174 170.693C423.024 170.657 422.883 170.591 422.76 170.499C422.632 170.413 422.523 170.301 422.44 170.17C422.358 170.039 422.303 169.892 422.28 169.739L421.66 165.949C421.614 165.638 421.693 165.321 421.881 165.068C422.068 164.815 422.348 164.646 422.66 164.599L426.33 163.999Z" fill="black"/>
</g>
<path d="M454.72 150.54C455.017 150.756 455.218 151.08 455.279 151.442C455.341 151.805 455.259 152.177 455.05 152.48L452.41 156.18C452.193 156.477 451.869 156.677 451.507 156.739C451.145 156.801 450.773 156.718 450.47 156.51L446.85 153.94C446.701 153.835 446.574 153.701 446.478 153.547C446.382 153.392 446.318 153.22 446.29 153.04C446.237 152.689 446.319 152.332 446.52 152.04L449.16 148.33C449.374 148.031 449.698 147.83 450.06 147.77C450.412 147.717 450.77 147.803 451.06 148.01L454.72 150.54ZM470 125.45C471.305 126.37 472.471 127.475 473.46 128.73C474.415 129.923 475.15 131.278 475.63 132.73C476.088 134.117 476.242 135.587 476.08 137.04C475.892 138.586 475.307 140.057 474.38 141.31C473.689 142.322 472.806 143.189 471.78 143.86C470.868 144.426 469.877 144.854 468.84 145.13C467.834 145.398 466.807 145.579 465.77 145.67L462.83 145.92C461.952 146 461.082 146.154 460.23 146.38C459.467 146.581 458.775 146.989 458.23 147.56C457.968 147.815 457.644 147.997 457.29 148.09C457.118 148.13 456.939 148.133 456.766 148.096C456.594 148.06 456.431 147.986 456.29 147.88L453.09 145.61C452.785 145.39 452.577 145.06 452.51 144.69C452.472 144.515 452.474 144.334 452.518 144.16C452.561 143.987 452.644 143.826 452.76 143.69C453.504 142.714 454.44 141.9 455.51 141.3C456.473 140.772 457.502 140.375 458.57 140.12C459.595 139.872 460.638 139.711 461.69 139.64C462.69 139.58 463.69 139.5 464.61 139.41C465.436 139.338 466.251 139.174 467.04 138.92C467.728 138.71 468.326 138.277 468.74 137.69C469.112 137.18 469.353 136.588 469.444 135.964C469.535 135.34 469.471 134.704 469.26 134.11C468.738 132.636 467.739 131.379 466.42 130.54C464.04 128.84 461.44 128.783 458.62 130.37C458.335 130.551 458.02 130.68 457.69 130.75C457.518 130.762 457.346 130.74 457.183 130.685C457.02 130.63 456.869 130.543 456.74 130.43L453.34 128.01C453.092 127.841 452.92 127.583 452.86 127.29C452.831 127.14 452.835 126.985 452.871 126.837C452.907 126.688 452.975 126.549 453.07 126.43C453.862 125.407 454.892 124.593 456.07 124.06C457.423 123.434 458.875 123.051 460.36 122.93C461.987 122.797 463.624 122.925 465.21 123.31C466.933 123.698 468.561 124.426 470 125.45Z" fill="#B0FF1A"/>
<g opacity="0.6">
<path d="M454.72 150.54C455.017 150.756 455.218 151.08 455.279 151.442C455.341 151.805 455.259 152.177 455.05 152.48L452.41 156.18C452.193 156.477 451.869 156.677 451.507 156.739C451.145 156.801 450.773 156.718 450.47 156.51L446.85 153.94C446.701 153.835 446.574 153.701 446.478 153.547C446.382 153.392 446.318 153.22 446.29 153.04C446.237 152.689 446.319 152.332 446.52 152.04L449.16 148.33C449.374 148.031 449.698 147.83 450.06 147.77C450.412 147.717 450.77 147.803 451.06 148.01L454.72 150.54ZM470 125.45C471.305 126.37 472.471 127.475 473.46 128.73C474.415 129.923 475.15 131.278 475.63 132.73C476.088 134.117 476.242 135.587 476.08 137.04C475.892 138.586 475.307 140.057 474.38 141.31C473.689 142.322 472.806 143.189 471.78 143.86C470.868 144.426 469.877 144.854 468.84 145.13C467.834 145.398 466.807 145.579 465.77 145.67L462.83 145.92C461.952 146 461.082 146.154 460.23 146.38C459.467 146.581 458.775 146.989 458.23 147.56C457.968 147.815 457.644 147.997 457.29 148.09C457.118 148.13 456.939 148.133 456.766 148.096C456.594 148.06 456.431 147.986 456.29 147.88L453.09 145.61C452.785 145.39 452.577 145.06 452.51 144.69C452.472 144.515 452.474 144.334 452.518 144.16C452.561 143.987 452.644 143.826 452.76 143.69C453.504 142.714 454.44 141.9 455.51 141.3C456.473 140.772 457.502 140.375 458.57 140.12C459.595 139.872 460.638 139.711 461.69 139.64C462.69 139.58 463.69 139.5 464.61 139.41C465.436 139.338 466.251 139.174 467.04 138.92C467.728 138.71 468.326 138.277 468.74 137.69C469.112 137.18 469.353 136.588 469.444 135.964C469.535 135.34 469.471 134.704 469.26 134.11C468.738 132.636 467.739 131.379 466.42 130.54C464.04 128.84 461.44 128.783 458.62 130.37C458.335 130.551 458.02 130.68 457.69 130.75C457.518 130.762 457.346 130.74 457.183 130.685C457.02 130.63 456.869 130.543 456.74 130.43L453.34 128.01C453.092 127.841 452.92 127.583 452.86 127.29C452.831 127.14 452.835 126.985 452.871 126.837C452.907 126.688 452.975 126.549 453.07 126.43C453.862 125.407 454.892 124.593 456.07 124.06C457.423 123.434 458.875 123.051 460.36 122.93C461.987 122.797 463.624 122.925 465.21 123.31C466.933 123.698 468.561 124.426 470 125.45Z" fill="white"/>
</g>
<path d="M132.48 348.52C132.38 345.52 134.54 316.2 134.54 316.2L120.26 326.56C123.19 344.04 123.82 348.17 123.87 351.03C123.81 351.269 123.783 351.514 123.79 351.76C123.79 355.16 127.64 356.99 130.63 359.26C133.172 361.247 135.878 363.014 138.72 364.54C140.89 365.63 145.31 365.73 145.85 364.33C142.21 361.55 136.92 357.39 134.02 354.22C132.64 352.7 132.59 351.5 132.48 348.52Z" fill="#FFBDA7"/>
<path d="M152.06 368C152.222 368.467 152.251 368.97 152.143 369.452C152.035 369.934 151.795 370.377 151.45 370.73C148.828 372.621 145.563 373.398 142.37 372.89C137.83 372.3 135.37 371.01 133.56 369.49C131.75 367.97 129.2 365.83 127.14 365.38C125.503 365.068 123.945 364.429 122.56 363.5C121.95 362.91 122.03 360.29 122.03 360.29L152.06 368Z" fill="#122023"/>
<path d="M123.84 350.2C123.672 350.205 123.511 350.269 123.385 350.38C123.259 350.492 123.176 350.644 123.15 350.81C123.01 351.53 122.86 353.63 122.56 354.81C122.096 356.896 121.947 359.04 122.12 361.17C122.37 362.52 125.47 363.45 127.46 364.17C129.8 365.189 131.972 366.558 133.9 368.23C136.683 370.311 140.004 371.55 143.47 371.8C146.97 371.8 150.91 370.64 151.82 369.02C152.93 367.02 152.06 365.85 146.87 363.44C145.87 362.99 142.44 360.94 141.26 360.2C138.08 358.2 134.93 355.41 133.46 351.87C133.341 351.437 133.081 351.057 132.72 350.79C132.405 350.654 132.056 350.619 131.72 350.69C130.853 350.817 130.01 351.073 129.22 351.45C128.53 351.78 127.54 352.17 127.55 353.06C127.571 353.368 127.639 353.672 127.75 353.96C127.81 354.15 127.86 354.39 127.75 354.5C127.64 354.61 127.4 354.5 127.26 354.36C126.751 353.839 126.286 353.278 125.87 352.68C125.624 352.374 125.346 352.096 125.04 351.85C124.734 351.677 124.44 351.483 124.16 351.27C123.78 351 123.86 350.62 123.84 350.2Z" fill="#455A64"/>
<path d="M133.9 368.28C132.99 367.54 132.03 366.81 131.07 366.17C131.07 366.17 137.17 369.88 139.63 368.17C140.087 367.881 140.421 367.433 140.568 366.913C140.716 366.393 140.667 365.837 140.43 365.35C140.43 364.93 144.31 363.12 145.85 362.94C146.28 363.18 146.64 363.37 146.85 363.47C152.04 365.88 152.91 367.04 151.8 369.05C150.89 370.67 148.04 371.94 143.52 371.94C140.58 372 136 370 133.9 368.28Z" fill="#37474F"/>
<path d="M140 364.141C143.23 365.431 141.85 366.031 140.95 366.141C140.05 366.251 134.62 363.141 131.3 360.481C127.98 357.821 125.67 354.751 124.39 353.751C123.91 353.381 123.39 352.921 122.93 352.491C123.02 351.781 123.09 351.131 123.15 350.791C123.176 350.624 123.259 350.472 123.385 350.361C123.511 350.25 123.672 350.186 123.84 350.181C123.84 350.601 123.78 350.991 124.1 351.301C124.38 351.513 124.674 351.707 124.98 351.881C125.286 352.127 125.564 352.405 125.81 352.711C126.226 353.308 126.691 353.87 127.2 354.391C130.799 358.435 135.145 361.746 140 364.141Z" fill="#122023"/>
<path d="M140.72 365.69C140.646 365.687 140.576 365.659 140.52 365.61C140.488 365.585 140.461 365.553 140.44 365.517C140.42 365.481 140.408 365.441 140.403 365.401C140.398 365.36 140.402 365.318 140.413 365.278C140.425 365.239 140.444 365.202 140.47 365.17C141.231 364.38 142.152 363.763 143.171 363.359C144.191 362.955 145.285 362.775 146.38 362.83C146.466 362.84 146.545 362.883 146.599 362.951C146.653 363.018 146.679 363.104 146.67 363.19C146.66 363.273 146.618 363.349 146.553 363.402C146.487 363.454 146.404 363.478 146.32 363.47C145.332 363.429 144.345 363.595 143.424 363.956C142.503 364.318 141.667 364.867 140.97 365.57C140.94 365.607 140.902 365.637 140.859 365.658C140.815 365.678 140.768 365.689 140.72 365.69Z" fill="#F5F5F5"/>
<path d="M137.91 364C137.834 364.004 137.759 363.979 137.7 363.93C137.643 363.869 137.611 363.789 137.611 363.705C137.611 363.622 137.643 363.541 137.7 363.48C138.462 362.693 139.384 362.078 140.403 361.677C141.422 361.275 142.516 361.095 143.61 361.15C143.695 361.16 143.772 361.202 143.826 361.269C143.879 361.335 143.904 361.42 143.895 361.505C143.886 361.59 143.843 361.668 143.776 361.721C143.71 361.775 143.625 361.8 143.54 361.79C142.551 361.747 141.564 361.911 140.642 362.273C139.721 362.635 138.885 363.186 138.19 363.89C138.156 363.93 138.112 363.961 138.064 363.98C138.015 363.999 137.962 364.006 137.91 364Z" fill="#F5F5F5"/>
<path d="M135.09 362.311C135.017 362.312 134.947 362.287 134.89 362.241C134.831 362.181 134.798 362.1 134.798 362.016C134.798 361.931 134.831 361.851 134.89 361.791C135.653 361.004 136.575 360.39 137.594 359.988C138.613 359.586 139.706 359.406 140.8 359.461C140.842 359.464 140.883 359.476 140.921 359.496C140.958 359.516 140.991 359.543 141.018 359.575C141.045 359.608 141.065 359.645 141.078 359.686C141.09 359.726 141.094 359.769 141.09 359.811C141.087 359.853 141.074 359.894 141.055 359.931C141.035 359.969 141.008 360.002 140.976 360.029C140.943 360.056 140.906 360.076 140.865 360.088C140.825 360.101 140.782 360.105 140.74 360.101C139.751 360.057 138.764 360.222 137.843 360.583C136.921 360.945 136.086 361.496 135.39 362.201C135.353 362.242 135.306 362.274 135.254 362.293C135.202 362.312 135.145 362.318 135.09 362.311Z" fill="#F5F5F5"/>
<path d="M132.48 360.44C132.407 360.441 132.336 360.416 132.28 360.37C132.249 360.341 132.225 360.306 132.208 360.268C132.192 360.229 132.183 360.187 132.183 360.145C132.183 360.103 132.192 360.061 132.208 360.023C132.225 359.984 132.249 359.949 132.28 359.92C133.041 359.132 133.963 358.517 134.982 358.115C136.002 357.713 137.095 357.534 138.19 357.59C138.273 357.6 138.349 357.643 138.401 357.708C138.454 357.773 138.478 357.857 138.47 357.94C138.46 358.023 138.418 358.099 138.352 358.152C138.287 358.204 138.203 358.229 138.12 358.22C137.131 358.181 136.145 358.348 135.225 358.709C134.304 359.07 133.468 359.619 132.77 360.32C132.736 360.363 132.691 360.397 132.641 360.418C132.59 360.439 132.534 360.447 132.48 360.44Z" fill="#F5F5F5"/>
<path d="M129.93 358.571C129.858 358.567 129.789 358.543 129.73 358.501C129.671 358.441 129.638 358.36 129.638 358.276C129.638 358.191 129.671 358.11 129.73 358.051C130.555 357.192 131.564 356.534 132.682 356.125C133.8 355.716 134.996 355.567 136.18 355.691C136.222 355.693 136.264 355.704 136.301 355.723C136.339 355.743 136.372 355.77 136.399 355.803C136.425 355.836 136.444 355.874 136.455 355.915C136.465 355.956 136.467 355.999 136.46 356.041C136.45 356.124 136.408 356.2 136.342 356.252C136.277 356.304 136.194 356.329 136.11 356.321C135.034 356.214 133.948 356.35 132.931 356.716C131.913 357.083 130.991 357.672 130.23 358.441C130.195 358.486 130.149 358.521 130.097 358.544C130.044 358.567 129.987 358.576 129.93 358.571Z" fill="#F5F5F5"/>
<path d="M105.58 329.55L91.1699 329.29C91.3799 338.91 92.9099 349.58 93.1699 358.6C93.1699 360.3 93.1699 371.8 93.7699 375.3C94.7699 380.55 100.97 379.84 101.3 376.7C101.63 373.56 100.9 360.13 100.92 358.7C100.86 352.92 103.57 343.15 105 332.76C105.06 332.29 105.51 330.05 105.58 329.55Z" fill="#FFBDA7"/>
<path d="M103.64 378.88C103.908 381.287 103.564 383.722 102.64 385.96C102.183 386.849 101.445 387.562 100.541 387.989C99.6365 388.416 98.6168 388.532 97.6399 388.32C95.5099 388.01 92.6999 386.87 91.8399 384.32C91.0255 381.971 90.7387 379.472 90.9999 377L103.64 378.88Z" fill="#122023"/>
<path d="M93.1301 357.5C92.2801 357.65 92.4401 361.8 92.3601 365.97C92.2701 370.45 91.1401 372.41 91.0301 376.08C90.9001 380.28 91.3101 382.08 93.0301 384.46C94.7501 386.84 100.12 388.76 102.29 384.92C104.06 381.79 103.82 378.54 103.21 374.42C102.6 370.3 102.12 367.18 101.96 363.92C101.8 360.66 101.73 357.77 100.96 357.5C100.96 357.96 100.96 358.55 100.96 359C100.96 359.45 101.03 361 100.55 361.1C100.476 360.714 100.433 360.323 100.42 359.93C100.442 359.567 100.324 359.209 100.09 358.93C99.8008 358.717 99.4495 358.604 99.0901 358.61C98.2335 358.513 97.3721 358.467 96.5101 358.47C96.0801 358.47 95.6401 358.47 95.2201 358.54C94.8506 358.568 94.4887 358.659 94.1501 358.81C94.0504 358.853 93.9606 358.915 93.8866 358.995C93.8126 359.074 93.7559 359.168 93.7201 359.27C93.6901 359.429 93.6901 359.591 93.7201 359.75C93.7551 360.036 93.7551 360.324 93.7201 360.61C93.7201 360.74 93.6301 360.9 93.5001 360.88C93.3701 360.86 93.3501 360.74 93.3401 360.64C93.2801 360.14 93.3401 359.77 93.2801 359.19C93.2801 358.92 93.2801 358.55 93.2801 358.28C93.2801 358.01 93.1401 357.77 93.1301 357.5Z" fill="#455A64"/>
<path d="M91.1002 374.88C91.1002 375.49 90.9702 379.5 92.1002 380.1C93.2302 380.7 93.6702 377.58 93.6702 377.58C93.6702 377.58 96.3202 376.47 100.48 377.81C100.34 378.47 101.16 380.53 102.21 379.97C103.26 379.41 103.21 374.84 103.21 374.78C103.78 378.78 103.96 381.88 102.21 384.92C100.04 388.76 94.6502 386.82 92.9502 384.46C91.2502 382.1 90.8402 380.28 90.9502 376.08C91.0002 375.66 91.0702 375.27 91.1002 374.88Z" fill="#37474F"/>
<path d="M94.0002 377.811C94.1302 379.311 92.6102 378.961 92.3302 376.811C92.0502 374.661 92.7102 369.571 92.3302 365.931C92.4102 361.761 92.2502 357.611 93.1002 357.461C93.0953 357.511 93.0953 357.561 93.1002 357.611L93.2002 359.721C93.1805 360.021 93.1805 360.321 93.2002 360.621C93.4802 363.681 93.6502 369.621 93.6602 372.441C93.6778 374.236 93.7913 376.028 94.0002 377.811Z" fill="#122023"/>
<path d="M100 377.81C100.196 376.04 100.293 374.261 100.29 372.48C100.29 369.68 100.47 363.81 100.75 360.73C100.858 360.16 100.902 359.58 100.88 359C100.88 358.58 100.88 358 100.88 357.6C100.88 357.6 100.88 357.54 100.88 357.5C101.44 357.71 101.64 359.36 101.76 361.44C101.76 362.65 101.76 364.15 101.65 365.97C101.27 369.61 101.93 374.77 101.65 376.88C101.37 378.99 99.9 379.31 100 377.81Z" fill="#122023"/>
<path d="M100.59 377.921H100.48C98.3195 377.175 95.9711 377.175 93.8103 377.921C93.7709 377.936 93.7289 377.943 93.6868 377.942C93.6446 377.941 93.603 377.931 93.5645 377.914C93.526 377.897 93.4912 377.872 93.4622 377.842C93.4331 377.811 93.4104 377.775 93.3953 377.736C93.3802 377.696 93.373 377.654 93.3741 377.612C93.3753 377.57 93.3847 377.528 93.4019 377.49C93.419 377.451 93.4436 377.416 93.4743 377.387C93.5049 377.358 93.5409 377.336 93.5803 377.321C95.8857 376.497 98.4049 376.497 100.71 377.321C100.75 377.335 100.786 377.357 100.816 377.386C100.847 377.414 100.871 377.449 100.888 377.487C100.905 377.525 100.914 377.567 100.914 377.609C100.914 377.65 100.906 377.692 100.89 377.731C100.866 377.789 100.824 377.839 100.77 377.873C100.717 377.907 100.654 377.923 100.59 377.921Z" fill="#F5F5F5"/>
<path d="M101 374.601C100.964 374.61 100.926 374.61 100.89 374.601C98.4604 373.846 95.8594 373.846 93.4299 374.601C93.3899 374.615 93.3474 374.621 93.305 374.618C93.2627 374.616 93.2212 374.605 93.183 374.587C93.1449 374.568 93.1108 374.542 93.0828 374.51C93.0548 374.478 93.0334 374.441 93.0199 374.401C93.0059 374.361 93 374.32 93.0025 374.278C93.0051 374.236 93.016 374.195 93.0347 374.158C93.0534 374.121 93.0794 374.088 93.1112 374.061C93.1431 374.033 93.18 374.013 93.2199 374.001C95.7864 373.183 98.5434 373.183 101.11 374.001C101.18 374.027 101.239 374.077 101.276 374.142C101.314 374.207 101.327 374.283 101.314 374.357C101.301 374.43 101.262 374.497 101.205 374.546C101.147 374.594 101.075 374.62 101 374.621V374.601Z" fill="#F5F5F5"/>
<path d="M93.3 371.461C93.2388 371.459 93.1793 371.441 93.1281 371.407C93.0768 371.374 93.036 371.326 93.01 371.271C92.9761 371.194 92.9739 371.107 93.0039 371.028C93.0338 370.95 93.0935 370.886 93.17 370.851C95.6961 369.858 98.5015 369.84 101.04 370.801C101.079 370.815 101.115 370.837 101.146 370.866C101.176 370.895 101.201 370.929 101.218 370.968C101.234 371.006 101.243 371.047 101.244 371.089C101.244 371.131 101.236 371.172 101.22 371.211C101.189 371.289 101.128 371.351 101.052 371.385C100.975 371.418 100.888 371.421 100.81 371.391C100.81 371.391 96.89 369.851 93.44 371.391C93.3992 371.425 93.3514 371.448 93.3 371.461Z" fill="#F5F5F5"/>
<path d="M93.23 368.52C93.1696 368.52 93.1103 368.504 93.059 368.472C93.0077 368.44 92.9664 368.394 92.94 368.34C92.9054 368.264 92.9018 368.178 92.9298 368.1C92.9578 368.021 93.0153 367.957 93.09 367.92C94.3436 367.349 95.7028 367.045 97.0805 367.03C98.4581 367.014 99.8238 367.287 101.09 367.83C101.128 367.847 101.162 367.872 101.19 367.902C101.218 367.933 101.24 367.969 101.254 368.008C101.268 368.047 101.274 368.089 101.272 368.131C101.269 368.172 101.258 368.213 101.24 368.25C101.223 368.288 101.198 368.322 101.168 368.35C101.137 368.378 101.101 368.4 101.062 368.414C101.023 368.428 100.981 368.434 100.939 368.432C100.898 368.429 100.857 368.418 100.82 368.4C99.632 367.908 98.3565 367.662 97.0708 367.678C95.785 367.693 94.5158 367.97 93.34 368.49C93.3052 368.506 93.2681 368.516 93.23 368.52Z" fill="#F5F5F5"/>
<path d="M93.1603 365.23C93.087 365.231 93.0156 365.207 92.958 365.162C92.9003 365.117 92.8599 365.053 92.8436 364.982C92.8272 364.91 92.8358 364.836 92.8679 364.77C92.9001 364.704 92.9539 364.651 93.0202 364.62C96.8302 362.74 100.94 364.54 101.11 364.62C101.15 364.635 101.186 364.658 101.216 364.688C101.246 364.718 101.27 364.754 101.285 364.794C101.3 364.834 101.307 364.876 101.304 364.919C101.301 364.961 101.29 365.003 101.27 365.04C101.235 365.117 101.172 365.176 101.093 365.206C101.014 365.236 100.927 365.234 100.85 365.2C100.85 365.2 96.8502 363.45 93.3102 365.2C93.264 365.224 93.2121 365.234 93.1603 365.23Z" fill="#F5F5F5"/>
<path d="M95.9103 236C90.8303 250.07 91.7203 258.9 92.5903 273.65C93.3903 287.17 94.6603 299.08 94.6603 299.08C94.4603 301.48 91.1203 306.16 90.6603 316.76C90.5129 324.224 90.8469 331.689 91.6603 339.11C91.6603 339.11 98.3103 341.54 103.93 339.11C103.93 339.11 109.68 313.72 111.25 301.31C112.61 290.48 114.99 276.64 114.99 276.64L119.99 301.26C119.013 304.569 118.511 308 118.5 311.45C118.5 317.24 121.19 333.34 121.19 333.34C121.19 333.34 128.64 335.75 133.36 331.56C133.36 331.56 135.23 308.39 135.89 299.56C136.77 287.78 135.49 255.49 132.66 238.96L95.9103 236Z" fill="#455A64"/>
<path d="M115.05 276.6L117.13 258.08C117.13 258.08 126.44 256.84 130.66 252.87C129.45 254.764 127.836 256.366 125.935 257.564C124.033 258.762 121.891 259.526 119.66 259.8L116.66 277.04L120.06 301.22L115.05 276.6Z" fill="#37474F"/>
<path d="M138.07 222.27C133.54 217.61 125.36 207.07 125.36 207.07L120.74 191.07C121.773 191.124 122.808 191.124 123.84 191.07C128.84 191.4 130.31 191.83 133.42 195.23C135.89 197.94 145.31 210.8 148.58 215.13L157.27 204.06C159.36 200.91 159.02 197.38 160.1 194.81C161.18 192.24 162.93 191.11 164.33 188.81C165.73 186.51 166.06 184.97 167.21 186.16C168.36 187.35 167.03 190.55 166.86 191.28C166.69 192.01 164.93 194.18 167.86 193.05C170.79 191.92 175.31 186.57 176.47 185.48C177.63 184.39 178.25 186.08 177.99 187.42C177.73 188.76 178.99 191.78 178.53 193.99C178.244 196.213 177.139 198.249 175.43 199.7C173.32 201.82 168.16 204.43 166.14 207.22C164.12 210.01 159.81 218.68 157.14 223.9C153.79 230.54 150.94 232.73 147.14 230.49C143.34 228.25 139.74 224 138.07 222.27Z" fill="#FFBDA7"/>
<path d="M122.21 190.9C124.767 190.645 127.348 190.987 129.75 191.9C132.46 193.12 134.3 195.74 136.95 199.29C139.6 202.84 144.33 209.051 144.33 209.051C144.33 209.051 143.05 214.441 134.61 219.281L120.83 205.09L122.21 190.9Z" fill="#37474F"/>
<path d="M148.58 215.121C146.932 216.676 145.827 218.72 145.43 220.951C145.43 220.951 144.43 217.741 147.84 214.131L148.58 215.121Z" fill="#F0997A"/>
<path d="M132.19 219.311C138.34 214.251 136.31 207.661 134.07 203.221C129.58 194.351 124.91 190.861 122.96 190.891L110.73 191.011C104.89 191.811 100.37 191.411 98.9601 191.741C95.3601 192.591 95.2801 195.551 95.1401 199.381C94.9901 203.581 92.8401 202.871 93.9301 209.811C95.2156 212.39 96.3444 215.045 97.3101 217.761C97.9701 220.161 99.8301 223.981 98.8401 227.861C98.4601 229.361 97.4401 230.861 95.9101 234.971C94.1753 239.591 92.886 244.366 92.0601 249.231C92.0601 249.231 95.6301 248.401 99.6901 244.081C99.6901 244.081 105.24 251.511 118.59 250.761C132.44 249.981 133.66 242.761 133.66 242.761L131.54 229.761C131.86 224.511 132 222.611 132.19 219.311Z" fill="#B0FF1A"/>
<path opacity="0.1" d="M124.2 218C124.2 218 119.2 222 113.33 220.08C111.695 219.59 110.213 218.689 109.024 217.464C107.836 216.239 106.981 214.729 106.54 213.08C106.54 213.08 106.04 219.73 113.42 221.87C115.394 222.469 117.509 222.416 119.451 221.719C121.392 221.022 123.058 219.718 124.2 218Z" fill="black"/>
<path d="M89.1902 185.18C87.3802 183.86 77.6302 196.91 82.1902 200.18C86.7502 203.45 91.6102 194.18 90.6302 189.8C89.6502 185.42 89.1902 185.18 89.1902 185.18Z" fill="#37474F"/>
<path d="M80.3401 178.7C82.7801 175.32 84.4401 172.77 86.6701 169.87C87.9301 168.22 88.7401 167.05 89.9501 165.36C90.7901 164.2 91.2801 163.22 92.2201 162.85C93.2695 162.389 94.2073 161.707 94.9701 160.85C95.4371 160.309 95.8681 159.738 96.2601 159.14C97.6696 157.189 99.3537 155.451 101.26 153.98C103.26 152.43 105.45 151.23 107.49 149.75C108.7 148.87 110 147.42 108.49 146.11C108.021 145.732 107.464 145.477 106.87 145.37C103.23 144.64 100.08 145.95 96.5401 146.92C95.0008 147.34 93.4963 147.878 92.0401 148.53C91.3172 148.824 90.6429 149.225 90.0401 149.72C89.2027 150.596 88.5257 151.611 88.0401 152.72C86.4901 155.57 83.2201 158.11 80.9301 160.34C78.2401 162.96 75.8401 165.34 72.7701 168.25C70.0101 170.85 67.3001 173.25 64.7701 176.09C62.6801 178.43 63.4901 180.23 63.7701 180.84C65.5701 184.38 67.5301 185.63 69.8901 187.84C70.6701 188.56 71.4601 189.27 72.2501 189.98C75.3101 192.74 78.3701 195.32 81.5501 197.98C84.9501 200.78 86.3501 202.14 89.3801 204.86C91.2921 206.617 92.8857 208.691 94.0901 210.99C99.3401 211.86 104.5 203.83 100 194.44C99.2599 192.922 98.1405 191.62 96.7501 190.66C91.2101 186.71 80.3401 178.7 80.3401 178.7Z" fill="#FFBDA7"/>
<path d="M80.34 178.7C78.7022 180.78 76.5016 182.345 74 183.21C74 183.21 77.35 184.01 81.85 179.82L80.34 178.7Z" fill="#F0997A"/>
<path d="M99.38 191.661C98.15 190.811 95.16 189.001 89.19 185.181C89.19 185.181 90.11 187.111 88.66 191.961C87.21 196.811 84.15 199.881 82.23 200.231C82.23 200.231 85.57 202.871 88.65 205.851C91.73 208.831 94.26 210.941 96.04 214.401C96.04 214.401 100.44 213.271 101.44 205.811C102.14 200.581 101.72 194.441 99.38 191.661Z" fill="#455A64"/>
<path d="M132.78 167.641C133.659 165.783 134.047 163.73 133.905 161.68C133.763 159.629 133.097 157.65 131.97 155.931C128.18 150.541 121.79 147.931 114.73 148.011H112.54C103.01 148.171 94.3502 156.351 94.1802 165.561C94.1802 172.041 94.1802 178.031 97.7502 182.451C101.04 186.561 106.17 187.911 110.5 188.571C118.78 189.831 128.08 188.871 131.84 183.231C131.84 183.231 126.84 184.231 127.47 179.051C127.56 178.231 126.78 177.331 125.41 176.401C126.37 174.738 127.499 173.18 128.78 171.751C130.19 170.341 131.82 169.551 132.78 167.641Z" fill="#122023"/>
<path d="M130.31 172.371C130.26 182.021 127.17 184.451 125.62 185.171C124.07 185.891 121.03 185.511 118.08 185.081L118.18 190.871C118.18 190.871 121.63 194.361 121.43 197.021C121.23 199.681 116.15 200.021 112.3 197.531C110.179 196.126 108.256 194.445 106.58 192.531C106.26 192.161 106.08 191.69 106.07 191.201L105.83 177.591C105.83 177.591 104.25 179.321 101.37 177.421C100.748 177.041 100.212 176.535 99.7954 175.936C99.379 175.338 99.0916 174.659 98.9515 173.944C98.8114 173.228 98.8216 172.491 98.9815 171.78C99.1414 171.068 99.4474 170.398 99.8802 169.811C100.287 169.415 100.776 169.114 101.312 168.928C101.848 168.741 102.418 168.675 102.983 168.733C103.547 168.791 104.092 168.973 104.579 169.264C105.066 169.556 105.483 169.951 105.8 170.421C106.68 172.061 106.6 173.221 107.8 173.031C109 172.841 109.05 171.541 109.13 170.611C109.21 169.681 109.13 169.381 109.25 168.161C112.1 167.551 115.05 163.581 115.38 160.681C117.311 161.63 119.439 162.11 121.59 162.081C124.78 161.861 126.43 161.221 128 158.921C128.374 159.447 128.674 160.023 128.89 160.631C129.334 161.862 129.669 163.131 129.89 164.421C130.246 167.055 130.387 169.714 130.31 172.371Z" fill="#FFBDA7"/>
<path d="M118.08 185.08C114.97 184.72 108.56 183 107.52 180.5C107.94 181.769 108.74 182.879 109.81 183.68C111.75 185.28 118.11 187.01 118.11 187.01L118.08 185.08Z" fill="#F0997A"/>
<path d="M121.21 179.881C121.216 180.132 121.147 180.38 121.012 180.592C120.877 180.804 120.682 180.972 120.452 181.073C120.221 181.174 119.966 181.205 119.718 181.161C119.471 181.117 119.242 181.001 119.06 180.826C118.879 180.652 118.753 180.428 118.7 180.182C118.646 179.936 118.666 179.68 118.759 179.446C118.851 179.212 119.01 179.01 119.217 178.867C119.424 178.723 119.669 178.645 119.92 178.641C120.255 178.635 120.579 178.763 120.821 178.995C121.062 179.227 121.202 179.546 121.21 179.881Z" fill="#B16668"/>
<path d="M119.58 170.381C119.597 170.558 119.578 170.737 119.525 170.907C119.472 171.077 119.386 171.235 119.271 171.372C119.157 171.509 119.017 171.621 118.859 171.703C118.701 171.786 118.528 171.836 118.35 171.851C118.077 171.88 117.801 171.827 117.558 171.698C117.315 171.569 117.116 171.371 116.986 171.128C116.857 170.886 116.803 170.61 116.831 170.336C116.859 170.063 116.969 169.804 117.145 169.593C117.322 169.382 117.557 169.229 117.822 169.153C118.086 169.076 118.367 169.081 118.629 169.166C118.89 169.25 119.121 169.411 119.29 169.628C119.46 169.844 119.561 170.107 119.58 170.381Z" fill="#122023"/>
<path d="M128.6 169.811C128.625 170.137 128.52 170.459 128.309 170.708C128.097 170.957 127.796 171.113 127.47 171.141C127.306 171.161 127.14 171.146 126.982 171.096C126.825 171.046 126.68 170.962 126.557 170.851C126.435 170.74 126.338 170.604 126.273 170.452C126.208 170.3 126.176 170.136 126.18 169.971C126.164 169.809 126.18 169.645 126.227 169.49C126.275 169.334 126.353 169.19 126.458 169.065C126.562 168.94 126.69 168.837 126.835 168.763C126.98 168.688 127.138 168.643 127.3 168.631C127.628 168.617 127.949 168.733 128.192 168.954C128.435 169.175 128.582 169.483 128.6 169.811Z" fill="#122023"/>
<path d="M122.37 168.561L123.33 176.621L127.46 174.901L122.37 168.561Z" fill="#F0997A"/>
<path d="M114.76 166.9L117.16 164.62C117.459 164.953 117.619 165.387 117.606 165.834C117.593 166.281 117.408 166.706 117.09 167.02C116.932 167.17 116.745 167.287 116.54 167.362C116.335 167.438 116.117 167.471 115.9 167.46C115.682 167.449 115.468 167.393 115.272 167.297C115.077 167.201 114.902 167.066 114.76 166.9Z" fill="#122023"/>
<path d="M126.77 163.881L129.43 165.881C129.308 166.061 129.15 166.215 128.966 166.332C128.782 166.45 128.576 166.528 128.36 166.563C128.145 166.597 127.924 166.587 127.713 166.534C127.501 166.48 127.303 166.384 127.13 166.251C126.782 165.974 126.551 165.576 126.484 165.137C126.418 164.697 126.52 164.248 126.77 163.881Z" fill="#122023"/>
<path d="M88.4302 90.6303C90.3477 90.2647 92.3078 90.1771 94.2502 90.3703C96.1065 90.5331 97.9185 91.0276 99.6002 91.8303C101.214 92.6005 102.64 93.713 103.78 95.0903C104.982 96.5644 105.782 98.325 106.1 100.2C106.4 101.672 106.4 103.189 106.1 104.66C105.831 105.941 105.373 107.175 104.74 108.32C104.126 109.435 103.413 110.493 102.61 111.48C101.81 112.48 101.05 113.4 100.34 114.29C99.6611 115.128 99.0587 116.025 98.5402 116.97C98.0636 117.81 97.8315 118.766 97.8702 119.73C97.8761 120.179 97.7621 120.621 97.5402 121.01C97.4355 121.195 97.2917 121.354 97.119 121.476C96.9462 121.599 96.7486 121.682 96.5402 121.72L91.8302 122.61C91.6065 122.655 91.3761 122.654 91.1527 122.607C90.9294 122.561 90.7177 122.47 90.5302 122.34C90.3351 122.229 90.1702 122.071 90.05 121.881C89.9297 121.691 89.8577 121.474 89.8402 121.25C89.6106 119.771 89.6854 118.26 90.0602 116.81C90.4157 115.519 90.9367 114.278 91.6102 113.12C92.2613 112.017 93.0075 110.973 93.8402 110C94.6702 109 95.4202 108.1 96.1102 107.22C96.7445 106.43 97.2942 105.575 97.7502 104.67C98.1424 103.885 98.2654 102.992 98.1002 102.13C97.9674 101.37 97.6511 100.654 97.1789 100.045C96.7066 99.4346 96.0926 98.9492 95.3902 98.6303C93.6478 97.8385 91.6908 97.6519 89.8302 98.1003C86.3235 98.767 84.0735 101.014 83.0802 104.84C82.9928 105.244 82.8372 105.629 82.6202 105.98C82.3429 106.301 81.9522 106.502 81.5302 106.54L76.5302 107.49C76.1848 107.552 75.8289 107.484 75.5302 107.3C75.3731 107.197 75.2395 107.061 75.1379 106.903C75.0363 106.744 74.969 106.566 74.9402 106.38C74.7242 104.803 74.8958 103.197 75.4402 101.7C76.0063 99.9721 76.873 98.3574 78.0002 96.9303C79.2641 95.3678 80.7698 94.0174 82.4602 92.9303C84.282 91.7833 86.3097 91.0021 88.4302 90.6303ZM97.5602 125.38C98.0048 125.303 98.462 125.402 98.8351 125.656C99.2083 125.91 99.4682 126.299 99.5602 126.74L100.56 132.2C100.606 132.419 100.605 132.645 100.559 132.864C100.512 133.082 100.421 133.289 100.29 133.47C100.167 133.656 100.008 133.816 99.823 133.94C99.6375 134.063 99.4292 134.148 99.2102 134.19L93.8802 135.19C93.6598 135.236 93.4322 135.236 93.2119 135.189C92.9916 135.143 92.7833 135.051 92.6002 134.92C92.4142 134.797 92.2546 134.639 92.131 134.453C92.0073 134.268 91.922 134.059 91.8802 133.84L90.8802 128.38C90.8384 128.161 90.8417 127.935 90.8898 127.717C90.9379 127.498 91.0299 127.292 91.1602 127.11C91.2799 126.922 91.4379 126.76 91.6239 126.636C91.8099 126.512 92.0199 126.428 92.2402 126.39L97.5602 125.38Z" fill="#B0FF1A"/>
<path d="M139.25 113.16C140.429 113.814 141.507 114.636 142.45 115.6C143.366 116.504 144.109 117.568 144.64 118.74C145.15 119.861 145.412 121.079 145.41 122.31C145.409 123.623 145.064 124.912 144.41 126.05C143.92 126.962 143.258 127.771 142.46 128.43C141.745 128.985 140.954 129.433 140.11 129.76C139.29 130.081 138.443 130.328 137.58 130.5L135.14 130.98C134.408 131.121 133.691 131.332 133 131.61C132.378 131.841 131.833 132.243 131.43 132.77C131.233 133.012 130.974 133.196 130.68 133.3C130.542 133.352 130.394 133.373 130.247 133.36C130.1 133.348 129.958 133.304 129.83 133.23L126.94 131.61C126.659 131.457 126.45 131.198 126.36 130.89C126.311 130.744 126.296 130.589 126.317 130.436C126.338 130.284 126.394 130.138 126.48 130.01C127.012 129.126 127.72 128.36 128.56 127.76C129.321 127.229 130.148 126.798 131.02 126.48C131.856 126.183 132.716 125.955 133.59 125.8C134.46 125.65 135.27 125.5 136.03 125.34C136.716 125.197 137.386 124.986 138.03 124.71C138.586 124.465 139.049 124.048 139.35 123.52C139.613 123.056 139.759 122.535 139.776 122.003C139.794 121.47 139.682 120.94 139.45 120.46C138.879 119.269 137.925 118.305 136.74 117.72C135.72 117.131 134.542 116.87 133.368 116.974C132.194 117.077 131.081 117.541 130.18 118.3C129.957 118.481 129.703 118.62 129.43 118.71C129.144 118.758 128.85 118.693 128.61 118.53L125.53 116.81C125.312 116.688 125.148 116.488 125.07 116.25C125.031 116.126 125.019 115.995 125.034 115.866C125.05 115.736 125.093 115.612 125.16 115.5C125.744 114.571 126.543 113.795 127.49 113.24C128.568 112.59 129.753 112.136 130.99 111.9C132.344 111.635 133.732 111.591 135.1 111.77C136.56 111.962 137.969 112.434 139.25 113.16ZM128.71 135.61C128.846 135.686 128.965 135.787 129.061 135.909C129.157 136.031 129.228 136.171 129.27 136.32C129.314 136.468 129.328 136.623 129.311 136.776C129.294 136.928 129.246 137.076 129.17 137.21L127.3 140.56C127.148 140.833 126.895 141.034 126.595 141.121C126.295 141.207 125.973 141.171 125.7 141.02L122.43 139.19C122.292 139.119 122.172 139.018 122.077 138.896C121.982 138.773 121.915 138.631 121.88 138.48C121.832 138.334 121.816 138.179 121.831 138.026C121.847 137.873 121.894 137.724 121.97 137.59L123.84 134.24C123.916 134.106 124.018 133.988 124.14 133.894C124.261 133.799 124.401 133.73 124.55 133.69C124.697 133.644 124.852 133.628 125.006 133.646C125.159 133.663 125.307 133.712 125.44 133.79L128.71 135.61Z" fill="#B0FF1A"/>
<g opacity="0.2">
<path d="M139.25 113.16C140.429 113.814 141.507 114.636 142.45 115.6C143.366 116.504 144.109 117.568 144.64 118.74C145.15 119.861 145.412 121.079 145.41 122.31C145.409 123.623 145.064 124.912 144.41 126.05C143.92 126.962 143.258 127.771 142.46 128.43C141.745 128.985 140.954 129.433 140.11 129.76C139.29 130.081 138.443 130.328 137.58 130.5L135.14 130.98C134.408 131.121 133.691 131.332 133 131.61C132.378 131.841 131.833 132.243 131.43 132.77C131.233 133.012 130.974 133.196 130.68 133.3C130.542 133.352 130.394 133.373 130.247 133.36C130.1 133.348 129.958 133.304 129.83 133.23L126.94 131.61C126.659 131.457 126.45 131.198 126.36 130.89C126.311 130.744 126.296 130.589 126.317 130.436C126.338 130.284 126.394 130.138 126.48 130.01C127.012 129.126 127.72 128.36 128.56 127.76C129.321 127.229 130.148 126.798 131.02 126.48C131.856 126.183 132.716 125.955 133.59 125.8C134.46 125.65 135.27 125.5 136.03 125.34C136.716 125.197 137.386 124.986 138.03 124.71C138.586 124.465 139.049 124.048 139.35 123.52C139.613 123.056 139.759 122.535 139.776 122.003C139.794 121.47 139.682 120.94 139.45 120.46C138.879 119.269 137.925 118.305 136.74 117.72C135.72 117.131 134.542 116.87 133.368 116.974C132.194 117.077 131.081 117.541 130.18 118.3C129.957 118.481 129.703 118.62 129.43 118.71C129.144 118.758 128.85 118.693 128.61 118.53L125.53 116.81C125.312 116.688 125.148 116.488 125.07 116.25C125.031 116.126 125.019 115.995 125.034 115.866C125.05 115.736 125.093 115.612 125.16 115.5C125.744 114.571 126.543 113.795 127.49 113.24C128.568 112.59 129.753 112.136 130.99 111.9C132.344 111.635 133.732 111.591 135.1 111.77C136.56 111.962 137.969 112.434 139.25 113.16ZM128.71 135.61C128.846 135.686 128.965 135.787 129.061 135.909C129.157 136.031 129.228 136.171 129.27 136.32C129.314 136.468 129.328 136.623 129.311 136.776C129.294 136.928 129.246 137.076 129.17 137.21L127.3 140.56C127.148 140.833 126.895 141.034 126.595 141.121C126.295 141.207 125.973 141.171 125.7 141.02L122.43 139.19C122.292 139.119 122.172 139.018 122.077 138.896C121.982 138.773 121.915 138.631 121.88 138.48C121.832 138.334 121.816 138.179 121.831 138.026C121.847 137.873 121.894 137.724 121.97 137.59L123.84 134.24C123.916 134.106 124.018 133.988 124.14 133.894C124.261 133.799 124.401 133.73 124.55 133.69C124.697 133.644 124.852 133.628 125.006 133.646C125.159 133.663 125.307 133.712 125.44 133.79L128.71 135.61Z" fill="black"/>
</g>
<path d="M68.8101 149.88C68.9433 149.754 69.1005 149.656 69.2723 149.593C69.4442 149.529 69.6271 149.501 69.8101 149.51C69.9978 149.513 70.183 149.553 70.3548 149.628C70.5266 149.704 70.6814 149.813 70.8101 149.95L73.8901 153.29C74.0168 153.426 74.1153 153.586 74.1799 153.761C74.2446 153.935 74.274 154.121 74.2666 154.307C74.2591 154.493 74.215 154.675 74.1366 154.844C74.0583 155.013 73.9473 155.164 73.8101 155.29L70.5501 158.29C70.4139 158.417 70.2539 158.515 70.0794 158.58C69.9049 158.644 69.7194 158.674 69.5335 158.666C69.3475 158.659 69.1649 158.615 68.9962 158.536C68.8274 158.458 68.6758 158.347 68.5501 158.21L65.4701 154.87C65.3421 154.734 65.2426 154.575 65.1772 154.4C65.1118 154.225 65.082 154.039 65.0894 153.853C65.0969 153.667 65.1415 153.484 65.2206 153.315C65.2997 153.146 65.4117 152.995 65.5501 152.87L68.8101 149.88ZM47.4101 129.73C48.5795 128.637 49.8996 127.718 51.3301 127C52.6885 126.313 54.158 125.873 55.6701 125.7C57.1217 125.54 58.5908 125.69 59.9801 126.14C61.4562 126.644 62.776 127.522 63.8101 128.69C64.6754 129.569 65.3555 130.613 65.8101 131.76C66.1769 132.766 66.3925 133.821 66.4501 134.89C66.5072 135.931 66.4737 136.975 66.3501 138.01C66.2201 139.01 66.1001 140.01 65.9901 140.94C65.8816 141.816 65.8515 142.699 65.9001 143.58C65.9334 144.372 66.1899 145.138 66.6401 145.79C66.8339 146.089 66.9444 146.434 66.9601 146.79C66.9688 146.965 66.9373 147.14 66.868 147.301C66.7986 147.463 66.6933 147.606 66.5601 147.72L63.6801 150.39C63.4069 150.638 63.0487 150.77 62.6801 150.76C62.4973 150.767 62.3155 150.729 62.1501 150.651C61.9848 150.573 61.8407 150.456 61.7301 150.31C60.93 149.38 60.3247 148.298 59.9501 147.13C59.6369 146.081 59.4621 144.995 59.4301 143.9C59.3989 142.843 59.4591 141.786 59.6101 140.74C59.7601 139.74 59.8801 138.74 59.9801 137.84C60.0697 137.012 60.0697 136.178 59.9801 135.35C59.9149 134.637 59.6161 133.966 59.1301 133.44C58.7073 132.971 58.1768 132.613 57.5845 132.395C56.9922 132.177 56.3557 132.107 55.7301 132.19C54.1871 132.39 52.753 133.093 51.6501 134.19C49.5034 136.19 48.9134 138.727 49.8801 141.8C49.9987 142.12 50.0596 142.459 50.0601 142.8C50.0354 142.968 49.9775 143.13 49.89 143.276C49.8025 143.422 49.687 143.549 49.5501 143.65L46.4801 146.49C46.2656 146.697 45.9784 146.812 45.6801 146.81C45.5274 146.807 45.3769 146.772 45.239 146.707C45.101 146.641 44.9786 146.547 44.8801 146.43C44.03 145.446 43.4358 144.268 43.1501 143C42.8108 141.549 42.7329 140.049 42.9201 138.57C43.1255 136.949 43.5915 135.372 44.3001 133.9C45.0549 132.32 46.1114 130.904 47.4101 129.73Z" fill="#B0FF1A"/>
<g opacity="0.6">
<path d="M68.8101 149.88C68.9433 149.754 69.1005 149.656 69.2723 149.593C69.4442 149.529 69.6271 149.501 69.8101 149.51C69.9978 149.513 70.183 149.553 70.3548 149.628C70.5266 149.704 70.6814 149.813 70.8101 149.95L73.8901 153.29C74.0168 153.426 74.1153 153.586 74.1799 153.761C74.2446 153.935 74.274 154.121 74.2666 154.307C74.2591 154.493 74.215 154.675 74.1366 154.844C74.0583 155.013 73.9473 155.164 73.8101 155.29L70.5501 158.29C70.4139 158.417 70.2539 158.515 70.0794 158.58C69.9049 158.644 69.7194 158.674 69.5335 158.666C69.3475 158.659 69.1649 158.615 68.9962 158.536C68.8274 158.458 68.6758 158.347 68.5501 158.21L65.4701 154.87C65.3421 154.734 65.2426 154.575 65.1772 154.4C65.1118 154.225 65.082 154.039 65.0894 153.853C65.0969 153.667 65.1415 153.484 65.2206 153.315C65.2997 153.146 65.4117 152.995 65.5501 152.87L68.8101 149.88ZM47.4101 129.73C48.5795 128.637 49.8996 127.718 51.3301 127C52.6885 126.313 54.158 125.873 55.6701 125.7C57.1217 125.54 58.5908 125.69 59.9801 126.14C61.4562 126.644 62.776 127.522 63.8101 128.69C64.6754 129.569 65.3555 130.613 65.8101 131.76C66.1769 132.766 66.3925 133.821 66.4501 134.89C66.5072 135.931 66.4737 136.975 66.3501 138.01C66.2201 139.01 66.1001 140.01 65.9901 140.94C65.8816 141.816 65.8515 142.699 65.9001 143.58C65.9334 144.372 66.1899 145.138 66.6401 145.79C66.8339 146.089 66.9444 146.434 66.9601 146.79C66.9688 146.965 66.9373 147.14 66.868 147.301C66.7986 147.463 66.6933 147.606 66.5601 147.72L63.6801 150.39C63.4069 150.638 63.0487 150.77 62.6801 150.76C62.4973 150.767 62.3155 150.729 62.1501 150.651C61.9848 150.573 61.8407 150.456 61.7301 150.31C60.93 149.38 60.3247 148.298 59.9501 147.13C59.6369 146.081 59.4621 144.995 59.4301 143.9C59.3989 142.843 59.4591 141.786 59.6101 140.74C59.7601 139.74 59.8801 138.74 59.9801 137.84C60.0697 137.012 60.0697 136.178 59.9801 135.35C59.9149 134.637 59.6161 133.966 59.1301 133.44C58.7073 132.971 58.1768 132.613 57.5845 132.395C56.9922 132.177 56.3557 132.107 55.7301 132.19C54.1871 132.39 52.753 133.093 51.6501 134.19C49.5034 136.19 48.9134 138.727 49.8801 141.8C49.9987 142.12 50.0596 142.459 50.0601 142.8C50.0354 142.968 49.9775 143.13 49.89 143.276C49.8025 143.422 49.687 143.549 49.5501 143.65L46.4801 146.49C46.2656 146.697 45.9784 146.812 45.6801 146.81C45.5274 146.807 45.3769 146.772 45.239 146.707C45.101 146.641 44.9786 146.547 44.8801 146.43C44.03 145.446 43.4358 144.268 43.1501 143C42.8108 141.549 42.7329 140.049 42.9201 138.57C43.1255 136.949 43.5915 135.372 44.3001 133.9C45.0549 132.32 46.1114 130.904 47.4101 129.73Z" fill="white"/>
</g>
<path d="M272.44 219.65C269.59 218.02 257.59 211.08 253.51 208.72C252.7 208.26 252.19 207.96 252.15 207.93C250.121 206.799 247.751 206.444 245.48 206.93C243.53 207.326 241.663 208.053 239.96 209.08C239.68 209.24 239.4 209.43 239.13 209.61C234.52 212.52 230.56 217.1 227.26 223.4C223.9 229.537 222.097 236.404 222.01 243.4C222.01 250.027 223.776 254.677 227.31 257.35C227.668 257.617 228.042 257.86 228.43 258.08C231.74 259.96 248.34 269.58 248.71 269.79H248.8C248.391 269.566 248 269.312 247.63 269.03C244.09 266.363 242.323 261.717 242.33 255.09C242.417 248.094 244.22 241.227 247.58 235.09C251.066 228.423 255.296 223.647 260.27 220.76C265.003 218.027 269.09 217.67 272.53 219.69L272.44 219.65Z" fill="#B0FF1A"/>
<path opacity="0.4" d="M272.53 219.71C269.09 217.71 265.003 218.064 260.27 220.77C255.65 223.437 251.667 227.77 248.32 233.77L228 222C231.14 216.39 234.85 212.26 239.12 209.57C239.39 209.4 239.67 209.2 239.95 209.04C241.652 208.012 243.52 207.288 245.47 206.9C247.741 206.408 250.113 206.764 252.14 207.9L253.5 208.69C257.58 211.04 269.58 217.98 272.43 219.61L272.53 219.71Z" fill="black"/>
<path opacity="0.3" d="M248.8 269.76H248.71C248.34 269.55 231.71 259.93 228.43 258.05C228.042 257.83 227.668 257.586 227.31 257.32C223.776 254.653 222.01 250.006 222.01 243.38C222.094 236.384 223.897 229.515 227.26 223.38C227.5 222.91 227.75 222.45 228.01 222.01L248.32 233.74C248.07 234.18 247.82 234.64 247.58 235.1C244.22 241.236 242.417 248.104 242.33 255.1C242.33 261.726 244.096 266.373 247.63 269.04C248.002 269.308 248.393 269.549 248.8 269.76Z" fill="black"/>
<path d="M263.58 48.0501C273.44 42.3501 281.833 39.9268 288.76 40.7801C291.579 41.1169 294.301 42.0218 296.76 43.4401C296.691 43.4038 296.624 43.3637 296.56 43.3201C294.18 41.9801 279.84 33.7101 276.56 31.7801C274.058 30.3177 271.279 29.3915 268.4 29.0601C261.467 28.2134 253.07 30.6334 243.21 36.3201C227.877 45.1668 215.543 58.1668 206.21 75.3201C196.877 92.4734 192.26 109.983 192.36 127.85L212.67 139.58C212.53 121.7 217.147 104.187 226.52 87.0401C235.893 69.8934 248.247 56.8968 263.58 48.0501Z" fill="#B0FF1A"/>
<path opacity="0.2" d="M296.6 43.3299C294.177 41.98 291.514 41.114 288.76 40.7799C281.84 39.9266 273.447 42.3499 263.58 48.0499C248.247 56.8899 235.913 69.8899 226.58 87.0499C226.19 87.7599 225.81 88.4799 225.44 89.1899L205.08 77.4399C205.45 76.7299 205.83 76.0099 206.22 75.2999C215.593 58.1599 227.927 45.1599 243.22 36.2999C253.093 30.6066 261.49 28.1866 268.41 29.0399C271.29 29.3746 274.069 30.3043 276.57 31.7699C279.88 33.7199 294.22 41.9999 296.6 43.3299Z" fill="black"/>
<path opacity="0.3" d="M225.39 89.1694C216.783 105.629 212.547 122.426 212.68 139.559L192.37 127.829C192.243 110.689 196.48 93.8928 205.08 77.4395L225.39 89.1694Z" fill="black"/>
<path d="M277.38 81.2901C273.693 79.3301 268.77 80.0967 262.61 83.5901C262.402 87.2551 261.647 90.8684 260.37 94.3101C258.83 98.4567 254.35 107.01 246.93 119.97C239.243 133.37 233.683 146.167 230.25 158.36C226.845 170.399 225.115 182.849 225.11 195.36L225.21 201.59L239.07 209.59L245.53 213.32L245.42 207.08V207C245.442 194.53 247.171 182.121 250.56 170.12C253.993 157.927 259.557 145.133 267.25 131.74C274.663 118.78 279.14 110.223 280.68 106.07C282.218 101.964 283.004 97.6146 283 93.2301C283 87.2634 281.127 83.2834 277.38 81.2901Z" fill="#B0FF1A"/>
<path opacity="0.3" d="M278.69 110.56C276.397 115.333 272.583 122.38 267.25 131.7C259.55 145.1 253.987 157.897 250.56 170.09C247.168 182.101 245.438 194.52 245.42 207V207.16L245.53 213.4L239.07 209.68L225.21 201.68L225.11 195.44C225.116 182.929 226.845 170.479 230.25 158.44C233.683 146.247 239.243 133.45 246.93 120.05C252.263 110.717 256.083 103.673 258.39 98.9199L278.69 110.56Z" fill="black"/>
<path opacity="0.4" d="M283 93.2301C283.002 97.6006 282.22 101.936 280.69 106.03C280.26 107.2 279.59 108.71 278.69 110.56L258.39 98.8401C259.277 96.9867 259.943 95.4767 260.39 94.3101C261.667 90.8684 262.422 87.2551 262.63 83.5901C268.79 80.0967 273.713 79.3301 277.4 81.2901C281.087 83.2501 282.953 87.2301 283 93.2301Z" fill="black"/>
<path d="M240.17 123.68L212.68 139.56C212.54 121.68 217.157 104.166 226.53 87.0197C235.903 69.873 248.237 56.873 263.53 48.0197C273.39 42.3197 281.783 39.8963 288.71 40.7497C295.637 41.603 301.18 45.3997 305.34 52.1397C309.507 58.8797 311.59 67.2863 311.59 77.3597C311.549 83.208 310.878 89.0349 309.59 94.7397C308.032 101.564 305.928 108.252 303.3 114.74C301.62 118.98 297.597 126.806 291.23 138.22C285.143 149.1 281.33 156.503 279.79 160.43C278.08 165.091 276.812 169.902 276 174.8C274.789 182.12 274.121 189.521 274 196.94L245.57 213.36L245.46 207.12C245.466 194.609 247.195 182.158 250.6 170.12C254.033 157.926 259.597 145.133 267.29 131.74C274.703 118.78 279.18 110.223 280.72 106.07C282.244 101.961 283.016 97.6118 283 93.2297C283 87.2297 281.13 83.2497 277.39 81.2897C273.65 79.3297 268.63 80.1497 262.33 83.7497C255.89 87.4697 250.607 93.0497 246.48 100.49C242.444 107.56 240.273 115.54 240.17 123.68Z" fill="#B0FF1A"/>
<path d="M260.22 220.83C265.32 217.877 269.673 217.694 273.28 220.28C276.887 222.867 278.69 227.47 278.69 234.09C278.581 241.124 276.744 248.024 273.34 254.18C269.78 260.947 265.477 265.787 260.43 268.7C255.383 271.614 251.097 271.734 247.57 269.06C244.037 266.394 242.27 261.744 242.27 255.11C242.357 248.115 244.16 241.247 247.52 235.11C251.02 228.457 255.253 223.697 260.22 220.83Z" fill="#B0FF1A"/>
</svg>
