<svg width="550" height="297" fill="none" xmlns="http://www.w3.org/2000/svg"><g clip-path="url(#a)"><path d="M264.048 296.909c-23.327 0-37.349-20.697-42.327-38.9l-.167-.639a6.846 6.846 0 0 1 2.38-7.401 6.862 6.862 0 0 1 5.191-1.35 6.853 6.853 0 0 1 5.685 5.303l.126.472c3.783 13.854 14.084 29.688 30.61 28.777a22.182 22.182 0 0 0 16.223-7.912c9.064-10.396 13.12-33 12.219-44.402a5.5 5.5 0 0 1 .185-2.18 5.496 5.496 0 0 1 2.721-3.313 5.473 5.473 0 0 1 4.274-.34 5.475 5.475 0 0 1 3.739 4.963c1.048 12.691-.335 39.969-12.816 54.274a35.747 35.747 0 0 1-25.769 12.575c-.765.052-1.53.073-2.274.073z" fill="#FDF8F1"/><mask id="b" style="mask-type:luminance" maskUnits="userSpaceOnUse" x="221" y="224" width="85" height="73"><path d="M264.048 296.909c-23.327 0-37.349-20.697-42.327-38.9l-.167-.639a6.847 6.847 0 0 1 2.38-7.401 6.845 6.845 0 0 1 5.191-1.35 6.836 6.836 0 0 1 4.574 2.802 6.844 6.844 0 0 1 1.111 2.501l.126.472c3.783 13.854 14.084 29.688 30.61 28.777a22.182 22.182 0 0 0 16.223-7.913c9.064-10.395 13.12-32.999 12.219-44.401a5.488 5.488 0 0 1 2.906-5.493 5.473 5.473 0 0 1 4.274-.34 5.475 5.475 0 0 1 3.739 4.963c1.048 12.691-.335 39.969-12.816 54.273a35.737 35.737 0 0 1-25.769 12.576c-.765.052-1.53.073-2.274.073z" fill="#fff"/></mask><g mask="url(#b)"><path d="M299.008 224.957a5.483 5.483 0 0 0-5.019 5.9c.44 5.565-.304 13.791-2.233 22.007a24.238 24.238 0 0 1 8.143 1.048 43.344 43.344 0 0 1-8.006 21.871c-10.176 14.137-25.434 18.653-37.307 16.956-5.313-.755-11.402-3.543-16.526-6.403a37.298 37.298 0 0 0 25.989 10.594c.744 0 1.509 0 2.274-.063a35.732 35.732 0 0 0 25.769-12.575c12.481-14.304 13.822-41.583 12.816-54.273a5.462 5.462 0 0 0-3.767-4.812 5.466 5.466 0 0 0-2.133-.25z" fill="#B8BCBD"/><path opacity=".5" d="M299.008 224.957a5.483 5.483 0 0 0-5.019 5.9c.44 5.565-.304 13.791-2.233 22.007a24.238 24.238 0 0 1 8.143 1.048 43.344 43.344 0 0 1-8.006 21.871c-10.176 14.137-25.434 18.653-37.307 16.956-5.313-.755-11.402-3.543-16.526-6.403a37.298 37.298 0 0 0 25.989 10.594c.744 0 1.509 0 2.274-.063a35.732 35.732 0 0 0 25.769-12.575c12.481-14.304 13.822-41.583 12.816-54.273a5.462 5.462 0 0 0-3.767-4.812 5.466 5.466 0 0 0-2.133-.25z" fill="#FDF8F1"/></g><path d="M264.048 296.909c-23.327 0-37.349-20.697-42.327-38.9l-.167-.639a6.846 6.846 0 0 1 2.38-7.401 6.862 6.862 0 0 1 5.191-1.35 6.853 6.853 0 0 1 5.685 5.303l.126.472c3.783 13.854 14.084 29.688 30.61 28.777a22.182 22.182 0 0 0 16.223-7.912c9.064-10.396 13.12-33 12.219-44.402a5.5 5.5 0 0 1 .185-2.18 5.496 5.496 0 0 1 2.721-3.313 5.473 5.473 0 0 1 4.274-.34 5.475 5.475 0 0 1 3.739 4.963c1.048 12.691-.335 39.969-12.816 54.274a35.747 35.747 0 0 1-25.769 12.575c-.765.052-1.53.073-2.274.073z" stroke="#122023" stroke-width="1.113" stroke-linecap="round" stroke-linejoin="round"/><path d="M264.048 296.909c-23.327 0-37.349-20.697-42.327-38.9l-.167-.639a6.846 6.846 0 0 1 2.38-7.401 6.862 6.862 0 0 1 5.191-1.35 6.853 6.853 0 0 1 5.685 5.303l.126.472c3.783 13.854 14.084 29.688 30.61 28.777a22.182 22.182 0 0 0 16.223-7.912c9.064-10.396 13.12-33 12.219-44.402a5.5 5.5 0 0 1 .185-2.18 5.496 5.496 0 0 1 2.721-3.313 5.473 5.473 0 0 1 4.274-.34 5.475 5.475 0 0 1 3.739 4.963c1.048 12.691-.335 39.969-12.816 54.274a35.747 35.747 0 0 1-25.769 12.575c-.765.052-1.53.073-2.274.073z" stroke="#000" stroke-opacity=".2" stroke-width="1.113" stroke-linecap="round" stroke-linejoin="round"/><path d="M250.592 282.73c.556-2.567-5.585 1.447-10.731 5.188a40.244 40.244 0 0 0 6.12 4.265c1.834-2.987 4.077-6.979 4.611-9.453z" fill="#B8BCBD"/><path d="M250.592 282.73c.556-2.567-5.585 1.447-10.731 5.188a40.244 40.244 0 0 0 6.12 4.265c1.834-2.987 4.077-6.979 4.611-9.453z" stroke="#122023" stroke-width="1.113" stroke-linecap="round" stroke-linejoin="round"/><path d="M250.592 282.73c.556-2.567-5.585 1.447-10.731 5.188a40.244 40.244 0 0 0 6.12 4.265c1.834-2.987 4.077-6.979 4.611-9.453z" stroke="#000" stroke-opacity=".2" stroke-width="1.113" stroke-linecap="round" stroke-linejoin="round"/><path d="M264.048 296.909c.744 0 1.509 0 2.274-.063a39.638 39.638 0 0 0 6.612-.932c-2.892-3.773-6.874-8.761-8.017-9.138-1.309-.441-3.835 5.983-5.239 9.882 1.45.169 2.909.253 4.37.251z" fill="#B8BCBD"/><path d="M264.048 296.909c.744 0 1.509 0 2.274-.063a39.638 39.638 0 0 0 6.612-.932c-2.892-3.773-6.874-8.761-8.017-9.138-1.309-.441-3.835 5.983-5.239 9.882 1.45.169 2.909.253 4.37.251z" stroke="#122023" stroke-width="1.113" stroke-linecap="round" stroke-linejoin="round"/><path d="M264.048 296.909c.744 0 1.509 0 2.274-.063a39.638 39.638 0 0 0 6.612-.932c-2.892-3.773-6.874-8.761-8.017-9.138-1.309-.441-3.835 5.983-5.239 9.882 1.45.169 2.909.253 4.37.251z" stroke="#000" stroke-opacity=".2" stroke-width="1.113" stroke-linecap="round" stroke-linejoin="round"/><path d="m234.936 254.394-.126-.471a6.849 6.849 0 0 0-5.685-5.304 6.863 6.863 0 0 0-5.191 1.35 6.87 6.87 0 0 0-1.791 2.07 6.84 6.84 0 0 0-.589 5.331l.167.64a67.169 67.169 0 0 0 7.965 18.098l12.481-5.942a52.215 52.215 0 0 1-7.231-15.772z" fill="#B8BCBD"/><path d="m234.936 254.394-.126-.471a6.849 6.849 0 0 0-5.685-5.304 6.863 6.863 0 0 0-5.191 1.35 6.87 6.87 0 0 0-1.791 2.07 6.84 6.84 0 0 0-.589 5.331l.167.64a67.169 67.169 0 0 0 7.965 18.098l12.481-5.942a52.215 52.215 0 0 1-7.231-15.772z" stroke="#122023" stroke-width="1.113" stroke-linecap="round" stroke-linejoin="round"/><path d="m234.936 254.394-.126-.471a6.849 6.849 0 0 0-5.685-5.304 6.863 6.863 0 0 0-5.191 1.35 6.87 6.87 0 0 0-1.791 2.07 6.84 6.84 0 0 0-.589 5.331l.167.64a67.169 67.169 0 0 0 7.965 18.098l12.481-5.942a52.215 52.215 0 0 1-7.231-15.772z" stroke="#000" stroke-opacity=".2" stroke-width="1.113" stroke-linecap="round" stroke-linejoin="round"/><path d="M292.091 284.261a35.33 35.33 0 0 0 2.662-3.5c-3.962-1.352-9.893-3.218-12.094-3.018-2.609.241.933 8.624 2.756 12.575a38.546 38.546 0 0 0 6.676-6.057z" fill="#B8BCBD"/><path d="M292.091 284.261a35.33 35.33 0 0 0 2.662-3.5c-3.962-1.352-9.893-3.218-12.094-3.018-2.609.241.933 8.624 2.756 12.575a38.546 38.546 0 0 0 6.676-6.057z" stroke="#122023" stroke-width="1.113" stroke-linecap="round" stroke-linejoin="round"/><path d="M292.091 284.261a35.33 35.33 0 0 0 2.662-3.5c-3.962-1.352-9.893-3.218-12.094-3.018-2.609.241.933 8.624 2.756 12.575a38.546 38.546 0 0 0 6.676-6.057z" stroke="#000" stroke-opacity=".2" stroke-width="1.113" stroke-linecap="round" stroke-linejoin="round"/><path d="M292.311 261.866c-.419.838 4.706 4.569 8.164 6.969a78.994 78.994 0 0 0 2.641-9.977c-4.192.839-10.396 2.19-10.805 3.008z" fill="#B8BCBD"/><path d="M292.311 261.866c-.419.838 4.706 4.569 8.164 6.969a78.994 78.994 0 0 0 2.641-9.977c-4.192.839-10.396 2.19-10.805 3.008z" stroke="#122023" stroke-width="1.113" stroke-linecap="round" stroke-linejoin="round"/><path d="M292.311 261.866c-.419.838 4.706 4.569 8.164 6.969a78.994 78.994 0 0 0 2.641-9.977c-4.192.839-10.396 2.19-10.805 3.008z" stroke="#000" stroke-opacity=".2" stroke-width="1.113" stroke-linecap="round" stroke-linejoin="round"/><path d="M304.813 246.367c.231-2.987.346-5.837.357-8.457-3.605 1.981-7.881 4.726-7.881 6.529 0 1.802 4.003 2.022 7.524 1.928z" fill="#B8BCBD"/><path d="M304.813 246.367c.231-2.987.346-5.837.357-8.457-3.605 1.981-7.881 4.726-7.881 6.529 0 1.802 4.003 2.022 7.524 1.928z" stroke="#122023" stroke-width="1.113" stroke-linecap="round" stroke-linejoin="round"/><path d="M304.813 246.367c.231-2.987.346-5.837.357-8.457-3.605 1.981-7.881 4.726-7.881 6.529 0 1.802 4.003 2.022 7.524 1.928z" stroke="#000" stroke-opacity=".2" stroke-width="1.113" stroke-linecap="round" stroke-linejoin="round"/><path d="M248.392 165.287s-10.176 29.468-4.695 52.397a44.827 44.827 0 0 0 25.56 30.506s-14.871 5.24-11.528 13.299 16.16 2.871 20.341.262c4.181-2.61 9.431-10.427 10.165-15.646.466-2.667.642-5.376.524-8.08 0 0 16.945-1.823 28.42-11.213 0 0 10.176 8.08 17.48 6.518 7.304-1.561 17.731-14.608 16.683-26.335-1.048-11.726-7.807-11.716-11.936-9.934a16.741 16.741 0 0 0-5.742 3.647s5.994-7.336 0-17.47a22.796 22.796 0 0 0-16.694-10.951s-3.144-16.693-12.513-22.95c-9.368-6.256-42.767-12.732-56.065 15.95z" fill="#FDF8F1"/><mask id="c" style="mask-type:luminance" maskUnits="userSpaceOnUse" x="242" y="143" width="110" height="123"><path d="M248.392 165.287s-10.176 29.468-4.695 52.397a44.827 44.827 0 0 0 25.56 30.506s-14.871 5.24-11.528 13.299 16.16 2.871 20.341.262c4.181-2.61 9.431-10.427 10.165-15.646.466-2.667.642-5.376.524-8.08 0 0 16.945-1.823 28.42-11.213 0 0 10.176 8.08 17.48 6.518 7.304-1.561 17.731-14.608 16.683-26.335-1.048-11.726-7.807-11.716-11.936-9.934a16.741 16.741 0 0 0-5.742 3.647s5.994-7.336 0-17.47a22.796 22.796 0 0 0-16.694-10.951s-3.144-16.693-12.513-22.95c-9.368-6.256-42.767-12.732-56.065 15.95z" fill="#fff"/></mask><g mask="url(#c)"><path d="M325.867 175.421a59.105 59.105 0 0 1-45.963 28.525c-20.749 1.823-32.382-2.264-37.726-5.104a133.067 133.067 0 0 1 6.287-33.534c13.299-28.682 46.676-22.164 56.066-15.908 9.389 6.256 12.512 22.95 12.512 22.95a22.39 22.39 0 0 1 8.824 3.071zm13.539 21.64a16.75 16.75 0 0 0-5.742 3.647 13.684 13.684 0 0 0 2.441-5.911c-14.095 7.021-12.994 22.007-14.744 22.007-2.159 0-3.228-7.535-3.228-7.535s-2.693 10.763-18.863 18.308c-16.17 7.545-34.457 1.614-34.457 1.614s3.773 8.614-5.92 7.535a16.011 16.011 0 0 1-7.577-2.767 44.867 44.867 0 0 0 17.92 14.189s-14.871 5.24-11.528 13.299c3.343 8.058 16.17 2.871 20.341.262 4.171-2.61 9.432-10.427 10.165-15.646.466-2.667.642-5.376.524-8.08 0 0 16.945-1.823 28.42-11.213 0 0 10.176 8.08 17.48 6.518 7.304-1.561 17.732-14.608 16.684-26.335-1.048-11.726-7.787-11.674-11.916-9.892z" fill="#B8BCBD"/><path opacity=".5" d="M325.867 175.421a59.105 59.105 0 0 1-45.963 28.525c-20.749 1.823-32.382-2.264-37.726-5.104a133.067 133.067 0 0 1 6.287-33.534c13.299-28.682 46.676-22.164 56.066-15.908 9.389 6.256 12.512 22.95 12.512 22.95a22.39 22.39 0 0 1 8.824 3.071zm13.539 21.64a16.75 16.75 0 0 0-5.742 3.647 13.684 13.684 0 0 0 2.441-5.911c-14.095 7.021-12.994 22.007-14.744 22.007-2.159 0-3.228-7.535-3.228-7.535s-2.693 10.763-18.863 18.308c-16.17 7.545-34.457 1.614-34.457 1.614s3.773 8.614-5.92 7.535a16.011 16.011 0 0 1-7.577-2.767 44.867 44.867 0 0 0 17.92 14.189s-14.871 5.24-11.528 13.299c3.343 8.058 16.17 2.871 20.341.262 4.171-2.61 9.432-10.427 10.165-15.646.466-2.667.642-5.376.524-8.08 0 0 16.945-1.823 28.42-11.213 0 0 10.176 8.08 17.48 6.518 7.304-1.561 17.732-14.608 16.684-26.335-1.048-11.726-7.787-11.674-11.916-9.892z" fill="#FDF8F1"/><path d="M288.812 238.046a36.802 36.802 0 0 1-29.5-13.529" stroke="#122023" stroke-width="1.113" stroke-linecap="round" stroke-linejoin="round"/><path d="M288.812 238.046a36.802 36.802 0 0 1-29.5-13.529" stroke="#000" stroke-opacity=".2" stroke-width="1.113" stroke-linecap="round" stroke-linejoin="round"/></g><path d="M248.392 165.287s-10.176 29.468-4.695 52.397a44.827 44.827 0 0 0 25.56 30.506s-14.871 5.24-11.528 13.299c3.343 8.058 16.16 2.871 20.341.262 4.181-2.61 9.431-10.427 10.165-15.646.466-2.667.642-5.376.524-8.08 0 0 16.945-1.823 28.42-11.213 0 0 10.176 8.08 17.48 6.518 7.304-1.561 17.731-14.608 16.683-26.335-1.048-11.726-7.807-11.716-11.936-9.934a16.741 16.741 0 0 0-5.742 3.647s5.994-7.336 0-17.47a22.796 22.796 0 0 0-16.694-10.951s-3.144-16.693-12.513-22.95c-9.368-6.256-42.767-12.732-56.065 15.95z" stroke="#122023" stroke-width="1.113" stroke-linecap="round" stroke-linejoin="round"/><path d="M248.392 165.287s-10.176 29.468-4.695 52.397a44.827 44.827 0 0 0 25.56 30.506s-14.871 5.24-11.528 13.299c3.343 8.058 16.16 2.871 20.341.262 4.181-2.61 9.431-10.427 10.165-15.646.466-2.667.642-5.376.524-8.08 0 0 16.945-1.823 28.42-11.213 0 0 10.176 8.08 17.48 6.518 7.304-1.561 17.731-14.608 16.683-26.335-1.048-11.726-7.807-11.716-11.936-9.934a16.741 16.741 0 0 0-5.742 3.647s5.994-7.336 0-17.47a22.796 22.796 0 0 0-16.694-10.951s-3.144-16.693-12.513-22.95c-9.368-6.256-42.767-12.732-56.065 15.95z" stroke="#000" stroke-opacity=".2" stroke-width="1.113" stroke-linecap="round" stroke-linejoin="round"/><path d="M333.664 200.749s-5.471 3.658-8.08 14.871" stroke="#122023" stroke-width="1.113" stroke-linecap="round" stroke-linejoin="round"/><path d="M333.664 200.749s-5.471 3.658-8.08 14.871" stroke="#000" stroke-opacity=".2" stroke-width="1.113" stroke-linecap="round" stroke-linejoin="round"/><path d="M343.713 205.549c-.639 1.907-2.389 3.05-3.898 2.536-1.509-.513-2.201-2.473-1.561-4.38.639-1.908 2.389-3.05 3.898-2.536 1.509.513 2.211 2.473 1.561 4.38z" fill="#FDF8F1"/><path d="M343.713 205.549c-.639 1.907-2.389 3.05-3.898 2.536-1.509-.513-2.201-2.473-1.561-4.38.639-1.908 2.389-3.05 3.898-2.536 1.509.513 2.211 2.473 1.561 4.38z" stroke="#122023" stroke-width="1.113" stroke-linecap="round" stroke-linejoin="round"/><path d="M343.713 205.549c-.639 1.907-2.389 3.05-3.898 2.536-1.509-.513-2.201-2.473-1.561-4.38.639-1.908 2.389-3.05 3.898-2.536 1.509.513 2.211 2.473 1.561 4.38z" stroke="#000" stroke-opacity=".2" stroke-width="1.113" stroke-linecap="round" stroke-linejoin="round"/><path d="M349.109 208.944c-.639 1.908-2.389 3.05-3.898 2.537-1.509-.514-2.211-2.474-1.561-4.381.649-1.907 2.389-3.049 3.898-2.536 1.509.514 2.211 2.473 1.561 4.38z" fill="#FDF8F1"/><path d="M349.109 208.944c-.639 1.908-2.389 3.05-3.898 2.537-1.509-.514-2.211-2.474-1.561-4.381.649-1.907 2.389-3.049 3.898-2.536 1.509.514 2.211 2.473 1.561 4.38z" stroke="#122023" stroke-width="1.113" stroke-linecap="round" stroke-linejoin="round"/><path d="M349.109 208.944c-.639 1.908-2.389 3.05-3.898 2.537-1.509-.514-2.211-2.474-1.561-4.381.649-1.907 2.389-3.049 3.898-2.536 1.509.514 2.211 2.473 1.561 4.38z" stroke="#000" stroke-opacity=".2" stroke-width="1.113" stroke-linecap="round" stroke-linejoin="round"/><path d="M350.263 214.027a2.16 2.16 0 0 1-3.175.602 2.155 2.155 0 0 1-.788-2.169 2.161 2.161 0 0 1 2.821-1.577 2.433 2.433 0 0 1 1.142 3.144z" fill="#FDF8F1"/><path d="M350.263 214.027a2.16 2.16 0 0 1-3.175.602 2.155 2.155 0 0 1-.788-2.169 2.161 2.161 0 0 1 2.821-1.577 2.433 2.433 0 0 1 1.142 3.144z" stroke="#122023" stroke-width="1.113" stroke-linecap="round" stroke-linejoin="round"/><path d="M350.263 214.027a2.16 2.16 0 0 1-3.175.602 2.155 2.155 0 0 1-.788-2.169 2.161 2.161 0 0 1 2.821-1.577 2.433 2.433 0 0 1 1.142 3.144z" stroke="#000" stroke-opacity=".2" stroke-width="1.113" stroke-linecap="round" stroke-linejoin="round"/><path d="M343.377 221.007c-1.886 3.405-5.658 4.914-8.436 3.374-2.777-1.541-3.489-5.533-1.603-8.939 1.886-3.406 5.659-4.915 8.436-3.374 2.777 1.54 3.49 5.533 1.603 8.939z" fill="#FDF8F1"/><path d="M343.377 221.007c-1.886 3.405-5.658 4.914-8.436 3.374-2.777-1.541-3.489-5.533-1.603-8.939 1.886-3.406 5.659-4.915 8.436-3.374 2.777 1.54 3.49 5.533 1.603 8.939z" stroke="#122023" stroke-width="1.113" stroke-linecap="round" stroke-linejoin="round"/><path d="M343.377 221.007c-1.886 3.405-5.658 4.914-8.436 3.374-2.777-1.541-3.489-5.533-1.603-8.939 1.886-3.406 5.659-4.915 8.436-3.374 2.777 1.54 3.49 5.533 1.603 8.939z" stroke="#000" stroke-opacity=".2" stroke-width="1.113" stroke-linecap="round" stroke-linejoin="round"/><path d="M269.257 248.211a15.72 15.72 0 0 0 11.213.786" stroke="#122023" stroke-width="1.113" stroke-linecap="round" stroke-linejoin="round"/><path d="M269.257 248.211a15.72 15.72 0 0 0 11.213.786" stroke="#000" stroke-opacity=".2" stroke-width="1.113" stroke-linecap="round" stroke-linejoin="round"/><path d="M257.781 261.51s1.048-4.433 7.556-7.556" stroke="#122023" stroke-width="1.113" stroke-linecap="round" stroke-linejoin="round"/><path d="M257.781 261.51s1.048-4.433 7.556-7.556" stroke="#000" stroke-opacity=".2" stroke-width="1.113" stroke-linecap="round" stroke-linejoin="round"/><path d="M264.3 265.429s2.609-6.288 7.042-9.128" stroke="#122023" stroke-width="1.113" stroke-linecap="round" stroke-linejoin="round"/><path d="M264.3 265.429s2.609-6.288 7.042-9.128" stroke="#000" stroke-opacity=".2" stroke-width="1.113" stroke-linecap="round" stroke-linejoin="round"/><path d="M176.534 45.6V143h16.6v15.8h-16.6V187h-17.4v-28.2h-76.8v-13l69.2-100.2h25zm-73.2 97.4h55.8V61.4l-55.8 81.6zm226.962-26.6c0 9.067-.933 17.934-2.8 26.6-1.733 8.667-4.733 16.4-9 23.2-4.267 6.667-9.933 12.067-17 16.2-7.067 4.134-15.867 6.2-26.4 6.2-10.667 0-19.533-2.066-26.6-6.2-7.067-4.133-12.733-9.533-17-16.2-4.267-6.8-7.267-14.4-9-22.8-1.733-8.4-2.6-17.4-2.6-27 0-9.6.867-18.6 2.6-27 1.733-8.533 4.733-16.133 9-22.8 4.267-6.666 9.933-12.066 17-16.2 7.067-4.266 15.933-6.4 26.6-6.4 10.533 0 19.333 2.067 26.4 6.2 7.067 4.134 12.733 9.6 17 16.4 4.267 6.8 7.267 14.534 9 23.2 1.867 8.667 2.8 17.534 2.8 26.6zm-92.6 0c0 6.4.467 12.934 1.4 19.6.933 6.667 2.733 12.734 5.4 18.2 2.667 5.467 6.4 9.934 11.2 13.4 4.933 3.467 11.4 5.2 19.4 5.2 7.867 0 14.2-1.733 19-5.2 4.933-3.466 8.733-7.933 11.4-13.4 2.667-5.466 4.467-11.533 5.4-18.2.933-6.666 1.4-13.2 1.4-19.6 0-6.266-.467-12.733-1.4-19.4-.933-6.666-2.733-12.733-5.4-18.2-2.667-5.6-6.467-10.133-11.4-13.6-4.8-3.6-11.133-5.4-19-5.4-8 0-14.467 1.8-19.4 5.4-4.8 3.467-8.533 8-11.2 13.6-2.667 5.467-4.467 11.534-5.4 18.2-.933 6.667-1.4 13.134-1.4 19.4zm214.408-70.8V143h16.6v15.8h-16.6V187h-17.4v-28.2h-76.8v-13l69.2-100.2h25zm-73.2 97.4h55.8V61.4l-55.8 81.6z" fill="#122023"/><path d="M176.534 45.6V143h16.6v15.8h-16.6V187h-17.4v-28.2h-76.8v-13l69.2-100.2h25zm-73.2 97.4h55.8V61.4l-55.8 81.6zm226.962-26.6c0 9.067-.933 17.934-2.8 26.6-1.733 8.667-4.733 16.4-9 23.2-4.267 6.667-9.933 12.067-17 16.2-7.067 4.134-15.867 6.2-26.4 6.2-10.667 0-19.533-2.066-26.6-6.2-7.067-4.133-12.733-9.533-17-16.2-4.267-6.8-7.267-14.4-9-22.8-1.733-8.4-2.6-17.4-2.6-27 0-9.6.867-18.6 2.6-27 1.733-8.533 4.733-16.133 9-22.8 4.267-6.666 9.933-12.066 17-16.2 7.067-4.266 15.933-6.4 26.6-6.4 10.533 0 19.333 2.067 26.4 6.2 7.067 4.134 12.733 9.6 17 16.4 4.267 6.8 7.267 14.534 9 23.2 1.867 8.667 2.8 17.534 2.8 26.6zm-92.6 0c0 6.4.467 12.934 1.4 19.6.933 6.667 2.733 12.734 5.4 18.2 2.667 5.467 6.4 9.934 11.2 13.4 4.933 3.467 11.4 5.2 19.4 5.2 7.867 0 14.2-1.733 19-5.2 4.933-3.466 8.733-7.933 11.4-13.4 2.667-5.466 4.467-11.533 5.4-18.2.933-6.666 1.4-13.2 1.4-19.6 0-6.266-.467-12.733-1.4-19.4-.933-6.666-2.733-12.733-5.4-18.2-2.667-5.6-6.467-10.133-11.4-13.6-4.8-3.6-11.133-5.4-19-5.4-8 0-14.467 1.8-19.4 5.4-4.8 3.467-8.533 8-11.2 13.6-2.667 5.467-4.467 11.534-5.4 18.2-.933 6.667-1.4 13.134-1.4 19.4zm214.408-70.8V143h16.6v15.8h-16.6V187h-17.4v-28.2h-76.8v-13l69.2-100.2h25zm-73.2 97.4h55.8V61.4l-55.8 81.6z" fill="#000" fill-opacity=".2"/><path d="M227.265 150.427s-10.951 15.384-12.512 31.03c-1.562 15.646.262 26.073 4.957 29.992 4.694 3.92 9.379 2.348 11.988-1.31 2.609-3.657-1.561-16.432-1.561-16.432s4.432-12.25 11.213-20.854c6.78-8.603 8.079-9.913 8.079-9.913s-11.737-13.299-22.164-12.513z" fill="#FDF8F1"/><mask id="d" style="mask-type:luminance" maskUnits="userSpaceOnUse" x="214" y="150" width="36" height="64"><path d="M227.265 150.427s-10.951 15.384-12.512 31.03c-1.562 15.646.262 26.073 4.957 29.992 4.694 3.92 9.379 2.348 11.988-1.31 2.609-3.657-1.561-16.432-1.561-16.432s4.432-12.25 11.213-20.854c6.78-8.603 8.079-9.913 8.079-9.913s-11.737-13.299-22.164-12.513z" fill="#fff"/></mask><g mask="url(#d)"><path d="M227.265 150.427a84.6 84.6 0 0 0-6.34 11.087c5.24 2.096 13.361 6.393 18.517 14.001a51.624 51.624 0 0 1 1.949-2.662c6.78-8.603 8.08-9.913 8.08-9.913s-11.779-13.299-22.206-12.513z" fill="#B8BCBD"/><path opacity=".5" d="M227.265 150.427a84.6 84.6 0 0 0-6.34 11.087c5.24 2.096 13.361 6.393 18.517 14.001a51.624 51.624 0 0 1 1.949-2.662c6.78-8.603 8.08-9.913 8.08-9.913s-11.779-13.299-22.206-12.513z" fill="#FDF8F1"/></g><path d="M227.265 150.427s-10.951 15.384-12.512 31.03c-1.562 15.646.262 26.073 4.957 29.992 4.694 3.92 9.379 2.348 11.988-1.31 2.609-3.657-1.561-16.432-1.561-16.432s4.432-12.25 11.213-20.854c6.78-8.603 8.079-9.913 8.079-9.913s-11.737-13.299-22.164-12.513z" stroke="#122023" stroke-width="1.113" stroke-linecap="round" stroke-linejoin="round"/><path d="M227.265 150.427s-10.951 15.384-12.512 31.03c-1.562 15.646.262 26.073 4.957 29.992 4.694 3.92 9.379 2.348 11.988-1.31 2.609-3.657-1.561-16.432-1.561-16.432s4.432-12.25 11.213-20.854c6.78-8.603 8.079-9.913 8.079-9.913s-11.737-13.299-22.164-12.513z" stroke="#000" stroke-opacity=".2" stroke-width="1.113" stroke-linecap="round" stroke-linejoin="round"/><path d="M219.709 211.449a28.977 28.977 0 0 1-1.834-10.7" stroke="#122023" stroke-width="1.113" stroke-linecap="round" stroke-linejoin="round"/><path d="M219.709 211.449a28.977 28.977 0 0 1-1.834-10.7" stroke="#000" stroke-opacity=".2" stroke-width="1.113" stroke-linecap="round" stroke-linejoin="round"/><path d="M226.742 213.011s-2.599-4.433-2.861-11.999" stroke="#122023" stroke-width="1.113" stroke-linecap="round" stroke-linejoin="round"/><path d="M226.742 213.011s-2.599-4.433-2.861-11.999" stroke="#000" stroke-opacity=".2" stroke-width="1.113" stroke-linecap="round" stroke-linejoin="round"/><path d="M230.66 178.323c0-2.745-5.24-8.111-12.523-10.479a61.7 61.7 0 0 0-2.421 7.828 30.746 30.746 0 0 1 8.163 2.609c3.909 2.128 6.781 3.176 6.781.042z" fill="#B8BCBD"/><path d="M230.66 178.323c0-2.745-5.24-8.111-12.523-10.479a61.7 61.7 0 0 0-2.421 7.828 30.746 30.746 0 0 1 8.163 2.609c3.909 2.128 6.781 3.176 6.781.042z" stroke="#122023" stroke-width="1.113" stroke-linecap="round" stroke-linejoin="round"/><path d="M230.66 178.323c0-2.745-5.24-8.111-12.523-10.479a61.7 61.7 0 0 0-2.421 7.828 30.746 30.746 0 0 1 8.163 2.609c3.909 2.128 6.781 3.176 6.781.042z" stroke="#000" stroke-opacity=".2" stroke-width="1.113" stroke-linecap="round" stroke-linejoin="round"/><path d="M226.626 151.36a87.77 87.77 0 0 0-4.653 7.975 25.04 25.04 0 0 1 6.287 2.62c8.08 4.684 9.641 5.239 7.043-1.572-1.572-4.276-5.324-7.179-8.677-9.023z" fill="#B8BCBD"/><path d="M226.626 151.36a87.77 87.77 0 0 0-4.653 7.975 25.04 25.04 0 0 1 6.287 2.62c8.08 4.684 9.641 5.239 7.043-1.572-1.572-4.276-5.324-7.179-8.677-9.023z" stroke="#122023" stroke-width="1.113" stroke-linecap="round" stroke-linejoin="round"/><path d="M226.626 151.36a87.77 87.77 0 0 0-4.653 7.975 25.04 25.04 0 0 1 6.287 2.62c8.08 4.684 9.641 5.239 7.043-1.572-1.572-4.276-5.324-7.179-8.677-9.023z" stroke="#000" stroke-opacity=".2" stroke-width="1.113" stroke-linecap="round" stroke-linejoin="round"/><path d="M313.04 142.829s12.407 14.232 15.499 29.657c3.091 15.426 2.305 25.979-1.991 30.328-4.297 4.349-9.107 3.259-12.062-.126s0-16.494 0-16.494-5.617-11.769-13.204-19.67c-7.588-7.902-9.023-9.065-9.023-9.065s10.322-14.389 20.781-14.63z" fill="#FDF8F1"/><mask id="e" style="mask-type:luminance" maskUnits="userSpaceOnUse" x="292" y="142" width="39" height="64"><path d="M313.041 142.829s12.407 14.231 15.499 29.657c3.091 15.426 2.305 25.979-1.991 30.328-4.297 4.349-9.107 3.259-12.062-.126s0-16.495 0-16.495-5.617-11.768-13.204-19.67c-7.588-7.901-9.023-9.064-9.023-9.064s10.322-14.389 20.781-14.63z" fill="#fff"/></mask><g mask="url(#e)"><path d="M313.04 142.829c-10.479.241-20.833 14.671-20.833 14.671s1.425 1.174 9.023 9.065a55.695 55.695 0 0 1 4.003 4.716 44.18 44.18 0 0 1 16.421-16.034 85.46 85.46 0 0 0-8.614-12.418z" fill="#B8BCBD"/><path opacity=".5" d="M313.04 142.829c-10.479.241-20.833 14.671-20.833 14.671s1.425 1.174 9.023 9.065a55.695 55.695 0 0 1 4.003 4.716 44.18 44.18 0 0 1 16.421-16.034 85.46 85.46 0 0 0-8.614-12.418z" fill="#FDF8F1"/></g><path d="M313.04 142.829s12.407 14.232 15.499 29.657c3.091 15.426 2.305 25.979-1.991 30.328-4.297 4.349-9.107 3.259-12.062-.126s0-16.494 0-16.494-5.617-11.769-13.204-19.67c-7.588-7.902-9.023-9.065-9.023-9.065s10.322-14.389 20.781-14.63z" stroke="#122023" stroke-width="1.113" stroke-linecap="round" stroke-linejoin="round"/><path d="M313.04 142.829s12.407 14.232 15.499 29.657c3.091 15.426 2.305 25.979-1.991 30.328-4.297 4.349-9.107 3.259-12.062-.126s0-16.494 0-16.494-5.617-11.769-13.204-19.67c-7.588-7.902-9.023-9.065-9.023-9.065s10.322-14.389 20.781-14.63z" stroke="#000" stroke-opacity=".2" stroke-width="1.113" stroke-linecap="round" stroke-linejoin="round"/><path d="M326.548 202.814a28.872 28.872 0 0 0 .775-10.815" stroke="#122023" stroke-width="1.113" stroke-linecap="round" stroke-linejoin="round"/><path d="M326.548 202.814a28.872 28.872 0 0 0 .775-10.815" stroke="#000" stroke-opacity=".2" stroke-width="1.113" stroke-linecap="round" stroke-linejoin="round"/><path d="M319.694 205.057s2.17-4.664 1.688-12.219" stroke="#122023" stroke-width="1.113" stroke-linecap="round" stroke-linejoin="round"/><path d="M319.694 205.057s2.17-4.664 1.688-12.219" stroke="#000" stroke-opacity=".2" stroke-width="1.113" stroke-linecap="round" stroke-linejoin="round"/><path d="M312.4 170.925c-.262-2.735 4.422-8.583 11.444-11.611a61.563 61.563 0 0 1 3.144 7.545 31.355 31.355 0 0 0-7.86 3.406c-3.668 2.463-6.414 3.741-6.728.66z" fill="#B8BCBD"/><path d="M312.4 170.925c-.262-2.735 4.422-8.583 11.444-11.611a61.563 61.563 0 0 1 3.144 7.545 31.355 31.355 0 0 0-7.86 3.406c-3.668 2.463-6.414 3.741-6.728.66z" stroke="#122023" stroke-width="1.113" stroke-linecap="round" stroke-linejoin="round"/><path d="M312.4 170.925c-.262-2.735 4.422-8.583 11.444-11.611a61.563 61.563 0 0 1 3.144 7.545 31.355 31.355 0 0 0-7.86 3.406c-3.668 2.463-6.414 3.741-6.728.66z" stroke="#000" stroke-opacity=".2" stroke-width="1.113" stroke-linecap="round" stroke-linejoin="round"/><path d="M313.763 143.699a85.63 85.63 0 0 1 5.386 7.43 25.23 25.23 0 0 0-6.025 3.217c-7.577 5.471-9.086 6.141-7.158-.859 1.205-4.37 4.642-7.629 7.797-9.788z" fill="#B8BCBD"/><path d="M313.763 143.699a85.63 85.63 0 0 1 5.386 7.43 25.23 25.23 0 0 0-6.025 3.217c-7.577 5.471-9.086 6.141-7.158-.859 1.205-4.37 4.642-7.629 7.797-9.788z" stroke="#122023" stroke-width="1.113" stroke-linecap="round" stroke-linejoin="round"/><path d="M313.763 143.699a85.63 85.63 0 0 1 5.386 7.43 25.23 25.23 0 0 0-6.025 3.217c-7.577 5.471-9.086 6.141-7.158-.859 1.205-4.37 4.642-7.629 7.797-9.788z" stroke="#000" stroke-opacity=".2" stroke-width="1.113" stroke-linecap="round" stroke-linejoin="round"/><path d="M226.238 137.118s-3.228 10.888-2.012 15.321c1.216 4.433 6.854.409 12.502 5.24 5.649 4.831 10.878 13.55 32.266 15.164 21.389 1.614 34.3-9.924 38.775-16.38 4.474-6.455 4.034-14.116 11.695-14.514 7.66-.398 1.215-15.331-1.205-17.752 0 0 14.922-22.185 14.922-27.834 0-5.648-14.116-4.443-31.438.807 0 0-12.911-6.864-36.312-2.83-23.4 4.035-30.254 10.899-30.254 10.899s-29.049 3.626-31.061 7.252c-2.012 3.626 3.972 18.979 22.122 24.627z" fill="#FDF8F1"/><mask id="f" style="mask-type:luminance" maskUnits="userSpaceOnUse" x="203" y="92" width="131" height="81"><path d="M226.238 137.118s-3.228 10.888-2.012 15.321c1.216 4.433 6.854.409 12.502 5.24 5.649 4.831 10.878 13.55 32.266 15.164 21.389 1.614 34.3-9.924 38.775-16.38 4.474-6.455 4.034-14.116 11.695-14.514 7.66-.398 1.215-15.331-1.205-17.752 0 0 14.922-22.185 14.922-27.834 0-5.648-14.116-4.443-31.438.807 0 0-12.911-6.864-36.312-2.83-23.4 4.035-30.254 10.899-30.254 10.899s-29.049 3.626-31.061 7.252c-2.012 3.626 3.972 18.979 22.122 24.627z" fill="#fff"/></mask><g mask="url(#f)"><path d="M319.432 141.96c7.671-.409 1.216-15.332-1.205-17.752 0 0 2.84-4.192 6.036-9.432-8.666-4.527-17.176-7.042-19.439-4.496-4.873 5.471-2.222 15.95 0 26.199 2.221 10.249-6.655 14.619-12.859 23.485-6.204 8.865-15.059-.891-15.059-.891-3.144 12.858-16.4 4.433-16.4 4.433-10.186-3.144-27.467-13.288-23.925-20.383 3.542-7.095 4.433-13.739-1.771-19.492s-30.946-10.542-30.946-10.542c-1.299 4.37 4.978 18.685 22.384 24.103 0 0-3.227 10.888-2.012 15.321 1.216 4.433 6.854.408 12.502 5.239 5.649 4.832 10.878 13.55 32.267 15.164 21.388 1.614 34.299-9.924 38.774-16.379 4.475-6.456 3.982-14.179 11.653-14.577z" fill="#B8BCBD"/><path opacity=".5" d="M319.432 141.96c7.671-.409 1.216-15.332-1.205-17.752 0 0 2.84-4.192 6.036-9.432-8.666-4.527-17.176-7.042-19.439-4.496-4.873 5.471-2.222 15.95 0 26.199 2.221 10.249-6.655 14.619-12.859 23.485-6.204 8.865-15.059-.891-15.059-.891-3.144 12.858-16.4 4.433-16.4 4.433-10.186-3.144-27.467-13.288-23.925-20.383 3.542-7.095 4.433-13.739-1.771-19.492s-30.946-10.542-30.946-10.542c-1.299 4.37 4.978 18.685 22.384 24.103 0 0-3.227 10.888-2.012 15.321 1.216 4.433 6.854.408 12.502 5.239 5.649 4.832 10.878 13.55 32.267 15.164 21.388 1.614 34.299-9.924 38.774-16.379 4.475-6.456 3.982-14.179 11.653-14.577z" fill="#FDF8F1"/><path d="M287.878 144.391c.304 2.557-5.376 5.313-12.659 6.162-7.284.849-13.445-.534-13.749-3.144-.304-2.609 5.376-5.302 12.669-6.151 7.294-.849 13.446.587 13.739 3.133z" fill="#B8BCBD"/><path opacity=".5" d="M287.878 144.391c.304 2.557-5.376 5.313-12.659 6.162-7.284.849-13.445-.534-13.749-3.144-.304-2.609 5.376-5.302 12.669-6.151 7.294-.849 13.446.587 13.739 3.133z" fill="#FDF8F1"/></g><path d="M226.238 137.118s-3.228 10.888-2.012 15.321c1.216 4.433 6.854.409 12.502 5.24 5.649 4.831 10.878 13.55 32.266 15.164 21.389 1.614 34.3-9.924 38.775-16.38 4.474-6.455 4.034-14.116 11.695-14.514 7.66-.398 1.215-15.331-1.205-17.752 0 0 14.922-22.185 14.922-27.834 0-5.648-14.116-4.443-31.438.807 0 0-12.911-6.864-36.312-2.83-23.4 4.035-30.254 10.899-30.254 10.899s-29.049 3.626-31.061 7.252c-2.012 3.626 3.972 18.979 22.122 24.627z" stroke="#122023" stroke-width="1.113" stroke-miterlimit="10"/><path d="M226.238 137.118s-3.228 10.888-2.012 15.321c1.216 4.433 6.854.409 12.502 5.24 5.649 4.831 10.878 13.55 32.266 15.164 21.389 1.614 34.3-9.924 38.775-16.38 4.474-6.455 4.034-14.116 11.695-14.514 7.66-.398 1.215-15.331-1.205-17.752 0 0 14.922-22.185 14.922-27.834 0-5.648-14.116-4.443-31.438.807 0 0-12.911-6.864-36.312-2.83-23.4 4.035-30.254 10.899-30.254 10.899s-29.049 3.626-31.061 7.252c-2.012 3.626 3.972 18.979 22.122 24.627z" stroke="#000" stroke-opacity=".2" stroke-width="1.113" stroke-miterlimit="10"/><path d="M309.675 104.841c-10.48 7.042-6.78 14.085-2.096 17.993 2.861 2.39 7.472 2.096 10.626 1.426 0 0 14.923-22.185 14.923-27.834.01-.052-13.026 1.32-23.453 8.415z" fill="#B8BCBD"/><path d="M309.675 104.841c-10.48 7.042-6.78 14.085-2.096 17.993 2.861 2.39 7.472 2.096 10.626 1.426 0 0 14.923-22.185 14.923-27.834.01-.052-13.026 1.32-23.453 8.415z" stroke="#122023" stroke-width="1.113" stroke-miterlimit="10"/><path d="M309.675 104.841c-10.48 7.042-6.78 14.085-2.096 17.993 2.861 2.39 7.472 2.096 10.626 1.426 0 0 14.923-22.185 14.923-27.834.01-.052-13.026 1.32-23.453 8.415z" stroke="#000" stroke-opacity=".2" stroke-width="1.113" stroke-miterlimit="10"/><path d="M203.853 113.015c-1.299 4.37 4.978 18.685 22.385 24.103 0 0 13.288-1.299 8.855-11.988-4.14-9.977-25.067-12.46-31.24-12.115z" fill="#B8BCBD"/><path d="M203.853 113.015c-1.299 4.37 4.978 18.685 22.385 24.103 0 0 13.288-1.299 8.855-11.988-4.14-9.977-25.067-12.46-31.24-12.115z" stroke="#122023" stroke-width="1.113" stroke-miterlimit="10"/><path d="M203.853 113.015c-1.299 4.37 4.978 18.685 22.385 24.103 0 0 13.288-1.299 8.855-11.988-4.14-9.977-25.067-12.46-31.24-12.115z" stroke="#000" stroke-opacity=".2" stroke-width="1.113" stroke-miterlimit="10"/><path d="M265.368 94.362c-1.372.241-2.693.493-3.961.744 2.096 10.584 5.544 28.211 8.625 28.211 3.081 0 5.439-19.324 6.445-30.15a85.943 85.943 0 0 0-11.109 1.195z" fill="#B8BCBD"/><path d="M265.368 94.362c-1.372.241-2.693.493-3.961.744 2.096 10.584 5.544 28.211 8.625 28.211 3.081 0 5.439-19.324 6.445-30.15a85.943 85.943 0 0 0-11.109 1.195z" stroke="#122023" stroke-width="1.113" stroke-miterlimit="10"/><path d="M265.368 94.362c-1.372.241-2.693.493-3.961.744 2.096 10.584 5.544 28.211 8.625 28.211 3.081 0 5.439-19.324 6.445-30.15a85.943 85.943 0 0 0-11.109 1.195z" stroke="#000" stroke-opacity=".2" stroke-width="1.113" stroke-miterlimit="10"/><path d="M253.348 120.173c3.207-1.886 2.725-16.065 2.211-23.757a86.027 86.027 0 0 0-9.756 3.05c1.163 7.199 4.118 22.719 7.545 20.707z" fill="#B8BCBD"/><path d="M253.348 120.173c3.207-1.886 2.725-16.065 2.211-23.757a86.027 86.027 0 0 0-9.756 3.05c1.163 7.199 4.118 22.719 7.545 20.707z" stroke="#122023" stroke-width="1.113" stroke-miterlimit="10"/><path d="M253.348 120.173c3.207-1.886 2.725-16.065 2.211-23.757a86.027 86.027 0 0 0-9.756 3.05c1.163 7.199 4.118 22.719 7.545 20.707z" stroke="#000" stroke-opacity=".2" stroke-width="1.113" stroke-miterlimit="10"/><path d="M284.378 113.655c3.28 1.152 5.125-10.637 6.162-19.712a65.307 65.307 0 0 0-10.018-.85c-.105 7.452.304 19.315 3.856 20.562z" fill="#B8BCBD"/><path d="M284.378 113.655c3.28 1.152 5.125-10.637 6.162-19.712a65.307 65.307 0 0 0-10.018-.85c-.105 7.452.304 19.315 3.856 20.562z" stroke="#122023" stroke-width="1.113" stroke-miterlimit="10"/><path d="M284.378 113.655c3.28 1.152 5.125-10.637 6.162-19.712a65.307 65.307 0 0 0-10.018-.85c-.105 7.452.304 19.315 3.856 20.562z" stroke="#000" stroke-opacity=".2" stroke-width="1.113" stroke-miterlimit="10"/><path d="M279.987 154.462a12.34 12.34 0 0 0-9.086 1.121.905.905 0 0 0-.396 1.088.923.923 0 0 0 .229.348l5.564 5.239a.902.902 0 0 0 1.436-.283l2.85-6.287a.905.905 0 0 0-.018-.75.89.89 0 0 0-.579-.476z" fill="#B8BCBD"/><path d="M279.987 154.462a12.34 12.34 0 0 0-9.086 1.121.905.905 0 0 0-.396 1.088.923.923 0 0 0 .229.348l5.564 5.239a.902.902 0 0 0 1.436-.283l2.85-6.287a.905.905 0 0 0-.018-.75.89.89 0 0 0-.579-.476z" stroke="#122023" stroke-width="1.113" stroke-linecap="round" stroke-linejoin="round"/><path d="M279.987 154.462a12.34 12.34 0 0 0-9.086 1.121.905.905 0 0 0-.396 1.088.923.923 0 0 0 .229.348l5.564 5.239a.902.902 0 0 0 1.436-.283l2.85-6.287a.905.905 0 0 0-.018-.75.89.89 0 0 0-.579-.476z" stroke="#000" stroke-opacity=".2" stroke-width="1.113" stroke-linecap="round" stroke-linejoin="round"/><path d="M266.762 145.712c.765 2.022.461 4.013-.681 4.443-1.143.429-2.694-.849-3.469-2.861-.775-2.012-.461-4.014.681-4.443 1.142-.43 2.693.848 3.469 2.861z" fill="#122023"/><path d="M266.762 145.712c.765 2.022.461 4.013-.681 4.443-1.143.429-2.694-.849-3.469-2.861-.775-2.012-.461-4.014.681-4.443 1.142-.43 2.693.848 3.469 2.861z" fill="#000" fill-opacity=".2"/><path d="M281.936 144.276c-.398 2.096.252 4.034 1.457 4.254 1.205.22 2.505-1.31 2.903-3.437.398-2.127-.252-4.024-1.457-4.255-1.205-.23-2.504 1.321-2.903 3.438z" fill="#122023"/><path d="M281.936 144.276c-.398 2.096.252 4.034 1.457 4.254 1.205.22 2.505-1.31 2.903-3.437.398-2.127-.252-4.024-1.457-4.255-1.205-.23-2.504 1.321-2.903 3.438z" fill="#000" fill-opacity=".2"/><path d="M277.734 161.965s-7.44 10.102-14.22-.063" stroke="#122023" stroke-width="1.113" stroke-linecap="round" stroke-linejoin="round"/><path d="M277.734 161.965s-7.44 10.102-14.22-.063" stroke="#000" stroke-opacity=".2" stroke-width="1.113" stroke-linecap="round" stroke-linejoin="round"/><path d="M276.299 162.248s4.946 5.124 10.165 2.253c5.219-2.871 2.096-7.336 2.096-7.336" stroke="#122023" stroke-width="1.113" stroke-linecap="round" stroke-linejoin="round"/><path d="M276.299 162.248s4.946 5.124 10.165 2.253c5.219-2.871 2.096-7.336 2.096-7.336" stroke="#000" stroke-opacity=".2" stroke-width="1.113" stroke-linecap="round" stroke-linejoin="round"/><path d="M253.61 137.642s1.824-6.518 10.427-4.956" stroke="#122023" stroke-width="3.34" stroke-linecap="round" stroke-linejoin="round"/><path d="M253.61 137.642s1.824-6.518 10.427-4.956" stroke="#000" stroke-opacity=".2" stroke-width="3.34" stroke-linecap="round" stroke-linejoin="round"/><path d="M279.684 131.648s6.518-3.909 12.512 2.347" stroke="#122023" stroke-width="3.34" stroke-linecap="round" stroke-linejoin="round"/><path d="M279.684 131.648s6.518-3.909 12.512 2.347" stroke="#000" stroke-opacity=".2" stroke-width="3.34" stroke-linecap="round" stroke-linejoin="round"/><path d="m248.653 155.122 6.257 1.561" stroke="#122023" stroke-width="1.113" stroke-miterlimit="10" stroke-linecap="round"/><path d="m248.653 155.122 6.257 1.561" stroke="#000" stroke-opacity=".2" stroke-width="1.113" stroke-miterlimit="10" stroke-linecap="round"/><path d="m254.124 159.031-5.471 1.037" stroke="#122023" stroke-width="1.113" stroke-miterlimit="10" stroke-linecap="round"/><path d="m254.124 159.031-5.471 1.037" stroke="#000" stroke-opacity=".2" stroke-width="1.113" stroke-miterlimit="10" stroke-linecap="round"/><path d="m255.172 161.902-3.909 2.086" stroke="#122023" stroke-width="1.113" stroke-miterlimit="10" stroke-linecap="round"/><path d="m255.172 161.902-3.909 2.086" stroke="#000" stroke-opacity=".2" stroke-width="1.113" stroke-miterlimit="10" stroke-linecap="round"/><path d="m294.805 152.25 5.48-1.309" stroke="#122023" stroke-width="1.113" stroke-miterlimit="10" stroke-linecap="round"/><path d="m294.805 152.25 5.48-1.309" stroke="#000" stroke-opacity=".2" stroke-width="1.113" stroke-miterlimit="10" stroke-linecap="round"/><path d="M295.854 154.86h3.646" stroke="#122023" stroke-width="1.113" stroke-miterlimit="10" stroke-linecap="round"/><path d="M295.854 154.86h3.646" stroke="#000" stroke-opacity=".2" stroke-width="1.113" stroke-miterlimit="10" stroke-linecap="round"/><path d="m296.628 157.469 4.957 1.3" stroke="#122023" stroke-width="1.113" stroke-miterlimit="10" stroke-linecap="round"/><path d="m296.628 157.469 4.957 1.3" stroke="#000" stroke-opacity=".2" stroke-width="1.113" stroke-miterlimit="10" stroke-linecap="round"/></g><defs><clipPath id="a"><path fill="#fff" d="M0 0h550v297H0z"/></clipPath></defs></svg>