<svg width="360" height="360" viewBox="0 0 360 360" fill="none" xmlns="http://www.w3.org/2000/svg">
<g clip-path="url(#clip0_835_10894)">
<path d="M0 180C0 80.5887 80.5887 0 180 0C279.411 0 360 80.5887 360 180C360 279.411 279.411 360 180 360C80.5887 360 0 279.411 0 180Z" fill="#122023"/>
<path d="M201.207 315.826L201.399 308.848C201.36 307.355 201.363 305.583 201.456 303.537C201.545 301.696 202.448 299.543 203.365 297.922C204.793 295.402 205.725 295.14 206.756 293.728C206.855 293.62 206.961 293.469 207.059 293.379C207.271 293.177 207.44 292.933 207.554 292.663C208.361 291.131 206.758 289.516 204.497 290.319C202.8 290.92 200.095 292.175 196.76 298.166C196.72 298.258 196.677 298.334 196.641 298.419C195.066 302.214 190.388 293.844 189.079 290.611C188.86 290.115 188.532 289.674 188.12 289.321C187.707 288.968 187.221 288.713 186.696 288.574C186.171 288.435 185.622 288.415 185.089 288.517C184.556 288.619 184.053 288.84 183.616 289.162L173.794 297.422C172.639 297.398 171.507 297.742 170.562 298.404C169.85 298.891 169.345 299.625 169.145 300.464C168.945 301.303 169.065 302.186 169.482 302.941L178.908 319.879L177.459 367.979L206.295 360.253L201.207 315.826Z" fill="#FFBE9D"/>
<path d="M212.428 268.999L208.195 288.857L203.406 288.812L185.895 313.037C185.181 314.03 184.108 314.705 182.905 314.919C181.701 315.133 180.461 314.868 179.449 314.182L168.261 306.56C168.261 306.56 183.479 294.541 185.016 287.558C186.553 280.575 182.504 280.163 182.504 280.163L188.133 268.797L212.428 268.999Z" fill="#FDA8DC"/>
<path d="M191.306 236.418C191.306 236.418 177.488 237.027 154.391 224.294C131.294 211.561 116.386 190.406 114.198 191.132C112.01 191.859 100.947 189.923 93.1595 235.522C85.3722 281.121 95.2475 288.559 98.9345 287.513C102.621 286.467 125.958 272.658 142.19 270.225C158.421 267.793 180.868 270.581 180.868 270.581L191.306 236.418Z" fill="#FDA8DC"/>
<path d="M224.951 251.12L222.767 260.776L221.792 265.115C221.146 267.972 219.429 270.473 216.993 272.101C214.558 273.729 211.591 274.36 208.704 273.865L178.127 271.612L184.471 230.065L216.399 237.466C219.338 238.153 221.886 239.973 223.488 242.531C225.09 245.089 225.616 248.176 224.951 251.12Z" fill="#FDA8DC"/>
<g opacity="0.4">
<path d="M224.951 251.12L222.767 260.776L221.792 265.115C221.146 267.972 219.429 270.473 216.993 272.101C214.558 273.729 211.591 274.36 208.704 273.865L178.127 271.612L184.471 230.065L216.399 237.466C219.338 238.153 221.886 239.973 223.488 242.531C225.09 245.089 225.616 248.176 224.951 251.12Z" fill="black"/>
</g>
<path d="M94.8469 235.862C90.8091 260.515 91.9246 281.224 97.3353 282.11C102.746 282.996 110.418 263.732 114.454 239.073C118.491 214.415 117.378 193.717 111.966 192.826C106.554 191.934 98.8848 211.21 94.8469 235.862Z" fill="#FDA8DC"/>
<g opacity="0.5">
<path d="M94.8479 235.862C90.81 260.515 91.9255 281.224 97.3362 282.11C102.747 282.996 110.419 263.732 114.455 239.073C118.492 214.415 117.379 193.717 111.967 192.826C106.555 191.934 98.8858 211.21 94.8479 235.862Z" fill="black"/>
</g>
<path d="M230.63 262.706L222.41 262.357L224.712 252.185L231.344 254.195L230.63 262.706Z" fill="#FDA8DC"/>
<g opacity="0.6">
<path d="M224.712 252.185L222.41 262.357L224.101 262.428L225.504 252.422L224.712 252.185Z" fill="black"/>
</g>
<path d="M220.033 255.641C219.99 255.915 215.814 255.461 210.713 254.643C205.612 253.825 201.507 252.898 201.544 252.626C201.582 252.354 205.765 252.811 210.878 253.65C215.99 254.488 220.082 255.366 220.033 255.641Z" fill="#FDA8DC"/>
<path d="M220.948 249.705C220.893 249.976 217.082 249.453 212.437 248.531C207.791 247.608 204.072 246.642 204.126 246.365C204.18 246.088 207.986 246.618 212.632 247.54C217.277 248.463 221.002 249.428 220.948 249.705Z" fill="#FDA8DC"/>
<path d="M218.592 261.999C218.589 262.14 217.631 262.175 216.071 262.092C215.294 262.061 214.365 262.007 213.338 261.939C212.312 261.87 211.213 261.617 210.048 261.422C205.386 260.609 201.713 259.578 201.755 259.322C201.797 259.066 205.6 259.625 210.209 260.435C211.367 260.626 212.461 260.88 213.463 261.014C214.466 261.147 215.365 261.262 216.126 261.384C217.652 261.645 218.595 261.858 218.592 261.999Z" fill="#FDA8DC"/>
<path d="M113.784 225.551C113.784 225.551 100.561 221.555 98.4649 238.54C96.3688 255.524 108.968 254.845 108.968 254.845C111.945 245.356 113.567 235.494 113.784 225.551Z" fill="#FDA8DC"/>
<g opacity="0.5">
<path d="M120.952 204.056C121.023 204.037 121.143 205.135 121.297 207.104C121.452 209.072 121.657 211.924 121.823 215.457L121.684 221.244C121.655 222.281 121.626 223.355 121.597 224.465L121.553 226.149C121.531 226.738 121.44 227.292 121.386 227.872L120.597 235.167C120.528 235.803 120.454 236.441 120.387 237.082C120.32 237.723 120.148 238.363 120.047 239.008L119.294 242.938L118.534 246.864C118.392 247.485 118.3 248.162 118.133 248.778C117.965 249.394 117.788 250.036 117.616 250.635L115.637 257.708C115.472 258.265 115.355 258.826 115.151 259.37L114.567 260.954L113.444 263.981L111.402 269.404C109.931 272.612 108.671 275.17 107.807 276.945C107.402 277.89 106.918 278.799 106.362 279.662C106.645 278.677 107.012 277.718 107.457 276.794C108.252 274.932 109.376 272.324 110.754 269.118L112.652 263.698L113.719 260.68C113.907 260.164 114.092 259.636 114.281 259.102C114.47 258.568 114.571 258.011 114.74 257.447L116.677 250.391L117.179 248.544C117.354 247.915 117.431 247.312 117.573 246.645L118.322 242.744C118.552 241.43 118.826 240.127 119.077 238.843C119.192 238.229 119.353 237.569 119.416 236.934L119.635 235.035L120.485 227.816C120.541 227.219 120.639 226.674 120.674 226.105C120.708 225.537 120.718 224.987 120.738 224.433L120.871 221.234L121.12 215.488L120.909 207.155C120.835 206.123 120.85 205.086 120.952 204.056Z" fill="black"/>
</g>
<g opacity="0.4">
<path d="M170.641 304.617C172.183 306.219 173.753 307.861 175.678 308.936C177.603 310.01 179.973 310.505 182.089 309.705C184.205 308.905 185.714 306.602 185.162 304.455C186.389 304.947 187.849 304.113 188.439 302.924C189.029 301.735 188.95 300.329 188.705 299.025C190.317 299.473 192.078 298.308 192.654 296.738C192.896 295.935 192.959 295.089 192.838 294.26C192.716 293.431 192.413 292.638 191.951 291.939C191.012 290.553 189.873 289.313 188.571 288.26C189.681 288.056 190.821 287.832 191.648 287.092C192.475 286.352 192.808 284.899 191.982 284.142C191.463 283.735 190.814 283.53 190.156 283.565C188.33 283.472 187.049 283.384 185.352 284.054C184.95 284.162 187.288 288.476 178.012 297.708C172.503 303.174 170.641 304.617 170.641 304.617Z" fill="black"/>
</g>
<path d="M197.106 304.633C197.119 304.682 196.348 304.737 195.171 305.087C193.641 305.537 192.224 306.306 191.014 307.344C189.804 308.383 188.828 309.666 188.152 311.11C187.627 312.218 187.482 312.962 187.405 312.953C187.404 312.772 187.433 312.591 187.488 312.418C187.61 311.942 187.768 311.475 187.959 311.022C188.604 309.52 189.584 308.186 190.825 307.122C192.066 306.059 193.535 305.294 195.118 304.886C195.592 304.762 196.077 304.679 196.566 304.638C196.744 304.604 196.927 304.603 197.106 304.633Z" fill="#EB996E"/>
<path d="M170.565 301.485C172.786 302.708 174.495 304.26 176.806 305.47C177.857 306.021 179.582 307.132 180.721 307.037C181.861 306.941 182.582 306.59 182.746 305.416C182.881 304.465 181.916 303.472 181.284 302.895C179.607 301.358 178.089 300.215 176.823 299.011C176.224 298.449 176.724 298.163 177.004 298.426C178.088 299.079 179.561 299.489 180.583 300.258C181.977 301.288 182.63 302.983 185.21 301.698C185.559 301.541 185.866 301.305 186.108 301.008C186.925 299.945 186.613 298.543 185.876 297.575C185.266 296.839 184.545 296.203 183.739 295.689C185.254 296.687 186.897 297.756 188.777 297.38C189.316 297.304 189.818 297.062 190.214 296.687C190.609 296.313 190.879 295.825 190.985 295.292C191.196 293.907 190.097 292.914 189.05 292.157C187.194 290.811 185.216 289.64 183.143 288.66C182.371 288.299 181.496 288.218 180.67 288.431C179.714 288.688 178.543 289.188 178.221 290.16C178.017 290.641 177.913 291.159 177.916 291.683C177.919 292.206 178.029 292.722 178.238 293.202C178.238 293.202 175.521 292.631 173.936 294.413C172.975 295.562 172.452 297.015 172.46 298.513L170.565 301.485Z" fill="#FFBE9D"/>
<path d="M180.585 287.895C180.083 287.553 179.698 287.066 179.482 286.499C179.265 285.933 179.228 285.313 179.374 284.724C179.567 283.816 179.87 282.902 180.345 282.588C182.417 281.211 192.837 280.266 193.336 282.498C193.835 284.729 193.389 285.979 187.783 286.648C186.796 286.767 185.257 286.981 185.257 286.981L184.477 289.287L180.585 287.895Z" fill="#FFBE9D"/>
<path d="M184.846 296.668C182.962 294.864 180.594 293.646 178.029 293.165C178.416 293.125 178.807 293.154 179.183 293.252C181.031 293.604 182.738 294.482 184.101 295.779C184.403 296.027 184.655 296.328 184.846 296.668Z" fill="#EB996E"/>
<path d="M184.701 289.431C184.664 289.488 183.863 289.131 182.819 288.822C182.381 288.685 181.934 288.574 181.483 288.487C181.135 288.429 180.918 288.446 180.912 288.401C180.906 288.356 181.128 288.274 181.498 288.285C181.977 288.309 182.451 288.395 182.907 288.543C183.976 288.856 184.756 289.352 184.701 289.431Z" fill="#EB996E"/>
<path d="M185.825 286.928C185.197 287.177 184.521 287.278 183.848 287.224C183.361 287.207 182.883 287.094 182.442 286.89C182.107 286.729 181.942 286.57 181.962 286.535C182.575 286.733 183.21 286.861 183.852 286.914C184.509 286.875 185.168 286.879 185.825 286.928Z" fill="#EB996E"/>
<path d="M179.252 301.098C178.812 300.829 178.402 300.516 178.028 300.161C177.138 299.324 176.115 298.641 174.999 298.142C173.864 297.702 172.604 297.706 171.472 298.154C171.016 298.369 170.59 298.642 170.204 298.966C170.204 298.966 170.272 298.826 170.458 298.63C170.724 298.353 171.038 298.126 171.386 297.962C171.968 297.701 172.596 297.558 173.234 297.542C173.872 297.526 174.507 297.638 175.101 297.87C176.251 298.376 177.291 299.1 178.166 300.002C178.558 300.336 178.921 300.703 179.252 301.098Z" fill="#EB996E"/>
<path d="M192.766 321.071C191.502 321.715 190.196 322.273 188.856 322.742C187.55 323.303 186.206 323.772 184.834 324.146C186.1 323.501 187.408 322.942 188.749 322.473C190.055 321.916 191.397 321.447 192.766 321.071Z" fill="#EB996E"/>
<path d="M294.701 65.8623L295.673 67.6425L297.445 68.6143L295.673 69.5861L294.701 71.3577L293.73 69.5861L291.958 68.6143L293.73 67.6425L294.701 65.8623Z" fill="#FDA8DC"/>
<path d="M315.007 109.868L315.979 111.649L317.75 112.62L315.979 113.592L315.007 115.364L314.035 113.592L312.255 112.62L314.035 111.649L315.007 109.868Z" fill="#FDA8DC"/>
<path d="M39.634 157.276L40.6058 159.056L42.386 160.028L40.6058 160.991L39.634 162.771L38.6622 160.991L36.8906 160.028L38.6622 159.056L39.634 157.276Z" fill="#FDA8DC"/>
<path d="M185.338 170L187.583 174.102L191.685 176.347L187.583 178.583L185.338 182.685L183.102 178.583L179 176.347L183.102 174.102L185.338 170Z" fill="#FDA8DC"/>
<path d="M57.8316 129.386L60.0676 133.471L64.1612 135.707L60.0676 137.952L57.8316 142.037L55.5956 137.952L51.502 135.707L55.5956 133.471L57.8316 129.386Z" fill="#FDA8DC"/>
<path d="M290.528 246.961L292.764 251.055L296.849 253.291L292.764 255.527L290.528 259.621L288.292 255.527L284.198 253.291L288.292 251.055L290.528 246.961Z" fill="#FDA8DC"/>
<path d="M117.66 73.6H106.2V67.9C109.52 67.46 112.06 66.9 113.82 66.22C115.62 65.5 117.02 64.52 118.02 63.28C119.06 62.04 120.04 60.28 120.96 58H132.48V100H117.66V73.6ZM159.939 100.78C152.819 100.78 147.279 98.9 143.319 95.14C139.399 91.34 137.439 85.98 137.439 79.06C137.439 72.06 139.399 66.68 143.319 62.92C147.279 59.12 152.819 57.22 159.939 57.22C164.619 57.22 168.639 58.06 171.999 59.74C175.359 61.38 177.919 63.78 179.679 66.94C181.479 70.1 182.379 73.9 182.379 78.34C182.379 85.5 180.399 91.04 176.439 94.96C172.519 98.84 167.019 100.78 159.939 100.78ZM152.919 78.94C152.919 83.42 153.559 86.66 154.839 88.66C156.159 90.62 157.859 91.6 159.939 91.6C162.019 91.6 163.699 90.58 164.979 88.54C166.259 86.5 166.899 83.14 166.899 78.46C166.899 74.02 166.259 70.84 164.979 68.92C163.739 67 162.059 66.04 159.939 66.04C155.259 66.04 152.919 70.34 152.919 78.94ZM236.186 58H247.586L202.106 100H190.586L236.186 58ZM184.766 68.32C184.766 66.28 185.346 64.44 186.506 62.8C187.666 61.16 189.386 59.88 191.666 58.96C193.986 58 196.766 57.52 200.006 57.52C203.286 57.52 206.086 58 208.406 58.96C210.726 59.88 212.466 61.16 213.626 62.8C214.826 64.44 215.426 66.28 215.426 68.32C215.426 70.44 214.826 72.34 213.626 74.02C212.466 75.7 210.726 77.02 208.406 77.98C206.126 78.9 203.326 79.36 200.006 79.36C196.766 79.36 193.986 78.9 191.666 77.98C189.386 77.02 187.666 75.7 186.506 74.02C185.346 72.34 184.766 70.44 184.766 68.32ZM196.226 68.32C196.226 69.96 196.566 71.2 197.246 72.04C197.966 72.88 198.906 73.3 200.066 73.3C201.266 73.3 202.206 72.9 202.886 72.1C203.566 71.26 203.906 70 203.906 68.32C203.906 66.8 203.566 65.64 202.886 64.84C202.206 64.04 201.266 63.64 200.066 63.64C198.906 63.64 197.966 64.04 197.246 64.84C196.566 65.64 196.226 66.8 196.226 68.32ZM222.866 89.44C222.866 87.4 223.446 85.56 224.606 83.92C225.766 82.28 227.486 81 229.766 80.08C232.046 79.12 234.826 78.64 238.106 78.64C241.386 78.64 244.166 79.12 246.446 80.08C248.766 81 250.506 82.28 251.666 83.92C252.866 85.56 253.466 87.4 253.466 89.44C253.466 91.56 252.866 93.46 251.666 95.14C250.506 96.78 248.766 98.08 246.446 99.04C244.166 100 241.386 100.48 238.106 100.48C234.826 100.48 232.046 100 229.766 99.04C227.486 98.08 225.766 96.78 224.606 95.14C223.446 93.46 222.866 91.56 222.866 89.44ZM234.326 89.44C234.326 91.08 234.666 92.32 235.346 93.16C236.026 93.96 236.946 94.36 238.106 94.36C239.306 94.36 240.246 93.96 240.926 93.16C241.646 92.32 242.006 91.08 242.006 89.44C242.006 87.88 241.646 86.7 240.926 85.9C240.246 85.1 239.306 84.7 238.106 84.7C236.946 84.7 236.026 85.1 235.346 85.9C234.666 86.7 234.326 87.88 234.326 89.44Z" fill="#B0FF1A"/>
<path d="M93.3327 136.1C92.9727 135.8 92.6907 135.452 92.4867 135.056C92.2947 134.648 92.1927 134.204 92.1807 133.724H93.7467C93.7707 134.096 93.9267 134.456 94.2147 134.804C94.3947 135.008 94.6047 135.17 94.8447 135.29C95.0847 135.41 95.3307 135.506 95.5827 135.578C95.8467 135.638 96.1047 135.68 96.3567 135.704C96.6087 135.716 96.8307 135.722 97.0227 135.722C97.3227 135.722 97.6527 135.698 98.0127 135.65C98.3847 135.602 98.7267 135.5 99.0387 135.344C99.3627 135.188 99.6327 134.96 99.8487 134.66C100.065 134.348 100.173 133.94 100.173 133.436C100.173 132.932 100.065 132.53 99.8487 132.23C99.6447 131.918 99.3927 131.69 99.0927 131.546C98.7807 131.39 98.4267 131.3 98.0307 131.276C97.6347 131.252 97.2807 131.24 96.9687 131.24H95.4207V129.836H96.3387C96.6867 129.836 97.0467 129.818 97.4187 129.782C97.8027 129.734 98.1567 129.626 98.4807 129.458C98.8167 129.29 99.0987 129.056 99.3267 128.756C99.5547 128.456 99.6747 128.09 99.6867 127.658C99.6867 127.226 99.6027 126.872 99.4347 126.596C99.2787 126.32 99.0627 126.104 98.7867 125.948C98.5107 125.792 98.2107 125.69 97.8867 125.642C97.5747 125.582 97.2627 125.552 96.9507 125.552C96.5427 125.552 96.1467 125.6 95.7627 125.696C95.3787 125.792 95.0487 125.948 94.7727 126.164C94.5687 126.332 94.4007 126.524 94.2687 126.74C94.1487 126.956 94.0887 127.202 94.0887 127.478H92.5227V127.334C92.5227 127.07 92.5827 126.782 92.7027 126.47C92.8227 126.158 92.9727 125.876 93.1527 125.624C93.5967 125.084 94.1607 124.7 94.8447 124.472C95.5287 124.244 96.2667 124.13 97.0587 124.13C97.5987 124.13 98.1147 124.19 98.6067 124.31C99.1107 124.418 99.5547 124.604 99.9387 124.868C100.323 125.12 100.629 125.456 100.857 125.876C101.097 126.296 101.217 126.806 101.217 127.406C101.217 127.634 101.193 127.874 101.145 128.126C101.109 128.378 101.025 128.63 100.893 128.882C100.761 129.134 100.569 129.38 100.317 129.62C100.077 129.86 99.7527 130.076 99.3447 130.268C99.7167 130.34 100.053 130.472 100.353 130.664C100.665 130.856 100.923 131.09 101.127 131.366C101.331 131.642 101.487 131.948 101.595 132.284C101.715 132.62 101.775 132.974 101.775 133.346V133.454C101.763 134.126 101.619 134.696 101.343 135.164C101.067 135.632 100.707 136.016 100.263 136.316C99.8307 136.604 99.3327 136.814 98.7687 136.946C98.2047 137.078 97.6227 137.144 97.0227 137.144C96.3147 137.144 95.6367 137.066 94.9887 136.91C94.3527 136.754 93.8007 136.484 93.3327 136.1ZM110.108 135.794C109.904 136.07 109.67 136.292 109.406 136.46C109.142 136.628 108.866 136.76 108.578 136.856C108.302 136.952 108.02 137.018 107.732 137.054C107.456 137.09 107.18 137.108 106.904 137.108C106.46 137.108 106.04 137.054 105.644 136.946C105.248 136.838 104.888 136.664 104.564 136.424C104.252 136.184 104 135.884 103.808 135.524C103.628 135.164 103.538 134.756 103.538 134.3C103.538 133.76 103.634 133.31 103.826 132.95C104.03 132.578 104.3 132.278 104.636 132.05C104.972 131.822 105.356 131.666 105.788 131.582C106.232 131.486 106.7 131.438 107.192 131.438H109.982C109.982 130.634 109.808 129.998 109.46 129.53C109.112 129.05 108.524 128.798 107.696 128.774C107.192 128.774 106.748 128.858 106.364 129.026C105.98 129.194 105.716 129.47 105.572 129.854H103.934C104.018 129.422 104.186 129.056 104.438 128.756C104.69 128.444 104.99 128.192 105.338 128C105.686 127.796 106.064 127.646 106.472 127.55C106.88 127.454 107.288 127.406 107.696 127.406C108.404 127.406 108.998 127.526 109.478 127.766C109.97 127.994 110.366 128.3 110.666 128.684C110.966 129.056 111.176 129.512 111.296 130.052C111.416 130.592 111.476 131.198 111.476 131.87V137H110.198L110.108 135.794ZM108.308 132.716C108.02 132.716 107.684 132.722 107.3 132.734C106.928 132.734 106.568 132.77 106.22 132.842C105.872 132.914 105.59 133.064 105.374 133.292C105.17 133.52 105.068 133.82 105.068 134.192C105.068 134.468 105.122 134.702 105.23 134.894C105.338 135.086 105.482 135.248 105.662 135.38C105.854 135.512 106.07 135.608 106.31 135.668C106.55 135.728 106.796 135.758 107.048 135.758C107.948 135.758 108.656 135.542 109.172 135.11C109.7 134.666 109.97 134.024 109.982 133.184V132.716H108.308ZM118.698 137V127.514H126.564V137H125.034V128.864H120.228V137H118.698ZM133.157 127.406C133.913 127.406 134.567 127.526 135.119 127.766C135.671 128.006 136.133 128.342 136.505 128.774C136.889 129.206 137.171 129.722 137.351 130.322C137.543 130.91 137.639 131.558 137.639 132.266C137.639 132.974 137.543 133.628 137.351 134.228C137.171 134.816 136.889 135.326 136.505 135.758C136.133 136.178 135.665 136.508 135.101 136.748C134.537 136.988 133.877 137.108 133.121 137.108C132.365 137.108 131.705 136.988 131.141 136.748C130.589 136.508 130.121 136.178 129.737 135.758C129.365 135.326 129.083 134.816 128.891 134.228C128.711 133.628 128.621 132.974 128.621 132.266C128.621 131.558 128.711 130.91 128.891 130.322C129.083 129.722 129.365 129.206 129.737 128.774C130.121 128.342 130.595 128.006 131.159 127.766C131.723 127.526 132.389 127.406 133.157 127.406ZM133.121 135.758C133.637 135.758 134.081 135.668 134.453 135.488C134.837 135.308 135.149 135.062 135.389 134.75C135.641 134.426 135.821 134.054 135.929 133.634C136.049 133.214 136.109 132.758 136.109 132.266C136.109 131.786 136.049 131.336 135.929 130.916C135.821 130.484 135.641 130.112 135.389 129.8C135.149 129.476 134.837 129.224 134.453 129.044C134.081 128.864 133.637 128.774 133.121 128.774C132.605 128.774 132.161 128.864 131.789 129.044C131.417 129.224 131.105 129.476 130.853 129.8C130.613 130.112 130.433 130.484 130.313 130.916C130.205 131.336 130.151 131.786 130.151 132.266C130.151 132.758 130.205 133.214 130.313 133.634C130.433 134.054 130.613 134.426 130.853 134.75C131.105 135.062 131.417 135.308 131.789 135.488C132.161 135.668 132.605 135.758 133.121 135.758ZM140.556 129.602C140.568 129.254 140.574 128.906 140.574 128.558C140.574 128.21 140.574 127.862 140.574 127.514H147.306V135.668H148.548V139.916H147.072V137H140.142V139.916H138.666V135.668C139.146 135.668 139.524 135.452 139.8 135.02C139.968 134.78 140.1 134.438 140.196 133.994C140.292 133.538 140.364 133.058 140.412 132.554C140.472 132.002 140.508 131.456 140.52 130.916C140.544 130.364 140.556 129.926 140.556 129.602ZM145.776 128.864H142.032C142.02 129.368 142.008 129.932 141.996 130.556C141.984 131.18 141.96 131.762 141.924 132.302C141.912 132.542 141.894 132.806 141.87 133.094C141.846 133.37 141.804 133.658 141.744 133.958C141.696 134.246 141.618 134.54 141.51 134.84C141.414 135.14 141.276 135.416 141.096 135.668H145.776V128.864ZM150.145 137V127.514H158.011V137H156.481V128.864H151.675V137H150.145ZM161.923 137H160.429V127.514H161.959V134.786C162.043 134.618 162.157 134.438 162.301 134.246C162.445 134.042 162.559 133.886 162.643 133.778L167.233 127.514H168.745V137H167.215V129.728C167.119 129.908 167.011 130.082 166.891 130.25C166.783 130.406 166.681 130.544 166.585 130.664L161.923 137ZM175.201 137.108C174.445 137.108 173.791 136.988 173.239 136.748C172.687 136.508 172.231 136.172 171.871 135.74C171.511 135.308 171.241 134.798 171.061 134.21C170.881 133.622 170.791 132.98 170.791 132.284C170.791 131.612 170.887 130.982 171.079 130.394C171.271 129.794 171.553 129.278 171.925 128.846C172.297 128.402 172.765 128.054 173.329 127.802C173.893 127.538 174.577 127.406 175.381 127.406C175.861 127.406 176.287 127.46 176.659 127.568C177.031 127.664 177.379 127.826 177.703 128.054C178.039 128.27 178.327 128.558 178.567 128.918C178.807 129.278 178.981 129.716 179.089 130.232H177.523C177.343 129.704 177.055 129.326 176.659 129.098C176.275 128.87 175.819 128.762 175.291 128.774C174.775 128.774 174.319 128.876 173.923 129.08C173.539 129.272 173.227 129.53 172.987 129.854C172.759 130.178 172.591 130.556 172.483 130.988C172.375 131.408 172.321 131.84 172.321 132.284C172.321 132.752 172.375 133.196 172.483 133.616C172.603 134.036 172.777 134.408 173.005 134.732C173.245 135.044 173.551 135.296 173.923 135.488C174.295 135.668 174.739 135.758 175.255 135.758C175.507 135.758 175.753 135.734 175.993 135.686C176.245 135.638 176.473 135.56 176.677 135.452C176.893 135.332 177.079 135.176 177.235 134.984C177.391 134.792 177.505 134.558 177.577 134.282H179.161C179.065 134.774 178.891 135.2 178.639 135.56C178.399 135.908 178.099 136.202 177.739 136.442C177.379 136.67 176.983 136.838 176.551 136.946C176.119 137.054 175.669 137.108 175.201 137.108ZM181.101 137V127.514H182.631V131.6H184.287L187.095 127.514H188.841L185.673 132.032L189.111 137H187.311L184.467 132.932H182.631V137H181.101ZM197.257 127.514H198.985L196.303 134.984C196.159 135.368 196.003 135.806 195.835 136.298C195.679 136.778 195.499 137.258 195.295 137.738C195.103 138.23 194.881 138.692 194.629 139.124C194.389 139.556 194.119 139.904 193.819 140.168C193.375 140.564 192.949 140.81 192.541 140.906C192.133 141.014 191.671 141.068 191.155 141.068H190.831V139.61C191.263 139.61 191.629 139.562 191.929 139.466C192.229 139.382 192.487 139.244 192.703 139.052C192.931 138.86 193.123 138.62 193.279 138.332C193.447 138.044 193.615 137.702 193.783 137.306L189.535 127.514H191.335L194.629 135.506L197.257 127.514ZM205.253 137V127.514H206.783V131.672H211.535V127.514H213.065V137H211.535V133.022H206.783V137H205.253ZM221.729 135.794C221.525 136.07 221.291 136.292 221.027 136.46C220.763 136.628 220.487 136.76 220.199 136.856C219.923 136.952 219.641 137.018 219.353 137.054C219.077 137.09 218.801 137.108 218.525 137.108C218.081 137.108 217.661 137.054 217.265 136.946C216.869 136.838 216.509 136.664 216.185 136.424C215.873 136.184 215.621 135.884 215.429 135.524C215.249 135.164 215.159 134.756 215.159 134.3C215.159 133.76 215.255 133.31 215.447 132.95C215.651 132.578 215.921 132.278 216.257 132.05C216.593 131.822 216.977 131.666 217.409 131.582C217.853 131.486 218.321 131.438 218.813 131.438H221.603C221.603 130.634 221.429 129.998 221.081 129.53C220.733 129.05 220.145 128.798 219.317 128.774C218.813 128.774 218.369 128.858 217.985 129.026C217.601 129.194 217.337 129.47 217.193 129.854H215.555C215.639 129.422 215.807 129.056 216.059 128.756C216.311 128.444 216.611 128.192 216.959 128C217.307 127.796 217.685 127.646 218.093 127.55C218.501 127.454 218.909 127.406 219.317 127.406C220.025 127.406 220.619 127.526 221.099 127.766C221.591 127.994 221.987 128.3 222.287 128.684C222.587 129.056 222.797 129.512 222.917 130.052C223.037 130.592 223.097 131.198 223.097 131.87V137H221.819L221.729 135.794ZM219.929 132.716C219.641 132.716 219.305 132.722 218.921 132.734C218.549 132.734 218.189 132.77 217.841 132.842C217.493 132.914 217.211 133.064 216.995 133.292C216.791 133.52 216.689 133.82 216.689 134.192C216.689 134.468 216.743 134.702 216.851 134.894C216.959 135.086 217.103 135.248 217.283 135.38C217.475 135.512 217.691 135.608 217.931 135.668C218.171 135.728 218.417 135.758 218.669 135.758C219.569 135.758 220.277 135.542 220.793 135.11C221.321 134.666 221.591 134.024 221.603 133.184V132.716H219.929ZM230.319 137V127.514H231.849V131.672H236.601V127.514H238.131V137H236.601V133.022H231.849V137H230.319ZM246.796 135.794C246.592 136.07 246.358 136.292 246.094 136.46C245.83 136.628 245.554 136.76 245.266 136.856C244.99 136.952 244.708 137.018 244.42 137.054C244.144 137.09 243.868 137.108 243.592 137.108C243.148 137.108 242.728 137.054 242.332 136.946C241.936 136.838 241.576 136.664 241.252 136.424C240.94 136.184 240.688 135.884 240.496 135.524C240.316 135.164 240.226 134.756 240.226 134.3C240.226 133.76 240.322 133.31 240.514 132.95C240.718 132.578 240.988 132.278 241.324 132.05C241.66 131.822 242.044 131.666 242.476 131.582C242.92 131.486 243.388 131.438 243.88 131.438H246.67C246.67 130.634 246.496 129.998 246.148 129.53C245.8 129.05 245.212 128.798 244.384 128.774C243.88 128.774 243.436 128.858 243.052 129.026C242.668 129.194 242.404 129.47 242.26 129.854H240.622C240.706 129.422 240.874 129.056 241.126 128.756C241.378 128.444 241.678 128.192 242.026 128C242.374 127.796 242.752 127.646 243.16 127.55C243.568 127.454 243.976 127.406 244.384 127.406C245.092 127.406 245.686 127.526 246.166 127.766C246.658 127.994 247.054 128.3 247.354 128.684C247.654 129.056 247.864 129.512 247.984 130.052C248.104 130.592 248.164 131.198 248.164 131.87V137H246.886L246.796 135.794ZM244.996 132.716C244.708 132.716 244.372 132.722 243.988 132.734C243.616 132.734 243.256 132.77 242.908 132.842C242.56 132.914 242.278 133.064 242.062 133.292C241.858 133.52 241.756 133.82 241.756 134.192C241.756 134.468 241.81 134.702 241.918 134.894C242.026 135.086 242.17 135.248 242.35 135.38C242.542 135.512 242.758 135.608 242.998 135.668C243.238 135.728 243.484 135.758 243.736 135.758C244.636 135.758 245.344 135.542 245.86 135.11C246.388 134.666 246.658 134.024 246.67 133.184V132.716H244.996ZM250.534 127.514H252.064V135.668H255.628V127.514H257.158V135.668H260.758V127.514H262.288V137H250.534V127.514ZM271.524 127.514H273.252L270.57 134.984C270.426 135.368 270.27 135.806 270.102 136.298C269.946 136.778 269.766 137.258 269.562 137.738C269.37 138.23 269.148 138.692 268.896 139.124C268.656 139.556 268.386 139.904 268.086 140.168C267.642 140.564 267.216 140.81 266.808 140.906C266.4 141.014 265.938 141.068 265.422 141.068H265.098V139.61C265.53 139.61 265.896 139.562 266.196 139.466C266.496 139.382 266.754 139.244 266.97 139.052C267.198 138.86 267.39 138.62 267.546 138.332C267.714 138.044 267.882 137.702 268.05 137.306L263.802 127.514H265.602L268.896 135.506L271.524 127.514ZM90.4941 159V149.514H92.0241V153.672H96.7761V149.514H98.3061V159H96.7761V155.022H92.0241V159H90.4941ZM104.901 149.406C105.657 149.406 106.311 149.526 106.863 149.766C107.415 150.006 107.877 150.342 108.249 150.774C108.633 151.206 108.915 151.722 109.095 152.322C109.287 152.91 109.383 153.558 109.383 154.266C109.383 154.974 109.287 155.628 109.095 156.228C108.915 156.816 108.633 157.326 108.249 157.758C107.877 158.178 107.409 158.508 106.845 158.748C106.281 158.988 105.621 159.108 104.865 159.108C104.109 159.108 103.449 158.988 102.885 158.748C102.333 158.508 101.865 158.178 101.481 157.758C101.109 157.326 100.827 156.816 100.635 156.228C100.455 155.628 100.365 154.974 100.365 154.266C100.365 153.558 100.455 152.91 100.635 152.322C100.827 151.722 101.109 151.206 101.481 150.774C101.865 150.342 102.339 150.006 102.903 149.766C103.467 149.526 104.133 149.406 104.901 149.406ZM104.865 157.758C105.381 157.758 105.825 157.668 106.197 157.488C106.581 157.308 106.893 157.062 107.133 156.75C107.385 156.426 107.565 156.054 107.673 155.634C107.793 155.214 107.853 154.758 107.853 154.266C107.853 153.786 107.793 153.336 107.673 152.916C107.565 152.484 107.385 152.112 107.133 151.8C106.893 151.476 106.581 151.224 106.197 151.044C105.825 150.864 105.381 150.774 104.865 150.774C104.349 150.774 103.905 150.864 103.533 151.044C103.161 151.224 102.849 151.476 102.597 151.8C102.357 152.112 102.177 152.484 102.057 152.916C101.949 153.336 101.895 153.786 101.895 154.266C101.895 154.758 101.949 155.214 102.057 155.634C102.177 156.054 102.357 156.426 102.597 156.75C102.849 157.062 103.161 157.308 103.533 157.488C103.905 157.668 104.349 157.758 104.865 157.758ZM111.43 149.514H115.102C115.714 149.514 116.236 149.556 116.668 149.64C117.112 149.724 117.484 149.874 117.784 150.09C118.048 150.27 118.252 150.51 118.396 150.81C118.552 151.11 118.63 151.464 118.63 151.872C118.63 152.82 118.204 153.498 117.352 153.906C118 154.05 118.468 154.332 118.756 154.752C119.044 155.172 119.188 155.652 119.188 156.192C119.176 156.696 119.092 157.11 118.936 157.434C118.78 157.746 118.558 158.022 118.27 158.262C117.994 158.49 117.652 158.67 117.244 158.802C116.836 158.934 116.374 159 115.858 159H111.43V149.514ZM112.996 150.864V153.564H114.31C114.61 153.564 114.916 153.558 115.228 153.546C115.54 153.522 115.816 153.468 116.056 153.384C116.356 153.288 116.608 153.132 116.812 152.916C117.016 152.7 117.124 152.442 117.136 152.142C117.136 151.794 117.058 151.542 116.902 151.386C116.758 151.218 116.578 151.098 116.362 151.026C116.146 150.942 115.912 150.894 115.66 150.882C115.408 150.87 115.174 150.864 114.958 150.864H112.996ZM112.996 157.668H115.498C115.774 157.668 116.038 157.65 116.29 157.614C116.554 157.578 116.782 157.512 116.974 157.416C117.166 157.308 117.322 157.164 117.442 156.984C117.562 156.804 117.628 156.576 117.64 156.3C117.64 155.94 117.556 155.658 117.388 155.454C117.22 155.238 116.992 155.082 116.704 154.986C116.464 154.914 116.194 154.872 115.894 154.86C115.594 154.848 115.282 154.842 114.958 154.842L112.996 154.86V157.668ZM125.449 149.406C126.205 149.406 126.859 149.526 127.411 149.766C127.963 150.006 128.425 150.342 128.797 150.774C129.181 151.206 129.463 151.722 129.643 152.322C129.835 152.91 129.931 153.558 129.931 154.266C129.931 154.974 129.835 155.628 129.643 156.228C129.463 156.816 129.181 157.326 128.797 157.758C128.425 158.178 127.957 158.508 127.393 158.748C126.829 158.988 126.169 159.108 125.413 159.108C124.657 159.108 123.997 158.988 123.433 158.748C122.881 158.508 122.413 158.178 122.029 157.758C121.657 157.326 121.375 156.816 121.183 156.228C121.003 155.628 120.913 154.974 120.913 154.266C120.913 153.558 121.003 152.91 121.183 152.322C121.375 151.722 121.657 151.206 122.029 150.774C122.413 150.342 122.887 150.006 123.451 149.766C124.015 149.526 124.681 149.406 125.449 149.406ZM125.413 157.758C125.929 157.758 126.373 157.668 126.745 157.488C127.129 157.308 127.441 157.062 127.681 156.75C127.933 156.426 128.113 156.054 128.221 155.634C128.341 155.214 128.401 154.758 128.401 154.266C128.401 153.786 128.341 153.336 128.221 152.916C128.113 152.484 127.933 152.112 127.681 151.8C127.441 151.476 127.129 151.224 126.745 151.044C126.373 150.864 125.929 150.774 125.413 150.774C124.897 150.774 124.453 150.864 124.081 151.044C123.709 151.224 123.397 151.476 123.145 151.8C122.905 152.112 122.725 152.484 122.605 152.916C122.497 153.336 122.443 153.786 122.443 154.266C122.443 154.758 122.497 155.214 122.605 155.634C122.725 156.054 122.905 156.426 123.145 156.75C123.397 157.062 123.709 157.308 124.081 157.488C124.453 157.668 124.897 157.758 125.413 157.758ZM136.028 159.108C135.272 159.108 134.618 158.988 134.066 158.748C133.514 158.508 133.058 158.172 132.698 157.74C132.338 157.308 132.068 156.798 131.888 156.21C131.708 155.622 131.618 154.98 131.618 154.284C131.618 153.612 131.714 152.982 131.906 152.394C132.098 151.794 132.38 151.278 132.752 150.846C133.124 150.402 133.592 150.054 134.156 149.802C134.72 149.538 135.404 149.406 136.208 149.406C136.688 149.406 137.114 149.46 137.486 149.568C137.858 149.664 138.206 149.826 138.53 150.054C138.866 150.27 139.154 150.558 139.394 150.918C139.634 151.278 139.808 151.716 139.916 152.232H138.35C138.17 151.704 137.882 151.326 137.486 151.098C137.102 150.87 136.646 150.762 136.118 150.774C135.602 150.774 135.146 150.876 134.75 151.08C134.366 151.272 134.054 151.53 133.814 151.854C133.586 152.178 133.418 152.556 133.31 152.988C133.202 153.408 133.148 153.84 133.148 154.284C133.148 154.752 133.202 155.196 133.31 155.616C133.43 156.036 133.604 156.408 133.832 156.732C134.072 157.044 134.378 157.296 134.75 157.488C135.122 157.668 135.566 157.758 136.082 157.758C136.334 157.758 136.58 157.734 136.82 157.686C137.072 157.638 137.3 157.56 137.504 157.452C137.72 157.332 137.906 157.176 138.062 156.984C138.218 156.792 138.332 156.558 138.404 156.282H139.988C139.892 156.774 139.718 157.2 139.466 157.56C139.226 157.908 138.926 158.202 138.566 158.442C138.206 158.67 137.81 158.838 137.378 158.946C136.946 159.054 136.496 159.108 136.028 159.108ZM148.93 149.514V150.864H145.672V159H144.142V150.864H140.884V149.514H148.93ZM150.295 159V149.514H151.825V153.672H156.577V149.514H158.107V159H156.577V155.022H151.825V159H150.295ZM167.347 149.514H169.075L166.393 156.984C166.249 157.368 166.093 157.806 165.925 158.298C165.769 158.778 165.589 159.258 165.385 159.738C165.193 160.23 164.971 160.692 164.719 161.124C164.479 161.556 164.209 161.904 163.909 162.168C163.465 162.564 163.039 162.81 162.631 162.906C162.223 163.014 161.761 163.068 161.245 163.068H160.921V161.61C161.353 161.61 161.719 161.562 162.019 161.466C162.319 161.382 162.577 161.244 162.793 161.052C163.021 160.86 163.213 160.62 163.369 160.332C163.537 160.044 163.705 159.702 163.873 159.306L159.625 149.514H161.425L164.719 157.506L167.347 149.514ZM178.178 149.406C178.934 149.406 179.588 149.526 180.14 149.766C180.704 150.006 181.166 150.342 181.526 150.774C181.898 151.206 182.174 151.722 182.354 152.322C182.546 152.91 182.642 153.558 182.642 154.266C182.642 154.974 182.546 155.628 182.354 156.228C182.174 156.816 181.898 157.326 181.526 157.758C181.166 158.178 180.704 158.508 180.14 158.748C179.588 158.988 178.934 159.108 178.178 159.108C177.482 159.108 176.87 159.006 176.342 158.802C175.826 158.598 175.388 158.316 175.028 157.956C174.668 157.584 174.386 157.146 174.182 156.642C173.99 156.126 173.87 155.556 173.822 154.932H172.022V159H170.492V149.514H172.022V153.6H173.822C173.87 152.976 173.99 152.412 174.182 151.908C174.386 151.392 174.668 150.948 175.028 150.576C175.388 150.204 175.826 149.916 176.342 149.712C176.87 149.508 177.482 149.406 178.178 149.406ZM178.178 157.758C178.694 157.758 179.138 157.668 179.51 157.488C179.882 157.308 180.182 157.062 180.41 156.75C180.65 156.426 180.824 156.054 180.932 155.634C181.052 155.214 181.112 154.758 181.112 154.266C181.112 153.786 181.052 153.336 180.932 152.916C180.824 152.484 180.65 152.112 180.41 151.8C180.182 151.476 179.882 151.224 179.51 151.044C179.138 150.864 178.694 150.774 178.178 150.774C177.662 150.774 177.218 150.864 176.846 151.044C176.486 151.224 176.192 151.476 175.964 151.8C175.736 152.112 175.568 152.484 175.46 152.916C175.352 153.336 175.298 153.786 175.298 154.266C175.298 154.758 175.352 155.214 175.46 155.634C175.568 156.054 175.736 156.426 175.964 156.75C176.192 157.062 176.486 157.308 176.846 157.488C177.218 157.668 177.662 157.758 178.178 157.758ZM191.007 162.42H189.477V149.514H190.935L191.007 150.972C191.331 150.456 191.769 150.072 192.321 149.82C192.885 149.556 193.491 149.418 194.139 149.406C194.871 149.406 195.489 149.532 195.993 149.784C196.509 150.024 196.935 150.366 197.271 150.81C197.619 151.242 197.877 151.758 198.045 152.358C198.213 152.946 198.297 153.582 198.297 154.266C198.297 154.962 198.213 155.604 198.045 156.192C197.877 156.78 197.619 157.29 197.271 157.722C196.923 158.154 196.485 158.496 195.957 158.748C195.429 158.988 194.799 159.108 194.067 159.108C193.347 159.108 192.735 158.994 192.231 158.766C191.727 158.538 191.319 158.238 191.007 157.866V162.42ZM193.941 157.758C194.457 157.758 194.889 157.668 195.237 157.488C195.597 157.296 195.885 157.044 196.101 156.732C196.329 156.408 196.491 156.036 196.587 155.616C196.695 155.196 196.755 154.746 196.767 154.266C196.767 153.786 196.713 153.336 196.605 152.916C196.509 152.484 196.347 152.112 196.119 151.8C195.891 151.488 195.591 151.242 195.219 151.062C194.859 150.87 194.421 150.774 193.905 150.774C193.293 150.774 192.765 150.942 192.321 151.278C191.877 151.602 191.541 152.016 191.313 152.52C191.181 152.796 191.091 153.084 191.043 153.384C190.995 153.672 190.971 153.972 190.971 154.284C190.971 154.644 190.995 154.98 191.043 155.292C191.091 155.592 191.181 155.88 191.313 156.156C191.541 156.612 191.871 156.996 192.303 157.308C192.747 157.608 193.293 157.758 193.941 157.758ZM206.515 157.794C206.311 158.07 206.077 158.292 205.813 158.46C205.549 158.628 205.273 158.76 204.985 158.856C204.709 158.952 204.427 159.018 204.139 159.054C203.863 159.09 203.587 159.108 203.311 159.108C202.867 159.108 202.447 159.054 202.051 158.946C201.655 158.838 201.295 158.664 200.971 158.424C200.659 158.184 200.407 157.884 200.215 157.524C200.035 157.164 199.945 156.756 199.945 156.3C199.945 155.76 200.041 155.31 200.233 154.95C200.437 154.578 200.707 154.278 201.043 154.05C201.379 153.822 201.763 153.666 202.195 153.582C202.639 153.486 203.107 153.438 203.599 153.438H206.389C206.389 152.634 206.215 151.998 205.867 151.53C205.519 151.05 204.931 150.798 204.103 150.774C203.599 150.774 203.155 150.858 202.771 151.026C202.387 151.194 202.123 151.47 201.979 151.854H200.341C200.425 151.422 200.593 151.056 200.845 150.756C201.097 150.444 201.397 150.192 201.745 150C202.093 149.796 202.471 149.646 202.879 149.55C203.287 149.454 203.695 149.406 204.103 149.406C204.811 149.406 205.405 149.526 205.885 149.766C206.377 149.994 206.773 150.3 207.073 150.684C207.373 151.056 207.583 151.512 207.703 152.052C207.823 152.592 207.883 153.198 207.883 153.87V159H206.605L206.515 157.794ZM204.715 154.716C204.427 154.716 204.091 154.722 203.707 154.734C203.335 154.734 202.975 154.77 202.627 154.842C202.279 154.914 201.997 155.064 201.781 155.292C201.577 155.52 201.475 155.82 201.475 156.192C201.475 156.468 201.529 156.702 201.637 156.894C201.745 157.086 201.889 157.248 202.069 157.38C202.261 157.512 202.477 157.608 202.717 157.668C202.957 157.728 203.203 157.758 203.455 157.758C204.355 157.758 205.063 157.542 205.579 157.11C206.107 156.666 206.377 156.024 206.389 155.184V154.716H204.715ZM214.304 159.108C213.548 159.108 212.894 158.988 212.342 158.748C211.79 158.508 211.334 158.172 210.974 157.74C210.614 157.308 210.344 156.798 210.164 156.21C209.984 155.622 209.894 154.98 209.894 154.284C209.894 153.612 209.99 152.982 210.182 152.394C210.374 151.794 210.656 151.278 211.028 150.846C211.4 150.402 211.868 150.054 212.432 149.802C212.996 149.538 213.68 149.406 214.484 149.406C214.964 149.406 215.39 149.46 215.762 149.568C216.134 149.664 216.482 149.826 216.806 150.054C217.142 150.27 217.43 150.558 217.67 150.918C217.91 151.278 218.084 151.716 218.192 152.232H216.626C216.446 151.704 216.158 151.326 215.762 151.098C215.378 150.87 214.922 150.762 214.394 150.774C213.878 150.774 213.422 150.876 213.026 151.08C212.642 151.272 212.33 151.53 212.09 151.854C211.862 152.178 211.694 152.556 211.586 152.988C211.478 153.408 211.424 153.84 211.424 154.284C211.424 154.752 211.478 155.196 211.586 155.616C211.706 156.036 211.88 156.408 212.108 156.732C212.348 157.044 212.654 157.296 213.026 157.488C213.398 157.668 213.842 157.758 214.358 157.758C214.61 157.758 214.856 157.734 215.096 157.686C215.348 157.638 215.576 157.56 215.78 157.452C215.996 157.332 216.182 157.176 216.338 156.984C216.494 156.792 216.608 156.558 216.68 156.282H218.264C218.168 156.774 217.994 157.2 217.742 157.56C217.502 157.908 217.202 158.202 216.842 158.442C216.482 158.67 216.086 158.838 215.654 158.946C215.222 159.054 214.772 159.108 214.304 159.108ZM224.429 159.108C223.673 159.108 223.019 158.988 222.467 158.748C221.915 158.508 221.459 158.172 221.099 157.74C220.739 157.308 220.469 156.798 220.289 156.21C220.109 155.622 220.019 154.98 220.019 154.284C220.019 153.612 220.115 152.982 220.307 152.394C220.499 151.794 220.781 151.278 221.153 150.846C221.525 150.402 221.993 150.054 222.557 149.802C223.121 149.538 223.805 149.406 224.609 149.406C225.089 149.406 225.515 149.46 225.887 149.568C226.259 149.664 226.607 149.826 226.931 150.054C227.267 150.27 227.555 150.558 227.795 150.918C228.035 151.278 228.209 151.716 228.317 152.232H226.751C226.571 151.704 226.283 151.326 225.887 151.098C225.503 150.87 225.047 150.762 224.519 150.774C224.003 150.774 223.547 150.876 223.151 151.08C222.767 151.272 222.455 151.53 222.215 151.854C221.987 152.178 221.819 152.556 221.711 152.988C221.603 153.408 221.549 153.84 221.549 154.284C221.549 154.752 221.603 155.196 221.711 155.616C221.831 156.036 222.005 156.408 222.233 156.732C222.473 157.044 222.779 157.296 223.151 157.488C223.523 157.668 223.967 157.758 224.483 157.758C224.735 157.758 224.981 157.734 225.221 157.686C225.473 157.638 225.701 157.56 225.905 157.452C226.121 157.332 226.307 157.176 226.463 156.984C226.619 156.792 226.733 156.558 226.805 156.282H228.389C228.293 156.774 228.119 157.2 227.867 157.56C227.627 157.908 227.327 158.202 226.967 158.442C226.607 158.67 226.211 158.838 225.779 158.946C225.347 159.054 224.897 159.108 224.429 159.108ZM230.328 149.514H231.894V153.132H233.604C234.144 153.132 234.636 153.174 235.08 153.258C235.536 153.33 235.938 153.486 236.286 153.726C236.61 153.966 236.856 154.272 237.024 154.644C237.204 155.004 237.294 155.454 237.294 155.994C237.27 156.534 237.168 156.984 236.988 157.344C236.82 157.692 236.598 157.986 236.322 158.226C235.986 158.502 235.578 158.7 235.098 158.82C234.618 158.94 234.126 159 233.622 159H230.328V149.514ZM238.608 159V149.514H240.138V159H238.608ZM232.398 157.668C232.854 157.668 233.31 157.662 233.766 157.65C234.234 157.626 234.636 157.53 234.972 157.362C235.2 157.266 235.38 157.104 235.512 156.876C235.656 156.636 235.734 156.36 235.746 156.048C235.746 155.676 235.668 155.382 235.512 155.166C235.368 154.95 235.176 154.794 234.936 154.698C234.708 154.59 234.45 154.524 234.162 154.5C233.874 154.476 233.592 154.464 233.316 154.464H231.894V157.668H232.398ZM243.427 154.554C243.487 153.69 243.529 152.85 243.553 152.034C243.589 151.218 243.613 150.378 243.625 149.514H250.213V159H248.683V150.864H245.119L244.957 154.59C244.933 155.07 244.879 155.61 244.795 156.21C244.711 156.81 244.537 157.356 244.273 157.848C244.069 158.196 243.793 158.478 243.445 158.694C243.097 158.91 242.695 159.018 242.239 159.018H241.681V157.668C242.161 157.668 242.545 157.464 242.833 157.056C243.001 156.816 243.133 156.468 243.229 156.012C243.325 155.556 243.391 155.07 243.427 154.554ZM252.617 159V149.514H254.147V153.6H255.803L258.611 149.514H260.357L257.189 154.032L260.627 159H258.827L255.983 154.932H254.147V159H252.617ZM268.773 149.514H270.501L267.819 156.984C267.675 157.368 267.519 157.806 267.351 158.298C267.195 158.778 267.015 159.258 266.811 159.738C266.619 160.23 266.397 160.692 266.145 161.124C265.905 161.556 265.635 161.904 265.335 162.168C264.891 162.564 264.465 162.81 264.057 162.906C263.649 163.014 263.187 163.068 262.671 163.068H262.347V161.61C262.779 161.61 263.145 161.562 263.445 161.466C263.745 161.382 264.003 161.244 264.219 161.052C264.447 160.86 264.639 160.62 264.795 160.332C264.963 160.044 265.131 159.702 265.299 159.306L261.051 149.514H262.851L266.145 157.506L268.773 149.514Z" fill="white"/>
</g>
<defs>
<clipPath id="clip0_835_10894">
<path d="M0 180C0 80.5887 80.5887 0 180 0C279.411 0 360 80.5887 360 180C360 279.411 279.411 360 180 360C80.5887 360 0 279.411 0 180Z" fill="white"/>
</clipPath>
</defs>
</svg>
