<svg width="360" height="430" viewBox="0 0 360 430" fill="none" xmlns="http://www.w3.org/2000/svg">
<rect width="360" height="430" fill="#FDF8F1"/>
<circle cx="180" cy="179" r="179" fill="#122023"/>
<path d="M109.62 70H107.3V57.94H100.46V70H98.14V55.86H109.62V70ZM112.906 70V55.86H118.086C118.899 55.86 119.626 55.9533 120.266 56.14C120.919 56.3133 121.472 56.5933 121.926 56.98C122.379 57.3667 122.726 57.8667 122.966 58.48C123.219 59.08 123.346 59.8 123.346 60.64C123.346 61.4133 123.219 62.1067 122.966 62.72C122.712 63.3333 122.352 63.8533 121.886 64.28C121.419 64.6933 120.852 65.0133 120.186 65.24C119.532 65.4667 118.799 65.58 117.986 65.58H115.206V70H112.906ZM115.206 63.52H117.866C118.306 63.52 118.712 63.4667 119.086 63.36C119.472 63.2533 119.806 63.0867 120.086 62.86C120.366 62.6333 120.586 62.3467 120.746 62C120.919 61.6533 121.012 61.24 121.026 60.76C121.026 59.76 120.766 59.04 120.246 58.6C119.739 58.16 118.992 57.94 118.006 57.94H115.206V63.52ZM125.757 70V55.86H128.077V66.24L135.337 55.86H137.417V70H135.097V59.72L127.837 70H125.757ZM140.679 70V55.86H146.299C146.899 55.86 147.472 55.9133 148.019 56.02C148.579 56.1267 149.065 56.3133 149.479 56.58C149.905 56.8467 150.245 57.2067 150.499 57.66C150.752 58.1133 150.879 58.6933 150.879 59.4C150.879 60.08 150.739 60.6867 150.459 61.22C150.179 61.7533 149.719 62.1733 149.079 62.48C149.945 62.6933 150.579 63.1 150.979 63.7C151.379 64.2867 151.579 65.0067 151.579 65.86C151.579 66.7533 151.399 67.4733 151.039 68.02C150.679 68.5533 150.219 68.9667 149.659 69.26C149.099 69.5533 148.479 69.7533 147.799 69.86C147.132 69.9533 146.492 70 145.879 70H140.679ZM142.999 57.94V61.82H145.699C146.032 61.82 146.372 61.7933 146.719 61.74C147.079 61.6867 147.399 61.5867 147.679 61.44C147.959 61.28 148.185 61.0733 148.359 60.82C148.545 60.5533 148.639 60.2067 148.639 59.78C148.639 59.3667 148.565 59.04 148.419 58.8C148.272 58.5467 148.079 58.36 147.839 58.24C147.599 58.1067 147.319 58.0267 146.999 58C146.692 57.96 146.372 57.94 146.039 57.94H142.999ZM142.999 67.94H145.839C146.199 67.94 146.579 67.92 146.979 67.88C147.392 67.8267 147.765 67.7267 148.099 67.58C148.432 67.42 148.705 67.2 148.919 66.92C149.145 66.64 149.259 66.26 149.259 65.78C149.259 65.38 149.172 65.0533 148.999 64.8C148.839 64.5333 148.625 64.3333 148.359 64.2C148.092 64.0533 147.792 63.9533 147.459 63.9C147.139 63.8467 146.812 63.82 146.479 63.82C146.185 63.82 145.892 63.82 145.599 63.82L143.879 63.84C143.585 63.84 143.292 63.84 142.999 63.84V67.94ZM154.097 70V55.86H163.917V57.94H156.417V61.96H163.057V64.06H156.417V67.94H163.917V70H154.097ZM165.121 73.74V67.94H165.281C165.695 67.94 166.028 67.8333 166.281 67.62C166.548 67.3933 166.761 67.0867 166.921 66.7C167.081 66.3133 167.195 65.8667 167.261 65.36C167.341 64.84 167.401 64.28 167.441 63.68C167.521 62.3467 167.568 61.0467 167.581 59.78C167.608 58.5 167.635 57.1933 167.661 55.86H177.281V67.94H178.981V73.74H176.681V70H167.421V73.74H165.121ZM174.961 67.94V57.94H169.861L169.721 62.96C169.708 63.28 169.688 63.6533 169.661 64.08C169.648 64.4933 169.615 64.9267 169.561 65.38C169.521 65.82 169.455 66.2667 169.361 66.72C169.268 67.16 169.148 67.5667 169.001 67.94H174.961ZM180.953 70V55.86H183.273V66.24L190.533 55.86H192.613V70H190.293V59.72L183.033 70H180.953ZM199.985 73.74V67.94H200.145C200.558 67.94 200.891 67.8333 201.145 67.62C201.411 67.3933 201.625 67.0867 201.785 66.7C201.945 66.3133 202.058 65.8667 202.125 65.36C202.205 64.84 202.265 64.28 202.305 63.68C202.385 62.3467 202.431 61.0467 202.445 59.78C202.471 58.5 202.498 57.1933 202.525 55.86H212.145V67.94H213.845V73.74H211.545V70H202.285V73.74H199.985ZM209.825 67.94V57.94H204.725L204.585 62.96C204.571 63.28 204.551 63.6533 204.525 64.08C204.511 64.4933 204.478 64.9267 204.425 65.38C204.385 65.82 204.318 66.2667 204.225 66.72C204.131 67.16 204.011 67.5667 203.865 67.94H209.825ZM215.816 70V55.86H220.996C221.809 55.86 222.536 55.9533 223.176 56.14C223.829 56.3133 224.382 56.5933 224.836 56.98C225.289 57.3667 225.636 57.8667 225.876 58.48C226.129 59.08 226.256 59.8 226.256 60.64C226.256 61.4133 226.129 62.1067 225.876 62.72C225.622 63.3333 225.262 63.8533 224.796 64.28C224.329 64.6933 223.762 65.0133 223.096 65.24C222.442 65.4667 221.709 65.58 220.896 65.58H218.116V70H215.816ZM218.116 63.52H220.776C221.216 63.52 221.622 63.4667 221.996 63.36C222.382 63.2533 222.716 63.0867 222.996 62.86C223.276 62.6333 223.496 62.3467 223.656 62C223.829 61.6533 223.922 61.24 223.936 60.76C223.936 59.76 223.676 59.04 223.156 58.6C222.649 58.16 221.902 57.94 220.916 57.94H218.116V63.52ZM234.007 63.7C234.021 63.66 234.034 63.6133 234.047 63.56C234.074 63.4933 234.121 63.3733 234.187 63.2C234.254 63.0267 234.354 62.7733 234.487 62.44C234.621 62.1067 234.801 61.66 235.027 61.1C235.254 60.5267 235.534 59.8133 235.867 58.96C236.214 58.1067 236.634 57.0667 237.127 55.84H239.687L235.287 66.2C235.047 66.72 234.761 67.24 234.427 67.76C234.107 68.2667 233.707 68.7 233.227 69.06C232.747 69.42 232.201 69.6667 231.587 69.8C230.974 69.9333 230.241 70 229.387 70V67.9C229.667 67.9 229.954 67.8933 230.247 67.88C230.541 67.8667 230.834 67.8067 231.127 67.7C231.434 67.58 231.727 67.4 232.007 67.16C232.287 66.92 232.547 66.5733 232.787 66.12L227.227 55.84H229.927L234.007 63.7ZM241.206 70V55.86H250.666V57.94H243.526V70H241.206ZM257.516 55.86L262.836 70H260.296L259.256 67.14H252.836L251.776 70H249.256L254.616 55.86H257.516ZM258.536 65.06L256.056 58.16L253.556 65.06H258.536Z" fill="#B0FF1A"/>
<path d="M83.074 103H81.508V91.696H74.632V103H73.066V90.274H83.074V103ZM90.0304 93.406C90.7864 93.406 91.4404 93.526 91.9924 93.766C92.5444 94.006 93.0064 94.342 93.3784 94.774C93.7624 95.206 94.0444 95.722 94.2244 96.322C94.4164 96.91 94.5124 97.558 94.5124 98.266C94.5124 98.974 94.4164 99.628 94.2244 100.228C94.0444 100.816 93.7624 101.326 93.3784 101.758C93.0064 102.178 92.5384 102.508 91.9744 102.748C91.4104 102.988 90.7504 103.108 89.9944 103.108C89.2384 103.108 88.5784 102.988 88.0144 102.748C87.4624 102.508 86.9944 102.178 86.6104 101.758C86.2384 101.326 85.9564 100.816 85.7644 100.228C85.5844 99.628 85.4944 98.974 85.4944 98.266C85.4944 97.558 85.5844 96.91 85.7644 96.322C85.9564 95.722 86.2384 95.206 86.6104 94.774C86.9944 94.342 87.4684 94.006 88.0324 93.766C88.5964 93.526 89.2624 93.406 90.0304 93.406ZM89.9944 101.758C90.5104 101.758 90.9544 101.668 91.3264 101.488C91.7104 101.308 92.0224 101.062 92.2624 100.75C92.5144 100.426 92.6944 100.054 92.8024 99.634C92.9224 99.214 92.9824 98.758 92.9824 98.266C92.9824 97.786 92.9224 97.336 92.8024 96.916C92.6944 96.484 92.5144 96.112 92.2624 95.8C92.0224 95.476 91.7104 95.224 91.3264 95.044C90.9544 94.864 90.5104 94.774 89.9944 94.774C89.4784 94.774 89.0344 94.864 88.6624 95.044C88.2904 95.224 87.9784 95.476 87.7264 95.8C87.4864 96.112 87.3064 96.484 87.1864 96.916C87.0784 97.336 87.0244 97.786 87.0244 98.266C87.0244 98.758 87.0784 99.214 87.1864 99.634C87.3064 100.054 87.4864 100.426 87.7264 100.75C87.9784 101.062 88.2904 101.308 88.6624 101.488C89.0344 101.668 89.4784 101.758 89.9944 101.758ZM97.3536 98.554C97.4136 97.69 97.4556 96.85 97.4796 96.034C97.5156 95.218 97.5396 94.378 97.5516 93.514H104.14V103H102.61V94.864H99.0456L98.8836 98.59C98.8596 99.07 98.8056 99.61 98.7216 100.21C98.6376 100.81 98.4636 101.356 98.1996 101.848C97.9956 102.196 97.7196 102.478 97.3716 102.694C97.0236 102.91 96.6216 103.018 96.1656 103.018H95.6076V101.668C96.0876 101.668 96.4716 101.464 96.7596 101.056C96.9276 100.816 97.0596 100.468 97.1556 100.012C97.2516 99.556 97.3176 99.07 97.3536 98.554ZM113.366 93.514H115.094L112.412 100.984C112.268 101.368 112.112 101.806 111.944 102.298C111.788 102.778 111.608 103.258 111.404 103.738C111.212 104.23 110.99 104.692 110.738 105.124C110.498 105.556 110.228 105.904 109.928 106.168C109.484 106.564 109.058 106.81 108.65 106.906C108.242 107.014 107.78 107.068 107.264 107.068H106.94V105.61C107.372 105.61 107.738 105.562 108.038 105.466C108.338 105.382 108.596 105.244 108.812 105.052C109.04 104.86 109.232 104.62 109.388 104.332C109.556 104.044 109.724 103.702 109.892 103.306L105.644 93.514H107.444L110.738 101.506L113.366 93.514ZM116.097 93.514H117.627V95.638C117.627 96.058 117.651 96.43 117.699 96.754C117.759 97.066 117.867 97.33 118.023 97.546C118.179 97.762 118.401 97.93 118.689 98.05C118.977 98.158 119.355 98.212 119.823 98.212C120.183 98.212 120.561 98.194 120.957 98.158C121.365 98.122 121.743 98.068 122.091 97.996V93.514H123.621V103H122.091V99.346C121.635 99.43 121.191 99.49 120.759 99.526C120.339 99.55 119.961 99.562 119.625 99.562C118.953 99.562 118.389 99.484 117.933 99.328C117.489 99.172 117.129 98.938 116.853 98.626C116.577 98.302 116.379 97.906 116.259 97.438C116.151 96.958 116.097 96.394 116.097 95.746V93.514ZM127.532 103H126.038V93.514H127.568V100.786C127.652 100.618 127.766 100.438 127.91 100.246C128.054 100.042 128.168 99.886 128.252 99.778L132.842 93.514H134.354V103H132.824V95.728C132.728 95.908 132.62 96.082 132.5 96.25C132.392 96.406 132.29 96.544 132.194 96.664L127.532 103ZM149.64 90.274V99.04H151.134V100.462H149.64V103H148.074V100.462H141.162V99.292L147.39 90.274H149.64ZM143.052 99.04H148.074V91.696L143.052 99.04ZM157.44 93.514H158.97V95.638C158.97 96.058 158.994 96.43 159.042 96.754C159.102 97.066 159.21 97.33 159.366 97.546C159.522 97.762 159.744 97.93 160.032 98.05C160.32 98.158 160.698 98.212 161.166 98.212C161.526 98.212 161.904 98.194 162.3 98.158C162.708 98.122 163.086 98.068 163.434 97.996V93.514H164.964V103H163.434V99.346C162.978 99.43 162.534 99.49 162.102 99.526C161.682 99.55 161.304 99.562 160.968 99.562C160.296 99.562 159.732 99.484 159.276 99.328C158.832 99.172 158.472 98.938 158.196 98.626C157.92 98.302 157.722 97.906 157.602 97.438C157.494 96.958 157.44 96.394 157.44 95.746V93.514ZM173.628 101.794C173.424 102.07 173.19 102.292 172.926 102.46C172.662 102.628 172.386 102.76 172.098 102.856C171.822 102.952 171.54 103.018 171.252 103.054C170.976 103.09 170.7 103.108 170.424 103.108C169.98 103.108 169.56 103.054 169.164 102.946C168.768 102.838 168.408 102.664 168.084 102.424C167.772 102.184 167.52 101.884 167.328 101.524C167.148 101.164 167.058 100.756 167.058 100.3C167.058 99.76 167.154 99.31 167.346 98.95C167.55 98.578 167.82 98.278 168.156 98.05C168.492 97.822 168.876 97.666 169.308 97.582C169.752 97.486 170.22 97.438 170.712 97.438H173.502C173.502 96.634 173.328 95.998 172.98 95.53C172.632 95.05 172.044 94.798 171.216 94.774C170.712 94.774 170.268 94.858 169.884 95.026C169.5 95.194 169.236 95.47 169.092 95.854H167.454C167.538 95.422 167.706 95.056 167.958 94.756C168.21 94.444 168.51 94.192 168.858 94C169.206 93.796 169.584 93.646 169.992 93.55C170.4 93.454 170.808 93.406 171.216 93.406C171.924 93.406 172.518 93.526 172.998 93.766C173.49 93.994 173.886 94.3 174.186 94.684C174.486 95.056 174.696 95.512 174.816 96.052C174.936 96.592 174.996 97.198 174.996 97.87V103H173.718L173.628 101.794ZM171.828 98.716C171.54 98.716 171.204 98.722 170.82 98.734C170.448 98.734 170.088 98.77 169.74 98.842C169.392 98.914 169.11 99.064 168.894 99.292C168.69 99.52 168.588 99.82 168.588 100.192C168.588 100.468 168.642 100.702 168.75 100.894C168.858 101.086 169.002 101.248 169.182 101.38C169.374 101.512 169.59 101.608 169.83 101.668C170.07 101.728 170.316 101.758 170.568 101.758C171.468 101.758 172.176 101.542 172.692 101.11C173.22 100.666 173.49 100.024 173.502 99.184V98.716H171.828ZM181.416 103.108C180.66 103.108 180.006 102.988 179.454 102.748C178.902 102.508 178.446 102.172 178.086 101.74C177.726 101.308 177.456 100.798 177.276 100.21C177.096 99.622 177.006 98.98 177.006 98.284C177.006 97.612 177.102 96.982 177.294 96.394C177.486 95.794 177.768 95.278 178.14 94.846C178.512 94.402 178.98 94.054 179.544 93.802C180.108 93.538 180.792 93.406 181.596 93.406C182.076 93.406 182.502 93.46 182.874 93.568C183.246 93.664 183.594 93.826 183.918 94.054C184.254 94.27 184.542 94.558 184.782 94.918C185.022 95.278 185.196 95.716 185.304 96.232H183.738C183.558 95.704 183.27 95.326 182.874 95.098C182.49 94.87 182.034 94.762 181.506 94.774C180.99 94.774 180.534 94.876 180.138 95.08C179.754 95.272 179.442 95.53 179.202 95.854C178.974 96.178 178.806 96.556 178.698 96.988C178.59 97.408 178.536 97.84 178.536 98.284C178.536 98.752 178.59 99.196 178.698 99.616C178.818 100.036 178.992 100.408 179.22 100.732C179.46 101.044 179.766 101.296 180.138 101.488C180.51 101.668 180.954 101.758 181.47 101.758C181.722 101.758 181.968 101.734 182.208 101.686C182.46 101.638 182.688 101.56 182.892 101.452C183.108 101.332 183.294 101.176 183.45 100.984C183.606 100.792 183.72 100.558 183.792 100.282H185.376C185.28 100.774 185.106 101.2 184.854 101.56C184.614 101.908 184.314 102.202 183.954 102.442C183.594 102.67 183.198 102.838 182.766 102.946C182.334 103.054 181.884 103.108 181.416 103.108ZM193.561 101.794C193.357 102.07 193.123 102.292 192.859 102.46C192.595 102.628 192.319 102.76 192.031 102.856C191.755 102.952 191.473 103.018 191.185 103.054C190.909 103.09 190.633 103.108 190.357 103.108C189.913 103.108 189.493 103.054 189.097 102.946C188.701 102.838 188.341 102.664 188.017 102.424C187.705 102.184 187.453 101.884 187.261 101.524C187.081 101.164 186.991 100.756 186.991 100.3C186.991 99.76 187.087 99.31 187.279 98.95C187.483 98.578 187.753 98.278 188.089 98.05C188.425 97.822 188.809 97.666 189.241 97.582C189.685 97.486 190.153 97.438 190.645 97.438H193.435C193.435 96.634 193.261 95.998 192.913 95.53C192.565 95.05 191.977 94.798 191.149 94.774C190.645 94.774 190.201 94.858 189.817 95.026C189.433 95.194 189.169 95.47 189.025 95.854H187.387C187.471 95.422 187.639 95.056 187.891 94.756C188.143 94.444 188.443 94.192 188.791 94C189.139 93.796 189.517 93.646 189.925 93.55C190.333 93.454 190.741 93.406 191.149 93.406C191.857 93.406 192.451 93.526 192.931 93.766C193.423 93.994 193.819 94.3 194.119 94.684C194.419 95.056 194.629 95.512 194.749 96.052C194.869 96.592 194.929 97.198 194.929 97.87V103H193.651L193.561 101.794ZM191.761 98.716C191.473 98.716 191.137 98.722 190.753 98.734C190.381 98.734 190.021 98.77 189.673 98.842C189.325 98.914 189.043 99.064 188.827 99.292C188.623 99.52 188.521 99.82 188.521 100.192C188.521 100.468 188.575 100.702 188.683 100.894C188.791 101.086 188.935 101.248 189.115 101.38C189.307 101.512 189.523 101.608 189.763 101.668C190.003 101.728 190.249 101.758 190.501 101.758C191.401 101.758 192.109 101.542 192.625 101.11C193.153 100.666 193.423 100.024 193.435 99.184V98.716H191.761ZM202.151 93.514H205.823C206.435 93.514 206.957 93.556 207.389 93.64C207.833 93.724 208.205 93.874 208.505 94.09C208.769 94.27 208.973 94.51 209.117 94.81C209.273 95.11 209.351 95.464 209.351 95.872C209.351 96.82 208.925 97.498 208.073 97.906C208.721 98.05 209.189 98.332 209.477 98.752C209.765 99.172 209.909 99.652 209.909 100.192C209.897 100.696 209.813 101.11 209.657 101.434C209.501 101.746 209.279 102.022 208.991 102.262C208.715 102.49 208.373 102.67 207.965 102.802C207.557 102.934 207.095 103 206.579 103H202.151V93.514ZM203.717 94.864V97.564H205.031C205.331 97.564 205.637 97.558 205.949 97.546C206.261 97.522 206.537 97.468 206.777 97.384C207.077 97.288 207.329 97.132 207.533 96.916C207.737 96.7 207.845 96.442 207.857 96.142C207.857 95.794 207.779 95.542 207.623 95.386C207.479 95.218 207.299 95.098 207.083 95.026C206.867 94.942 206.633 94.894 206.381 94.882C206.129 94.87 205.895 94.864 205.679 94.864H203.717ZM203.717 101.668H206.219C206.495 101.668 206.759 101.65 207.011 101.614C207.275 101.578 207.503 101.512 207.695 101.416C207.887 101.308 208.043 101.164 208.163 100.984C208.283 100.804 208.349 100.576 208.361 100.3C208.361 99.94 208.277 99.658 208.109 99.454C207.941 99.238 207.713 99.082 207.425 98.986C207.185 98.914 206.915 98.872 206.615 98.86C206.315 98.848 206.003 98.842 205.679 98.842L203.717 98.86V101.668ZM216.847 103V93.514H224.713V103H223.183V94.864H218.377V103H216.847ZM231.306 93.406C232.062 93.406 232.716 93.526 233.268 93.766C233.82 94.006 234.282 94.342 234.654 94.774C235.038 95.206 235.32 95.722 235.5 96.322C235.692 96.91 235.788 97.558 235.788 98.266C235.788 98.974 235.692 99.628 235.5 100.228C235.32 100.816 235.038 101.326 234.654 101.758C234.282 102.178 233.814 102.508 233.25 102.748C232.686 102.988 232.026 103.108 231.27 103.108C230.514 103.108 229.854 102.988 229.29 102.748C228.738 102.508 228.27 102.178 227.886 101.758C227.514 101.326 227.232 100.816 227.04 100.228C226.86 99.628 226.77 98.974 226.77 98.266C226.77 97.558 226.86 96.91 227.04 96.322C227.232 95.722 227.514 95.206 227.886 94.774C228.27 94.342 228.744 94.006 229.308 93.766C229.872 93.526 230.538 93.406 231.306 93.406ZM231.27 101.758C231.786 101.758 232.23 101.668 232.602 101.488C232.986 101.308 233.298 101.062 233.538 100.75C233.79 100.426 233.97 100.054 234.078 99.634C234.198 99.214 234.258 98.758 234.258 98.266C234.258 97.786 234.198 97.336 234.078 96.916C233.97 96.484 233.79 96.112 233.538 95.8C233.298 95.476 232.986 95.224 232.602 95.044C232.23 94.864 231.786 94.774 231.27 94.774C230.754 94.774 230.31 94.864 229.938 95.044C229.566 95.224 229.254 95.476 229.002 95.8C228.762 96.112 228.582 96.484 228.462 96.916C228.354 97.336 228.3 97.786 228.3 98.266C228.3 98.758 228.354 99.214 228.462 99.634C228.582 100.054 228.762 100.426 229.002 100.75C229.254 101.062 229.566 101.308 229.938 101.488C230.31 101.668 230.754 101.758 231.27 101.758ZM238.704 95.602C238.716 95.254 238.722 94.906 238.722 94.558C238.722 94.21 238.722 93.862 238.722 93.514H245.454V101.668H246.696V105.916H245.22V103H238.29V105.916H236.814V101.668C237.294 101.668 237.672 101.452 237.948 101.02C238.116 100.78 238.248 100.438 238.344 99.994C238.44 99.538 238.512 99.058 238.56 98.554C238.62 98.002 238.656 97.456 238.668 96.916C238.692 96.364 238.704 95.926 238.704 95.602ZM243.924 94.864H240.18C240.168 95.368 240.156 95.932 240.144 96.556C240.132 97.18 240.108 97.762 240.072 98.302C240.06 98.542 240.042 98.806 240.018 99.094C239.994 99.37 239.952 99.658 239.892 99.958C239.844 100.246 239.766 100.54 239.658 100.84C239.562 101.14 239.424 101.416 239.244 101.668H243.924V94.864ZM254.54 101.794C254.336 102.07 254.102 102.292 253.838 102.46C253.574 102.628 253.298 102.76 253.01 102.856C252.734 102.952 252.452 103.018 252.164 103.054C251.888 103.09 251.612 103.108 251.336 103.108C250.892 103.108 250.472 103.054 250.076 102.946C249.68 102.838 249.32 102.664 248.996 102.424C248.684 102.184 248.432 101.884 248.24 101.524C248.06 101.164 247.97 100.756 247.97 100.3C247.97 99.76 248.066 99.31 248.258 98.95C248.462 98.578 248.732 98.278 249.068 98.05C249.404 97.822 249.788 97.666 250.22 97.582C250.664 97.486 251.132 97.438 251.624 97.438H254.414C254.414 96.634 254.24 95.998 253.892 95.53C253.544 95.05 252.956 94.798 252.128 94.774C251.624 94.774 251.18 94.858 250.796 95.026C250.412 95.194 250.148 95.47 250.004 95.854H248.366C248.45 95.422 248.618 95.056 248.87 94.756C249.122 94.444 249.422 94.192 249.77 94C250.118 93.796 250.496 93.646 250.904 93.55C251.312 93.454 251.72 93.406 252.128 93.406C252.836 93.406 253.43 93.526 253.91 93.766C254.402 93.994 254.798 94.3 255.098 94.684C255.398 95.056 255.608 95.512 255.728 96.052C255.848 96.592 255.908 97.198 255.908 97.87V103H254.63L254.54 101.794ZM252.74 98.716C252.452 98.716 252.116 98.722 251.732 98.734C251.36 98.734 251 98.77 250.652 98.842C250.304 98.914 250.022 99.064 249.806 99.292C249.602 99.52 249.5 99.82 249.5 100.192C249.5 100.468 249.554 100.702 249.662 100.894C249.77 101.086 249.914 101.248 250.094 101.38C250.286 101.512 250.502 101.608 250.742 101.668C250.982 101.728 251.228 101.758 251.48 101.758C252.38 101.758 253.088 101.542 253.604 101.11C254.132 100.666 254.402 100.024 254.414 99.184V98.716H252.74ZM259.808 106.42H258.278V93.514H259.736L259.808 94.972C260.132 94.456 260.57 94.072 261.122 93.82C261.686 93.556 262.292 93.418 262.94 93.406C263.672 93.406 264.29 93.532 264.794 93.784C265.31 94.024 265.736 94.366 266.072 94.81C266.42 95.242 266.678 95.758 266.846 96.358C267.014 96.946 267.098 97.582 267.098 98.266C267.098 98.962 267.014 99.604 266.846 100.192C266.678 100.78 266.42 101.29 266.072 101.722C265.724 102.154 265.286 102.496 264.758 102.748C264.23 102.988 263.6 103.108 262.868 103.108C262.148 103.108 261.536 102.994 261.032 102.766C260.528 102.538 260.12 102.238 259.808 101.866V106.42ZM262.742 101.758C263.258 101.758 263.69 101.668 264.038 101.488C264.398 101.296 264.686 101.044 264.902 100.732C265.13 100.408 265.292 100.036 265.388 99.616C265.496 99.196 265.556 98.746 265.568 98.266C265.568 97.786 265.514 97.336 265.406 96.916C265.31 96.484 265.148 96.112 264.92 95.8C264.692 95.488 264.392 95.242 264.02 95.062C263.66 94.87 263.222 94.774 262.706 94.774C262.094 94.774 261.566 94.942 261.122 95.278C260.678 95.602 260.342 96.016 260.114 96.52C259.982 96.796 259.892 97.084 259.844 97.384C259.796 97.672 259.772 97.972 259.772 98.284C259.772 98.644 259.796 98.98 259.844 99.292C259.892 99.592 259.982 99.88 260.114 100.156C260.342 100.612 260.672 100.996 261.104 101.308C261.548 101.608 262.094 101.758 262.742 101.758ZM273.247 93.406C274.003 93.406 274.657 93.526 275.209 93.766C275.761 94.006 276.223 94.342 276.595 94.774C276.979 95.206 277.261 95.722 277.441 96.322C277.633 96.91 277.729 97.558 277.729 98.266C277.729 98.974 277.633 99.628 277.441 100.228C277.261 100.816 276.979 101.326 276.595 101.758C276.223 102.178 275.755 102.508 275.191 102.748C274.627 102.988 273.967 103.108 273.211 103.108C272.455 103.108 271.795 102.988 271.231 102.748C270.679 102.508 270.211 102.178 269.827 101.758C269.455 101.326 269.173 100.816 268.981 100.228C268.801 99.628 268.711 98.974 268.711 98.266C268.711 97.558 268.801 96.91 268.981 96.322C269.173 95.722 269.455 95.206 269.827 94.774C270.211 94.342 270.685 94.006 271.249 93.766C271.813 93.526 272.479 93.406 273.247 93.406ZM273.211 101.758C273.727 101.758 274.171 101.668 274.543 101.488C274.927 101.308 275.239 101.062 275.479 100.75C275.731 100.426 275.911 100.054 276.019 99.634C276.139 99.214 276.199 98.758 276.199 98.266C276.199 97.786 276.139 97.336 276.019 96.916C275.911 96.484 275.731 96.112 275.479 95.8C275.239 95.476 274.927 95.224 274.543 95.044C274.171 94.864 273.727 94.774 273.211 94.774C272.695 94.774 272.251 94.864 271.879 95.044C271.507 95.224 271.195 95.476 270.943 95.8C270.703 96.112 270.523 96.484 270.403 96.916C270.295 97.336 270.241 97.786 270.241 98.266C270.241 98.758 270.295 99.214 270.403 99.634C270.523 100.054 270.703 100.426 270.943 100.75C271.195 101.062 271.507 101.308 271.879 101.488C272.251 101.668 272.695 101.758 273.211 101.758ZM279.776 103V93.514H281.306V97.6H282.962L285.77 93.514H287.516L284.348 98.032L287.786 103H285.986L283.142 98.932H281.306V103H279.776Z" fill="#FDA8DC"/>
<path opacity="0.1" d="M280.2 244.352C279.77 240.207 278.709 236.152 277.054 232.328C270.921 218.3 263.867 209.917 254.001 198.708C242.966 186.162 237.007 168.648 226.726 155.622C215.865 141.861 194.522 133.851 177.415 131.32C160.307 128.788 140.895 135.755 127.221 145.922C112.918 156.661 101.763 171.046 94.9234 187.572C85.0036 211.4 84.1886 238.854 95.4444 263.116C104.75 283.156 123.781 297.411 144.496 305.167C185.184 320.397 212.331 316.923 241.77 303.443C254.716 297.518 267.107 285.828 274.048 273.383C279.007 264.559 281.154 254.43 280.2 244.352Z" fill="#B0FF1A"/>
<path opacity="0.1" d="M51.2765 197.552C49.1665 199.225 47.3258 201.212 45.8189 203.444C40.3079 211.667 39.9272 221.941 37.2552 231.206C34.2692 241.56 26.5672 249.509 23.0735 259.629C19.3661 270.317 20.9426 282.548 25.5117 292.735C30.0808 302.922 40.6152 311.052 50.8957 314.953C61.7171 319.004 73.4293 320.068 84.8034 318.033C101.203 315.153 116.42 306.055 125.698 291.5C133.374 279.476 134.503 264.172 131.523 250.211C125.665 222.823 114.342 209.235 96.7873 197.913C89.0586 192.916 78.3973 190.244 69.2256 190.799C62.6937 191.166 56.4304 193.522 51.2765 197.552Z" fill="#B0FF1A"/>
<path opacity="0.1" d="M288.964 346.442C291.433 345.364 293.723 343.918 295.758 342.154C303.206 335.627 306.226 325.801 311.189 317.545C316.747 308.306 326.225 302.608 332.231 293.737C338.57 284.385 340.2 272.147 338.41 261.125C336.62 250.103 328.543 239.529 319.612 233.11C310.203 226.404 299.162 222.355 287.648 221.386C271.062 219.937 254.015 224.8 241.289 236.47C230.768 246.115 225.732 260.598 225.01 274.853C223.594 302.862 231.022 318.881 245.083 334.352C251.256 341.152 260.868 346.489 269.873 348.326C276.28 349.665 282.943 349.008 288.964 346.442Z" fill="#B0FF1A"/>
<path opacity="0.1" d="M242.852 161.193C244.282 162.275 245.865 163.377 247.655 163.364C249.586 163.364 251.309 161.948 252.178 160.224C252.963 158.448 253.284 156.501 253.113 154.566C252.802 147.585 249.826 140.988 244.796 136.136C239.065 130.672 225.952 124.219 221.062 133.905C217.909 140.151 223.561 144.426 227.742 148.374C232.544 152.916 237.588 157.195 242.852 161.193Z" fill="#B0FF1A"/>
<path d="M304.709 328.279C307.16 328.092 309.772 327.899 312.531 329.615C317.02 332.448 321.215 336.349 322.17 337.725C323.126 339.101 324.321 338.393 325.397 335.721C325.958 334.269 326.101 332.69 325.811 331.161C325.52 329.632 324.808 328.215 323.754 327.07C321.462 324.679 319.205 322.835 318.329 321.239C317.454 319.642 313.366 317.752 310.981 318.092C310.981 318.092 310.166 317.999 309.358 317.945C305.724 317.705 300.594 317.277 300.594 317.277L298.056 328.834C298.056 328.834 302.244 328.46 304.709 328.279Z" fill="#FFA8A7"/>
<path d="M320.707 347.524C321.629 348.126 324.228 348.627 325.798 347.832C329.064 346.168 330.474 340.21 329.953 336.75C329.325 332.561 327.334 330.223 326.886 327.698C326.439 325.173 327.08 321.686 326.339 319.462C326.035 318.592 325.548 317.798 324.911 317.133C324.274 316.468 323.501 315.947 322.645 315.607C322.098 315.38 321.506 315.28 320.915 315.314C320.323 315.349 319.748 315.518 319.231 315.808L318.236 316.355L320.707 347.524Z" fill="#263238"/>
<path d="M328.329 337.524C328.142 332.922 323.994 329.328 324.609 324.919C325.223 320.511 324.695 314.846 318.236 316.356C317.08 316.629 314.936 316.877 313.059 317.084C312.294 317.173 311.524 317.209 310.754 317.191C310.428 317.172 310.1 317.195 309.779 317.257C309.647 317.31 309.535 317.402 309.459 317.523C309.384 317.643 309.348 317.784 309.358 317.925L310.935 318.066C311.063 318.066 311.188 318.103 311.295 318.173C311.569 318.4 311.329 318.841 311.295 319.181C311.295 319.689 311.863 321.459 312.277 321.74L313.914 322.855C314.461 323.149 314.968 323.51 315.424 323.931C315.571 324.104 315.784 324.599 315.477 324.739C315.17 324.879 314.228 324.338 313.921 324.231C313.746 324.149 313.552 324.114 313.36 324.131C313.026 324.198 312.832 324.545 312.692 324.846C312.286 325.758 311.659 326.555 310.868 327.164C310.215 327.568 309.503 327.868 308.757 328.052C308.703 328.066 308.653 328.091 308.61 328.126C308.585 328.155 308.567 328.189 308.558 328.226C308.549 328.263 308.548 328.302 308.557 328.339C308.603 328.553 308.804 328.68 308.997 328.787C310.122 329.4 311.277 329.956 312.458 330.45C313.413 330.858 314.722 331.452 315.323 332.347C315.729 332.967 316.044 333.642 316.259 334.351C316.575 335.504 316.787 336.682 316.893 337.872C317.114 339.649 317.347 341.432 317.635 343.216C317.735 344.133 317.96 345.032 318.303 345.888C319.432 348.333 322.438 348.72 324.582 347.331C325.641 346.684 326.503 345.76 327.074 344.659C328.296 342.388 328.423 339.736 328.329 337.524Z" fill="#455A64"/>
<path d="M316.7 338.54C316.732 338.578 316.771 338.612 316.813 338.64C316.987 338.74 317.1 338.64 317.221 338.54C317.504 338.259 317.81 338.002 318.136 337.772C318.724 337.346 319.358 336.988 320.026 336.703C320.931 336.307 321.887 336.037 322.865 335.901L323.166 335.868C323.277 335.849 323.377 335.79 323.446 335.701C323.516 335.613 323.55 335.502 323.543 335.39C323.535 335.278 323.487 335.172 323.406 335.094C323.325 335.016 323.218 334.97 323.106 334.966C322.442 335.026 321.786 335.153 321.148 335.347C319.764 335.724 318.468 336.371 317.334 337.251C317.033 337.484 316.606 337.778 316.586 338.199C316.586 338.322 316.626 338.442 316.7 338.54Z" fill="#FAFAFA"/>
<path d="M316.272 336.108C316.512 336.375 316.826 335.961 317.007 335.794C317.286 335.534 317.583 335.293 317.895 335.073C318.472 334.679 319.09 334.35 319.739 334.091C320.545 333.759 321.392 333.534 322.257 333.423H322.364C322.483 333.413 322.594 333.356 322.671 333.264C322.749 333.173 322.787 333.055 322.778 332.935C322.773 332.876 322.756 332.819 322.729 332.767C322.702 332.714 322.664 332.668 322.619 332.63C322.574 332.592 322.521 332.564 322.465 332.546C322.409 332.529 322.349 332.522 322.29 332.528C321.628 332.595 320.975 332.729 320.34 332.929C318.992 333.324 317.741 333.995 316.666 334.899C316.531 334.984 316.416 335.095 316.326 335.226C316.236 335.357 316.175 335.505 316.145 335.661C316.13 335.794 316.155 335.929 316.218 336.048C316.235 336.069 316.253 336.089 316.272 336.108Z" fill="#FAFAFA"/>
<path d="M315.717 333.77C315.767 333.814 315.827 333.846 315.891 333.864C316.085 333.917 316.185 333.717 316.292 333.59L316.686 333.196C316.953 332.957 317.234 332.734 317.528 332.528C318.076 332.152 318.66 331.83 319.271 331.566C319.991 331.249 320.744 331.014 321.516 330.864H321.556C321.614 330.856 321.671 330.837 321.722 330.806C321.773 330.776 321.817 330.735 321.852 330.687C321.887 330.639 321.912 330.584 321.925 330.526C321.939 330.469 321.94 330.409 321.93 330.35C321.921 330.292 321.9 330.236 321.87 330.185C321.839 330.135 321.798 330.091 321.75 330.056C321.703 330.021 321.648 329.996 321.591 329.982C321.533 329.969 321.474 329.967 321.415 329.976C320.73 330.092 320.059 330.278 319.411 330.53C318.09 331.003 316.883 331.749 315.871 332.722C315.704 332.858 315.571 333.032 315.483 333.229C315.453 333.318 315.453 333.414 315.483 333.503C315.514 333.573 315.557 333.636 315.61 333.69L315.717 333.77Z" fill="#FAFAFA"/>
<path d="M319.071 326.689C319.012 326.662 318.949 326.644 318.884 326.636C318.683 326.636 318.637 326.856 318.557 327.003C318.476 327.15 318.376 327.324 318.276 327.484C318.073 327.786 317.85 328.074 317.608 328.346C317.17 328.838 316.685 329.286 316.158 329.682C315.541 330.171 314.869 330.586 314.154 330.918H314.121C314.011 330.965 313.925 331.053 313.88 331.164C313.836 331.275 313.837 331.399 313.884 331.509C313.931 331.619 314.02 331.706 314.13 331.75C314.241 331.795 314.365 331.793 314.475 331.746C315.102 331.464 315.7 331.119 316.259 330.717C317.423 329.935 318.408 328.915 319.151 327.725C319.275 327.549 319.36 327.349 319.398 327.137C319.409 327.042 319.388 326.945 319.338 326.863C319.292 326.804 319.236 326.754 319.171 326.716C319.138 326.705 319.105 326.696 319.071 326.689Z" fill="#FAFAFA"/>
<path d="M328.349 338.353C328.444 340.52 328.016 342.679 327.1 344.645C326.529 345.747 325.667 346.671 324.608 347.317C322.464 348.707 319.458 348.319 318.329 345.874C317.986 345.018 317.761 344.119 317.661 343.202C317.541 342.448 317.434 341.686 317.327 340.918C320.774 336.683 326.96 337.691 328.349 338.353Z" fill="#FAFAFA"/>
<path d="M243.099 351.786C244.451 354.82 244.811 358.202 244.128 361.452C242.792 367.277 240.788 373.035 239.626 374.598C238.463 376.162 239.786 377.103 243.219 377.19C246.653 377.277 250.534 375.42 252.291 372.08C254.048 368.74 255.19 365.641 256.633 364.097C258.076 362.554 257.662 360.196 256.306 357.825C254.949 355.454 253.373 342.167 253.373 342.167L240.167 344.839C240.167 344.839 242.03 349.228 243.099 351.786Z" fill="#FFA8A7"/>
<path d="M258.677 363.015C258.946 363.613 259.098 364.257 259.124 364.912C259.091 365.747 257.788 367.484 256.893 368.413C255.64 369.699 254.923 371.414 254.889 373.209C254.628 376.135 253.346 378.875 251.269 380.951C248.368 383.621 244.751 385.385 240.861 386.028C236.005 386.95 234.595 384.592 234.595 384.592C234.595 384.592 233.38 382.334 234.355 381.546C235.33 380.757 258.677 363.015 258.677 363.015Z" fill="#263238"/>
<path d="M255.317 352.307C255.808 354.461 256.602 356.535 257.675 358.466C258.343 359.649 259.191 361.559 258.677 363.015C258.062 365.24 255.43 366.863 254.589 369.903C253.747 372.942 252.845 378.206 247.361 381.512C241.877 384.819 236.633 384.732 234.876 383.563C233.119 382.394 233.5 380.53 236.513 377.204C239.706 373.663 242.525 365.621 242.525 365.621C243.193 363.289 243.861 360.945 243.72 358.206L241.543 355.36C241.496 354.405 250.227 351.766 251.442 352.688L252.271 356.696L252.525 352.548L255.317 352.307Z" fill="#455A64"/>
<path d="M250.654 378.76C250.654 378.76 249.118 374.846 243.747 374.378C238.376 373.91 236.225 376.289 235.237 377.718C234.061 379.421 232.685 382.581 234.796 383.73C237.074 384.952 239.879 384.899 244.475 383.249C249.071 381.599 250.654 378.76 250.654 378.76Z" fill="#FAFAFA"/>
<path d="M251.389 363.523C251.309 363.55 251.224 363.56 251.14 363.552C251.056 363.544 250.975 363.518 250.901 363.476C250.113 363.002 245.825 361.739 243.012 363.73C242.712 363.449 242.832 363.002 243.326 362.394C246.519 360.884 250.587 362.06 251.529 362.635C251.585 362.667 251.633 362.711 251.671 362.763C251.708 362.815 251.734 362.875 251.747 362.938C251.76 363.002 251.759 363.067 251.744 363.129C251.73 363.192 251.702 363.251 251.663 363.303C251.597 363.403 251.501 363.48 251.389 363.523Z" fill="#FAFAFA"/>
<path d="M242.124 366.596C242.087 366.352 242.111 366.103 242.192 365.87C242.274 365.637 242.411 365.428 242.591 365.26C245.711 364.031 249.485 365.133 250.394 365.681C250.448 365.714 250.496 365.758 250.533 365.81C250.57 365.863 250.595 365.922 250.608 365.985C250.62 366.048 250.62 366.113 250.606 366.175C250.592 366.238 250.565 366.297 250.527 366.349C250.459 366.441 250.363 366.509 250.253 366.542C250.174 366.572 250.089 366.582 250.004 366.574C249.92 366.566 249.838 366.539 249.766 366.496C249.004 366.055 244.936 364.859 242.124 366.596Z" fill="#FAFAFA"/>
<path d="M243.547 361.185C243.448 361.093 243.371 360.979 243.323 360.853C243.275 360.726 243.257 360.59 243.271 360.455C243.285 360.321 243.329 360.191 243.401 360.077C243.474 359.962 243.571 359.866 243.687 359.796C246.954 357.658 251.636 358.987 252.665 359.602C252.72 359.635 252.768 359.679 252.805 359.732C252.841 359.784 252.867 359.844 252.879 359.907C252.891 359.97 252.889 360.035 252.874 360.098C252.859 360.16 252.831 360.219 252.792 360.27C252.722 360.362 252.627 360.432 252.518 360.47C252.438 360.498 252.353 360.507 252.268 360.498C252.184 360.489 252.103 360.461 252.03 360.417C251.189 359.916 246.292 358.513 243.547 361.185Z" fill="#FAFAFA"/>
<path d="M239.171 373.202C239.25 372.529 239.567 371.905 240.067 371.446C243.24 370.036 247.207 371.185 248.143 371.746C248.198 371.779 248.245 371.823 248.282 371.876C248.319 371.928 248.344 371.988 248.357 372.051C248.369 372.114 248.369 372.178 248.355 372.241C248.341 372.304 248.314 372.363 248.276 372.414C248.207 372.505 248.111 372.573 248.002 372.608C247.922 372.637 247.835 372.647 247.75 372.639C247.665 372.631 247.582 372.605 247.508 372.561C246.68 372.087 241.95 370.711 239.171 373.202Z" fill="#FAFAFA"/>
<path d="M249.131 369.595C249.05 369.622 248.964 369.632 248.879 369.624C248.794 369.616 248.712 369.59 248.637 369.548C247.862 369.081 243.66 367.845 240.855 369.735C240.834 369.463 240.878 369.19 240.985 368.939C241.092 368.688 241.258 368.466 241.469 368.293C244.589 367.063 248.363 368.166 249.272 368.713C249.326 368.746 249.374 368.791 249.411 368.843C249.448 368.895 249.473 368.955 249.486 369.018C249.498 369.081 249.498 369.146 249.484 369.208C249.47 369.271 249.443 369.33 249.405 369.381C249.337 369.478 249.241 369.552 249.131 369.595Z" fill="#FAFAFA"/>
<path d="M302.137 317.044L284.475 312.895C284.475 312.895 287.428 294.285 289.325 282.916C290.861 273.744 289.164 264.592 288.37 261.192L248.363 263.657C248.363 263.657 237.595 286.088 230.641 304.525C228.443 310.357 227.475 313.016 230.641 321.613C234.829 333.009 241.088 347.805 241.088 347.805C243.727 347.992 251.569 347.979 253.78 343.71C252.578 333.376 252.905 320.33 249.519 313.998L264.014 293.29C264.014 298.847 263.38 311.66 263.907 320.364C264.502 330.29 269.826 330.731 275.771 330.771C286.212 330.851 300.307 329.923 300.307 329.923C301.943 328.62 304.114 320.945 302.137 317.044Z" fill="#455A64"/>
<path opacity="0.2" d="M284.475 312.895C284.475 312.895 284.088 317.458 281.97 320.243C283.356 319.249 284.498 317.955 285.31 316.456C286.546 314.064 293.927 316.897 299.452 316.376L284.475 312.895Z" fill="black"/>
<path opacity="0.2" d="M263.988 293.33L264.282 284.913C264.282 284.913 258.684 282.127 255.384 277.01C255.384 277.01 255.444 282.408 262.157 286.743L261.93 292.461L249.505 313.998L263.988 293.33Z" fill="black"/>
<path d="M202.766 203.918C202.96 203.781 203.19 203.705 203.428 203.698C203.665 203.691 203.899 203.753 204.102 203.878C204.541 204.104 204.957 204.372 205.344 204.679C206.112 205.254 207.248 206.249 208.016 206.817C208.35 207.104 208.732 207.33 209.145 207.485C209.141 207.237 209.195 206.993 209.303 206.77C209.411 206.547 209.57 206.353 209.766 206.202C210.147 205.895 210.755 205.955 211.069 205.568C211.165 205.415 211.23 205.245 211.262 205.067C211.623 203.731 213.066 203.297 214.315 203.377C213.4 201.253 212.311 199.021 211.643 197.124C211.329 196.243 211.256 195.067 211.917 194.706C212.912 194.165 213.56 195.154 214.075 196.209C215.063 198.213 216.693 201.112 217.816 203.457C218.129 204.125 218.671 204.993 219.025 205.621C219.786 206.957 220.822 208.073 221.115 209.629C221.249 210.297 221.276 211.333 221.363 212.248C221.411 213.893 221.871 215.501 222.699 216.924C224.195 219.375 230.407 228.447 230.407 228.447C230.407 228.447 240.087 224.258 245.037 221.967C252.839 218.353 253.447 218.14 257.101 218.073C255.564 223.504 250.421 233.717 250.421 233.717C250.421 233.717 235.791 239.135 230.821 240.805C227.194 242.014 224.763 242.615 221.71 236.082C220.588 233.684 220.14 232.595 218.19 228.3C215.885 223.203 215.357 222.161 213.614 218.854C212.723 217.406 211.735 216.02 210.655 214.706C210.045 213.906 209.49 213.067 208.991 212.194C207.655 209.937 204.562 207.705 202.979 205.608C202.712 205.154 202.305 204.392 202.766 203.918Z" fill="#FFBDA7"/>
<path d="M257.388 217.786C252.712 217.452 249.96 219.122 246.145 220.872C242.331 222.622 230.781 228.1 230.781 228.1C230.781 228.1 226.139 221.059 225.437 219.997C224.736 218.935 224.328 219.329 224.328 219.329L225.057 220.424C225.057 220.424 225.558 222.201 222.244 223.878C218.931 225.554 216.687 224.886 216.687 224.886L216.119 223.677C216.119 223.677 215.451 224.005 216.179 225.635C216.907 227.265 221.763 237.244 223.367 239.93C224.97 242.615 226.853 242.274 228.891 241.894C230.928 241.513 251.883 234.132 251.883 234.132L257.388 217.786Z" fill="#B0FF1A"/>
<path opacity="0.3" d="M257.388 217.786C252.712 217.452 249.96 219.122 246.145 220.872C242.331 222.622 230.781 228.1 230.781 228.1C230.781 228.1 226.139 221.059 225.437 219.997C224.736 218.935 224.328 219.329 224.328 219.329L225.057 220.424C225.057 220.424 225.558 222.201 222.244 223.878C218.931 225.554 216.687 224.886 216.687 224.886L216.119 223.677C216.119 223.677 215.451 224.005 216.179 225.635C216.907 227.265 221.763 237.244 223.367 239.93C224.97 242.615 226.853 242.274 228.891 241.894C230.928 241.513 251.883 234.132 251.883 234.132L257.388 217.786Z" fill="black"/>
<path d="M225.063 220.438L223.881 218.647C223.881 218.647 223.694 219.983 220.888 221.52C219.336 222.412 217.598 222.931 215.812 223.036L216.693 224.9C216.693 224.9 218.871 225.935 222.224 224.165C225.578 222.395 225.063 220.438 225.063 220.438Z" fill="#37474F"/>
<path d="M216.012 208.019L217.261 208.808C216.406 209.242 216.126 210.144 215.498 210.812C214.87 211.48 213.834 213.09 214.162 214.345C213.802 213.964 213.569 213.481 213.494 212.963C213.494 212.762 213.494 212.402 213.367 212.241C213.24 212.081 213.066 212.148 212.892 212.134C212.564 212.084 212.253 211.957 211.983 211.765C211.712 211.572 211.491 211.319 211.336 211.025C211.016 210.433 210.812 209.784 210.735 209.115C211.031 209.647 211.418 210.124 211.877 210.524C212.238 210.872 212.886 211.473 213.44 211.233C213.59 211.17 213.721 211.07 213.822 210.943C213.922 210.815 213.989 210.665 214.015 210.504C213.982 210.099 213.849 209.709 213.627 209.369C213.487 209.095 213.353 208.821 213.213 208.54C213.544 208.901 213.947 209.188 214.395 209.382C214.89 209.556 216.179 209.342 215.564 208.587C215.427 208.434 215.265 208.305 215.084 208.206C214.596 207.958 214.16 207.618 213.801 207.204C213.647 206.931 213.567 206.623 213.567 206.309C213.567 206.022 213.714 205.735 213.701 205.474C213.75 206.001 213.987 206.492 214.369 206.857C214.745 207.219 215.165 207.533 215.618 207.792L216.012 208.019Z" fill="#F0997A"/>
<path d="M214.736 204.272C214.51 204.298 214.301 204.407 214.15 204.577C213.998 204.747 213.915 204.966 213.915 205.194C213.957 205.085 214.031 204.991 214.128 204.924C214.224 204.857 214.338 204.821 214.456 204.82C214.703 204.82 214.91 205.014 215.124 205.134C215.676 205.518 216.309 205.769 216.974 205.869C217.388 205.89 217.799 205.946 218.203 206.036C218.589 206.136 218.947 206.32 219.252 206.577C219.17 206.451 219.081 206.33 218.985 206.216C218.671 205.854 218.275 205.575 217.829 205.401C217.16 205.244 216.504 205.038 215.865 204.786C215.464 204.573 215.13 204.232 214.736 204.272Z" fill="#F0997A"/>
<path d="M288.931 230.745C289.474 234.078 289.771 237.448 289.819 240.825C289.963 245.702 290.425 250.564 291.202 255.381C291.62 258.83 291.843 262.3 291.87 265.775C291.756 272.455 289.198 274.225 280.16 275.22C269.953 276.342 256.112 275.133 249.118 270.117C245.624 267.612 243.36 263.764 244.682 259.93C245.063 258.821 246.125 256.683 246.813 255.167C248.964 250.437 248.971 240.544 248.817 236.282C248.497 227.418 251.73 220.331 257.388 217.786C261.075 217.485 270.267 218.166 270.267 218.166L285.203 220.932C285.203 220.932 287.828 223.644 288.931 230.745Z" fill="#B0FF1A"/>
<path d="M270.267 218.166C270.267 218.166 263.433 217.665 259.192 217.719C258.888 220.53 259.332 223.372 260.481 225.955C261.743 228.627 263.407 228.34 264.369 226.677C265.73 224.526 267.722 222.848 270.073 221.874C272.247 221.144 274.377 220.29 276.453 219.315L270.267 218.166Z" fill="#E0E0E0"/>
<path d="M260.941 219.476L276.94 220.184L283.693 215.374L283.587 201.54L265.998 197.078L260.941 219.476Z" fill="#37474F"/>
<path d="M263.64 183.992C270.514 182.996 275.083 185.996 277.615 189.75C280.467 190.004 281.91 192.422 282.104 195.227C282.772 204.78 274.803 208.587 273.273 213.163L252.371 195.267C252.224 191.867 254.576 185.308 263.64 183.992Z" fill="#263238"/>
<path d="M281.235 188.601L277.388 189.797C277.572 190.309 277.944 190.733 278.429 190.981C278.915 191.229 279.476 191.283 280 191.133C280.254 191.057 280.489 190.93 280.692 190.759C280.894 190.588 281.058 190.377 281.174 190.139C281.291 189.901 281.356 189.641 281.367 189.376C281.377 189.111 281.332 188.847 281.235 188.601Z" fill="#263238"/>
<path d="M278.236 186.002L277.375 189.857C277.906 189.962 278.457 189.861 278.916 189.573C279.374 189.284 279.705 188.831 279.839 188.307C279.893 188.05 279.894 187.784 279.842 187.526C279.789 187.269 279.685 187.025 279.535 186.809C279.385 186.593 279.192 186.41 278.969 186.272C278.745 186.133 278.496 186.041 278.236 186.002Z" fill="#263238"/>
<path d="M277.455 189.509C274.923 185.768 270.514 182.996 263.64 183.992C254.576 185.328 252.224 191.867 252.371 195.267L256.893 199.142L265.698 192.976C267.06 190.745 274.656 189.002 277.455 189.509Z" fill="#B0FF1A"/>
<path d="M265.698 192.976C266.613 192.355 267.889 192.088 269.526 193.324C270.269 193.93 270.816 194.744 271.095 195.662C271.476 196.897 271.469 197.345 271.55 199.342C271.603 200.678 272.218 203.898 274.395 202.996C275.063 202.729 275.417 202.088 275.992 201.727C277.789 200.598 280.227 201.112 281.002 203.116C281.467 204.289 281.48 205.593 281.04 206.775C280.599 207.957 279.736 208.933 278.617 209.516C275.578 210.852 274.542 209.162 274.542 209.162L274.255 219.636C272.157 222.929 267.441 224.88 262.679 224.252C257.916 223.624 259.145 221.253 260.942 219.482V215.307C259.61 215.3 258.287 215.097 257.014 214.706C254.121 213.724 252.906 210.985 252.458 208.2C251.95 205.014 252.311 200.471 252.719 197.171C252.848 196.271 253.031 195.378 253.266 194.499C255.751 191.346 263.754 189.182 265.698 192.976Z" fill="#FFBDA7"/>
<path d="M270.728 202.769C270.828 203.684 269.826 204.546 268.49 204.686C267.154 204.827 265.998 204.205 265.898 203.29C265.798 202.375 266.8 201.513 268.136 201.373C269.472 201.233 270.627 201.854 270.728 202.769Z" fill="#F0997A"/>
<path d="M255.711 202.736C255.571 203.644 254.375 204.212 253.039 204.005C251.703 203.798 250.755 202.889 250.902 202.001C251.049 201.112 252.238 200.525 253.574 200.738C254.91 200.952 255.858 201.827 255.711 202.736Z" fill="#F0997A"/>
<path d="M261.282 198.3L259.759 206.029L255.972 204.245L261.282 198.3Z" fill="#F0997A"/>
<path d="M264.268 207.225L259.372 208.621C259.457 208.944 259.605 209.248 259.809 209.513C260.012 209.779 260.267 210.001 260.557 210.167C260.848 210.333 261.168 210.439 261.5 210.48C261.832 210.521 262.169 210.495 262.491 210.404C263.145 210.213 263.698 209.773 264.03 209.178C264.362 208.583 264.448 207.882 264.268 207.225Z" fill="#B16668"/>
<path d="M262.491 210.404C262.39 210.429 262.287 210.446 262.184 210.458C262.164 209.861 262.379 209.281 262.782 208.841C263.186 208.401 263.746 208.138 264.342 208.106C264.304 208.632 264.107 209.135 263.776 209.545C263.446 209.956 262.997 210.256 262.491 210.404Z" fill="#F28F8F"/>
<path d="M256.907 198.841C256.617 198.677 256.304 198.558 255.978 198.487C255.663 198.404 255.335 198.377 255.01 198.407C254.666 198.438 254.33 198.526 254.014 198.667C254.014 198.667 253.968 198.748 254.014 198.741C254.282 198.741 254.515 198.681 254.903 198.681C255.003 198.675 255.103 198.675 255.203 198.681C254.956 198.836 254.77 199.072 254.676 199.349C254.415 200.017 254.883 200.231 255.531 200.471C256.179 200.712 256.753 200.858 257.007 200.204C257.075 200.048 257.11 199.88 257.11 199.71C257.11 199.539 257.075 199.371 257.007 199.215L257.221 199.329C257.356 199.394 257.488 199.468 257.615 199.549C257.648 199.549 257.682 199.482 257.668 199.456C257.465 199.195 257.205 198.984 256.907 198.841Z" fill="#263238"/>
<path d="M257.114 195.588L254.402 196.463C254.292 196.098 254.329 195.705 254.505 195.367C254.681 195.029 254.982 194.773 255.344 194.653C255.521 194.596 255.708 194.576 255.894 194.592C256.08 194.609 256.26 194.662 256.425 194.749C256.59 194.836 256.736 194.955 256.854 195.099C256.972 195.243 257.061 195.41 257.114 195.588Z" fill="#263238"/>
<path d="M267.334 199.93C267.374 199.93 267.368 199.863 267.334 199.85C267.053 199.65 266.742 199.497 266.413 199.396C266.101 199.299 265.776 199.258 265.451 199.275C265.117 199.276 264.786 199.328 264.469 199.429C264.16 199.515 263.873 199.665 263.627 199.87C263.627 199.87 263.627 199.997 263.66 199.977L264.088 199.837L264.322 199.776C264.22 199.913 264.146 200.068 264.106 200.233C264.066 200.399 264.06 200.571 264.088 200.738C264.201 201.406 264.803 201.406 265.484 201.3C266.165 201.193 266.666 201.072 266.553 200.378C266.506 200.101 266.372 199.846 266.172 199.65C266.272 199.65 266.379 199.65 266.473 199.69C266.764 199.753 267.052 199.834 267.334 199.93Z" fill="#263238"/>
<path d="M265.19 196.53L267.541 198.126C267.753 197.809 267.832 197.421 267.76 197.047C267.689 196.672 267.474 196.34 267.161 196.122C267.005 196.018 266.83 195.946 266.646 195.91C266.462 195.874 266.273 195.875 266.09 195.913C265.906 195.95 265.732 196.025 265.578 196.131C265.423 196.237 265.291 196.372 265.19 196.53Z" fill="#263238"/>
<path d="M260.942 215.301C263.088 215.277 265.224 214.992 267.301 214.453C269.759 213.624 270.848 212.956 272.184 210.284C271.987 211.794 271.28 213.192 270.18 214.245C267.221 216.744 260.935 216.704 260.935 216.704L260.942 215.301Z" fill="#F0997A"/>
<path d="M265.698 192.976C266.085 192.308 265.638 190.972 265.077 190.505C264.703 190.257 264.282 190.091 263.84 190.017C263.398 189.944 262.945 189.964 262.511 190.077C261.175 190.464 260.795 191.847 260.367 192.956C260.129 193.715 259.773 194.432 259.312 195.08C258.964 195.617 258.482 196.053 257.913 196.345C257.345 196.638 256.711 196.778 256.072 196.75C256.463 196.403 256.767 195.969 256.96 195.483C257.152 194.997 257.228 194.472 257.181 193.951C256.018 195.1 253.841 196.517 252.197 196.704C251.022 196.831 250.494 196.263 250.3 195.154C249.813 192.255 251.222 188.895 253.32 186.844C253.598 186.568 253.895 186.312 254.208 186.076C258.477 182.876 265.197 181.654 270.628 182.322C273.674 182.696 277.976 185.241 277.455 189.509C274.642 189.082 267 190.705 265.698 192.976Z" fill="#B0FF1A"/>
<path opacity="0.3" d="M265.698 192.976C266.085 192.308 265.638 190.972 265.077 190.505C264.703 190.257 264.282 190.091 263.84 190.017C263.398 189.944 262.945 189.964 262.511 190.077C261.175 190.464 260.795 191.847 260.367 192.956C260.129 193.715 259.773 194.432 259.312 195.08C258.964 195.617 258.482 196.053 257.913 196.345C257.345 196.638 256.711 196.778 256.072 196.75C256.463 196.403 256.767 195.969 256.96 195.483C257.152 194.997 257.228 194.472 257.181 193.951C256.018 195.1 253.841 196.517 252.197 196.704C251.022 196.831 250.494 196.263 250.3 195.154C249.813 192.255 251.222 188.895 253.32 186.844C253.598 186.568 253.895 186.312 254.208 186.076C258.477 182.876 265.197 181.654 270.628 182.322C273.674 182.696 277.976 185.241 277.455 189.509C274.642 189.082 267 190.705 265.698 192.976Z" fill="white"/>
<path d="M260.481 225.955C259.145 224.405 258.343 222.675 258.477 219.669C258.588 218.147 258.903 216.646 259.412 215.207L260.928 215.301V219.476C260.928 219.476 259.145 222.014 260.481 225.955Z" fill="#455A64"/>
<path d="M287.635 222.976L283.854 221.994C279.566 220.878 269.158 222.081 264.115 226.897C264.115 226.897 264.115 225.855 265.451 224.305C266.586 222.969 268.697 221.226 272.625 219.476C273.22 219.215 273.781 218.935 274.308 218.647C279.652 215.688 282.057 211.192 281.289 205.915C281.478 204.972 281.388 203.995 281.028 203.103C280.953 202.914 280.859 202.733 280.748 202.562C281.344 201.337 281.76 200.032 281.984 198.688C282.539 199.039 283.076 199.418 283.594 199.823C287.755 203.083 285.858 207.171 286.88 210.511C287.902 213.851 290.427 212.235 291.149 216.911C291.392 218.175 291.171 219.485 290.525 220.6C289.88 221.714 288.853 222.558 287.635 222.976Z" fill="#455A64"/>
<path d="M267.595 241.934C265.964 239.696 264.851 237.125 264.335 234.405C264.1 233.119 264.015 231.81 264.081 230.504C264.121 229.836 264.195 229.235 264.295 228.607C264.474 227.877 264.608 227.136 264.696 226.389C264.696 226.242 264.522 226.002 264.388 226.182C264.038 226.762 263.811 227.408 263.72 228.079C263.571 228.761 263.475 229.454 263.433 230.15C263.341 231.537 263.418 232.93 263.66 234.299C264.146 237.212 265.485 239.915 267.508 242.067C267.581 242.134 267.628 241.987 267.595 241.934Z" fill="#263238"/>
<path d="M260.16 225.127C259.826 224.593 258.998 224.459 258.423 224.459C257.611 224.42 256.797 224.458 255.992 224.572C254.395 224.766 252.826 225.143 251.316 225.695C249.856 226.235 248.458 226.932 247.148 227.772C245.698 228.622 244.436 229.758 243.44 231.112C243.373 231.219 243.514 231.446 243.634 231.353C244.823 230.478 245.905 229.489 247.134 228.681C249.66 226.991 252.523 225.872 255.524 225.401C256.234 225.289 256.95 225.218 257.669 225.187C258.075 225.181 258.481 225.201 258.884 225.247C259.283 225.331 259.687 225.391 260.093 225.428C260.254 225.374 260.207 225.187 260.16 225.127Z" fill="#263238"/>
<path d="M305.764 216.503C295.958 233.744 292.718 237.305 289.999 243.751C285.069 242.595 280.647 231.106 284.909 222.943C284.909 222.943 292.364 213.277 296.492 205.361C296.646 201.253 295.717 187.559 294.575 181.981C294.361 181.051 293.817 180.23 293.045 179.67C290.821 177.993 289.705 175.708 288.102 173.711C286.866 172.155 285.724 171.707 285.951 171.253C286.245 170.692 287.321 169.85 288.957 170.525C289.785 170.865 291.803 172.756 292.504 173.01C293.206 173.263 291.903 170.097 289.772 166.937C288.556 165.127 287.862 163.491 288.109 161.981C288.222 161.266 288.73 160.799 289.271 160.966C289.475 161.041 289.661 161.157 289.819 161.306C289.728 161.066 289.703 160.806 289.748 160.553C289.792 160.3 289.905 160.064 290.073 159.87C290.661 159.122 291.342 159.456 291.863 160.03L292.531 160.799C292.874 160.605 293.273 160.535 293.662 160.6C294.051 160.664 294.406 160.859 294.669 161.153C294.876 161.353 295.337 161.954 295.337 161.954C295.924 161.654 296.86 161.333 297.935 162.582C299.185 163.82 300.305 165.183 301.275 166.65C302.025 167.867 302.63 169.168 303.079 170.525C303.643 171.863 304.032 173.268 304.234 174.706C304.562 178.681 303.68 179.209 304.856 184.252C306.699 192.181 309.044 197.752 309.906 205.915C310.186 208.614 309.344 210.204 305.764 216.503Z" fill="#FFBDA7"/>
<path d="M294.629 172.976C296.994 173.063 299.231 176.169 299.919 178.4C300.487 175.047 297.568 172.028 294.629 172.976Z" fill="#F0997A"/>
<path d="M283.413 222.856C284.482 220.304 288.216 218.968 291.369 213.624C294.522 208.28 296.232 205.154 296.232 205.154C296.232 205.154 295.41 194.466 295.27 192.682C295.13 190.899 295.711 190.678 295.711 190.678L295.864 192.361C297.95 193.022 300.178 193.084 302.297 192.542C305.57 191.593 306.265 189.683 306.265 189.683L305.905 188.394C306.539 188.093 306.78 189.73 307.361 191.947C308.697 197.124 310.367 204.679 310.3 206.643C310.233 208.607 309.973 209.883 307.053 215.033C304.134 220.184 291.021 240.324 289.913 244.779C284.876 242.856 278.236 235 283.413 222.856Z" fill="#B0FF1A"/>
<path opacity="0.3" d="M283.413 222.856C284.482 220.304 288.216 218.968 291.369 213.624C294.522 208.28 296.232 205.154 296.232 205.154C296.232 205.154 295.41 194.466 295.27 192.682C295.13 190.899 295.711 190.678 295.711 190.678L295.864 192.361C297.95 193.022 300.178 193.084 302.297 192.542C305.57 191.593 306.265 189.683 306.265 189.683L305.905 188.394C306.539 188.093 306.78 189.73 307.361 191.947C308.697 197.124 310.367 204.679 310.3 206.643C310.233 208.607 309.973 209.883 307.053 215.033C304.134 220.184 291.021 240.324 289.913 244.779C284.876 242.856 278.236 235 283.413 222.856Z" fill="black"/>
<path d="M295.871 192.382L295.604 189.496C297.398 190.207 299.364 190.365 301.249 189.95C304.689 189.316 305.53 186.978 305.53 186.978L306.392 190.13C306.392 190.13 305.724 192.355 301.656 193.11C297.588 193.865 295.871 192.382 295.871 192.382Z" fill="#37474F"/>
<path d="M148.336 371.179C147.548 371.847 147.742 372.575 148.477 373.336C149.672 374.572 155.197 375.674 159.285 374.833C161.059 374.524 162.698 373.684 163.984 372.423C165.27 371.162 166.143 369.54 166.486 367.772C167.221 364.372 167.515 361.706 168.791 359.636C170.066 357.565 171.215 356.663 172.525 355.2C173.834 353.737 174.776 351.933 173.527 350.15C172.278 348.366 148.336 371.179 148.336 371.179Z" fill="#455A64"/>
<path d="M182.598 236.169C182.598 236.169 171.87 242.148 148.069 236.917C146.159 243.176 144.729 247.725 142.371 257.031C140.427 264.686 137.388 277.538 136.319 291.767C135.912 297.264 138.116 302.214 139.305 305.04C143.398 314.801 147.544 324.539 151.743 334.251C153.273 337.798 153.981 339.001 155.417 342.535C157.067 346.596 157.956 347.812 156.847 352.107C156.259 354.392 154.783 360.123 153.574 362.16C152.342 364.401 150.956 366.552 149.425 368.6C148.757 369.388 148.089 370.377 148.376 371.359C148.487 371.645 148.659 371.904 148.881 372.116C149.102 372.329 149.368 372.49 149.659 372.588C150.241 372.779 150.85 372.878 151.463 372.882C155.137 373.076 159.819 374.285 162.652 371.412C164.522 369.502 165.684 366.068 166.299 363.49C166.639 361.663 167.304 359.911 168.263 358.319C169.245 356.856 170.708 355.774 171.756 354.311C173.026 352.581 173.76 350.21 172.799 348.299C172.191 347.13 171.055 346.349 170.127 345.434C166.92 342.314 166.787 337.932 166.225 333.777C165.522 328.656 164.843 323.534 164.188 318.413C162.652 306.469 163.52 301.513 156.513 295.454L170.173 261.292C174.889 252.368 182.598 236.169 182.598 236.169Z" fill="#FFA8A7"/>
<path d="M157.321 361.853C152.565 361.573 152.084 362.969 150.294 367.458C154.97 364.739 162.131 369.121 163.226 372.067C164.411 370.44 165.229 368.576 165.625 366.603C165.625 366.603 162.632 362.16 157.321 361.853ZM171.516 346.556C170.093 345.434 169.459 344.812 169.459 344.812C168.176 346.536 167.161 352.201 170.508 355.915C171.315 355.341 171.997 354.607 172.509 353.759C173.022 352.911 173.354 351.967 173.487 350.985C173.747 349.081 172.939 347.678 171.516 346.556Z" fill="#455A64"/>
<path d="M224.328 293.029C225.163 294.312 226.473 294.245 228.183 293.323C229.166 292.712 229.993 291.878 230.598 290.89C231.202 289.902 231.567 288.786 231.663 287.632C231.957 284.96 232.264 281.967 230.801 279.449C229.338 276.93 226.934 274.319 226.012 273.036C225.09 271.753 224.843 270.204 224.535 267.692C224.228 265.18 222.859 262.114 221.095 261.012C219.332 259.91 217.248 259.816 216.466 261.085C215.684 262.355 224.328 293.029 224.328 293.029Z" fill="#455A64"/>
<path d="M230.427 283.169C230.249 281.983 229.893 280.83 229.372 279.749C228.704 278.413 226.573 275.815 225.798 274.546C225.13 273.437 224.395 272.588 224.054 271.292C223.453 268.974 222.992 265.808 221.65 263.731C220.387 261.78 218.31 260.037 215.945 260.985C213.834 261.833 212.184 263.657 209.265 265.528C207.308 266.777 205.29 267.712 201.95 269.729C198.356 271.894 197.588 272.167 191.529 277.004C190.808 270.083 190.334 263.183 189.586 258.3C187.789 246.556 185.036 239.482 182.618 236.189C177.902 238.694 162.171 241.212 148.089 236.937L163.487 267.258C163.487 267.258 164.763 273.316 168.63 283.29C171.403 290.444 171.162 293.41 173.507 297.358C174.843 299.649 177.842 302.414 181.389 303.022C183.954 303.463 188.149 302.488 193.834 297.137C199.519 291.787 209.018 280.791 213.139 277.531C213.48 277.805 214.175 278.447 214.522 278.741C214.693 278.888 214.855 279.044 215.01 279.208C216.468 280.664 217.748 282.287 218.824 284.044C219.651 285.425 220.323 286.892 220.828 288.42C221.068 289.228 221.376 290.01 221.67 290.798C222.672 293.47 225.237 293.817 227.1 292.835C228.964 291.853 230.18 289.101 230.541 287.091C230.732 285.787 230.693 284.46 230.427 283.169Z" fill="#FFA8A7"/>
<path d="M227.929 276.93C226.459 276.933 225.013 277.293 223.713 277.978C222.414 278.664 221.3 279.654 220.467 280.865C217.628 284.693 218.77 284.379 221.082 288.988C221.362 283.604 227.161 280.457 230.22 281.152C229.755 279.602 228.975 278.165 227.929 276.93ZM222.712 265.227C222.09 263.624 220.253 260.478 217.722 260.377C215.811 260.297 214.555 260.852 212.992 262.381C211.543 263.811 210.654 264.552 210.654 264.552C212.491 265.675 219.352 268.921 222.712 265.227Z" fill="#455A64"/>
<path d="M214.275 278.347C215.724 275.741 216.319 272.815 215.697 271.186C216.018 273.457 214.508 276.095 213.172 277.385C213.44 277.598 213.907 278.026 214.275 278.347Z" fill="#F28F8F"/>
<path d="M147.675 235.561C151.516 238.233 172.478 240.571 182.926 234.613C187.054 241.326 188.637 247.739 189.779 256.463C190.922 265.187 191.903 275.307 191.903 275.307L196.893 271.793C196.893 271.793 200.641 270.638 204.048 275.748C207.455 280.858 205.778 287.211 205.778 287.211C205.778 287.211 193.547 300.35 187.595 302.822C181.643 305.294 175.998 305.541 171.884 296.69C168.584 289.589 165.304 277.358 165.304 277.358L159.472 294.278C159.472 294.278 161.957 296.95 163.393 306.048C164.369 312.194 165.972 321.306 165.972 321.306C165.972 321.306 160.955 329.555 148.751 329.141C148.751 329.141 137.849 303.644 136.199 298.52C134.549 293.397 135.27 288.647 137.014 280.284C138.757 271.92 147.675 235.561 147.675 235.561Z" fill="#B0FF1A"/>
<path opacity="0.3" d="M147.675 235.561C151.516 238.233 172.478 240.571 182.926 234.613C187.054 241.326 188.637 247.739 189.779 256.463C190.922 265.187 191.903 275.307 191.903 275.307L196.893 271.793C196.893 271.793 200.641 270.638 204.048 275.748C207.455 280.858 205.778 287.211 205.778 287.211C205.778 287.211 193.547 300.35 187.595 302.822C181.643 305.294 175.998 305.541 171.884 296.69C168.584 289.589 165.304 277.358 165.304 277.358L159.472 294.278C159.472 294.278 161.957 296.95 163.393 306.048C164.369 312.194 165.972 321.306 165.972 321.306C165.972 321.306 160.955 329.555 148.751 329.141C148.751 329.141 137.849 303.644 136.199 298.52C134.549 293.397 135.27 288.647 137.014 280.284C138.757 271.92 147.675 235.561 147.675 235.561Z" fill="white"/>
<path d="M165.304 277.365L161.009 261.433C161.009 261.433 154.816 259.128 150.882 253.871C151.891 258.32 156.62 262.876 159.466 263.945L162.806 279.85L159.466 294.285L165.304 277.365Z" fill="#B0FF1A"/>
<path d="M191.903 275.307C192.625 280.544 192.003 285.641 191.021 288.28C194.014 283.296 194.281 277.592 193.941 273.878L191.903 275.307Z" fill="#B0FF1A"/>
<path d="M147.021 239.589C148.454 240.192 149.936 240.674 151.449 241.032L152.578 241.312L153.714 241.533C154.475 241.693 155.244 241.8 156.012 241.9C159.079 242.319 162.175 242.491 165.27 242.415C168.364 242.36 171.447 242.029 174.482 241.426L176.74 240.892L178.964 240.224L181.135 239.395L183.239 238.373C182.571 238.787 181.903 239.202 181.235 239.589L179.111 240.604L176.9 241.413L174.629 242.081C171.566 242.826 168.429 243.229 165.277 243.283C162.144 243.358 159.011 243.118 155.925 242.568C152.816 242.062 149.808 241.056 147.021 239.589Z" fill="#B0FF1A"/>
<path d="M134.99 181.774C143.453 199.249 145.978 202.148 146.914 208.106C152.418 208.447 164.95 197.371 159.652 193.624C157.922 192.408 154.696 189.309 154.202 188.28C154.202 188.28 148.056 177.104 144.041 169.342C143.881 165.334 145.057 149.149 146.139 143.664C146.342 142.754 146.866 141.948 147.615 141.393C149.753 139.743 150.848 137.505 152.371 135.548C153.56 134.018 154.663 133.544 154.442 133.13C154.155 132.582 153.106 131.754 151.53 132.422C150.735 132.756 148.791 134.606 148.116 134.86C147.441 135.114 148.684 132.001 150.735 128.895C151.904 127.118 152.572 125.515 152.325 124.032C152.211 123.364 151.723 122.869 151.196 123.036C151 123.113 150.821 123.226 150.668 123.37C150.757 123.135 150.781 122.88 150.738 122.632C150.694 122.384 150.585 122.152 150.421 121.961C149.853 121.233 149.192 121.56 148.691 122.121L148.023 122.876C147.691 122.686 147.305 122.617 146.928 122.681C146.552 122.744 146.209 122.936 145.958 123.223C145.765 123.424 145.29 124.012 145.29 124.012C144.723 123.718 143.814 123.404 142.779 124.626C141.581 125.851 140.512 127.194 139.586 128.634C138.866 129.833 138.288 131.11 137.862 132.442C137.314 133.756 136.943 135.138 136.76 136.55C136.453 140.451 136.94 140.171 135.818 145.121C134.061 152.909 131.857 161.887 131.055 169.897C130.815 172.569 132.652 176.951 134.99 181.774Z" fill="#FFA8A7"/>
<path d="M141.516 139.984C141.93 136.644 144.529 135.261 146.727 134.486C143.353 134.052 140.454 137.078 141.516 139.984Z" fill="#F28F8F"/>
<path d="M158.624 192.802C158.751 190.798 157.628 188.607 155.678 186.35C153.727 184.092 145.444 169.429 145.444 169.429C145.444 169.429 145.705 158.741 145.604 157.151C145.504 155.561 144.823 155.04 144.823 155.04L144.649 157.165C144.649 157.165 143.053 158.454 138.965 157.793C134.876 157.131 133.621 155.047 133.621 155.047L133.995 153.35C133.995 153.35 132.939 152.722 132.345 155.695C131.677 158.968 129.339 169.055 129.766 171.787C130.194 174.519 131.249 177.699 133.774 183.143C136.299 188.587 142.151 199.596 142.592 202.602C143.033 205.608 142.044 210.037 142.044 210.037L158.624 192.802Z" fill="#E0E0E0"/>
<path d="M144.596 157.165L144.876 153.825C144.876 153.825 143.453 154.833 139.532 154.085C137.615 153.797 135.82 152.965 134.362 151.687L133.614 155.027C133.614 155.027 135.137 157.165 138.958 157.772C142.779 158.38 144.596 157.165 144.596 157.165Z" fill="#B0FF1A"/>
<path d="M150.915 236.837C149.777 236.589 148.685 236.161 147.682 235.568C147.682 235.568 146.907 238.701 145.778 243.35C141.964 242.014 137.315 239.255 134.709 233.784C135.945 214.112 144.997 200.451 158.57 192.809C160.528 193.905 161.376 193.824 161.376 193.824C161.376 193.824 151.069 206.911 150.02 216.383C149.426 221.887 150.18 230.551 150.915 236.837Z" fill="#37474F"/>
<path d="M182.004 235.107C171.777 240.21 153.173 238.34 148.277 235.915C148.277 235.762 148.343 235.588 148.377 235.421C149.833 228.621 147.368 219.155 147.368 219.155L181.336 226.59C179.613 231.226 180.114 232.014 182.004 235.06V235.107Z" fill="#FFA8A7"/>
<path d="M147.522 228.901C147.522 227.565 146.399 221.967 146.586 219.135C144.97 216.951 143.139 213.791 144.409 209.97C145.551 206.503 147.154 204.285 151.757 200.037C155.524 196.583 161.349 193.831 161.349 193.831C162.932 194.038 165.083 192.829 165.083 192.829L175.871 192.268C175.745 193.998 177.441 193.838 179.425 193.324C181.115 192.883 182.712 193.851 185.157 194.352C186.94 194.72 188.924 205 186.66 211.052C184.756 216.149 182.264 224.025 181.783 228.42C174.535 234.011 152.612 231.587 147.522 228.901Z" fill="#455A64"/>
<path d="M155.424 219.289C157.668 222.047 166.292 225.888 172.518 220.952C170.835 226.984 157.348 226.884 155.424 219.289Z" fill="#37474F"/>
<path d="M177.555 193.671C177.555 193.671 177.361 200.564 176.56 210.043C175.758 219.522 179.131 238.801 185.344 248.427C199.459 243.991 201.877 236.496 201.877 236.496C201.877 236.496 193.019 228.687 189.766 220.925C186.513 213.163 188.183 209.349 188.183 209.349C188.183 209.349 182.204 203.51 179.806 193.19C179.084 193.463 178.325 193.626 177.555 193.671Z" fill="#37474F"/>
<path d="M179.82 193.19C180.795 192.849 181.363 191.941 183.58 190.859C185.658 189.843 188.624 188.427 189.592 187.519C193.006 184.252 202.111 177.024 202.111 177.024C202.111 177.024 200.908 162.135 200.514 158.988C200.12 155.842 200.153 155.769 199.372 153.257C198.544 152.095 196.366 150.678 195.444 149.249C194.599 147.971 193.942 146.579 193.494 145.114C193.189 144.181 192.755 143.295 192.204 142.482C191.536 141.413 192.872 141.012 193.647 141.219C194.351 141.392 194.986 141.777 195.464 142.322C196.085 143.083 196.8 144.813 197.909 144.934C198.777 145.027 198.303 143.437 198.243 142.93C198.097 142.056 197.874 141.198 197.575 140.364C197.261 139.423 196.907 137.96 196.493 136.276C196.193 135.074 196.09 133.831 196.186 132.596C196.189 132.246 196.275 131.903 196.438 131.594C196.6 131.285 196.835 131.019 197.121 130.819C197.856 130.385 198.283 131.246 198.544 131.928C198.907 131.908 199.271 131.922 199.632 131.968C199.94 132.023 200.228 132.156 200.47 132.354C200.711 132.551 200.899 132.807 201.015 133.097C201.617 133.01 202.23 133.114 202.77 133.395C203.309 133.675 203.747 134.118 204.021 134.66C204.235 135.127 204.275 135.087 204.776 135.181C205.678 135.361 205.945 136.169 206.346 136.898C207.588 139.189 208.35 140.465 208.891 143.023C209.619 146.443 209.051 150.024 209.218 153.477C209.258 154.691 209.465 155.894 209.833 157.051C210.902 160.391 211.489 162.562 212.505 165.929C213.079 167.879 214.395 171.941 215.117 174.726C216.78 181.199 217.234 181.266 211.864 186.664C204.642 193.925 191.523 200.504 187.148 211.573C182.138 206.824 179.793 198.688 179.82 193.19Z" fill="#FFA8A7"/>
<path d="M199.799 145.268C202.117 145.722 203.841 149.142 204.168 151.453C205.257 148.227 202.859 144.82 199.799 145.268Z" fill="#F28F8F"/>
<path d="M202.111 177.011C202.378 178.481 203.554 183.103 205.798 183.992C202.512 183.678 201.403 179.269 201.209 177.752L202.111 177.011Z" fill="#F28F8F"/>
<path d="M179.82 193.19C181.156 190.839 181.383 190.919 186.032 188.794C190.681 186.67 200.608 176.984 200.608 176.984C200.608 176.984 198.497 163.19 200.942 163.297L201.055 164.573C201.055 164.573 204.462 166.457 208.023 165.334C211.583 164.212 211.683 163.117 211.683 163.117L211.282 161.74C211.282 161.74 212.238 160.885 213.253 163.978C214.268 167.071 217.375 176.61 217.114 180.177C216.854 183.744 214.89 185.114 210.815 189.249C206.74 193.384 188.557 207.245 187.776 212.903C183.013 209.616 178.537 201.032 179.82 193.19Z" fill="#E0E0E0"/>
<path d="M201.055 164.573L200.741 161.146C202.618 161.72 204.601 161.857 206.539 161.547C209.946 161.059 210.628 159.543 210.628 159.543L211.683 163.123C211.683 163.123 211.536 165.047 207.007 165.855C202.478 166.664 201.055 164.573 201.055 164.573Z" fill="#B0FF1A"/>
<path d="M156.807 190.912C159.566 192.395 163.7 192.328 165.564 191.687C168.324 191.773 171.085 191.585 173.807 191.126C173.807 191.126 177.916 191.861 180.648 190.591C183.38 189.322 183.233 185.915 183.233 185.915C183.233 185.915 185.023 187.966 183.006 189.736C186.847 190.518 188.497 186.497 187.628 183.831C186.459 180.197 184.582 179.316 184.956 174.913C185.33 170.511 185.364 166.477 181.329 164.96C181.047 164.306 180.802 163.637 180.594 162.956C180.242 162.278 179.812 161.643 179.312 161.066C178.228 159.832 176.909 158.828 175.431 158.113C172.124 156.463 168.383 156.363 164.743 156.403C160.267 156.457 155.391 157.833 152.765 161.747C152.25 162.506 151.918 163.374 151.796 164.283C151.674 165.192 151.766 166.117 152.064 166.984C152.612 168.367 153.721 169.589 154.068 171.066C154.509 173.13 152.418 174.987 151.236 176.41C149.399 178.587 147.194 183.557 151.977 187.659C151.236 186.156 151.697 183.217 152.699 182.315C152.111 184.74 152.238 188.467 156.807 190.912Z" fill="#B0FF1A"/>
<path opacity="0.2" d="M156.807 190.912C159.566 192.395 163.7 192.328 165.564 191.687C168.324 191.773 171.085 191.585 173.807 191.126C173.807 191.126 177.916 191.861 180.648 190.591C183.38 189.322 183.233 185.915 183.233 185.915C183.233 185.915 185.023 187.966 183.006 189.736C186.847 190.518 188.497 186.497 187.628 183.831C186.459 180.197 184.582 179.316 184.956 174.913C185.33 170.511 185.364 166.477 181.329 164.96C181.047 164.306 180.802 163.637 180.594 162.956C180.242 162.278 179.812 161.643 179.312 161.066C178.228 159.832 176.909 158.828 175.431 158.113C172.124 156.463 168.383 156.363 164.743 156.403C160.267 156.457 155.391 157.833 152.765 161.747C152.25 162.506 151.918 163.374 151.796 164.283C151.674 165.192 151.766 166.117 152.064 166.984C152.612 168.367 153.721 169.589 154.068 171.066C154.509 173.13 152.418 174.987 151.236 176.41C149.399 178.587 147.194 183.557 151.977 187.659C151.236 186.156 151.697 183.217 152.699 182.315C152.111 184.74 152.238 188.467 156.807 190.912Z" fill="black"/>
<path d="M176.059 190.585C176.219 186.864 176.379 184.573 176.379 184.573C176.807 185.321 179.051 185.969 181.509 183.791C182.449 182.934 183.043 181.763 183.179 180.498C183.316 179.233 182.986 177.962 182.251 176.924C180.728 175.027 178.243 175.147 176.66 177.646C174.976 177.846 173.868 175.909 174.569 172.602C174.743 170.812 173.941 166.971 171.897 165.708C169.612 164.286 166.219 166.123 165.164 166.283C164.458 166.394 163.737 166.356 163.047 166.172C162.357 165.988 161.712 165.661 161.156 165.214C160.04 164.493 158.029 164.546 156.867 166.597C155.992 168.347 155.01 170.819 154.729 175.949C154.369 182.629 155.397 185.969 157.836 187.752C159.051 188.627 160.414 189.088 163.019 189.249C163.019 189.249 162.972 190.171 162.946 191.981C162.944 192.422 162.784 192.848 162.495 193.182C162.205 193.515 161.806 193.734 161.369 193.798C160.033 195.194 156.446 200.538 163.24 201.213C172.832 202.161 176.6 194.613 177.548 193.637C175.765 193.23 175.992 191.887 176.059 190.585Z" fill="#FFA8A7"/>
<path d="M183.34 176.597C183.263 176.361 183.098 176.165 182.879 176.049C182.65 175.908 182.386 175.836 182.117 175.842C181.789 175.841 181.47 175.954 181.216 176.163C181.092 176.253 180.991 176.37 180.921 176.506C180.85 176.641 180.811 176.791 180.808 176.944C180.808 177.026 180.825 177.108 180.857 177.184C180.889 177.259 180.936 177.328 180.995 177.385C181.149 177.505 181.276 177.352 181.322 177.211C181.4 176.941 181.567 176.705 181.797 176.543C181.904 176.481 182.025 176.446 182.148 176.441C182.272 176.435 182.396 176.461 182.507 176.514C182.619 176.567 182.717 176.647 182.791 176.747C182.865 176.846 182.913 176.962 182.932 177.084C182.936 177.152 182.959 177.217 182.999 177.271C183.027 177.291 183.059 177.305 183.093 177.312C183.467 177.358 183.407 176.817 183.346 176.603L183.34 176.597Z" fill="#263238"/>
<path d="M183.801 177.873C183.764 177.756 183.704 177.647 183.625 177.553C183.546 177.459 183.449 177.382 183.34 177.325C183.086 177.168 182.788 177.094 182.49 177.114C182.192 177.135 181.907 177.248 181.677 177.439C181.553 177.529 181.452 177.646 181.382 177.782C181.311 177.917 181.272 178.067 181.269 178.22C181.269 178.302 181.286 178.384 181.318 178.459C181.35 178.535 181.397 178.604 181.456 178.661C181.603 178.781 181.73 178.661 181.783 178.487C181.858 178.217 182.023 177.981 182.251 177.819C182.359 177.757 182.48 177.721 182.604 177.715C182.729 177.709 182.853 177.734 182.966 177.786C183.079 177.839 183.177 177.92 183.251 178.02C183.326 178.12 183.375 178.237 183.393 178.36C183.393 178.42 183.393 178.501 183.46 178.547C183.487 178.569 183.52 178.582 183.554 178.587C183.928 178.628 183.868 178.086 183.807 177.879L183.801 177.873Z" fill="#263238"/>
<path d="M163.026 189.282C167.702 189.442 171.823 188.227 174.101 185.154C173.727 186.583 172.849 187.828 171.63 188.661C166.907 191.426 162.979 190.665 162.979 190.665L163.026 189.282Z" fill="#F28F8F"/>
<path d="M162.171 182.729L166.78 181.607C166.869 181.901 166.897 182.211 166.862 182.517C166.827 182.823 166.729 183.119 166.575 183.386C166.421 183.652 166.214 183.885 165.967 184.068C165.719 184.252 165.437 184.382 165.137 184.452C164.516 184.6 163.862 184.503 163.31 184.182C162.758 183.862 162.35 183.341 162.171 182.729Z" fill="#B16668"/>
<path d="M164.115 184.473C164.451 184.549 164.8 184.549 165.137 184.473C165.553 184.375 165.932 184.16 166.229 183.853C166.526 183.547 166.729 183.161 166.813 182.742C166.239 182.71 165.668 182.859 165.184 183.17C164.699 183.481 164.325 183.937 164.115 184.473Z" fill="#F28F8F"/>
<path d="M164.115 172.415L162.445 180.925L158.543 178.841L164.115 172.415Z" fill="#F28F8F"/>
<path d="M170.207 173.918C170.207 174.286 169.539 174.626 169.031 174.439C168.92 174.248 168.769 174.082 168.588 173.954C168.407 173.826 168.2 173.739 167.982 173.698C167.806 173.638 167.619 173.615 167.433 173.628C167.247 173.641 167.066 173.691 166.899 173.775C166.733 173.859 166.584 173.975 166.463 174.116C166.342 174.258 166.25 174.422 166.192 174.6C166.032 175.314 166.98 174.506 167.802 174.713C168.624 174.92 169.025 176.049 169.138 175.334C169.145 175.259 169.145 175.183 169.138 175.107C169.98 175.127 170.494 174.479 170.207 173.918Z" fill="#263238"/>
<path d="M156.707 172.569C156.64 172.93 157.221 173.404 157.749 173.324C157.898 173.161 158.079 173.032 158.282 172.946C158.485 172.859 158.704 172.817 158.924 172.823C159.11 172.801 159.298 172.817 159.478 172.869C159.658 172.922 159.825 173.009 159.97 173.127C160.116 173.244 160.237 173.389 160.325 173.554C160.414 173.718 160.469 173.899 160.487 174.085C160.487 174.813 159.733 173.825 158.891 173.851C158.049 173.878 157.415 174.9 157.441 174.172C157.434 174.099 157.434 174.025 157.441 173.952C156.693 173.805 156.306 173.056 156.707 172.569Z" fill="#263238"/>
<path d="M156.981 170.946L160.053 170.324C160.022 170.123 159.949 169.93 159.84 169.757C159.731 169.585 159.589 169.436 159.421 169.32C159.252 169.205 159.062 169.124 158.862 169.085C158.662 169.045 158.456 169.046 158.257 169.088C157.846 169.176 157.486 169.417 157.248 169.762C157.011 170.108 156.915 170.531 156.981 170.946Z" fill="#263238"/>
<path d="M170.648 172.662L167.896 171.086C167.991 170.902 168.122 170.739 168.282 170.608C168.441 170.476 168.626 170.379 168.825 170.321C169.023 170.262 169.232 170.245 169.437 170.27C169.642 170.295 169.841 170.361 170.02 170.464C170.385 170.681 170.654 171.03 170.771 171.438C170.888 171.847 170.844 172.285 170.648 172.662Z" fill="#263238"/>
<path d="M169.312 177.812C169.312 178.915 170.481 179.816 171.984 179.877C173.487 179.937 174.729 179.055 174.756 177.953C174.783 176.851 173.587 175.949 172.084 175.889C170.581 175.829 169.365 176.71 169.312 177.812Z" fill="#F28F8F"/>
<path d="M152.505 175.655C152.144 176.69 153.006 177.939 154.429 178.434C155.852 178.928 157.295 178.481 157.655 177.438C158.016 176.396 157.161 175.154 155.738 174.66C154.315 174.165 152.872 174.613 152.505 175.655Z" fill="#F28F8F"/>
<path d="M119.099 209.115C117.095 206.269 113.474 205.047 110.034 204.559C106.594 204.072 103.033 204.132 99.7133 203.076C96.7409 202.1 94.1192 200.274 92.1715 197.826C92.2562 197.08 92.1741 196.325 91.9311 195.615C93.414 195.688 94.6031 194.232 94.7634 192.756C94.7812 191.261 94.2754 189.808 93.3339 188.648C92.2837 187.157 90.9789 185.864 89.4795 184.827C83.9618 181.006 76.2665 180.879 70.3279 184.272C66.9879 186.169 63.9085 189.382 63.9886 193.464C61.7308 193.865 60.2745 196.309 59.9806 199.87C59.3126 207.539 60.5618 212.382 63.9352 217.739C67.4251 223.084 72.5602 227.148 78.5644 229.315C84.5547 231.447 90.9702 232.104 97.2684 231.233C94.8636 230.064 92.5924 228.728 91.7908 226.376C96.0782 227.279 100.482 227.491 104.837 227.004C109.419 226.49 114.129 225.067 117.348 221.754C120.568 218.44 121.757 212.889 119.099 209.115Z" fill="#263238"/>
<path d="M127.448 201.239C128.631 205.007 127.682 206.109 122.699 211.446C114.683 220.05 103.901 230.15 103.901 230.15L92.5454 218.734C96.0391 217.398 98.4038 216.663 100.161 215.074C107.355 208.561 112.592 203.617 114.189 201.82C114.189 201.82 108.845 186.597 108.063 184.833C107.281 183.07 105.224 181.767 104.763 181.393C101.583 178.855 101.229 177.385 99.7598 173.671C99.506 173.003 99.2588 172.402 99.0183 171.76C98.9081 171.449 98.781 171.143 98.6376 170.845C98.4906 170.571 98.377 170.338 98.6376 170.057C98.8499 169.872 99.1243 169.774 99.4058 169.783C99.8691 169.797 100.325 169.906 100.743 170.105C101.162 170.304 101.534 170.588 101.837 170.939C102.438 171.644 102.977 172.399 103.447 173.197C103.841 173.784 104.115 173.023 104.189 172.642C104.556 170.785 103.521 167.966 102.853 166.216C102.339 165.11 101.91 163.967 101.57 162.796C101.391 162.054 101.447 161.274 101.73 160.565C101.937 160.09 102.285 159.73 102.846 160.044C103.17 160.28 103.437 160.586 103.628 160.939C104.088 161.607 104.529 161.467 105.384 161.607C105.934 161.652 106.476 161.772 106.994 161.961C107.597 162.285 108.105 162.759 108.471 163.337C108.744 163.223 109.049 163.207 109.334 163.291C109.618 163.375 109.865 163.554 110.034 163.798C111.335 165.271 112.378 166.954 113.12 168.774C113.911 170.949 114.349 173.235 114.416 175.548C114.518 176.984 114.873 178.391 115.464 179.703C116.193 181.313 117.923 184.506 121.029 189.723C124.202 195.127 126.273 197.472 127.448 201.239Z" fill="#C8856A"/>
<path d="M105.531 174.379C106.619 174.756 107.6 175.388 108.392 176.223C109.185 177.057 109.766 178.07 110.087 179.175C110.162 177.968 109.783 176.777 109.025 175.835C108.585 175.35 108.045 174.969 107.441 174.717C106.837 174.465 106.185 174.35 105.531 174.379Z" fill="#AF6152"/>
<path d="M71.33 264.833C71.8615 262.252 72.0858 259.617 71.998 256.984C71.9513 254.372 70.5151 251.994 67.8898 245.815C65.5673 240.159 64.7458 233.999 65.5051 227.933C70.0025 225.453 74.7075 223.37 79.5665 221.707C83.8644 220.197 88.3432 219.262 92.8864 218.928C92.8864 218.928 100.515 224.753 105.538 230.638C108.932 234.646 109.426 240.237 105.806 244.339L105.866 253.444L108.999 262.936C108.999 262.936 108.611 267.779 95.839 269.763C83.0668 271.747 71.33 264.833 71.33 264.833Z" fill="#C8856A"/>
<path d="M71.2429 256.904C75.1574 258.206 82.4921 260.524 93.7746 259.035C105.057 257.545 106.887 254.011 106.887 254.011L106.593 244.659C106.593 244.659 109.713 240.511 108.451 235.621C107.188 230.731 103.841 226.757 92.5722 218.694C91.1012 218.947 89.6149 219.101 88.1233 219.155C83.5341 219.496 77.2817 221.466 72.2115 223.831C69.8281 224.906 67.5848 226.267 65.5315 227.886C64.6097 232.188 65.1708 235.601 66.0593 240.431C66.3866 242.228 67.1214 245.234 67.756 246.443C69.4773 249.718 70.655 253.251 71.2429 256.904Z" fill="#F5F5F5"/>
<path d="M83.668 247.886C85.9792 249.529 93.4141 250.638 97.1348 245.521C97.1282 250.498 86.7608 253.303 83.668 247.886Z" fill="#E0E0E0"/>
<path d="M47.5557 219.021C60.6753 236.717 62.9197 239.062 67.7293 246.463C71.4301 245.742 77.2884 232.562 70.4013 224.793C65.3604 219.469 60.9575 213.575 57.2818 207.231C56.9679 203.991 56.3132 188.701 56.8142 182.936C56.9211 181.979 57.3693 181.092 58.0767 180.438C60.0807 178.501 60.9692 176.076 62.3185 173.885C63.374 172.181 64.4561 171.58 64.1823 171.173C63.8282 170.638 62.6592 169.903 61.1095 170.765C60.3279 171.193 58.531 173.324 57.863 173.658C57.195 173.992 58.1369 170.645 59.867 167.231C60.8757 165.268 61.3767 163.544 60.9625 162.048C60.7688 161.34 60.2143 160.919 59.6933 161.153C59.4981 161.25 59.3252 161.386 59.1856 161.553C59.2495 161.301 59.2448 161.036 59.172 160.786C59.0992 160.536 58.9609 160.309 58.7715 160.131C58.1035 159.463 57.4355 159.85 57.0079 160.491L56.4201 161.34C56.0592 161.18 55.654 161.151 55.2739 161.257C54.8938 161.363 54.5622 161.598 54.3359 161.921C54.1556 162.148 53.7548 162.803 53.7548 162.803C53.1402 162.562 52.1716 162.348 51.2431 163.718C50.1467 165.111 49.1954 166.613 48.4041 168.2C47.8038 169.514 47.3556 170.892 47.0681 172.308C46.6576 173.723 46.433 175.185 46.4001 176.657C46.5203 180.705 46.7074 181.66 46.1062 186.877C45.1643 195.087 44.9773 197.231 43.7548 208.333C43.2805 212.455 43.4743 213.517 47.5557 219.021Z" fill="#C8856A"/>
<path d="M56.4199 173.718C54.0752 174.058 52.4119 177.131 51.9777 179.456C51.7439 176.53 52.8728 173.811 56.4199 173.718Z" fill="#AF6152"/>
<path d="M74.1019 220.665C73.6677 218.039 72.4319 212.114 72.4319 212.114C72.1313 212.923 69.9937 214.279 67.2014 212.528C66.1286 211.835 65.348 210.771 65.0081 209.539C64.6682 208.308 64.7926 206.994 65.3577 205.848C66.5535 203.724 69.005 203.444 70.989 205.655C72.6857 205.575 73.1533 203.998 71.4098 200.979C70.4279 197.291 74.2288 196.303 74.6697 191.059C80.1205 192.094 83.8881 188.808 87.9629 191.446C89.9735 194.155 91.3438 197.284 91.9709 200.598C93.4071 207.124 93.3069 210.464 91.2093 212.622C90.1539 213.684 88.8847 214.379 86.3329 214.933C86.3329 214.933 86.5333 215.835 86.854 217.605C87.0143 218.52 87.2748 219.195 88.1299 219.142C89.6596 220.304 93.7344 222.415 87.2748 224.619C78.9382 227.465 73.327 224.659 72.2181 223.851C73.9081 223.156 74.3156 221.947 74.1019 220.665Z" fill="#C8856A"/>
<path d="M86.3265 214.96C81.7306 215.882 77.4755 215.354 74.73 212.682C75.331 214.031 76.3984 215.117 77.736 215.742C82.8529 217.746 86.607 216.343 86.607 216.343L86.3265 214.96Z" fill="#AF6152"/>
<path d="M85.8923 207.852L81.1628 207.385C81.1159 207.688 81.1312 207.997 81.2077 208.294C81.2842 208.591 81.4204 208.869 81.6079 209.111C81.7954 209.354 82.0303 209.556 82.2983 209.704C82.5663 209.853 82.8618 209.946 83.1668 209.977C83.8066 210.039 84.4459 209.853 84.9529 209.458C85.4599 209.062 85.7961 208.488 85.8923 207.852Z" fill="#AF6152"/>
<path d="M84.2087 209.85C83.8813 209.966 83.5325 210.009 83.1867 209.977C82.763 209.936 82.3597 209.775 82.0238 209.514C81.6879 209.253 81.4333 208.901 81.2896 208.5C81.8563 208.388 82.4442 208.458 82.9687 208.7C83.4932 208.943 83.9273 209.345 84.2087 209.85Z" fill="#FFA8A7"/>
<path d="M77.0679 201.4C77.1306 201.649 77.2658 201.874 77.4565 202.046C77.6472 202.218 77.8847 202.329 78.1389 202.366C78.3931 202.403 78.6525 202.363 78.8842 202.252C79.1159 202.142 79.3093 201.964 79.4401 201.743C79.5709 201.522 79.633 201.267 79.6186 201.011C79.6042 200.754 79.5139 200.508 79.3592 200.303C79.2045 200.098 78.9924 199.944 78.7497 199.859C78.5071 199.775 78.2449 199.765 77.9965 199.83C77.8324 199.872 77.6782 199.946 77.5427 200.048C77.4073 200.149 77.2932 200.277 77.2069 200.422C77.1207 200.568 77.064 200.729 77.0402 200.897C77.0163 201.065 77.0258 201.236 77.0679 201.4Z" fill="#263238"/>
<path d="M86.6002 199.295C86.6628 199.544 86.7981 199.769 86.9888 199.941C87.1794 200.113 87.417 200.225 87.6711 200.262C87.9253 200.299 88.1847 200.259 88.4164 200.148C88.6481 200.037 88.8416 199.86 88.9723 199.639C89.1031 199.418 89.1652 199.163 89.1508 198.907C89.1364 198.65 89.0461 198.404 88.8914 198.199C88.7367 197.994 88.5246 197.839 88.282 197.755C88.0393 197.671 87.7771 197.661 87.5287 197.726C87.3646 197.768 87.2104 197.842 87.075 197.943C86.9395 198.045 86.8254 198.172 86.7392 198.318C86.6529 198.464 86.5963 198.625 86.5724 198.793C86.5486 198.961 86.558 199.131 86.6002 199.295Z" fill="#263238"/>
<path d="M82.1914 197.973L85.0371 206.169L88.6109 203.55L82.1914 197.973Z" fill="#AF6152"/>
<path d="M89.0984 196.002L86.0122 195.468C86.0388 195.265 86.1062 195.07 86.2104 194.895C86.3145 194.719 86.4532 194.566 86.6181 194.446C86.7829 194.325 86.9705 194.239 87.1695 194.193C87.3685 194.148 87.5747 194.142 87.7757 194.179C88.1886 194.254 88.5564 194.485 88.8028 194.825C89.0492 195.165 89.155 195.586 89.0984 196.002Z" fill="#263238"/>
<path d="M75.4979 199.375L78.0096 197.432C77.8894 197.263 77.7363 197.121 77.5596 197.013C77.3828 196.906 77.1861 196.835 76.9812 196.806C76.7764 196.776 76.5678 196.789 76.3679 196.843C76.1681 196.896 75.9812 196.99 75.8185 197.118C75.4847 197.38 75.2651 197.762 75.2054 198.182C75.1456 198.603 75.2504 199.03 75.4979 199.375Z" fill="#263238"/>
<path d="M78.2436 204.646C78.4507 205.735 77.4153 206.837 75.939 207.118C74.4627 207.398 73.0933 206.757 72.8862 205.668C72.6792 204.579 73.7145 203.477 75.1908 203.197C76.6671 202.916 78.0365 203.564 78.2436 204.646Z" fill="#AF6152"/>
<path d="M94.4961 199.79C95.0238 200.758 94.3759 202.121 93.0532 202.842C91.7306 203.564 90.2343 203.357 89.7132 202.388C89.1922 201.42 89.8335 200.05 91.1561 199.329C92.4788 198.607 93.9751 198.814 94.4961 199.79Z" fill="#AF6152"/>
<path d="M125.631 302.542C123.881 296.737 116.58 276.49 110.207 266.59L76.2193 269.502L97.1678 303.19C93.8278 302.522 86.7336 304.606 86.7336 304.606C80.5813 306.089 68.9314 310.23 64.0216 310.618C59.1118 311.005 59.2788 309.182 55.1973 309.809C52.198 310.27 50.8153 314.031 50.4479 317.318C50.0805 320.604 46.0324 325.548 44.1887 327.892C42.345 330.237 42.2849 333.083 43.5942 335.908C45.7184 340.464 48.9048 342.682 50.3477 343.256C52.7191 344.171 53.8346 342.642 53.8881 339.442C53.9415 336.69 59.0183 326.83 63.3269 323.998C65.9784 323.574 68.6579 323.351 71.3429 323.33C75.0436 323.33 95.1972 324.212 107.348 324.485C119.953 324.759 122.872 321.6 125.184 318.894C127.495 316.189 127.488 308.687 125.631 302.542Z" fill="#AF6152"/>
<path d="M111.37 266.49L76.293 269.496L98.9248 301.526C117.155 302.622 123.641 295.982 123.641 295.982C120.274 285.027 113.741 271.319 111.37 266.49Z" fill="#37474F"/>
<path d="M110.114 269.001L105.518 266.997L90.5613 268.28L79.1318 273.517L98.9247 301.526C103.618 301.869 108.335 301.583 112.953 300.678L107.609 283.884C110.528 279.643 111.864 274.619 110.114 269.001Z" fill="#263238"/>
<path d="M95.4111 297.164C98.9582 298.44 117.255 297.739 122.171 291.593L124.055 296.356C124.055 296.356 121.904 300.11 112.332 301.7C102.759 303.29 98.504 301.8 98.504 301.8L95.4111 297.164Z" fill="#263238"/>
<path d="M52.078 309.696C50.4013 309.883 50.4013 310.217 49.2791 312.622C48.1569 315.026 48.7514 318.34 47.4621 320.05C46.1729 321.76 42.3519 326.342 41.3232 328.52C40.2945 330.698 38.885 333.864 42.1916 339.555C45.4982 345.247 49.4194 346.169 50.4548 346.102C51.4902 346.035 53.1735 342.575 53.1735 342.575L52.078 309.696Z" fill="#263238"/>
<path d="M62.9729 310.685H61.7438C61.7438 310.685 60.4278 313.063 60.4278 314.793C60.476 315.576 60.3411 316.36 60.0339 317.082C59.7266 317.805 59.2554 318.446 58.6576 318.954C59.4002 318.618 60.2237 318.503 61.0301 318.621C61.8366 318.739 62.5921 319.087 63.2067 319.622C64.5427 320.885 66.0858 323.29 65.8186 324.238C65.5514 325.187 63.514 324.365 61.5167 326.022C59.5193 327.678 55.017 335.026 54.7431 336.656C54.4693 338.286 55.8119 343.109 51.5301 344.94C48.5307 344.525 43.808 340.698 42.2315 335.775C40.655 330.851 42.492 328.734 45.8253 324.171C49.1587 319.609 49.486 319.622 49.5862 316.904C49.6864 314.185 51.0558 311.306 52.0511 309.689C54.85 307.946 58.0631 308.948 59.6463 309.495C61.2294 310.043 62.9061 309.542 62.9729 310.685Z" fill="#37474F"/>
<path d="M41.9313 330.704C45.4584 329.235 54.0355 332.809 54.944 336.957C55.131 339.976 55.2646 343.637 51.604 345.167C47.4223 344.231 44.6968 340.858 43.4076 338.714C41.7576 335.968 40.9961 332.902 41.9313 330.704Z" fill="#EBEBEB"/>
<path d="M109.272 266.67L70.3344 270.01C69.506 275.661 69.6196 282.395 72.0311 288.64C75.5648 297.799 89.6796 317.258 89.6796 317.258C89.6796 317.258 85.6716 318.119 80.174 325.868C76.3597 331.212 73.1867 338.814 68.6777 343.503C67.0478 345.2 65.0438 345.307 62.9129 345.935C62.1187 346.124 61.3666 346.459 60.6951 346.923C60.1437 347.412 59.7042 348.015 59.4068 348.689C59.1094 349.364 58.961 350.094 58.9717 350.831C59.0033 352.303 59.162 353.769 59.446 355.213C59.7233 357.008 59.703 358.836 59.3858 360.624C58.7178 364.071 57.0211 367.11 56.9142 370.684C56.774 375.267 60.7619 378.106 64.3958 380.036C65.8721 380.831 67.8494 381.559 69.4326 380.571C70.6082 379.829 70.9088 378.213 70.655 376.843C70.4012 375.474 69.7332 374.218 69.4058 372.869C69.0876 371.101 69.0876 369.292 69.4058 367.525C69.5523 365.91 69.9025 364.321 70.4479 362.795C70.8162 361.926 71.2379 361.08 71.7104 360.263C72.5388 358.787 73.2535 356.923 74.3824 355.681C75.2375 354.746 76.1593 353.864 77.0544 353.009C81.9776 348.366 87.4418 344.325 92.6456 339.996C104.743 329.976 106.286 328.587 109.847 324.459C112.812 321.018 113.594 316.683 110.862 306.897C108.724 299.242 103.147 283.958 103.147 283.958C103.147 283.958 110.909 277.084 109.272 266.67Z" fill="#C8856A"/>
<path d="M109.933 266.616C96.8607 272.147 83.6076 272.027 70.2743 269.415C69.0319 276.302 68.5041 283.791 71.0091 289.228C74.3892 296.576 84.4226 309.936 84.4226 309.936C91.1026 299.883 105.485 296.543 108.751 299.916L104.075 283.884C104.075 283.884 111.323 277.037 109.933 266.616Z" fill="#455A64"/>
<path d="M79.0588 289.008C80.2086 288.723 81.2253 288.05 81.9378 287.104C84.2358 284.145 84.8169 278.186 83.6746 269.389L83.0868 269.462C84.2024 277.979 83.6412 283.951 81.4769 286.743C80.7654 287.701 79.7086 288.343 78.531 288.534C75.4649 281.052 75.8991 274.926 76.4402 269.502L75.839 269.556C75.2912 275.073 74.8771 281.312 78.0701 288.974C79.7201 292.916 83.4141 298.994 87.4221 305.334L87.8563 304.92C83.9886 298.807 80.4348 292.969 78.7515 289.081C78.8554 289.063 78.958 289.039 79.0588 289.008Z" fill="#263238"/>
<path d="M82.8394 308.427L85.8253 312.334C85.8253 312.334 90.8019 303.984 100.267 302.054C107.689 300.538 109.619 302.101 109.619 302.101L107.929 297.191C107.929 297.191 105.384 296.069 98.5774 297.338C92.5387 298.46 85.8854 301.92 82.8394 308.427Z" fill="#37474F"/>
<path d="M89.6795 317.258L88.751 317.612C88.5573 317.705 88.3502 317.805 88.083 317.946L91.6768 320.016L89.6795 317.258Z" fill="#AF6152"/>
<path d="M58.2372 346.723C56.654 347.471 56.7609 347.799 56.4737 350.551C56.1864 353.303 57.8965 356.356 57.2085 358.48C56.5204 360.604 54.3093 366.409 54.0421 368.921C53.7749 371.432 53.4543 375.013 58.6447 379.495C63.835 383.978 67.9967 383.557 68.9987 383.136C70.0007 382.715 70.4482 378.74 70.4482 378.74L58.2372 346.723Z" fill="#263238"/>
<path d="M68.678 343.503L68.0835 344.392C68.0835 344.392 67.6226 347.197 68.2171 348.901C68.527 349.653 68.6581 350.467 68.6002 351.278C68.5422 352.09 68.2967 352.876 67.8831 353.577C68.4987 353.002 69.2651 352.613 70.0931 352.457C70.921 352.301 71.7763 352.383 72.5591 352.695C74.2759 353.497 76.6339 355.334 76.694 356.356C76.7541 357.378 74.4696 357.264 73.0668 359.569C71.664 361.873 69.7268 370.638 70.0007 372.334C70.2745 374.031 73.2471 378.346 69.6466 381.579C66.5538 382.194 60.6019 380.023 57.3821 375.714C54.1624 371.406 55.2512 368.687 56.988 363.076C58.7248 357.465 59.0521 357.351 58.2238 354.639C57.3955 351.927 57.7762 348.627 58.2238 346.703C60.3881 344.031 63.8885 343.931 65.6386 343.931C67.3888 343.931 68.0501 342.548 68.678 343.503Z" fill="#37474F"/>
<path d="M55.3712 370.845C58.3438 368.173 68.003 368.841 70.301 372.588C71.51 375.494 72.8861 379.061 69.8066 381.8C65.3711 382.301 61.5502 379.896 59.5462 378.226C56.9877 376.088 55.2042 373.33 55.3712 370.845Z" fill="#EBEBEB"/>
<path d="M70.2744 269.415L71.3299 264.833C71.3299 264.833 84.2824 269.375 96.4066 267.772C106.887 266.383 109.246 262.762 109.246 262.762L111.37 266.49C111.37 266.49 110.321 270.838 96.6738 272.682C80.9624 274.813 70.2744 269.415 70.2744 269.415Z" fill="#37474F"/>
<path d="M238.537 167.452L240.908 170.578L244.83 170.404C244.925 170.399 245.02 170.421 245.103 170.468C245.187 170.514 245.256 170.583 245.302 170.667C245.348 170.75 245.369 170.846 245.364 170.941C245.358 171.036 245.326 171.128 245.27 171.206L243.026 174.426L244.402 178.1C244.436 178.189 244.445 178.285 244.427 178.378C244.409 178.472 244.365 178.558 244.3 178.628C244.235 178.697 244.152 178.747 244.06 178.772C243.969 178.797 243.872 178.795 243.781 178.768L240.02 177.626L236.954 180.077C236.879 180.138 236.789 180.176 236.694 180.188C236.598 180.199 236.502 180.183 236.415 180.142C236.328 180.101 236.255 180.036 236.204 179.954C236.153 179.873 236.125 179.779 236.126 179.683L236.052 175.762L232.772 173.597C232.692 173.546 232.627 173.472 232.587 173.386C232.546 173.299 232.531 173.202 232.543 173.108C232.555 173.013 232.593 172.923 232.654 172.849C232.715 172.775 232.795 172.719 232.886 172.689L236.6 171.406L237.642 167.619C237.668 167.528 237.718 167.445 237.788 167.382C237.858 167.318 237.944 167.275 238.038 167.257C238.131 167.24 238.227 167.249 238.315 167.283C238.403 167.318 238.48 167.376 238.537 167.452Z" fill="#B0FF1A"/>
<path d="M96.9141 142.208L98.4037 144.172L100.869 144.065C100.928 144.064 100.986 144.078 101.037 144.108C101.088 144.137 101.131 144.18 101.159 144.232C101.187 144.284 101.201 144.342 101.198 144.401C101.195 144.46 101.176 144.517 101.143 144.566L99.733 146.57L100.601 148.875C100.623 148.931 100.628 148.992 100.617 149.051C100.605 149.11 100.577 149.165 100.536 149.208C100.495 149.252 100.442 149.284 100.384 149.299C100.326 149.315 100.265 149.313 100.207 149.296L97.8359 148.601L95.9054 150.137C95.8584 150.175 95.8019 150.199 95.7421 150.205C95.6824 150.212 95.6219 150.202 95.5676 150.177C95.5132 150.151 95.4672 150.11 95.4348 150.06C95.4024 150.009 95.3849 149.95 95.3844 149.89L95.3376 147.425L93.2802 146.089C93.2291 146.056 93.1885 146.01 93.1628 145.955C93.1372 145.9 93.1277 145.839 93.1354 145.779C93.1431 145.719 93.1677 145.662 93.2063 145.615C93.2449 145.568 93.296 145.534 93.3536 145.515L95.685 144.713L96.353 142.335C96.3669 142.277 96.3969 142.224 96.4395 142.182C96.4821 142.14 96.5356 142.11 96.594 142.097C96.6524 142.084 96.7134 142.087 96.7699 142.107C96.8265 142.126 96.8764 142.162 96.9141 142.208Z" fill="#B0FF1A"/>
<path d="M203.246 318.66L204.736 320.664L207.214 320.557C207.274 320.555 207.333 320.568 207.385 320.597C207.438 320.626 207.481 320.669 207.51 320.721C207.539 320.773 207.553 320.832 207.55 320.892C207.548 320.952 207.529 321.009 207.495 321.058L206.072 323.062L206.947 325.38C206.969 325.437 206.974 325.498 206.962 325.557C206.951 325.616 206.923 325.67 206.882 325.714C206.841 325.758 206.788 325.789 206.73 325.805C206.672 325.82 206.61 325.819 206.553 325.801L204.182 325.08L202.238 326.63C202.191 326.667 202.134 326.691 202.074 326.698C202.015 326.705 201.954 326.695 201.9 326.669C201.846 326.643 201.8 326.603 201.767 326.552C201.735 326.501 201.717 326.443 201.717 326.382L201.67 323.904L199.599 322.535C199.55 322.501 199.511 322.455 199.487 322.401C199.462 322.347 199.454 322.287 199.461 322.228C199.469 322.169 199.493 322.114 199.53 322.068C199.567 322.022 199.617 321.987 199.673 321.967L202.044 321.172L202.712 318.787C202.729 318.735 202.759 318.687 202.8 318.65C202.84 318.612 202.89 318.586 202.943 318.573C202.997 318.56 203.053 318.561 203.106 318.577C203.16 318.592 203.208 318.621 203.246 318.66Z" fill="#B0FF1A"/>
<path d="M311.75 283.096L312.618 286.81L316.172 288.2C316.257 288.234 316.332 288.291 316.386 288.365C316.441 288.438 316.474 288.526 316.482 288.618C316.489 288.709 316.471 288.801 316.429 288.883C316.388 288.965 316.324 289.034 316.245 289.081L312.986 291.085L312.759 294.893C312.752 294.984 312.72 295.072 312.667 295.147C312.614 295.221 312.541 295.279 312.456 295.314C312.372 295.35 312.279 295.361 312.188 295.347C312.098 295.332 312.013 295.293 311.944 295.234L309.058 292.742L305.37 293.704C305.281 293.73 305.186 293.73 305.097 293.704C305.007 293.677 304.927 293.626 304.866 293.556C304.805 293.486 304.765 293.399 304.752 293.307C304.738 293.215 304.751 293.121 304.789 293.036L306.266 289.522L304.208 286.309C304.159 286.231 304.133 286.141 304.133 286.05C304.132 285.958 304.157 285.868 304.205 285.789C304.253 285.711 304.322 285.647 304.404 285.606C304.486 285.564 304.578 285.546 304.669 285.554L308.463 285.875L310.881 282.922C310.939 282.852 311.015 282.798 311.1 282.767C311.186 282.737 311.279 282.73 311.368 282.748C311.457 282.766 311.54 282.807 311.607 282.869C311.675 282.93 311.724 283.009 311.75 283.096Z" fill="#B0FF1A"/>
<path d="M45.0039 252.742L45.8723 256.456L49.4261 257.846C49.5114 257.88 49.5856 257.937 49.6403 258.011C49.695 258.085 49.728 258.172 49.7357 258.264C49.7433 258.355 49.7252 258.447 49.6835 258.529C49.6418 258.611 49.5781 258.68 49.4995 258.727L46.2397 260.731L46.0126 264.539C46.0073 264.631 45.9765 264.72 45.9235 264.795C45.8706 264.87 45.7976 264.929 45.7129 264.966C45.6281 265.002 45.535 265.013 45.444 264.999C45.3529 264.985 45.2676 264.946 45.1976 264.886L42.3119 262.388L38.6245 263.35C38.5355 263.373 38.4417 263.371 38.3538 263.344C38.2659 263.317 38.1873 263.266 38.1269 263.196C38.0665 263.127 38.0267 263.042 38.0119 262.951C37.9971 262.86 38.008 262.767 38.0433 262.682L39.5196 259.168L37.4622 255.955C37.4115 255.877 37.3839 255.787 37.3824 255.694C37.3809 255.601 37.4056 255.509 37.4538 255.43C37.5019 255.35 37.5714 255.286 37.6545 255.244C37.7375 255.203 37.8306 255.185 37.9231 255.194L41.7173 255.514L44.1355 252.568C44.1918 252.496 44.2673 252.44 44.3535 252.408C44.4398 252.376 44.5333 252.368 44.6235 252.386C44.7138 252.404 44.7972 252.447 44.8644 252.51C44.9316 252.573 44.9799 252.653 45.0039 252.742Z" fill="#B0FF1A"/>
<path d="M46.0124 277.398C46.0137 277.718 45.92 278.031 45.7432 278.298C45.5664 278.565 45.3144 278.773 45.0191 278.896C44.7238 279.02 44.3986 279.053 44.0846 278.991C43.7706 278.929 43.4819 278.776 43.2551 278.55C43.0284 278.324 42.8738 278.036 42.8109 277.723C42.7479 277.409 42.7796 277.083 42.9017 276.788C43.0239 276.492 43.2311 276.239 43.497 276.061C43.763 275.883 44.0758 275.788 44.3958 275.788C44.6078 275.787 44.8179 275.828 45.014 275.909C45.2101 275.989 45.3883 276.108 45.5385 276.257C45.6887 276.407 45.8079 276.585 45.8892 276.78C45.9705 276.976 46.0124 277.186 46.0124 277.398Z" fill="#B0FF1A"/>
<path d="M317.942 271.74C317.943 272.06 317.85 272.373 317.673 272.64C317.496 272.907 317.244 273.115 316.949 273.238C316.654 273.362 316.328 273.395 316.014 273.333C315.7 273.271 315.412 273.118 315.185 272.892C314.958 272.666 314.803 272.378 314.741 272.065C314.678 271.751 314.709 271.425 314.831 271.13C314.954 270.834 315.161 270.581 315.427 270.403C315.693 270.225 316.006 270.13 316.326 270.13C316.538 270.129 316.748 270.17 316.944 270.251C317.14 270.331 317.318 270.45 317.468 270.599C317.618 270.749 317.738 270.927 317.819 271.122C317.9 271.318 317.942 271.528 317.942 271.74Z" fill="#B0FF1A"/>
<path d="M83.6477 155.582C83.6464 155.762 83.5916 155.939 83.4902 156.088C83.3889 156.238 83.2455 156.354 83.0781 156.422C82.9108 156.49 82.727 156.508 82.5499 156.472C82.3728 156.436 82.2104 156.348 82.0831 156.22C81.9558 156.091 81.8693 155.928 81.8345 155.751C81.7997 155.574 81.8182 155.39 81.8877 155.223C81.9571 155.056 82.0744 154.914 82.2248 154.813C82.3751 154.713 82.5518 154.66 82.7325 154.66C82.8533 154.66 82.9728 154.684 83.0843 154.73C83.1958 154.776 83.2969 154.844 83.382 154.93C83.4671 155.016 83.5343 155.117 83.5799 155.229C83.6255 155.341 83.6486 155.461 83.6477 155.582Z" fill="#B0FF1A"/>
<path d="M193.006 336.349C193.563 336.349 194.014 335.897 194.014 335.34C194.014 334.783 193.563 334.332 193.006 334.332C192.449 334.332 191.997 334.783 191.997 335.34C191.997 335.897 192.449 336.349 193.006 336.349Z" fill="#B0FF1A"/>
<path d="M256.8 166.737C257.342 166.737 257.782 166.297 257.782 165.755C257.782 165.213 257.342 164.773 256.8 164.773C256.258 164.773 255.818 165.213 255.818 165.755C255.818 166.297 256.258 166.737 256.8 166.737Z" fill="#B0FF1A"/>
</svg>
