<svg width="58" height="58" fill="none" xmlns="http://www.w3.org/2000/svg"><path d="M53.166 40.89v7.25a4.835 4.835 0 0 1-5.268 4.833 47.825 47.825 0 0 1-20.856-7.419 47.126 47.126 0 0 1-14.5-14.5 47.826 47.826 0 0 1-7.419-20.952 4.833 4.833 0 0 1 4.81-5.269h7.25a4.834 4.834 0 0 1 4.833 4.157c.306 2.32.873 4.598 1.691 6.79a4.834 4.834 0 0 1-1.087 5.1l-3.07 3.07a38.668 38.668 0 0 0 14.5 14.5l3.07-3.07a4.833 4.833 0 0 1 5.099-1.088 31.026 31.026 0 0 0 6.79 1.692 4.834 4.834 0 0 1 4.157 4.906z" stroke="#122023" stroke-width="4" stroke-linecap="round" stroke-linejoin="round"/></svg>